<svg xmlns="http://www.w3.org/2000/svg" xmlns:xlink="http://www.w3.org/1999/xlink" fill="none" version="1.1" width="318.88671875" height="290.9638671875" viewBox="0 0 318.88671875 290.9638671875"><defs><linearGradient x1="-0.083123117685318" y1="0.1940765529870987" x2="-0.083123117685318" y2="1.2967610359191895" id="master_svg0_78_165052"><stop offset="0%" stop-color="#6BC1B7" stop-opacity="0.00009999999747378752"/><stop offset="100%" stop-color="#10DDFF" stop-opacity="1"/></linearGradient><linearGradient x1="-0.083123117685318" y1="0.1940765529870987" x2="-0.083123117685318" y2="1.2967610359191895" id="master_svg1_78_165052"><stop offset="0%" stop-color="#6BC1B7" stop-opacity="0.00009999999747378752"/><stop offset="100%" stop-color="#10DDFF" stop-opacity="1"/></linearGradient><linearGradient x1="0.18615978956222534" y1="0.9012430310249329" x2="0.8832976818084717" y2="0.9012430310249329" id="master_svg2_78_023903"><stop offset="0%" stop-color="#00272D" stop-opacity="1"/><stop offset="46.87372446060181%" stop-color="#004651" stop-opacity="1"/><stop offset="100%" stop-color="#002D34" stop-opacity="1"/></linearGradient><linearGradient x1="0.07592069357633591" y1="1" x2="1.0759207010269165" y2="0.848158597946167" id="master_svg3_78_023906"><stop offset="0%" stop-color="#0089A0" stop-opacity="0.4034688472747803"/><stop offset="53.85998487472534%" stop-color="#0FAFCC" stop-opacity="1"/><stop offset="100%" stop-color="#00849A" stop-opacity="0.13603584468364716"/></linearGradient><linearGradient x1="0.10644068568944931" y1="0.2553962171077728" x2="0.10886064171791077" y2="1.0012099742889404" id="master_svg4_78_023850"><stop offset="0%" stop-color="#1A83FF" stop-opacity="0.2389112412929535"/><stop offset="35.14942228794098%" stop-color="#25F0FF" stop-opacity="1"/><stop offset="72.7460503578186%" stop-color="#1CFFBD" stop-opacity="0.9350824952125549"/><stop offset="100%" stop-color="#FFFFFF" stop-opacity="1"/></linearGradient><linearGradient x1="0.011358518153429031" y1="0.022717028856277466" x2="0.011358518153429031" y2="1" id="master_svg5_78_165067"><stop offset="0%" stop-color="#25F0FF" stop-opacity="0.04992590472102165"/><stop offset="100%" stop-color="#EDFCFF" stop-opacity="1"/></linearGradient><linearGradient x1="-0.0972464308142662" y1="0" x2="-0.0972464308142662" y2="1.1944928169250488" id="master_svg6_78_165056"><stop offset="0%" stop-color="#25F0FF" stop-opacity="0.00009999999747378752"/><stop offset="100%" stop-color="#10DDFF" stop-opacity="1"/></linearGradient><linearGradient x1="-0.7544969916343689" y1="1.2333301305770874" x2="0.7121632099151611" y2="2.3765885829925537" id="master_svg7_78_165047"><stop offset="0%" stop-color="#25F0FF" stop-opacity="0.0294368714094162"/><stop offset="100%" stop-color="#10DDFF" stop-opacity="1"/></linearGradient><linearGradient x1="-0.7544969916343689" y1="1.2333301305770874" x2="0.7121632099151611" y2="2.3765885829925537" id="master_svg8_78_165047"><stop offset="0%" stop-color="#25F0FF" stop-opacity="0.0294368714094162"/><stop offset="100%" stop-color="#10DDFF" stop-opacity="1"/></linearGradient><linearGradient x1="-0.43561258912086487" y1="-0.8712252378463745" x2="-0.43561258912086487" y2="0.9999999403953552" id="master_svg9_78_165039"><stop offset="0%" stop-color="#25F0FF" stop-opacity="1"/><stop offset="100%" stop-color="#10DDFF" stop-opacity="0.00009999999747378752"/></linearGradient><linearGradient x1="-0.43561258912086487" y1="-0.8712252378463745" x2="-0.43561258912086487" y2="0.9999999403953552" id="master_svga_78_165039"><stop offset="0%" stop-color="#25F0FF" stop-opacity="1"/><stop offset="100%" stop-color="#10DDFF" stop-opacity="0.00009999999747378752"/></linearGradient><linearGradient x1="-0.43561258912086487" y1="-0.8712252378463745" x2="-0.43561258912086487" y2="0.9999999403953552" id="master_svgb_78_165039"><stop offset="0%" stop-color="#25F0FF" stop-opacity="1"/><stop offset="100%" stop-color="#10DDFF" stop-opacity="0.00009999999747378752"/></linearGradient><linearGradient x1="-0.43561258912086487" y1="-0.8712252378463745" x2="-0.43561258912086487" y2="0.9999999403953552" id="master_svgc_78_165039"><stop offset="0%" stop-color="#25F0FF" stop-opacity="1"/><stop offset="100%" stop-color="#10DDFF" stop-opacity="0.00009999999747378752"/></linearGradient><filter id="master_svgd_236_53404" filterUnits="objectBoundingBox" color-interpolation-filters="sRGB" x="-120" y="-120" width="265.4054069519043" height="248.64864921569824"><feFlood flood-opacity="0" result="BackgroundImageFix"/><feBlend mode="normal" in="SourceGraphic" in2="BackgroundImageFix" result="shape"/><feGaussianBlur stdDeviation="30" result="effect1_foregroundBlur"/></filter><filter id="master_svge_236_53405" filterUnits="objectBoundingBox" color-interpolation-filters="sRGB" x="-120" y="-120" width="272.432430267334" height="251.35135173797607"><feFlood flood-opacity="0" result="BackgroundImageFix"/><feBlend mode="normal" in="SourceGraphic" in2="BackgroundImageFix" result="shape"/><feGaussianBlur stdDeviation="30" result="effect1_foregroundBlur"/></filter><filter id="master_svgf_236_53406" filterUnits="objectBoundingBox" color-interpolation-filters="sRGB" x="-60" y="-60" width="152.43243408203125" height="127.5148434638977"><feFlood flood-opacity="0" result="BackgroundImageFix"/><feBlend mode="normal" in="SourceGraphic" in2="BackgroundImageFix" result="shape"/><feGaussianBlur stdDeviation="15" result="effect1_foregroundBlur"/></filter><filter id="master_svgg_236_53407" filterUnits="objectBoundingBox" color-interpolation-filters="sRGB" x="0" y="0" width="100" height="100"><feFlood flood-opacity="0" result="BackgroundImageFix"/><feBlend mode="normal" in="SourceGraphic" in2="BackgroundImageFix" result="shape"/><feColorMatrix in="SourceAlpha" type="matrix" result="hardAlpha" values="0 0 0 0 0 0 0 0 0 0 0 0 0 0 0 0 0 0 127 0"/><feOffset dy="0" dx="0"/><feGaussianBlur stdDeviation="10.5"/><feComposite in2="hardAlpha" operator="arithmetic" k2="-1" k3="1"/><feColorMatrix type="matrix" values="0 0 0 0 0.10687500238418579 0 0 0 0 0.4947125315666199 0 0 0 0 0.949999988079071 0 0 0 0.20999999344348907 0"/><feBlend mode="normal" in2="shape" result="effect1_innerShadow"/></filter><radialGradient cx="0" cy="0" r="1" gradientUnits="userSpaceOnUse" id="master_svgh_236_32768" gradientTransform="translate(160.238037109375 130.1533203125) rotate(180) scale(50 50)"><stop offset="0%" stop-color="#0074FF" stop-opacity="0.949999988079071"/><stop offset="100%" stop-color="#0D7AFC" stop-opacity="1"/></radialGradient><filter id="master_svgi_236_53409" filterUnits="objectBoundingBox" color-interpolation-filters="sRGB" x="0" y="0" width="84.8648681640625" height="84.8648681640625"><feFlood flood-opacity="0" result="BackgroundImageFix"/><feBlend mode="normal" in="SourceGraphic" in2="BackgroundImageFix" result="shape"/><feColorMatrix in="SourceAlpha" type="matrix" result="hardAlpha" values="0 0 0 0 0 0 0 0 0 0 0 0 0 0 0 0 0 0 127 0"/><feOffset dy="4" dx="0"/><feGaussianBlur stdDeviation="6.5"/><feComposite in2="hardAlpha" operator="arithmetic" k2="-1" k3="1"/><feColorMatrix type="matrix" values="0 0 0 0 0.4609791040420532 0 0 0 0 0.875 0 0 0 0 0.26614582538604736 0 0 0 0.25 0"/><feBlend mode="normal" in2="shape" result="effect1_innerShadow"/></filter><linearGradient x1="0.216560497879982" y1="0.09554139524698257" x2="0.7707006335258484" y2="0.9267516136169434" id="master_svgj_78_61710"><stop offset="0%" stop-color="#1B7EF2" stop-opacity="0"/><stop offset="52.947843074798584%" stop-color="#0D5CB9" stop-opacity="1"/><stop offset="100%" stop-color="#1B7EF2" stop-opacity="0"/></linearGradient></defs><g style="mix-blend-mode:passthrough"><g style="mix-blend-mode:passthrough"><g style="mix-blend-mode:passthrough"><g style="opacity:0.6000000238418579;"><path d="M108.166930109375,199.9899201751709C108.166930109375,199.9899201751709,108.062834109375,200.3544201751709,108.062834109375,200.3544201751709C108.062834109375,200.3544201751709,108.166930109375,199.9899201751709,108.166930109375,199.9899201751709C108.166930109375,199.9899201751709,108.166930109375,199.9899201751709,108.166930109375,199.9899201751709ZM151.352537109375,212.3290201751709C151.352537109375,212.3290201751709,151.248537109375,212.6936201751709,151.248537109375,212.6936201751709C151.248537109375,212.6936201751709,151.352537109375,212.3290201751709,151.352537109375,212.3290201751709C151.352537109375,212.3290201751709,151.352537109375,212.3290201751709,151.352537109375,212.3290201751709ZM210.893037109375,198.5221201751709C210.893037109375,198.5221201751709,210.808037109375,198.8915201751709,210.808037109375,198.8915201751709C210.808037109375,198.8915201751709,210.893037109375,198.5221201751709,210.893037109375,198.5221201751709C210.893037109375,198.5221201751709,210.893037109375,198.5221201751709,210.893037109375,198.5221201751709ZM210.930037109375,199.9901201751709C210.930037109375,199.9901201751709,211.03303710937502,200.3547201751709,211.03303710937502,200.3547201751709C211.03303710937502,200.3547201751709,210.930037109375,199.9901201751709,210.930037109375,199.9901201751709C210.930037109375,199.9901201751709,210.930037109375,199.9901201751709,210.930037109375,199.9901201751709ZM166.149637109375,188.1411901751709C166.149637109375,188.1411901751709,166.064037109375,188.51053017517089,166.064037109375,188.51053017517089C166.064037109375,188.51053017517089,166.149637109375,188.1411901751709,166.149637109375,188.1411901751709C166.149637109375,188.1411901751709,166.149637109375,188.1411901751709,166.149637109375,188.1411901751709ZM166.064037109375,188.51053017517089C166.064037109375,188.51053017517089,210.808037109375,198.8915201751709,210.808037109375,198.8915201751709C210.808037109375,198.8915201751709,210.97903710937499,198.1528201751709,210.97903710937499,198.1528201751709C210.97903710937499,198.1528201751709,166.235337109375,187.7718581751709,166.235337109375,187.7718581751709C166.235337109375,187.7718581751709,166.064037109375,188.51053017517089,166.064037109375,188.51053017517089C166.064037109375,188.51053017517089,166.064037109375,188.51053017517089,166.064037109375,188.51053017517089ZM210.826037109375,199.6254201751709C210.826037109375,199.6254201751709,167.462037109375,211.9718201751709,167.462037109375,211.9718201751709C167.462037109375,211.9718201751709,167.669637109375,212.7011201751709,167.669637109375,212.7011201751709C167.669637109375,212.7011201751709,211.03303710937502,200.3547201751709,211.03303710937502,200.3547201751709C211.03303710937502,200.3547201751709,210.826037109375,199.6254201751709,210.826037109375,199.6254201751709C210.826037109375,199.6254201751709,210.826037109375,199.6254201751709,210.826037109375,199.6254201751709ZM151.456737109375,211.9644201751709C151.456737109375,211.9644201751709,108.271037109375,199.62532017517088,108.271037109375,199.62532017517088C108.271037109375,199.62532017517088,108.062834109375,200.3544201751709,108.062834109375,200.3544201751709C108.062834109375,200.3544201751709,151.248537109375,212.6936201751709,151.248537109375,212.6936201751709C151.248537109375,212.6936201751709,151.456737109375,211.9644201751709,151.456737109375,211.9644201751709C151.456737109375,211.9644201751709,151.456737109375,211.9644201751709,151.456737109375,211.9644201751709ZM108.289207109375,198.8915201751709C108.289207109375,198.8915201751709,152.853737109375,188.5156601751709,152.853737109375,188.5156601751709C152.853737109375,188.5156601751709,152.68193710937499,187.7771211751709,152.68193710937499,187.7771211751709C152.68193710937499,187.7771211751709,108.117361109375,198.1530201751709,108.117361109375,198.1530201751709C108.117361109375,198.1530201751709,108.289207109375,198.8915201751709,108.289207109375,198.8915201751709C108.289207109375,198.8915201751709,108.289207109375,198.8915201751709,108.289207109375,198.8915201751709ZM108.271037109375,199.62532017517088C107.894934109375,199.5179201751709,107.908245109375,198.9802201751709,108.289207109375,198.8915201751709C108.289207109375,198.8915201751709,108.117361109375,198.1530201751709,108.117361109375,198.1530201751709C106.974486109375,198.4191201751709,106.934530109375,200.0321201751709,108.062834109375,200.3544201751709C108.062834109375,200.3544201751709,108.271037109375,199.62532017517088,108.271037109375,199.62532017517088C108.271037109375,199.62532017517088,108.271037109375,199.62532017517088,108.271037109375,199.62532017517088ZM167.462037109375,211.9718201751709C162.230437109375,213.4614201751709,156.686937109375,213.4588201751709,151.456737109375,211.9644201751709C151.456737109375,211.9644201751709,151.248537109375,212.6936201751709,151.248537109375,212.6936201751709C156.614537109375,214.2267201751709,162.302137109375,214.2294201751709,167.669637109375,212.7011201751709C167.669637109375,212.7011201751709,167.462037109375,211.9718201751709,167.462037109375,211.9718201751709C167.462037109375,211.9718201751709,167.462037109375,211.9718201751709,167.462037109375,211.9718201751709ZM210.808037109375,198.8915201751709C211.189037109375,198.9800201751709,211.203037109375,199.5183201751709,210.826037109375,199.6254201751709C210.826037109375,199.6254201751709,211.03303710937502,200.3547201751709,211.03303710937502,200.3547201751709C212.163037109375,200.0331201751709,212.123037109375,198.4182201751709,210.97903710937499,198.1528201751709C210.97903710937499,198.1528201751709,210.808037109375,198.8915201751709,210.808037109375,198.8915201751709C210.808037109375,198.8915201751709,210.808037109375,198.8915201751709,210.808037109375,198.8915201751709ZM166.235337109375,187.7718581751709C161.776437109375,186.7373661751709,157.139937109375,186.7391671751709,152.68193710937499,187.7771211751709C152.68193710937499,187.7771211751709,152.853737109375,188.5156601751709,152.853737109375,188.5156601751709C157.198937109375,187.5039821751709,161.718037109375,187.5022231751709,166.064037109375,188.51053017517089C166.064037109375,188.51053017517089,166.235337109375,187.7718581751709,166.235337109375,187.7718581751709C166.235337109375,187.7718581751709,166.235337109375,187.7718581751709,166.235337109375,187.7718581751709Z" fill="url(#master_svg0_78_165052)" fill-opacity="1"/></g><g style="opacity:0.20000000298023224;"><path d="M108.166930109375,205.2978558898926C108.166930109375,205.2978558898926,108.062834109375,205.66235588989258,108.062834109375,205.66235588989258C108.062834109375,205.66235588989258,108.166930109375,205.2978558898926,108.166930109375,205.2978558898926C108.166930109375,205.2978558898926,108.166930109375,205.2978558898926,108.166930109375,205.2978558898926ZM151.352537109375,217.6369558898926C151.352537109375,217.6369558898926,151.248537109375,218.0015558898926,151.248537109375,218.0015558898926C151.248537109375,218.0015558898926,151.352537109375,217.6369558898926,151.352537109375,217.6369558898926C151.352537109375,217.6369558898926,151.352537109375,217.6369558898926,151.352537109375,217.6369558898926ZM210.893037109375,203.83005588989258C210.893037109375,203.83005588989258,210.808037109375,204.1994558898926,210.808037109375,204.1994558898926C210.808037109375,204.1994558898926,210.893037109375,203.83005588989258,210.893037109375,203.83005588989258C210.893037109375,203.83005588989258,210.893037109375,203.83005588989258,210.893037109375,203.83005588989258ZM210.930037109375,205.29805588989257C210.930037109375,205.29805588989257,211.03303710937502,205.6626558898926,211.03303710937502,205.6626558898926C211.03303710937502,205.6626558898926,210.930037109375,205.29805588989257,210.930037109375,205.29805588989257C210.930037109375,205.29805588989257,210.930037109375,205.29805588989257,210.930037109375,205.29805588989257ZM166.149637109375,193.44912588989257C166.149637109375,193.44912588989257,166.064037109375,193.81846588989256,166.064037109375,193.81846588989256C166.064037109375,193.81846588989256,166.149637109375,193.44912588989257,166.149637109375,193.44912588989257C166.149637109375,193.44912588989257,166.149637109375,193.44912588989257,166.149637109375,193.44912588989257ZM166.064037109375,193.81846588989256C166.064037109375,193.81846588989256,210.808037109375,204.1994558898926,210.808037109375,204.1994558898926C210.808037109375,204.1994558898926,210.97903710937499,203.46075588989257,210.97903710937499,203.46075588989257C210.97903710937499,203.46075588989257,166.235337109375,193.07979388989258,166.235337109375,193.07979388989258C166.235337109375,193.07979388989258,166.064037109375,193.81846588989256,166.064037109375,193.81846588989256C166.064037109375,193.81846588989256,166.064037109375,193.81846588989256,166.064037109375,193.81846588989256ZM210.826037109375,204.93335588989257C210.826037109375,204.93335588989257,167.462037109375,217.27975588989258,167.462037109375,217.27975588989258C167.462037109375,217.27975588989258,167.669637109375,218.00905588989258,167.669637109375,218.00905588989258C167.669637109375,218.00905588989258,211.03303710937502,205.6626558898926,211.03303710937502,205.6626558898926C211.03303710937502,205.6626558898926,210.826037109375,204.93335588989257,210.826037109375,204.93335588989257C210.826037109375,204.93335588989257,210.826037109375,204.93335588989257,210.826037109375,204.93335588989257ZM151.456737109375,217.27235588989257C151.456737109375,217.27235588989257,108.271037109375,204.93325588989256,108.271037109375,204.93325588989256C108.271037109375,204.93325588989256,108.062834109375,205.66235588989258,108.062834109375,205.66235588989258C108.062834109375,205.66235588989258,151.248537109375,218.0015558898926,151.248537109375,218.0015558898926C151.248537109375,218.0015558898926,151.456737109375,217.27235588989257,151.456737109375,217.27235588989257C151.456737109375,217.27235588989257,151.456737109375,217.27235588989257,151.456737109375,217.27235588989257ZM108.289207109375,204.1994558898926C108.289207109375,204.1994558898926,152.853737109375,193.82359588989257,152.853737109375,193.82359588989257C152.853737109375,193.82359588989257,152.68193710937499,193.08505688989257,152.68193710937499,193.08505688989257C152.68193710937499,193.08505688989257,108.117361109375,203.46095588989257,108.117361109375,203.46095588989257C108.117361109375,203.46095588989257,108.289207109375,204.1994558898926,108.289207109375,204.1994558898926C108.289207109375,204.1994558898926,108.289207109375,204.1994558898926,108.289207109375,204.1994558898926ZM108.271037109375,204.93325588989256C107.894934109375,204.82585588989258,107.908245109375,204.28815588989258,108.289207109375,204.1994558898926C108.289207109375,204.1994558898926,108.117361109375,203.46095588989257,108.117361109375,203.46095588989257C106.974486109375,203.72705588989257,106.934530109375,205.34005588989257,108.062834109375,205.66235588989258C108.062834109375,205.66235588989258,108.271037109375,204.93325588989256,108.271037109375,204.93325588989256C108.271037109375,204.93325588989256,108.271037109375,204.93325588989256,108.271037109375,204.93325588989256ZM167.462037109375,217.27975588989258C162.230437109375,218.76935588989258,156.686937109375,218.76675588989258,151.456737109375,217.27235588989257C151.456737109375,217.27235588989257,151.248537109375,218.0015558898926,151.248537109375,218.0015558898926C156.614537109375,219.53465588989258,162.302137109375,219.53735588989258,167.669637109375,218.00905588989258C167.669637109375,218.00905588989258,167.462037109375,217.27975588989258,167.462037109375,217.27975588989258C167.462037109375,217.27975588989258,167.462037109375,217.27975588989258,167.462037109375,217.27975588989258ZM210.808037109375,204.1994558898926C211.189037109375,204.28795588989257,211.203037109375,204.8262558898926,210.826037109375,204.93335588989257C210.826037109375,204.93335588989257,211.03303710937502,205.6626558898926,211.03303710937502,205.6626558898926C212.163037109375,205.34105588989257,212.123037109375,203.72615588989257,210.97903710937499,203.46075588989257C210.97903710937499,203.46075588989257,210.808037109375,204.1994558898926,210.808037109375,204.1994558898926C210.808037109375,204.1994558898926,210.808037109375,204.1994558898926,210.808037109375,204.1994558898926ZM166.235337109375,193.07979388989258C161.776437109375,192.04530188989258,157.139937109375,192.04710288989259,152.68193710937499,193.08505688989257C152.68193710937499,193.08505688989257,152.853737109375,193.82359588989257,152.853737109375,193.82359588989257C157.198937109375,192.81191788989258,161.718037109375,192.8101588898926,166.064037109375,193.81846588989256C166.064037109375,193.81846588989256,166.235337109375,193.07979388989258,166.235337109375,193.07979388989258C166.235337109375,193.07979388989258,166.235337109375,193.07979388989258,166.235337109375,193.07979388989258Z" fill="url(#master_svg1_78_165052)" fill-opacity="1"/></g><g style="mix-blend-mode:passthrough"><path d="M166.18560720300675,185.76703397790527C162.00270720300674,184.84866797790528,157.67030720300676,184.85026697790528,153.48810720300673,185.77172097790526L139.58790720300675,188.8343229779053L107.62710720300674,188.8343229779053L107.62710720300674,196.27014297790527L107.73493920300675,196.27014297790527C107.64001680300674,196.63994297790526,107.81546420300674,197.0764429779053,108.27024920300674,197.19934297790527L152.13560720300674,209.05974297790527C157.17920720300674,210.42344297790527,162.49410720300673,210.42584297790526,167.53890720300674,209.06654297790527L211.58310720300676,197.19954297790528C212.03910720300675,197.07684297790527,212.21410720300673,196.64014297790527,212.11910720300676,196.27014297790527L212.23810720300673,196.27014297790527L212.23810720300673,188.8343229779053L180.15630720300675,188.8343229779053L166.18560720300675,185.76703397790527Z" fill-rule="evenodd" fill="url(#master_svg2_78_023903)" fill-opacity="1"/><path d="M166.07830720300674,186.25540297790528Q159.83650720300676,184.88498197790528,153.59570720300675,186.26001297790526L139.64230720300674,189.3343229779053L107.62710720300674,189.3343229779053L107.62710720300674,188.8343229779053L108.12710720300674,188.8343229779053L108.12710720300674,196.27014297790527L107.62710720300674,196.27014297790527L107.62710720300674,195.77014297790527L108.37948420300674,195.77014297790527L108.21924020300675,196.39444297790527Q108.15366720300675,196.64984297790528,108.40074220300674,196.71664297790528L152.26610720300675,208.57704297790528Q159.83680720300674,210.62394297790527,167.40880720300675,208.58374297790527L211.45310720300674,196.71674297790528Q211.70110720300676,196.6500429779053,211.63510720300673,196.39434297790527L211.47510720300676,195.77014297790527L212.23810720300673,195.77014297790527L212.23810720300673,196.27014297790527L211.73810720300673,196.27014297790527L211.73810720300673,188.8343229779053L212.23810720300673,188.8343229779053L212.23810720300673,189.3343229779053L180.10200720300674,189.3343229779053L166.07830720300674,186.25540297790528L166.07830720300674,186.25540297790528ZM166.29280720300676,185.27866597790526L180.26350720300672,188.34595297790528L180.15630720300675,188.8343229779053L180.15630720300675,188.3343229779053L212.73810720300673,188.3343229779053L212.73810720300673,196.77014297790527L212.11910720300676,196.77014297790527L212.11910720300676,196.27014297790527L212.60410720300675,196.14594297790526Q212.72710720300674,196.62554297790527,212.50110720300674,197.05864297790527Q212.25210720300674,197.53734297790527,211.71310720300676,197.68224297790528L167.66900720300674,209.54934297790527Q159.83640720300673,211.65974297790527,152.00510720300673,209.54234297790526L108.13975720300674,197.68204297790527Q107.60194490300674,197.53664297790527,107.35292220300674,197.05814297790528Q107.12759620300675,196.62514297790528,107.25063820300674,196.14584297790526L107.73493920300675,196.27014297790527L107.73493920300675,196.77014297790527L107.12710720300674,196.77014297790527L107.12710720300674,188.3343229779053L139.58790720300675,188.3343229779053L139.58790720300675,188.8343229779053L139.48030720300676,188.34603297790528L153.38060720300675,185.28343197790528Q159.83610720300675,183.86108297790528,166.29280720300676,185.27866697790526L166.29280720300676,185.27866597790526Z" fill="url(#master_svg3_78_023906)" fill-opacity="1"/></g><g style="mix-blend-mode:passthrough"><path d="M152.76776948280335,176.77223970654296C157.16936948280335,175.74742670654297,161.74726948280335,175.74564770654297,166.14966948280335,176.76704570654297C166.14966948280335,176.76704570654297,210.89306948280336,187.14801170654297,210.89306948280336,187.14801170654297C211.65606948280333,187.32501170654297,211.68206948280334,188.40161170654298,210.93006948280333,188.61591170654296C210.93006948280333,188.61591170654296,167.56586948280335,200.96231170654298,167.56586948280335,200.96231170654298C162.26626948280335,202.47121170654296,156.65076948280336,202.46871170654296,151.35256948280335,200.95481170654296C151.35256948280335,200.95481170654296,108.16693048280335,188.61581170654296,108.16693048280335,188.61581170654296C107.41473148280335,188.40081170654298,107.44136948280334,187.32551170654295,108.20328648280335,187.14811170654298C108.20328648280335,187.14811170654298,152.76776948280335,176.77223970654296,152.76776948280335,176.77223970654296C152.76776948280335,176.77223970654296,152.76776948280335,176.77223970654296,152.76776948280335,176.77223970654296Z" fill-rule="evenodd" fill="#001B1F" fill-opacity="1"/><path d="M108.08990448280335,186.66121170654296L152.65436948280336,176.28526470654296Q159.45796948280335,174.70122170654298,166.26266948280335,176.27998370654296L211.00606948280335,186.66091170654298Q211.45606948280334,186.76531170654297,211.72506948280335,187.11971170654297Q211.96906948280335,187.44201170654296,211.97906948280334,187.85561170654296Q211.99006948280334,188.26911170654296,211.76206948280333,188.60311170654296Q211.51106948280335,188.97041170654296,211.06706948280333,189.09681170654298L167.70276948280335,201.44321170654297Q159.45786948280335,203.79071170654296,151.21516948280333,201.43561170654297L108.02956648280335,189.09651170654297Q107.58587528280334,188.96971170654297,107.33522048280335,188.60271170654298Q107.10722948280335,188.26881170654298,107.11746848280335,187.85551170654296Q107.12770748280334,187.44211170654296,107.37196348280334,187.12001170654298Q107.64050568280335,186.76581170654296,108.08992548280334,186.66121170654296L108.08990448280335,186.66121170654296ZM108.31664648280335,187.63511170654297Q108.12211248280335,187.68041170654297,108.11716148280334,187.88021170654298Q108.11221048280335,188.08011170654297,108.30429348280335,188.13501170654297L151.48996948280336,200.47411170654297Q159.45826948280336,202.75091170654298,167.42896948280335,200.48151170654296L210.79306948280333,188.13501170654297Q210.98506948280334,188.08031170654297,210.98006948280334,187.88031170654295Q210.97506948280335,187.68021170654296,210.78006948280336,187.63501170654297L166.03666948280335,177.25411170654297Q159.45836948280333,175.72787970654298,152.88116948280333,177.25921170654297L108.31666748280334,187.63511170654297L108.31664648280335,187.63511170654297Z" fill="url(#master_svg4_78_023850)" fill-opacity="1"/></g><g style="mix-blend-mode:passthrough"><path d="M150.80432565612793,197.2740054992676C150.80432565612793,197.2740054992676,150.60102565612794,198.00450549926757,150.60102565612794,198.00450549926757C150.60102565612794,198.00450549926757,150.80432565612793,197.2740054992676,150.80432565612793,197.2740054992676C150.80432565612793,197.2740054992676,150.80432565612793,197.2740054992676,150.80432565612793,197.2740054992676ZM197.92912565612792,187.11607549926757C197.92912565612792,187.11607549926757,197.76232565612793,187.85569549926757,197.76232565612793,187.85569549926757C197.76232565612793,187.85569549926757,197.92912565612792,187.11607549926757,197.92912565612792,187.11607549926757C197.92912565612792,187.11607549926757,197.92912565612792,187.11607549926757,197.92912565612792,187.11607549926757ZM197.96472565612794,188.58640549926758C197.96472565612794,188.58640549926758,197.76232565612793,187.85569549926757,197.76232565612793,187.85569549926757C197.76232565612793,187.85569549926757,197.96472565612794,188.58640549926758,197.96472565612794,188.58640549926758C197.96472565612794,188.58640549926758,197.96472565612794,188.58640549926758,197.96472565612794,188.58640549926758ZM152.19062565612793,179.73008549926757C152.19062565612793,179.73008549926757,152.02282565612794,178.99060749926758,152.02282565612794,178.99060749926758C152.02282565612794,178.99060749926758,152.19062565612793,179.73008549926757,152.19062565612793,179.73008549926757C152.19062565612793,179.73008549926757,152.19062565612793,179.73008549926757,152.19062565612793,179.73008549926757ZM165.08622565612794,180.4647254992676C165.08622565612794,180.4647254992676,197.76232565612793,187.85569549926757,197.76232565612793,187.85569549926757C197.76232565612793,187.85569549926757,198.0966256561279,186.3765254992676,198.0966256561279,186.3765254992676C198.0966256561279,186.3765254992676,165.42062565612792,178.98552449926757,165.42062565612792,178.98552449926757C165.42062565612792,178.98552449926757,165.08622565612794,180.4647254992676,165.08622565612794,180.4647254992676C165.08622565612794,180.4647254992676,165.08622565612794,180.4647254992676,165.08622565612794,180.4647254992676ZM197.76232565612793,187.85569549926757C197.76232565612793,187.85569549926757,166.43782565612793,196.5505054992676,166.43782565612793,196.5505054992676C166.43782565612793,196.5505054992676,166.8432256561279,198.01190549926758,166.8432256561279,198.01190549926758C166.8432256561279,198.01190549926758,198.16712565612795,189.31700549926757,198.16712565612795,189.31700549926757C198.16712565612795,189.31700549926757,197.76232565612793,187.85569549926757,197.76232565612793,187.85569549926757C197.76232565612793,187.85569549926757,197.76232565612793,187.85569549926757,197.76232565612793,187.85569549926757ZM151.00772565612795,196.54360549926758C151.00772565612795,196.54360549926758,119.81874565612793,187.85569549926757,119.81874565612793,187.85569549926757C119.81874565612793,187.85569549926757,119.41202565612792,189.31670549926758,119.41202565612792,189.31670549926758C119.41202565612792,189.31670549926758,150.60102565612794,198.00450549926757,150.60102565612794,198.00450549926757C150.60102565612794,198.00450549926757,151.00772565612795,196.54360549926758,151.00772565612795,196.54360549926758C151.00772565612795,196.54360549926758,151.00772565612795,196.54360549926758,151.00772565612795,196.54360549926758ZM119.81875565612793,187.85569549926757C119.81875565612793,187.85569549926757,152.35832565612793,180.46955549926759,152.35832565612793,180.46955549926759C152.35832565612793,180.46955549926759,152.02282565612794,178.99060749926758,152.02282565612794,178.99060749926758C152.02282565612794,178.99060749926758,119.48324565612793,186.37675549926757,119.48324565612793,186.37675549926757C119.48324565612793,186.37675549926757,119.81875565612793,187.85569549926757,119.81875565612793,187.85569549926757C119.81875565612793,187.85569549926757,119.81875565612793,187.85569549926757,119.81875565612793,187.85569549926757ZM119.81874565612793,187.85569549926757C119.81874565612793,187.85569549926757,119.81875565612793,187.85569549926757,119.81875565612793,187.85569549926757C119.81875565612793,187.85569549926757,119.48324565612793,186.37675549926757,119.48324565612793,186.37675549926757C117.94786365612794,186.72525549926758,117.89530065612793,188.89410549926757,119.41202565612792,189.31670549926758C119.41202565612792,189.31670549926758,119.81874565612793,187.85569549926757,119.81874565612793,187.85569549926757C119.81874565612793,187.85569549926757,119.81874565612793,187.85569549926757,119.81874565612793,187.85569549926757ZM166.43782565612793,196.5505054992676C161.38952565612794,197.95180549926758,156.0547256561279,197.94940549926758,151.00772565612795,196.54360549926758C151.00772565612795,196.54360549926758,150.60102565612794,198.00450549926757,150.60102565612794,198.00450549926757C155.91372565612792,199.48440549926758,161.52922565612792,199.48700549926758,166.8432256561279,198.01190549926758C166.8432256561279,198.01190549926758,166.43782565612793,196.5505054992676,166.43782565612793,196.5505054992676C166.43782565612793,196.5505054992676,166.43782565612793,196.5505054992676,166.43782565612793,196.5505054992676ZM197.76232565612793,187.85569549926757C197.76232565612793,187.85569549926757,197.76232565612793,187.85569549926757,197.76232565612793,187.85569549926757C197.76232565612793,187.85569549926757,198.16712565612795,189.31700549926757,198.16712565612795,189.31700549926757C199.68552565612794,188.8956054992676,199.63322565612793,186.72411549926758,198.0966256561279,186.3765254992676C198.0966256561279,186.3765254992676,197.76232565612793,187.85569549926757,197.76232565612793,187.85569549926757C197.76232565612793,187.85569549926757,197.76232565612793,187.85569549926757,197.76232565612793,187.85569549926757ZM165.42062565612792,178.98552449926757C161.01012565612794,177.98791949926758,156.43252565612792,177.98965649926757,152.02282565612794,178.99060749926758C152.02282565612794,178.99060749926758,152.35832565612793,180.46955549926759,152.35832565612793,180.46955549926759C156.54752565612793,179.51865549926757,160.89632565612794,179.51700549926758,165.08622565612794,180.4647254992676C165.08622565612794,180.4647254992676,165.42062565612792,178.98552449926757,165.42062565612792,178.98552449926757C165.42062565612792,178.98552449926757,165.42062565612792,178.98552449926757,165.42062565612792,178.98552449926757Z" fill="#00343D" fill-opacity="1"/></g><g style="mix-blend-mode:passthrough"><path d="M158.76951928710938,185.83041381835938C158.76951928710938,185.83041381835938,173.57751928710937,189.57553381835936,173.57751928710937,189.57553381835936C173.57751928710937,189.57553381835936,158.76951928710938,194.17145381835937,158.76951928710938,194.17145381835937C158.76951928710938,194.17145381835937,144.01351928710938,189.57553381835936,144.01351928710938,189.57553381835936C144.01351928710938,189.57553381835936,158.76951928710938,185.83041381835938,158.76951928710938,185.83041381835938C158.76951928710938,185.83041381835938,158.76951928710938,185.83041381835938,158.76951928710938,185.83041381835938Z" fill-rule="evenodd" fill="#10DDFF" fill-opacity="1"/></g><g style="mix-blend-mode:passthrough"><path d="M158.76945670166015,185.83041725915527C158.76945670166015,185.83041725915527,158.86235670166016,185.46284545915526,158.86235670166016,185.46284545915526C158.86235670166016,185.46284545915526,158.76935670166017,185.43930625915527,158.76935670166017,185.43930625915527C158.76935670166017,185.43930625915527,158.67625670166015,185.46292355915529,158.67625670166015,185.46292355915529C158.67625670166015,185.46292355915529,158.76945670166015,185.83041725915527,158.76945670166015,185.83041725915527C158.76945670166015,185.83041725915527,158.76945670166015,185.83041725915527,158.76945670166015,185.83041725915527ZM173.57745670166017,189.57553625915529C173.57745670166017,189.57553625915529,173.68985670166015,189.9376462591553,173.68985670166015,189.9376462591553C173.68985670166015,189.9376462591553,174.97645670166014,189.53828625915529,174.97645670166014,189.53828625915529C174.97645670166014,189.53828625915529,173.67045670166016,189.20796625915528,173.67045670166016,189.20796625915528C173.67045670166016,189.20796625915528,173.57745670166017,189.57553625915529,173.57745670166017,189.57553625915529C173.57745670166017,189.57553625915529,173.57745670166017,189.57553625915529,173.57745670166017,189.57553625915529ZM158.76945670166015,194.17145625915526C158.76945670166015,194.17145625915526,158.65675670166016,194.5334562591553,158.65675670166016,194.5334562591553C158.65675670166016,194.5334562591553,158.76925670166017,194.56849625915527,158.76925670166017,194.56849625915527C158.76925670166017,194.56849625915527,158.88175670166015,194.53353625915528,158.88175670166015,194.53353625915528C158.88175670166015,194.53353625915528,158.76945670166015,194.17145625915526,158.76945670166015,194.17145625915526C158.76945670166015,194.17145625915526,158.76945670166015,194.17145625915526,158.76945670166015,194.17145625915526ZM144.01351670166017,189.57553625915529C144.01351670166017,189.57553625915529,143.92030670166017,189.20803625915528,143.92030670166017,189.20803625915528C143.92030670166017,189.20803625915528,142.61905670166016,189.53830625915526,142.61905670166016,189.53830625915526C142.61905670166016,189.53830625915526,143.90083670166015,189.93752625915528,143.90083670166015,189.93752625915528C143.90083670166015,189.93752625915528,144.01351670166017,189.57553625915529,144.01351670166017,189.57553625915529C144.01351670166017,189.57553625915529,144.01351670166017,189.57553625915529,144.01351670166017,189.57553625915529ZM158.67655670166016,186.19798825915527C158.67655670166016,186.19798825915527,173.48455670166015,189.9431062591553,173.48455670166015,189.9431062591553C173.48455670166015,189.9431062591553,173.67045670166016,189.20796625915528,173.67045670166016,189.20796625915528C173.67045670166016,189.20796625915528,158.86235670166016,185.46284545915526,158.86235670166016,185.46284545915526C158.86235670166016,185.46284545915526,158.67655670166016,186.19798825915527,158.67655670166016,186.19798825915527C158.67655670166016,186.19798825915527,158.67655670166016,186.19798825915527,158.67655670166016,186.19798825915527ZM173.46515670166016,189.21342625915528C173.46515670166016,189.21342625915528,158.65715670166014,193.80938625915527,158.65715670166014,193.80938625915527C158.65715670166014,193.80938625915527,158.88175670166015,194.53353625915528,158.88175670166015,194.53353625915528C158.88175670166015,194.53353625915528,173.68985670166015,189.9376462591553,173.68985670166015,189.9376462591553C173.68985670166015,189.9376462591553,173.46515670166016,189.21342625915528,173.46515670166016,189.21342625915528C173.46515670166016,189.21342625915528,173.46515670166016,189.21342625915528,173.46515670166016,189.21342625915528ZM158.88215670166016,193.80945625915527C158.88215670166016,193.80945625915527,144.12619670166015,189.21353625915526,144.12619670166015,189.21353625915526C144.12619670166015,189.21353625915526,143.90083670166015,189.93752625915528,143.90083670166015,189.93752625915528C143.90083670166015,189.93752625915528,158.65675670166016,194.5334562591553,158.65675670166016,194.5334562591553C158.65675670166016,194.5334562591553,158.88215670166016,193.80945625915527,158.88215670166016,193.80945625915527C158.88215670166016,193.80945625915527,158.88215670166016,193.80945625915527,158.88215670166016,193.80945625915527ZM144.10673670166017,189.94302625915526C144.10673670166017,189.94302625915526,158.86265670166017,186.19791025915526,158.86265670166017,186.19791025915526C158.86265670166017,186.19791025915526,158.67625670166015,185.46292355915529,158.67625670166015,185.46292355915529C158.67625670166015,185.46292355915529,143.92030670166017,189.20803625915528,143.92030670166017,189.20803625915528C143.92030670166017,189.20803625915528,144.10673670166017,189.94302625915526,144.10673670166017,189.94302625915526C144.10673670166017,189.94302625915526,144.10673670166017,189.94302625915526,144.10673670166017,189.94302625915526Z" fill="url(#master_svg5_78_165067)" fill-opacity="1"/></g><g style="opacity:0.39926207065582275;"><path d="M148.849387372303,189.99532031249998C148.849387372303,189.99532031249998,107.99608737230301,158.1533203125,107.99608737230301,158.1533203125C107.99608737230301,158.1533203125,211.091087372303,158.1533203125,211.091087372303,158.1533203125C211.091087372303,158.1533203125,174.495887372303,190.0009203125,174.495887372303,190.0009203125C174.495887372303,190.0009203125,148.849387372303,189.99532031249998,148.849387372303,189.99532031249998C148.849387372303,189.99532031249998,148.849387372303,189.99532031249998,148.849387372303,189.99532031249998Z" fill-rule="evenodd" fill="url(#master_svg6_78_165056)" fill-opacity="1"/></g><g style="mix-blend-mode:passthrough"><path d="M125.15872961572266,196.07963304853516C124.95629261572266,196.02633994853517,124.74899621572266,196.14729334853516,124.69571821572265,196.34979074853516C124.64244091572266,196.55228774853515,124.76335831572266,196.75964574853515,124.96579461572266,196.81293974853514C124.96579461572266,196.81293974853514,125.15872961572266,196.07963304853516,125.15872961572266,196.07963304853516C125.15872961572266,196.07963304853516,125.15872961572266,196.07963304853516,125.15872961572266,196.07963304853516ZM138.63104361572266,200.41045474853516C138.83354361572265,200.46374474853516,139.04074361572265,200.34279474853517,139.09404361572265,200.14029474853515C139.14734361572266,199.93780474853514,139.02644361572266,199.73044474853515,138.82394361572267,199.67715474853514C138.82394361572267,199.67715474853514,138.63104361572266,200.41045474853516,138.63104361572266,200.41045474853516C138.63104361572266,200.41045474853516,138.63104361572266,200.41045474853516,138.63104361572266,200.41045474853516ZM124.96579461572266,196.81293974853514C124.96579461572266,196.81293974853514,138.63104361572266,200.41045474853516,138.63104361572266,200.41045474853516C138.63104361572266,200.41045474853516,138.82394361572267,199.67715474853514,138.82394361572267,199.67715474853514C138.82394361572267,199.67715474853514,125.15872961572266,196.07963304853516,125.15872961572266,196.07963304853516C125.15872961572266,196.07963304853516,124.96579461572266,196.81293974853514,124.96579461572266,196.81293974853514C124.96579461572266,196.81293974853514,124.96579461572266,196.81293974853514,124.96579461572266,196.81293974853514Z" fill="url(#master_svg7_78_165047)" fill-opacity="1"/></g><g style="mix-blend-mode:passthrough"><path d="M125.15872961572266,199.11273699140625C124.95629261572266,199.05944389140626,124.74899621572266,199.18039729140625,124.69571821572265,199.38289469140625C124.64244091572266,199.58539169140624,124.76335831572266,199.79274969140624,124.96579461572266,199.84604369140624C124.96579461572266,199.84604369140624,125.15872961572266,199.11273699140625,125.15872961572266,199.11273699140625C125.15872961572266,199.11273699140625,125.15872961572266,199.11273699140625,125.15872961572266,199.11273699140625ZM138.63104361572266,203.44355869140625C138.83354361572265,203.49684869140626,139.04074361572265,203.37589869140626,139.09404361572265,203.17339869140625C139.14734361572266,202.97090869140624,139.02644361572266,202.76354869140624,138.82394361572267,202.71025869140624C138.82394361572267,202.71025869140624,138.63104361572266,203.44355869140625,138.63104361572266,203.44355869140625C138.63104361572266,203.44355869140625,138.63104361572266,203.44355869140625,138.63104361572266,203.44355869140625ZM124.96579461572266,199.84604369140624C124.96579461572266,199.84604369140624,138.63104361572266,203.44355869140625,138.63104361572266,203.44355869140625C138.63104361572266,203.44355869140625,138.82394361572267,202.71025869140624,138.82394361572267,202.71025869140624C138.82394361572267,202.71025869140624,125.15872961572266,199.11273699140625,125.15872961572266,199.11273699140625C125.15872961572266,199.11273699140625,124.96579461572266,199.84604369140624,124.96579461572266,199.84604369140624C124.96579461572266,199.84604369140624,124.96579461572266,199.84604369140624,124.96579461572266,199.84604369140624Z" fill="url(#master_svg8_78_165047)" fill-opacity="1"/></g><g style="mix-blend-mode:passthrough"><path d="M181.15798286132812,200.23766613720704C181.15798286132812,200.02827413720703,180.98828786132813,199.85852813720703,180.77895786132814,199.85852813720703C180.5696288613281,199.85852813720703,180.39993286132812,200.02827413720703,180.39993286132812,200.23766613720704C180.39993286132812,200.23766613720704,181.15798286132812,200.23766613720704,181.15798286132812,200.23766613720704C181.15798286132812,200.23766613720704,181.15798286132812,200.23766613720704,181.15798286132812,200.23766613720704ZM180.39993286132812,203.27076813720703C180.39993286132812,203.48015813720704,180.5696288613281,203.64990813720703,180.77895786132814,203.64990813720703C180.98828786132813,203.64990813720703,181.15798286132812,203.48015813720704,181.15798286132812,203.27076813720703C181.15798286132812,203.27076813720703,180.39993286132812,203.27076813720703,180.39993286132812,203.27076813720703C180.39993286132812,203.27076813720703,180.39993286132812,203.27076813720703,180.39993286132812,203.27076813720703ZM180.39993286132812,200.23766613720704C180.39993286132812,200.23766613720704,180.39993286132812,203.27076813720703,180.39993286132812,203.27076813720703C180.39993286132812,203.27076813720703,181.15798286132812,203.27076813720703,181.15798286132812,203.27076813720703C181.15798286132812,203.27076813720703,181.15798286132812,200.23766613720704,181.15798286132812,200.23766613720704C181.15798286132812,200.23766613720704,180.39993286132812,200.23766613720704,180.39993286132812,200.23766613720704C180.39993286132812,200.23766613720704,180.39993286132812,200.23766613720704,180.39993286132812,200.23766613720704Z" fill="url(#master_svg9_78_165039)" fill-opacity="1"/></g><g style="mix-blend-mode:passthrough"><path d="M182.67408088378906,200.23766613720704C182.67408088378906,200.02827413720703,182.50438588378907,199.85852813720703,182.29505588378908,199.85852813720703C182.08572688378905,199.85852813720703,181.91603088378906,200.02827413720703,181.91603088378906,200.23766613720704C181.91603088378906,200.23766613720704,182.67408088378906,200.23766613720704,182.67408088378906,200.23766613720704C182.67408088378906,200.23766613720704,182.67408088378906,200.23766613720704,182.67408088378906,200.23766613720704ZM181.91603088378906,203.27076813720703C181.91603088378906,203.48015813720704,182.08572688378905,203.64990813720703,182.29505588378908,203.64990813720703C182.50438588378907,203.64990813720703,182.67408088378906,203.48015813720704,182.67408088378906,203.27076813720703C182.67408088378906,203.27076813720703,181.91603088378906,203.27076813720703,181.91603088378906,203.27076813720703C181.91603088378906,203.27076813720703,181.91603088378906,203.27076813720703,181.91603088378906,203.27076813720703ZM181.91603088378906,200.23766613720704C181.91603088378906,200.23766613720704,181.91603088378906,203.27076813720703,181.91603088378906,203.27076813720703C181.91603088378906,203.27076813720703,182.67408088378906,203.27076813720703,182.67408088378906,203.27076813720703C182.67408088378906,203.27076813720703,182.67408088378906,200.23766613720704,182.67408088378906,200.23766613720704C182.67408088378906,200.23766613720704,181.91603088378906,200.23766613720704,181.91603088378906,200.23766613720704C181.91603088378906,200.23766613720704,181.91603088378906,200.23766613720704,181.91603088378906,200.23766613720704Z" fill="url(#master_svga_78_165039)" fill-opacity="1"/></g><g style="mix-blend-mode:passthrough"><path d="M185.70628455810547,200.23766613720704C185.70628455810547,200.02827413720703,185.53658955810548,199.85852813720703,185.32725955810548,199.85852813720703C185.11793055810546,199.85852813720703,184.94823455810547,200.02827413720703,184.94823455810547,200.23766613720704C184.94823455810547,200.23766613720704,185.70628455810547,200.23766613720704,185.70628455810547,200.23766613720704C185.70628455810547,200.23766613720704,185.70628455810547,200.23766613720704,185.70628455810547,200.23766613720704ZM184.94823455810547,203.27076813720703C184.94823455810547,203.48015813720704,185.11793055810546,203.64990813720703,185.32725955810548,203.64990813720703C185.53658955810548,203.64990813720703,185.70628455810547,203.48015813720704,185.70628455810547,203.27076813720703C185.70628455810547,203.27076813720703,184.94823455810547,203.27076813720703,184.94823455810547,203.27076813720703C184.94823455810547,203.27076813720703,184.94823455810547,203.27076813720703,184.94823455810547,203.27076813720703ZM184.94823455810547,200.23766613720704C184.94823455810547,200.23766613720704,184.94823455810547,203.27076813720703,184.94823455810547,203.27076813720703C184.94823455810547,203.27076813720703,185.70628455810547,203.27076813720703,185.70628455810547,203.27076813720703C185.70628455810547,203.27076813720703,185.70628455810547,200.23766613720704,185.70628455810547,200.23766613720704C185.70628455810547,200.23766613720704,184.94823455810547,200.23766613720704,184.94823455810547,200.23766613720704C184.94823455810547,200.23766613720704,184.94823455810547,200.23766613720704,184.94823455810547,200.23766613720704Z" fill="url(#master_svgb_78_165039)" fill-opacity="1"/></g><g style="mix-blend-mode:passthrough"><path d="M187.9804392211914,199.4793920588379C187.9804392211914,199.2700000588379,187.8107442211914,199.1002540588379,187.60141422119142,199.1002540588379C187.3920852211914,199.1002540588379,187.2223892211914,199.2700000588379,187.2223892211914,199.4793920588379C187.2223892211914,199.4793920588379,187.9804392211914,199.4793920588379,187.9804392211914,199.4793920588379C187.9804392211914,199.4793920588379,187.9804392211914,199.4793920588379,187.9804392211914,199.4793920588379ZM187.2223892211914,202.5124940588379C187.2223892211914,202.7218840588379,187.3920852211914,202.8916340588379,187.60141422119142,202.8916340588379C187.8107442211914,202.8916340588379,187.9804392211914,202.7218840588379,187.9804392211914,202.5124940588379C187.9804392211914,202.5124940588379,187.2223892211914,202.5124940588379,187.2223892211914,202.5124940588379C187.2223892211914,202.5124940588379,187.2223892211914,202.5124940588379,187.2223892211914,202.5124940588379ZM187.2223892211914,199.4793920588379C187.2223892211914,199.4793920588379,187.2223892211914,202.5124940588379,187.2223892211914,202.5124940588379C187.2223892211914,202.5124940588379,187.9804392211914,202.5124940588379,187.9804392211914,202.5124940588379C187.9804392211914,202.5124940588379,187.9804392211914,199.4793920588379,187.9804392211914,199.4793920588379C187.9804392211914,199.4793920588379,187.2223892211914,199.4793920588379,187.2223892211914,199.4793920588379C187.2223892211914,199.4793920588379,187.2223892211914,199.4793920588379,187.2223892211914,199.4793920588379Z" fill="url(#master_svgc_78_165039)" fill-opacity="1"/></g></g></g><g style="mix-blend-mode:passthrough"><g style="mix-blend-mode:passthrough"><g style="mix-blend-mode:passthrough"><g style="mix-blend-mode:passthrough" filter="url(#master_svgd_236_53404)"><ellipse cx="186.183988571167" cy="166.63980770111084" rx="12.702703475952148" ry="4.324324607849121" fill="#1B7EF2" fill-opacity="1"/></g><g style="mix-blend-mode:passthrough" transform="matrix(0.3348824083805084,0.9422599077224731,-0.9422599077224731,0.3348824083805084,199.99916833757698,-43.33560750360425)" filter="url(#master_svge_236_53405)"><ellipse cx="146.91218376159668" cy="125.67545461654663" rx="16.216215133666992" ry="5.675675868988037" fill="#1B7EF2" fill-opacity="1"/></g><g style="mix-blend-mode:passthrough" transform="matrix(0.4792020618915558,0.8777046203613281,-0.8777046203613281,0.4792020618915558,177.86792178003088,-113.51395714264294)" filter="url(#master_svgf_236_53406)"><path d="M217.0193140625,99.14268256530762C217.0193140625,102.46668256530762,210.8513140625,99.21473256530761,201.8953140625,99.21473256530761C192.9393440625,99.21473256530761,184.5869140625,102.46668256530762,184.5869140625,99.14268256530762C184.5869140625,95.81871256530762,191.8471840625,93.12408256530762,200.80311406250001,93.12408256530762C209.7591140625,93.12408256530762,217.0193140625,95.81871256530762,217.0193140625,99.14268256530762C217.0193140625,99.14268256530762,217.0193140625,99.14268256530762,217.0193140625,99.14268256530762Z" fill="#1B7EF2" fill-opacity="1"/></g><g style="opacity:0.800000011920929;mix-blend-mode:passthrough" filter="url(#master_svgg_236_53407)"><ellipse cx="160.238037109375" cy="130.1533203125" rx="50" ry="50" fill="url(#master_svgh_236_32768)" fill-opacity="0.23999999463558197"/></g><g style="mix-blend-mode:passthrough"><ellipse cx="160.23803997039795" cy="130.15332317352295" rx="45.67567825317383" ry="45.67567825317383" fill-opacity="0" stroke-opacity="0.6399999856948853" stroke="#FFFFFF" fill="none" stroke-width="2"/></g><g style="mix-blend-mode:passthrough" filter="url(#master_svgi_236_53409)"><ellipse cx="160.2380394935608" cy="130.1533226966858" rx="42.43243408203125" ry="42.43243408203125" fill="#081230" fill-opacity="0"/><ellipse cx="160.2380394935608" cy="130.1533226966858" rx="41.93243408203125" ry="41.93243408203125" stroke="url(#master_svgj_78_61710)" fill-opacity="0" fill="none" stroke-width="1"/></g></g></g></g></g></svg>
