<svg xmlns="http://www.w3.org/2000/svg" xmlns:xlink="http://www.w3.org/1999/xlink" fill="none" version="1.1" width="287.843017578125" height="250.1943359375" viewBox="0 0 287.843017578125 250.1943359375"><defs><linearGradient x1="-0.083123117685318" y1="0.1940765529870987" x2="-0.083123117685318" y2="1.2967610359191895" id="master_svg0_78_165052"><stop offset="0%" stop-color="#6BC1B7" stop-opacity="0.00009999999747378752"/><stop offset="100%" stop-color="#10DDFF" stop-opacity="1"/></linearGradient><linearGradient x1="-0.083123117685318" y1="0.1940765529870987" x2="-0.083123117685318" y2="1.2967610359191895" id="master_svg1_78_165052"><stop offset="0%" stop-color="#6BC1B7" stop-opacity="0.00009999999747378752"/><stop offset="100%" stop-color="#10DDFF" stop-opacity="1"/></linearGradient><linearGradient x1="0.18615978956222534" y1="0.9012430310249329" x2="0.8832976818084717" y2="0.9012430310249329" id="master_svg2_78_023903"><stop offset="0%" stop-color="#00272D" stop-opacity="1"/><stop offset="46.87372446060181%" stop-color="#004651" stop-opacity="1"/><stop offset="100%" stop-color="#002D34" stop-opacity="1"/></linearGradient><linearGradient x1="0.07592069357633591" y1="1" x2="1.0759207010269165" y2="0.848158597946167" id="master_svg3_78_023906"><stop offset="0%" stop-color="#0089A0" stop-opacity="0.4034688472747803"/><stop offset="53.85998487472534%" stop-color="#0FAFCC" stop-opacity="1"/><stop offset="100%" stop-color="#00849A" stop-opacity="0.13603584468364716"/></linearGradient><linearGradient x1="0.10644068568944931" y1="0.2553962171077728" x2="0.10886064171791077" y2="1.0012099742889404" id="master_svg4_78_023850"><stop offset="0%" stop-color="#1A83FF" stop-opacity="0.2389112412929535"/><stop offset="35.14942228794098%" stop-color="#25F0FF" stop-opacity="1"/><stop offset="72.7460503578186%" stop-color="#1CFFBD" stop-opacity="0.9350824952125549"/><stop offset="100%" stop-color="#FFFFFF" stop-opacity="1"/></linearGradient><linearGradient x1="0.011358518153429031" y1="0.022717028856277466" x2="0.011358518153429031" y2="1" id="master_svg5_78_165067"><stop offset="0%" stop-color="#25F0FF" stop-opacity="0.04992590472102165"/><stop offset="100%" stop-color="#EDFCFF" stop-opacity="1"/></linearGradient><linearGradient x1="-0.0972464308142662" y1="0" x2="-0.0972464308142662" y2="1.1944928169250488" id="master_svg6_78_165056"><stop offset="0%" stop-color="#25F0FF" stop-opacity="0.00009999999747378752"/><stop offset="100%" stop-color="#10DDFF" stop-opacity="1"/></linearGradient><linearGradient x1="-0.7544969916343689" y1="1.2333301305770874" x2="0.7121632099151611" y2="2.3765885829925537" id="master_svg7_78_165047"><stop offset="0%" stop-color="#25F0FF" stop-opacity="0.0294368714094162"/><stop offset="100%" stop-color="#10DDFF" stop-opacity="1"/></linearGradient><linearGradient x1="-0.7544969916343689" y1="1.2333301305770874" x2="0.7121632099151611" y2="2.3765885829925537" id="master_svg8_78_165047"><stop offset="0%" stop-color="#25F0FF" stop-opacity="0.0294368714094162"/><stop offset="100%" stop-color="#10DDFF" stop-opacity="1"/></linearGradient><linearGradient x1="-0.43561258912086487" y1="-0.8712252378463745" x2="-0.43561258912086487" y2="0.9999999403953552" id="master_svg9_78_165039"><stop offset="0%" stop-color="#25F0FF" stop-opacity="1"/><stop offset="100%" stop-color="#10DDFF" stop-opacity="0.00009999999747378752"/></linearGradient><linearGradient x1="-0.43561258912086487" y1="-0.8712252378463745" x2="-0.43561258912086487" y2="0.9999999403953552" id="master_svga_78_165039"><stop offset="0%" stop-color="#25F0FF" stop-opacity="1"/><stop offset="100%" stop-color="#10DDFF" stop-opacity="0.00009999999747378752"/></linearGradient><linearGradient x1="-0.43561258912086487" y1="-0.8712252378463745" x2="-0.43561258912086487" y2="0.9999999403953552" id="master_svgb_78_165039"><stop offset="0%" stop-color="#25F0FF" stop-opacity="1"/><stop offset="100%" stop-color="#10DDFF" stop-opacity="0.00009999999747378752"/></linearGradient><linearGradient x1="-0.43561258912086487" y1="-0.8712252378463745" x2="-0.43561258912086487" y2="0.9999999403953552" id="master_svgc_78_165039"><stop offset="0%" stop-color="#25F0FF" stop-opacity="1"/><stop offset="100%" stop-color="#10DDFF" stop-opacity="0.00009999999747378752"/></linearGradient><filter id="master_svgd_236_53481" filterUnits="objectBoundingBox" color-interpolation-filters="sRGB" x="-108.97296905517578" y="-108.97296905517578" width="254.07061004638672" height="230.61008167266846"><feFlood flood-opacity="0" result="BackgroundImageFix"/><feBlend mode="normal" in="SourceGraphic" in2="BackgroundImageFix" result="shape"/><feGaussianBlur stdDeviation="27.243242263793945" result="effect1_foregroundBlur"/></filter><filter id="master_svge_236_53482" filterUnits="objectBoundingBox" color-interpolation-filters="sRGB" x="0" y="0" width="99.99999237060547" height="100"><feFlood flood-opacity="0" result="BackgroundImageFix"/><feBlend mode="normal" in="SourceGraphic" in2="BackgroundImageFix" result="shape"/><feColorMatrix in="SourceAlpha" type="matrix" result="hardAlpha" values="0 0 0 0 0 0 0 0 0 0 0 0 0 0 0 0 0 0 127 0"/><feOffset dy="0" dx="0"/><feGaussianBlur stdDeviation="9.535135269165039"/><feComposite in2="hardAlpha" operator="arithmetic" k2="-1" k3="1"/><feColorMatrix type="matrix" values="0 0 0 0 0.27843135595321655 0 0 0 0 0.7372549176216125 0 0 0 0 0.4705882668495178 0 0 0 0.20000000298023224 0"/><feBlend mode="normal" in2="shape" result="effect1_innerShadow"/></filter><filter id="master_svgf_236_53484" filterUnits="objectBoundingBox" color-interpolation-filters="sRGB" x="0" y="0" width="84.51499938964844" height="84.38631439208984"><feFlood flood-opacity="0" result="BackgroundImageFix"/><feBlend mode="normal" in="SourceGraphic" in2="BackgroundImageFix" result="shape"/><feColorMatrix in="SourceAlpha" type="matrix" result="hardAlpha" values="0 0 0 0 0 0 0 0 0 0 0 0 0 0 0 0 0 0 127 0"/><feOffset dy="3.632432222366333" dx="0"/><feGaussianBlur stdDeviation="5.902702808380127"/><feComposite in2="hardAlpha" operator="arithmetic" k2="-1" k3="1"/><feColorMatrix type="matrix" values="0 0 0 0 0.4609791040420532 0 0 0 0 0.875 0 0 0 0 0.26614582538604736 0 0 0 0.25 0"/><feBlend mode="normal" in2="shape" result="effect1_innerShadow"/></filter><linearGradient x1="0.216560497879982" y1="0.09554139524698257" x2="0.7707006335258484" y2="0.9267516136169434" id="master_svgg_78_61725"><stop offset="0%" stop-color="#47BC78" stop-opacity="0"/><stop offset="52.947843074798584%" stop-color="#47BC78" stop-opacity="1"/><stop offset="100%" stop-color="#47BC78" stop-opacity="0"/></linearGradient><filter id="master_svgh_236_53485" filterUnits="objectBoundingBox" color-interpolation-filters="sRGB" x="-58" y="-58" width="137.0339870452881" height="120.86654090881348"><feFlood flood-opacity="0" result="BackgroundImageFix"/><feBlend mode="normal" in="SourceGraphic" in2="BackgroundImageFix" result="shape"/><feGaussianBlur stdDeviation="14.5" result="effect1_foregroundBlur"/></filter><filter id="master_svgi_236_53486" filterUnits="objectBoundingBox" color-interpolation-filters="sRGB" x="-108.97296905517578" y="-108.97296905517578" width="250.7770004272461" height="229.43727016448975"><feFlood flood-opacity="0" result="BackgroundImageFix"/><feBlend mode="normal" in="SourceGraphic" in2="BackgroundImageFix" result="shape"/><feGaussianBlur stdDeviation="27.243242263793945" result="effect1_foregroundBlur"/></filter></defs><g style="mix-blend-mode:passthrough"><g style="mix-blend-mode:passthrough"><g style="opacity:0.6000000238418579;"><path d="M92.975768,163.8405061126709C92.975768,163.8405061126709,92.871672,164.2050061126709,92.871672,164.2050061126709C92.871672,164.2050061126709,92.975768,163.8405061126709,92.975768,163.8405061126709C92.975768,163.8405061126709,92.975768,163.8405061126709,92.975768,163.8405061126709ZM136.161375,176.1796061126709C136.161375,176.1796061126709,136.057375,176.5442061126709,136.057375,176.5442061126709C136.057375,176.5442061126709,136.161375,176.1796061126709,136.161375,176.1796061126709C136.161375,176.1796061126709,136.161375,176.1796061126709,136.161375,176.1796061126709ZM195.701875,162.3727061126709C195.701875,162.3727061126709,195.616875,162.7421061126709,195.616875,162.7421061126709C195.616875,162.7421061126709,195.701875,162.3727061126709,195.701875,162.3727061126709C195.701875,162.3727061126709,195.701875,162.3727061126709,195.701875,162.3727061126709ZM195.738875,163.8407061126709C195.738875,163.8407061126709,195.84187500000002,164.2053061126709,195.84187500000002,164.2053061126709C195.84187500000002,164.2053061126709,195.738875,163.8407061126709,195.738875,163.8407061126709C195.738875,163.8407061126709,195.738875,163.8407061126709,195.738875,163.8407061126709ZM150.958475,151.9917761126709C150.958475,151.9917761126709,150.872875,152.36111611267089,150.872875,152.36111611267089C150.872875,152.36111611267089,150.958475,151.9917761126709,150.958475,151.9917761126709C150.958475,151.9917761126709,150.958475,151.9917761126709,150.958475,151.9917761126709ZM150.872875,152.36111611267089C150.872875,152.36111611267089,195.616875,162.7421061126709,195.616875,162.7421061126709C195.616875,162.7421061126709,195.78787499999999,162.0034061126709,195.78787499999999,162.0034061126709C195.78787499999999,162.0034061126709,151.044175,151.6224441126709,151.044175,151.6224441126709C151.044175,151.6224441126709,150.872875,152.36111611267089,150.872875,152.36111611267089C150.872875,152.36111611267089,150.872875,152.36111611267089,150.872875,152.36111611267089ZM195.634875,163.4760061126709C195.634875,163.4760061126709,152.270875,175.8224061126709,152.270875,175.8224061126709C152.270875,175.8224061126709,152.478475,176.5517061126709,152.478475,176.5517061126709C152.478475,176.5517061126709,195.84187500000002,164.2053061126709,195.84187500000002,164.2053061126709C195.84187500000002,164.2053061126709,195.634875,163.4760061126709,195.634875,163.4760061126709C195.634875,163.4760061126709,195.634875,163.4760061126709,195.634875,163.4760061126709ZM136.265575,175.8150061126709C136.265575,175.8150061126709,93.079875,163.47590611267088,93.079875,163.47590611267088C93.079875,163.47590611267088,92.871672,164.2050061126709,92.871672,164.2050061126709C92.871672,164.2050061126709,136.057375,176.5442061126709,136.057375,176.5442061126709C136.057375,176.5442061126709,136.265575,175.8150061126709,136.265575,175.8150061126709C136.265575,175.8150061126709,136.265575,175.8150061126709,136.265575,175.8150061126709ZM93.098045,162.7421061126709C93.098045,162.7421061126709,137.662575,152.3662461126709,137.662575,152.3662461126709C137.662575,152.3662461126709,137.49077499999999,151.6277071126709,137.49077499999999,151.6277071126709C137.49077499999999,151.6277071126709,92.926199,162.0036061126709,92.926199,162.0036061126709C92.926199,162.0036061126709,93.098045,162.7421061126709,93.098045,162.7421061126709C93.098045,162.7421061126709,93.098045,162.7421061126709,93.098045,162.7421061126709ZM93.079875,163.47590611267088C92.703772,163.3685061126709,92.717083,162.8308061126709,93.098045,162.7421061126709C93.098045,162.7421061126709,92.926199,162.0036061126709,92.926199,162.0036061126709C91.783324,162.2697061126709,91.743368,163.8827061126709,92.871672,164.2050061126709C92.871672,164.2050061126709,93.079875,163.47590611267088,93.079875,163.47590611267088C93.079875,163.47590611267088,93.079875,163.47590611267088,93.079875,163.47590611267088ZM152.270875,175.8224061126709C147.039275,177.3120061126709,141.495775,177.3094061126709,136.265575,175.8150061126709C136.265575,175.8150061126709,136.057375,176.5442061126709,136.057375,176.5442061126709C141.423375,178.0773061126709,147.110975,178.0800061126709,152.478475,176.5517061126709C152.478475,176.5517061126709,152.270875,175.8224061126709,152.270875,175.8224061126709C152.270875,175.8224061126709,152.270875,175.8224061126709,152.270875,175.8224061126709ZM195.616875,162.7421061126709C195.997875,162.8306061126709,196.011875,163.3689061126709,195.634875,163.4760061126709C195.634875,163.4760061126709,195.84187500000002,164.2053061126709,195.84187500000002,164.2053061126709C196.971875,163.8837061126709,196.931875,162.2688061126709,195.78787499999999,162.0034061126709C195.78787499999999,162.0034061126709,195.616875,162.7421061126709,195.616875,162.7421061126709C195.616875,162.7421061126709,195.616875,162.7421061126709,195.616875,162.7421061126709ZM151.044175,151.6224441126709C146.585275,150.5879521126709,141.948775,150.5897531126709,137.49077499999999,151.6277071126709C137.49077499999999,151.6277071126709,137.662575,152.3662461126709,137.662575,152.3662461126709C142.007775,151.3545681126709,146.526875,151.3528091126709,150.872875,152.36111611267089C150.872875,152.36111611267089,151.044175,151.6224441126709,151.044175,151.6224441126709C151.044175,151.6224441126709,151.044175,151.6224441126709,151.044175,151.6224441126709Z" fill="url(#master_svg0_78_165052)" fill-opacity="1"/></g><g style="opacity:0.20000000298023224;"><path d="M92.975768,169.1484418273926C92.975768,169.1484418273926,92.871672,169.51294182739258,92.871672,169.51294182739258C92.871672,169.51294182739258,92.975768,169.1484418273926,92.975768,169.1484418273926C92.975768,169.1484418273926,92.975768,169.1484418273926,92.975768,169.1484418273926ZM136.161375,181.4875418273926C136.161375,181.4875418273926,136.057375,181.8521418273926,136.057375,181.8521418273926C136.057375,181.8521418273926,136.161375,181.4875418273926,136.161375,181.4875418273926C136.161375,181.4875418273926,136.161375,181.4875418273926,136.161375,181.4875418273926ZM195.701875,167.68064182739258C195.701875,167.68064182739258,195.616875,168.0500418273926,195.616875,168.0500418273926C195.616875,168.0500418273926,195.701875,167.68064182739258,195.701875,167.68064182739258C195.701875,167.68064182739258,195.701875,167.68064182739258,195.701875,167.68064182739258ZM195.738875,169.14864182739257C195.738875,169.14864182739257,195.84187500000002,169.5132418273926,195.84187500000002,169.5132418273926C195.84187500000002,169.5132418273926,195.738875,169.14864182739257,195.738875,169.14864182739257C195.738875,169.14864182739257,195.738875,169.14864182739257,195.738875,169.14864182739257ZM150.958475,157.29971182739257C150.958475,157.29971182739257,150.872875,157.66905182739256,150.872875,157.66905182739256C150.872875,157.66905182739256,150.958475,157.29971182739257,150.958475,157.29971182739257C150.958475,157.29971182739257,150.958475,157.29971182739257,150.958475,157.29971182739257ZM150.872875,157.66905182739256C150.872875,157.66905182739256,195.616875,168.0500418273926,195.616875,168.0500418273926C195.616875,168.0500418273926,195.78787499999999,167.31134182739257,195.78787499999999,167.31134182739257C195.78787499999999,167.31134182739257,151.044175,156.93037982739258,151.044175,156.93037982739258C151.044175,156.93037982739258,150.872875,157.66905182739256,150.872875,157.66905182739256C150.872875,157.66905182739256,150.872875,157.66905182739256,150.872875,157.66905182739256ZM195.634875,168.78394182739257C195.634875,168.78394182739257,152.270875,181.13034182739258,152.270875,181.13034182739258C152.270875,181.13034182739258,152.478475,181.85964182739258,152.478475,181.85964182739258C152.478475,181.85964182739258,195.84187500000002,169.5132418273926,195.84187500000002,169.5132418273926C195.84187500000002,169.5132418273926,195.634875,168.78394182739257,195.634875,168.78394182739257C195.634875,168.78394182739257,195.634875,168.78394182739257,195.634875,168.78394182739257ZM136.265575,181.12294182739257C136.265575,181.12294182739257,93.079875,168.78384182739256,93.079875,168.78384182739256C93.079875,168.78384182739256,92.871672,169.51294182739258,92.871672,169.51294182739258C92.871672,169.51294182739258,136.057375,181.8521418273926,136.057375,181.8521418273926C136.057375,181.8521418273926,136.265575,181.12294182739257,136.265575,181.12294182739257C136.265575,181.12294182739257,136.265575,181.12294182739257,136.265575,181.12294182739257ZM93.098045,168.0500418273926C93.098045,168.0500418273926,137.662575,157.67418182739257,137.662575,157.67418182739257C137.662575,157.67418182739257,137.49077499999999,156.93564282739257,137.49077499999999,156.93564282739257C137.49077499999999,156.93564282739257,92.926199,167.31154182739257,92.926199,167.31154182739257C92.926199,167.31154182739257,93.098045,168.0500418273926,93.098045,168.0500418273926C93.098045,168.0500418273926,93.098045,168.0500418273926,93.098045,168.0500418273926ZM93.079875,168.78384182739256C92.703772,168.67644182739258,92.717083,168.13874182739258,93.098045,168.0500418273926C93.098045,168.0500418273926,92.926199,167.31154182739257,92.926199,167.31154182739257C91.783324,167.57764182739257,91.743368,169.19064182739257,92.871672,169.51294182739258C92.871672,169.51294182739258,93.079875,168.78384182739256,93.079875,168.78384182739256C93.079875,168.78384182739256,93.079875,168.78384182739256,93.079875,168.78384182739256ZM152.270875,181.13034182739258C147.039275,182.61994182739258,141.495775,182.61734182739258,136.265575,181.12294182739257C136.265575,181.12294182739257,136.057375,181.8521418273926,136.057375,181.8521418273926C141.423375,183.38524182739258,147.110975,183.38794182739258,152.478475,181.85964182739258C152.478475,181.85964182739258,152.270875,181.13034182739258,152.270875,181.13034182739258C152.270875,181.13034182739258,152.270875,181.13034182739258,152.270875,181.13034182739258ZM195.616875,168.0500418273926C195.997875,168.13854182739257,196.011875,168.6768418273926,195.634875,168.78394182739257C195.634875,168.78394182739257,195.84187500000002,169.5132418273926,195.84187500000002,169.5132418273926C196.971875,169.19164182739257,196.931875,167.57674182739257,195.78787499999999,167.31134182739257C195.78787499999999,167.31134182739257,195.616875,168.0500418273926,195.616875,168.0500418273926C195.616875,168.0500418273926,195.616875,168.0500418273926,195.616875,168.0500418273926ZM151.044175,156.93037982739258C146.585275,155.89588782739258,141.948775,155.89768882739259,137.49077499999999,156.93564282739257C137.49077499999999,156.93564282739257,137.662575,157.67418182739257,137.662575,157.67418182739257C142.007775,156.66250382739258,146.526875,156.6607448273926,150.872875,157.66905182739256C150.872875,157.66905182739256,151.044175,156.93037982739258,151.044175,156.93037982739258C151.044175,156.93037982739258,151.044175,156.93037982739258,151.044175,156.93037982739258Z" fill="url(#master_svg1_78_165052)" fill-opacity="1"/></g><g style="mix-blend-mode:passthrough"><path d="M150.99444506382943,149.61761991540527C146.8115450638294,148.69925391540528,142.47914506382944,148.70085291540528,138.2969450638294,149.62230691540526L124.39674506382943,152.6849089154053L92.43594506382942,152.6849089154053L92.43594506382942,160.12072891540527L92.54377706382942,160.12072891540527C92.44885466382942,160.49052891540526,92.62430206382942,160.9270289154053,93.07908706382942,161.04992891540527L136.94444506382942,172.91032891540527C141.98804506382942,174.27402891540527,147.3029450638294,174.27642891540526,152.34774506382942,172.91712891540527L196.39194506382944,161.05012891540528C196.84794506382943,160.92742891540527,197.0229450638294,160.49072891540527,196.92794506382944,160.12072891540527L197.0469450638294,160.12072891540527L197.0469450638294,152.6849089154053L164.96514506382942,152.6849089154053L150.99444506382943,149.61761991540527Z" fill-rule="evenodd" fill="url(#master_svg2_78_023903)" fill-opacity="1"/><path d="M150.88714506382942,150.10598891540528Q144.64534506382944,148.73556791540528,138.40454506382943,150.11059891540526L124.45114506382941,153.1849089154053L92.43594506382942,153.1849089154053L92.43594506382942,152.6849089154053L92.93594506382942,152.6849089154053L92.93594506382942,160.12072891540527L92.43594506382942,160.12072891540527L92.43594506382942,159.62072891540527L93.18832206382942,159.62072891540527L93.02807806382943,160.24502891540527Q92.96250506382943,160.50042891540528,93.20958006382942,160.56722891540528L137.07494506382943,172.42762891540528Q144.64564506382942,174.47452891540527,152.21764506382942,172.43432891540527L196.26194506382942,160.56732891540528Q196.50994506382943,160.5006289154053,196.4439450638294,160.24492891540527L196.28394506382944,159.62072891540527L197.0469450638294,159.62072891540527L197.0469450638294,160.12072891540527L196.5469450638294,160.12072891540527L196.5469450638294,152.6849089154053L197.0469450638294,152.6849089154053L197.0469450638294,153.1849089154053L164.9108450638294,153.1849089154053L150.88714506382942,150.10598891540528L150.88714506382942,150.10598891540528ZM151.10164506382944,149.12925191540526L165.0723450638294,152.19653891540528L164.96514506382942,152.6849089154053L164.96514506382942,152.1849089154053L197.5469450638294,152.1849089154053L197.5469450638294,160.62072891540527L196.92794506382944,160.62072891540527L196.92794506382944,160.12072891540527L197.41294506382943,159.99652891540526Q197.53594506382942,160.47612891540527,197.30994506382942,160.90922891540527Q197.06094506382942,161.38792891540527,196.52194506382943,161.53282891540528L152.47784506382942,173.39992891540527Q144.6452450638294,175.51032891540527,136.8139450638294,173.39292891540526L92.94859506382942,161.53262891540527Q92.41078276382942,161.38722891540527,92.16176006382942,160.90872891540528Q91.93643406382942,160.47572891540528,92.05947606382942,159.99642891540526L92.54377706382942,160.12072891540527L92.54377706382942,160.62072891540527L91.93594506382942,160.62072891540527L91.93594506382942,152.1849089154053L124.39674506382943,152.1849089154053L124.39674506382943,152.6849089154053L124.28914506382942,152.19661891540528L138.18944506382942,149.13401791540528Q144.64494506382943,147.71166891540528,151.10164506382944,149.12925291540526L151.10164506382944,149.12925191540526Z" fill="url(#master_svg3_78_023906)" fill-opacity="1"/></g><g style="mix-blend-mode:passthrough"><path d="M137.57660734362602,140.62282564404296C141.97820734362602,139.59801264404297,146.55610734362602,139.59623364404297,150.95850734362602,140.61763164404297C150.95850734362602,140.61763164404297,195.70190734362603,150.99859764404297,195.70190734362603,150.99859764404297C196.464907343626,151.17559764404297,196.49090734362602,152.25219764404298,195.738907343626,152.46649764404296C195.738907343626,152.46649764404296,152.37470734362603,164.81289764404298,152.37470734362603,164.81289764404298C147.07510734362603,166.32179764404296,141.45960734362603,166.31929764404296,136.16140734362602,164.80539764404296C136.16140734362602,164.80539764404296,92.97576834362603,152.46639764404296,92.97576834362603,152.46639764404296C92.22356934362602,152.25139764404298,92.25020734362602,151.17609764404295,93.01212434362603,150.99869764404298C93.01212434362603,150.99869764404298,137.57660734362602,140.62282564404296,137.57660734362602,140.62282564404296C137.57660734362602,140.62282564404296,137.57660734362602,140.62282564404296,137.57660734362602,140.62282564404296Z" fill-rule="evenodd" fill="#001B1F" fill-opacity="1"/><path d="M92.89874234362603,150.51179764404296L137.46320734362604,140.13585064404296Q144.26680734362603,138.55180764404298,151.07150734362602,140.13056964404296L195.81490734362603,150.51149764404298Q196.26490734362602,150.61589764404297,196.53390734362603,150.97029764404297Q196.77790734362603,151.29259764404296,196.78790734362602,151.70619764404296Q196.798907343626,152.11969764404296,196.570907343626,152.45369764404296Q196.31990734362603,152.82099764404296,195.875907343626,152.94739764404298L152.51160734362603,165.29379764404297Q144.26670734362602,167.64129764404296,136.024007343626,165.28619764404297L92.83840434362602,152.94709764404297Q92.39471314362602,152.82029764404297,92.14405834362603,152.45329764404298Q91.91606734362603,152.11939764404298,91.92630634362602,151.70609764404296Q91.93654534362602,151.29269764404296,92.18080134362602,150.97059764404298Q92.44934354362603,150.61639764404296,92.89876334362602,150.51179764404296L92.89874234362603,150.51179764404296ZM93.12548434362603,151.48569764404297Q92.93095034362602,151.53099764404297,92.92599934362602,151.73079764404298Q92.92104834362603,151.93069764404297,93.11313134362602,151.98559764404297L136.29880734362604,164.32469764404297Q144.26710734362604,166.60149764404298,152.23780734362603,164.33209764404296L195.601907343626,151.98559764404297Q195.79390734362602,151.93089764404297,195.78890734362602,151.73089764404295Q195.78390734362603,151.53079764404296,195.58890734362603,151.48559764404297L150.84550734362602,141.10469764404297Q144.267207343626,139.57846564404298,137.690007343626,141.10979764404297L93.12550534362602,151.48569764404297L93.12548434362603,151.48569764404297Z" fill="url(#master_svg4_78_023850)" fill-opacity="1"/></g><g style="mix-blend-mode:passthrough"><path d="M135.6131625930786,161.1245914367676C135.6131625930786,161.1245914367676,135.40986259307863,161.85509143676757,135.40986259307863,161.85509143676757C135.40986259307863,161.85509143676757,135.6131625930786,161.1245914367676,135.6131625930786,161.1245914367676C135.6131625930786,161.1245914367676,135.6131625930786,161.1245914367676,135.6131625930786,161.1245914367676ZM182.7379625930786,150.96666143676757C182.7379625930786,150.96666143676757,182.5711625930786,151.70628143676757,182.5711625930786,151.70628143676757C182.5711625930786,151.70628143676757,182.7379625930786,150.96666143676757,182.7379625930786,150.96666143676757C182.7379625930786,150.96666143676757,182.7379625930786,150.96666143676757,182.7379625930786,150.96666143676757ZM182.77356259307862,152.43699143676758C182.77356259307862,152.43699143676758,182.5711625930786,151.70628143676757,182.5711625930786,151.70628143676757C182.5711625930786,151.70628143676757,182.77356259307862,152.43699143676758,182.77356259307862,152.43699143676758C182.77356259307862,152.43699143676758,182.77356259307862,152.43699143676758,182.77356259307862,152.43699143676758ZM136.99946259307862,143.58067143676757C136.99946259307862,143.58067143676757,136.83166259307862,142.84119343676758,136.83166259307862,142.84119343676758C136.83166259307862,142.84119343676758,136.99946259307862,143.58067143676757,136.99946259307862,143.58067143676757C136.99946259307862,143.58067143676757,136.99946259307862,143.58067143676757,136.99946259307862,143.58067143676757ZM149.89506259307862,144.3153114367676C149.89506259307862,144.3153114367676,182.5711625930786,151.70628143676757,182.5711625930786,151.70628143676757C182.5711625930786,151.70628143676757,182.9054625930786,150.2271114367676,182.9054625930786,150.2271114367676C182.9054625930786,150.2271114367676,150.2294625930786,142.83611043676757,150.2294625930786,142.83611043676757C150.2294625930786,142.83611043676757,149.89506259307862,144.3153114367676,149.89506259307862,144.3153114367676C149.89506259307862,144.3153114367676,149.89506259307862,144.3153114367676,149.89506259307862,144.3153114367676ZM182.5711625930786,151.70628143676757C182.5711625930786,151.70628143676757,151.2466625930786,160.4010914367676,151.2466625930786,160.4010914367676C151.2466625930786,160.4010914367676,151.6520625930786,161.86249143676758,151.6520625930786,161.86249143676758C151.6520625930786,161.86249143676758,182.97596259307863,153.16759143676757,182.97596259307863,153.16759143676757C182.97596259307863,153.16759143676757,182.5711625930786,151.70628143676757,182.5711625930786,151.70628143676757C182.5711625930786,151.70628143676757,182.5711625930786,151.70628143676757,182.5711625930786,151.70628143676757ZM135.81656259307863,160.39419143676758C135.81656259307863,160.39419143676758,104.62758259307861,151.70628143676757,104.62758259307861,151.70628143676757C104.62758259307861,151.70628143676757,104.2208625930786,153.16729143676758,104.2208625930786,153.16729143676758C104.2208625930786,153.16729143676758,135.40986259307863,161.85509143676757,135.40986259307863,161.85509143676757C135.40986259307863,161.85509143676757,135.81656259307863,160.39419143676758,135.81656259307863,160.39419143676758C135.81656259307863,160.39419143676758,135.81656259307863,160.39419143676758,135.81656259307863,160.39419143676758ZM104.62759259307862,151.70628143676757C104.62759259307862,151.70628143676757,137.16716259307861,144.32014143676759,137.16716259307861,144.32014143676759C137.16716259307861,144.32014143676759,136.83166259307862,142.84119343676758,136.83166259307862,142.84119343676758C136.83166259307862,142.84119343676758,104.29208259307862,150.22734143676757,104.29208259307862,150.22734143676757C104.29208259307862,150.22734143676757,104.62759259307862,151.70628143676757,104.62759259307862,151.70628143676757C104.62759259307862,151.70628143676757,104.62759259307862,151.70628143676757,104.62759259307862,151.70628143676757ZM104.62758259307861,151.70628143676757C104.62758259307861,151.70628143676757,104.62759259307862,151.70628143676757,104.62759259307862,151.70628143676757C104.62759259307862,151.70628143676757,104.29208259307862,150.22734143676757,104.29208259307862,150.22734143676757C102.75670059307862,150.57584143676758,102.70413759307861,152.74469143676757,104.2208625930786,153.16729143676758C104.2208625930786,153.16729143676758,104.62758259307861,151.70628143676757,104.62758259307861,151.70628143676757C104.62758259307861,151.70628143676757,104.62758259307861,151.70628143676757,104.62758259307861,151.70628143676757ZM151.2466625930786,160.4010914367676C146.19836259307863,161.80239143676758,140.8635625930786,161.79999143676758,135.81656259307863,160.39419143676758C135.81656259307863,160.39419143676758,135.40986259307863,161.85509143676757,135.40986259307863,161.85509143676757C140.7225625930786,163.33499143676758,146.3380625930786,163.33759143676758,151.6520625930786,161.86249143676758C151.6520625930786,161.86249143676758,151.2466625930786,160.4010914367676,151.2466625930786,160.4010914367676C151.2466625930786,160.4010914367676,151.2466625930786,160.4010914367676,151.2466625930786,160.4010914367676ZM182.5711625930786,151.70628143676757C182.5711625930786,151.70628143676757,182.5711625930786,151.70628143676757,182.5711625930786,151.70628143676757C182.5711625930786,151.70628143676757,182.97596259307863,153.16759143676757,182.97596259307863,153.16759143676757C184.49436259307862,152.7461914367676,184.44206259307862,150.57470143676758,182.9054625930786,150.2271114367676C182.9054625930786,150.2271114367676,182.5711625930786,151.70628143676757,182.5711625930786,151.70628143676757C182.5711625930786,151.70628143676757,182.5711625930786,151.70628143676757,182.5711625930786,151.70628143676757ZM150.2294625930786,142.83611043676757C145.81896259307862,141.83850543676758,141.2413625930786,141.84024243676757,136.83166259307862,142.84119343676758C136.83166259307862,142.84119343676758,137.16716259307861,144.32014143676759,137.16716259307861,144.32014143676759C141.35636259307861,143.36924143676757,145.70516259307863,143.36759143676758,149.89506259307862,144.3153114367676C149.89506259307862,144.3153114367676,150.2294625930786,142.83611043676757,150.2294625930786,142.83611043676757C150.2294625930786,142.83611043676757,150.2294625930786,142.83611043676757,150.2294625930786,142.83611043676757Z" fill="#00343D" fill-opacity="1"/></g><g style="mix-blend-mode:passthrough"><path d="M143.5783533630371,149.68099975585938C143.5783533630371,149.68099975585938,158.3863533630371,153.42611975585936,158.3863533630371,153.42611975585936C158.3863533630371,153.42611975585936,143.5783533630371,158.02203975585937,143.5783533630371,158.02203975585937C143.5783533630371,158.02203975585937,128.8223533630371,153.42611975585936,128.8223533630371,153.42611975585936C128.8223533630371,153.42611975585936,143.5783533630371,149.68099975585938,143.5783533630371,149.68099975585938C143.5783533630371,149.68099975585938,143.5783533630371,149.68099975585938,143.5783533630371,149.68099975585938Z" fill-rule="evenodd" fill="#10DDFF" fill-opacity="1"/></g><g style="mix-blend-mode:passthrough"><path d="M143.57829077758788,149.68100319665527C143.57829077758788,149.68100319665527,143.6711907775879,149.31343139665526,143.6711907775879,149.31343139665526C143.6711907775879,149.31343139665526,143.5781907775879,149.28989219665527,143.5781907775879,149.28989219665527C143.5781907775879,149.28989219665527,143.48509077758789,149.31350949665529,143.48509077758789,149.31350949665529C143.48509077758789,149.31350949665529,143.57829077758788,149.68100319665527,143.57829077758788,149.68100319665527C143.57829077758788,149.68100319665527,143.57829077758788,149.68100319665527,143.57829077758788,149.68100319665527ZM158.3862907775879,153.42612219665529C158.3862907775879,153.42612219665529,158.49869077758788,153.7882321966553,158.49869077758788,153.7882321966553C158.49869077758788,153.7882321966553,159.78529077758787,153.38887219665529,159.78529077758787,153.38887219665529C159.78529077758787,153.38887219665529,158.4792907775879,153.05855219665528,158.4792907775879,153.05855219665528C158.4792907775879,153.05855219665528,158.3862907775879,153.42612219665529,158.3862907775879,153.42612219665529C158.3862907775879,153.42612219665529,158.3862907775879,153.42612219665529,158.3862907775879,153.42612219665529ZM143.57829077758788,158.02204219665526C143.57829077758788,158.02204219665526,143.4655907775879,158.3840421966553,143.4655907775879,158.3840421966553C143.4655907775879,158.3840421966553,143.5780907775879,158.41908219665527,143.5780907775879,158.41908219665527C143.5780907775879,158.41908219665527,143.6905907775879,158.38412219665528,143.6905907775879,158.38412219665528C143.6905907775879,158.38412219665528,143.57829077758788,158.02204219665526,143.57829077758788,158.02204219665526C143.57829077758788,158.02204219665526,143.57829077758788,158.02204219665526,143.57829077758788,158.02204219665526ZM128.8223507775879,153.42612219665529C128.8223507775879,153.42612219665529,128.7291407775879,153.05862219665528,128.7291407775879,153.05862219665528C128.7291407775879,153.05862219665528,127.42789077758789,153.38889219665526,127.42789077758789,153.38889219665526C127.42789077758789,153.38889219665526,128.7096707775879,153.78811219665528,128.7096707775879,153.78811219665528C128.7096707775879,153.78811219665528,128.8223507775879,153.42612219665529,128.8223507775879,153.42612219665529C128.8223507775879,153.42612219665529,128.8223507775879,153.42612219665529,128.8223507775879,153.42612219665529ZM143.4853907775879,150.04857419665527C143.4853907775879,150.04857419665527,158.2933907775879,153.7936921966553,158.2933907775879,153.7936921966553C158.2933907775879,153.7936921966553,158.4792907775879,153.05855219665528,158.4792907775879,153.05855219665528C158.4792907775879,153.05855219665528,143.6711907775879,149.31343139665526,143.6711907775879,149.31343139665526C143.6711907775879,149.31343139665526,143.4853907775879,150.04857419665527,143.4853907775879,150.04857419665527C143.4853907775879,150.04857419665527,143.4853907775879,150.04857419665527,143.4853907775879,150.04857419665527ZM158.2739907775879,153.06401219665528C158.2739907775879,153.06401219665528,143.46599077758788,157.65997219665527,143.46599077758788,157.65997219665527C143.46599077758788,157.65997219665527,143.6905907775879,158.38412219665528,143.6905907775879,158.38412219665528C143.6905907775879,158.38412219665528,158.49869077758788,153.7882321966553,158.49869077758788,153.7882321966553C158.49869077758788,153.7882321966553,158.2739907775879,153.06401219665528,158.2739907775879,153.06401219665528C158.2739907775879,153.06401219665528,158.2739907775879,153.06401219665528,158.2739907775879,153.06401219665528ZM143.6909907775879,157.66004219665527C143.6909907775879,157.66004219665527,128.93503077758788,153.06412219665526,128.93503077758788,153.06412219665526C128.93503077758788,153.06412219665526,128.7096707775879,153.78811219665528,128.7096707775879,153.78811219665528C128.7096707775879,153.78811219665528,143.4655907775879,158.3840421966553,143.4655907775879,158.3840421966553C143.4655907775879,158.3840421966553,143.6909907775879,157.66004219665527,143.6909907775879,157.66004219665527C143.6909907775879,157.66004219665527,143.6909907775879,157.66004219665527,143.6909907775879,157.66004219665527ZM128.9155707775879,153.79361219665526C128.9155707775879,153.79361219665526,143.6714907775879,150.04849619665526,143.6714907775879,150.04849619665526C143.6714907775879,150.04849619665526,143.48509077758789,149.31350949665529,143.48509077758789,149.31350949665529C143.48509077758789,149.31350949665529,128.7291407775879,153.05862219665528,128.7291407775879,153.05862219665528C128.7291407775879,153.05862219665528,128.9155707775879,153.79361219665526,128.9155707775879,153.79361219665526C128.9155707775879,153.79361219665526,128.9155707775879,153.79361219665526,128.9155707775879,153.79361219665526Z" fill="url(#master_svg5_78_165067)" fill-opacity="1"/></g><g style="opacity:0.39926207065582275;"><path d="M133.65822520332335,153.84590624999998C133.65822520332335,153.84590624999998,92.80492520332336,122.00390625,92.80492520332336,122.00390625C92.80492520332336,122.00390625,195.89992520332336,122.00390625,195.89992520332336,122.00390625C195.89992520332336,122.00390625,159.30472520332336,153.85150625,159.30472520332336,153.85150625C159.30472520332336,153.85150625,133.65822520332335,153.84590624999998,133.65822520332335,153.84590624999998C133.65822520332335,153.84590624999998,133.65822520332335,153.84590624999998,133.65822520332335,153.84590624999998Z" fill-rule="evenodd" fill="url(#master_svg6_78_165056)" fill-opacity="1"/></g><g style="mix-blend-mode:passthrough"><path d="M109.96756559899903,159.93021898603516C109.76512859899903,159.87692588603517,109.55783219899902,159.99787928603516,109.50455419899902,160.20037668603516C109.45127689899903,160.40287368603515,109.57219429899902,160.61023168603515,109.77463059899902,160.66352568603514C109.77463059899902,160.66352568603514,109.96756559899903,159.93021898603516,109.96756559899903,159.93021898603516C109.96756559899903,159.93021898603516,109.96756559899903,159.93021898603516,109.96756559899903,159.93021898603516ZM123.43987959899903,164.26104068603516C123.64237959899903,164.31433068603516,123.84957959899903,164.19338068603517,123.90287959899902,163.99088068603515C123.95617959899903,163.78839068603514,123.83527959899902,163.58103068603515,123.63277959899902,163.52774068603514C123.63277959899902,163.52774068603514,123.43987959899903,164.26104068603516,123.43987959899903,164.26104068603516C123.43987959899903,164.26104068603516,123.43987959899903,164.26104068603516,123.43987959899903,164.26104068603516ZM109.77463059899902,160.66352568603514C109.77463059899902,160.66352568603514,123.43987959899903,164.26104068603516,123.43987959899903,164.26104068603516C123.43987959899903,164.26104068603516,123.63277959899902,163.52774068603514,123.63277959899902,163.52774068603514C123.63277959899902,163.52774068603514,109.96756559899903,159.93021898603516,109.96756559899903,159.93021898603516C109.96756559899903,159.93021898603516,109.77463059899902,160.66352568603514,109.77463059899902,160.66352568603514C109.77463059899902,160.66352568603514,109.77463059899902,160.66352568603514,109.77463059899902,160.66352568603514Z" fill="url(#master_svg7_78_165047)" fill-opacity="1"/></g><g style="mix-blend-mode:passthrough"><path d="M109.96756559899903,162.96332292890625C109.76512859899903,162.91002982890626,109.55783219899902,163.03098322890625,109.50455419899902,163.23348062890625C109.45127689899903,163.43597762890624,109.57219429899902,163.64333562890624,109.77463059899902,163.69662962890624C109.77463059899902,163.69662962890624,109.96756559899903,162.96332292890625,109.96756559899903,162.96332292890625C109.96756559899903,162.96332292890625,109.96756559899903,162.96332292890625,109.96756559899903,162.96332292890625ZM123.43987959899903,167.29414462890625C123.64237959899903,167.34743462890626,123.84957959899903,167.22648462890626,123.90287959899902,167.02398462890625C123.95617959899903,166.82149462890624,123.83527959899902,166.61413462890624,123.63277959899902,166.56084462890624C123.63277959899902,166.56084462890624,123.43987959899903,167.29414462890625,123.43987959899903,167.29414462890625C123.43987959899903,167.29414462890625,123.43987959899903,167.29414462890625,123.43987959899903,167.29414462890625ZM109.77463059899902,163.69662962890624C109.77463059899902,163.69662962890624,123.43987959899903,167.29414462890625,123.43987959899903,167.29414462890625C123.43987959899903,167.29414462890625,123.63277959899902,166.56084462890624,123.63277959899902,166.56084462890624C123.63277959899902,166.56084462890624,109.96756559899903,162.96332292890625,109.96756559899903,162.96332292890625C109.96756559899903,162.96332292890625,109.77463059899902,163.69662962890624,109.77463059899902,163.69662962890624C109.77463059899902,163.69662962890624,109.77463059899902,163.69662962890624,109.77463059899902,163.69662962890624Z" fill="url(#master_svg8_78_165047)" fill-opacity="1"/></g><g style="mix-blend-mode:passthrough"><path d="M165.9668131225586,164.08825207470704C165.9668131225586,163.87886007470703,165.7971181225586,163.70911407470703,165.5877881225586,163.70911407470703C165.37845912255858,163.70911407470703,165.2087631225586,163.87886007470703,165.2087631225586,164.08825207470704C165.2087631225586,164.08825207470704,165.9668131225586,164.08825207470704,165.9668131225586,164.08825207470704C165.9668131225586,164.08825207470704,165.9668131225586,164.08825207470704,165.9668131225586,164.08825207470704ZM165.2087631225586,167.12135407470703C165.2087631225586,167.33074407470704,165.37845912255858,167.50049407470703,165.5877881225586,167.50049407470703C165.7971181225586,167.50049407470703,165.9668131225586,167.33074407470704,165.9668131225586,167.12135407470703C165.9668131225586,167.12135407470703,165.2087631225586,167.12135407470703,165.2087631225586,167.12135407470703C165.2087631225586,167.12135407470703,165.2087631225586,167.12135407470703,165.2087631225586,167.12135407470703ZM165.2087631225586,164.08825207470704C165.2087631225586,164.08825207470704,165.2087631225586,167.12135407470703,165.2087631225586,167.12135407470703C165.2087631225586,167.12135407470703,165.9668131225586,167.12135407470703,165.9668131225586,167.12135407470703C165.9668131225586,167.12135407470703,165.9668131225586,164.08825207470704,165.9668131225586,164.08825207470704C165.9668131225586,164.08825207470704,165.2087631225586,164.08825207470704,165.2087631225586,164.08825207470704C165.2087631225586,164.08825207470704,165.2087631225586,164.08825207470704,165.2087631225586,164.08825207470704Z" fill="url(#master_svg9_78_165039)" fill-opacity="1"/></g><g style="mix-blend-mode:passthrough"><path d="M167.48291114501953,164.08825207470704C167.48291114501953,163.87886007470703,167.31321614501954,163.70911407470703,167.10388614501954,163.70911407470703C166.89455714501952,163.70911407470703,166.72486114501953,163.87886007470703,166.72486114501953,164.08825207470704C166.72486114501953,164.08825207470704,167.48291114501953,164.08825207470704,167.48291114501953,164.08825207470704C167.48291114501953,164.08825207470704,167.48291114501953,164.08825207470704,167.48291114501953,164.08825207470704ZM166.72486114501953,167.12135407470703C166.72486114501953,167.33074407470704,166.89455714501952,167.50049407470703,167.10388614501954,167.50049407470703C167.31321614501954,167.50049407470703,167.48291114501953,167.33074407470704,167.48291114501953,167.12135407470703C167.48291114501953,167.12135407470703,166.72486114501953,167.12135407470703,166.72486114501953,167.12135407470703C166.72486114501953,167.12135407470703,166.72486114501953,167.12135407470703,166.72486114501953,167.12135407470703ZM166.72486114501953,164.08825207470704C166.72486114501953,164.08825207470704,166.72486114501953,167.12135407470703,166.72486114501953,167.12135407470703C166.72486114501953,167.12135407470703,167.48291114501953,167.12135407470703,167.48291114501953,167.12135407470703C167.48291114501953,167.12135407470703,167.48291114501953,164.08825207470704,167.48291114501953,164.08825207470704C167.48291114501953,164.08825207470704,166.72486114501953,164.08825207470704,166.72486114501953,164.08825207470704C166.72486114501953,164.08825207470704,166.72486114501953,164.08825207470704,166.72486114501953,164.08825207470704Z" fill="url(#master_svga_78_165039)" fill-opacity="1"/></g><g style="mix-blend-mode:passthrough"><path d="M170.51511481933593,164.08825207470704C170.51511481933593,163.87886007470703,170.34541981933594,163.70911407470703,170.13608981933595,163.70911407470703C169.92676081933593,163.70911407470703,169.75706481933594,163.87886007470703,169.75706481933594,164.08825207470704C169.75706481933594,164.08825207470704,170.51511481933593,164.08825207470704,170.51511481933593,164.08825207470704C170.51511481933593,164.08825207470704,170.51511481933593,164.08825207470704,170.51511481933593,164.08825207470704ZM169.75706481933594,167.12135407470703C169.75706481933594,167.33074407470704,169.92676081933593,167.50049407470703,170.13608981933595,167.50049407470703C170.34541981933594,167.50049407470703,170.51511481933593,167.33074407470704,170.51511481933593,167.12135407470703C170.51511481933593,167.12135407470703,169.75706481933594,167.12135407470703,169.75706481933594,167.12135407470703C169.75706481933594,167.12135407470703,169.75706481933594,167.12135407470703,169.75706481933594,167.12135407470703ZM169.75706481933594,164.08825207470704C169.75706481933594,164.08825207470704,169.75706481933594,167.12135407470703,169.75706481933594,167.12135407470703C169.75706481933594,167.12135407470703,170.51511481933593,167.12135407470703,170.51511481933593,167.12135407470703C170.51511481933593,167.12135407470703,170.51511481933593,164.08825207470704,170.51511481933593,164.08825207470704C170.51511481933593,164.08825207470704,169.75706481933594,164.08825207470704,169.75706481933594,164.08825207470704C169.75706481933594,164.08825207470704,169.75706481933594,164.08825207470704,169.75706481933594,164.08825207470704Z" fill="url(#master_svgb_78_165039)" fill-opacity="1"/></g><g style="mix-blend-mode:passthrough"><path d="M172.78926948242187,163.3299779963379C172.78926948242187,163.1205859963379,172.61957448242188,162.9508399963379,172.4102444824219,162.9508399963379C172.20091548242186,162.9508399963379,172.03121948242188,163.1205859963379,172.03121948242188,163.3299779963379C172.03121948242188,163.3299779963379,172.78926948242187,163.3299779963379,172.78926948242187,163.3299779963379C172.78926948242187,163.3299779963379,172.78926948242187,163.3299779963379,172.78926948242187,163.3299779963379ZM172.03121948242188,166.3630799963379C172.03121948242188,166.5724699963379,172.20091548242186,166.7422199963379,172.4102444824219,166.7422199963379C172.61957448242188,166.7422199963379,172.78926948242187,166.5724699963379,172.78926948242187,166.3630799963379C172.78926948242187,166.3630799963379,172.03121948242188,166.3630799963379,172.03121948242188,166.3630799963379C172.03121948242188,166.3630799963379,172.03121948242188,166.3630799963379,172.03121948242188,166.3630799963379ZM172.03121948242188,163.3299779963379C172.03121948242188,163.3299779963379,172.03121948242188,166.3630799963379,172.03121948242188,166.3630799963379C172.03121948242188,166.3630799963379,172.78926948242187,166.3630799963379,172.78926948242187,166.3630799963379C172.78926948242187,166.3630799963379,172.78926948242187,163.3299779963379,172.78926948242187,163.3299779963379C172.78926948242187,163.3299779963379,172.03121948242188,163.3299779963379,172.03121948242188,163.3299779963379C172.03121948242188,163.3299779963379,172.03121948242188,163.3299779963379,172.03121948242188,163.3299779963379Z" fill="url(#master_svgc_78_165039)" fill-opacity="1"/></g></g><g style="mix-blend-mode:passthrough"><g style="mix-blend-mode:passthrough"><g style="mix-blend-mode:passthrough"><g style="mix-blend-mode:passthrough" transform="matrix(0.8919695019721985,-0.45209553837776184,0.4501316249370575,0.8929622769355774,-43.25148025795039,77.62731896097318)" filter="url(#master_svgd_236_53481)"><ellipse cx="159.00973868370056" cy="136.24540185928345" rx="18.062335968017578" ry="6.332071781158447" fill="#47BC78" fill-opacity="1"/></g><g style="opacity:0.800000011920929;mix-blend-mode:passthrough" filter="url(#master_svge_236_53482)"><ellipse cx="145.04687094688416" cy="94.00390625" rx="49.999996185302734" ry="50" fill="#00FF6B" fill-opacity="0.4000000059604645"/></g><g style="mix-blend-mode:passthrough"><ellipse cx="145.046950340271" cy="94.00389885902405" rx="45.4788703918457" ry="45.47887420654297" fill-opacity="0" stroke-opacity="0.6399999856948853" stroke="#FFFFFF" fill="none" stroke-width="2"/></g><g style="mix-blend-mode:passthrough" transform="matrix(0.9999999403953552,-1.328773606701361e-7,0.002268183045089245,0.9999974966049194,-0.11786417630567314,0.00014373923794863686)" filter="url(#master_svgf_236_53484)"><ellipse cx="144.9515564441681" cy="94.15999364852905" rx="42.25749969482422" ry="42.19315719604492" fill="#081230" fill-opacity="0"/><ellipse cx="144.9515564441681" cy="94.15999364852905" rx="41.75749969482422" ry="41.69315719604492" stroke="url(#master_svgg_78_61725)" fill-opacity="0" fill="none" stroke-width="1"/></g><g style="mix-blend-mode:passthrough" transform="matrix(0.47819358110427856,0.8782544732093811,-0.8771528005599976,0.48021137714385986,150.58242172622778,-114.64685580349999)" filter="url(#master_svgh_236_53485)"><path d="M192.72672589683532,73.43172818908691C192.72672589683532,75.58428818908692,188.72642589683534,73.47837818908691,182.91812589683533,73.47837818908691C177.1096758968353,73.47837818908691,171.69272589683533,75.58428818908692,171.69272589683533,73.43172818908691C171.69272589683533,71.27913818908691,176.40134589683532,69.53412818908691,182.20972589683532,69.53412818908691C188.01812589683533,69.53412818908691,192.72672589683532,71.27913818908691,192.72672589683532,73.43172818908691C192.72672589683532,73.43172818908691,192.72672589683532,73.43172818908691,192.72672589683532,73.43172818908691Z" fill="#47BC78" fill-opacity="1"/></g><g style="mix-blend-mode:passthrough" transform="matrix(0.7112820148468018,0.7029066681861877,-0.7009604573249817,0.7132002115249634,110.17330449668071,-51.00647061491486)" filter="url(#master_svgi_236_53486)"><ellipse cx="133.44343161582947" cy="114.71792554855347" rx="16.415531158447266" ry="5.745666027069092" fill="#47BC78" fill-opacity="1"/></g></g></g></g></g></svg>
