<svg xmlns="http://www.w3.org/2000/svg" xmlns:xlink="http://www.w3.org/1999/xlink" fill="none" version="1.1" width="43.833984375" height="46.2548828125" viewBox="0 0 43.833984375 46.2548828125"><defs><mask id="master_svg0_236_53819"><g><ellipse cx="22.8894202709198" cy="24.460503101348877" rx="17.62942886352539" ry="17.795547485351562" fill="#FFFFFF" fill-opacity="1"/></g></mask><filter id="master_svg1_236_53820" filterUnits="objectBoundingBox" color-interpolation-filters="sRGB" x="0" y="0" width="30.901018142700195" height="36.950828552246094"><feFlood flood-opacity="0" result="BackgroundImageFix"/><feBlend mode="normal" in="SourceGraphic" in2="BackgroundImageFix" result="shape"/><feColorMatrix in="SourceAlpha" type="matrix" result="hardAlpha" values="0 0 0 0 0 0 0 0 0 0 0 0 0 0 0 0 0 0 127 0"/><feOffset dy="1" dx="0"/><feGaussianBlur stdDeviation="17.5"/><feComposite in2="hardAlpha" operator="arithmetic" k2="-1" k3="1"/><feColorMatrix type="matrix" values="0 0 0 0 0 0 0 0 0 0.8552296161651611 0 0 0 0 0.8373638987541199 0 0 0 0.7507359385490417 0"/><feBlend mode="normal" in2="shape" result="effect1_innerShadow"/></filter></defs><g style="mix-blend-mode:passthrough"><g style="mix-blend-mode:passthrough" mask="url(#master_svg0_236_53819)"><g style="opacity:0.20000000298023224;mix-blend-mode:passthrough"><path d="M12.06948561668396,5.375555546569824L15.54518561668396,3.6386955465698243L16.21568561668396,4.980495546569824L15.54518561668396,3.6386955465698243L16.574185616683963,3.124515546569824L17.09078561668396,2.974215546569824L32.210385616683965,1.4151847362698242L32.36418561668396,2.9072755465698243L32.358085616683965,4.407265546569825L23.00668561668396,4.369085546569824L23.00668561668396,4.369085546569824L22.83208561668396,4.368375546569824L22.83818561668396,2.868385546569824L22.83818561668396,4.368385546569824Q22.33818561668396,4.368385546569824,21.84498561668396,4.392665546569824L21.84498561668396,4.392665546569824L21.83168561668396,4.393325546569825L21.75788561668396,2.8951355465698243L21.91168561668396,4.387225546569824L20.18668561668396,4.565105546569824L19.36228561668396,1.7312195465698244L22.68018561668396,0.07325554656982414L23.35068561668396,1.4150521755698242L23.84838561668396,2.830075546569824L17.55158561668396,5.044825546569824L17.374985616683958,5.095025546569824L9.99642561668396,6.712035546569824L9.67532561668396,5.246815546569824L9.52146561668396,3.754725546569824L13.99078561668396,3.293875546569824L14.81518561668396,6.127755546569825L12.61558561668396,7.226945546569824L12.61548561668396,7.226965546569824L12.31148561668396,7.378895546569824L11.64098561668396,6.037085546569824L13.14098561668396,6.037085546569824L13.14098561668396,8.323415546569823L12.50928561668396,9.546545546569824Q11.24714561668396,10.442525546569824,10.13149561668396,11.568655546569824L9.065875616683961,10.513015546569823L10.13149561668396,11.568655546569824Q7.49846561668396,14.226555546569823,6.12754561668396,17.722055546569823L4.73110561668396,17.174355546569824L6.12754561668396,17.722055546569823Q5.38854561668396,19.606355546569823,5.08217561668396,21.571155546569823L4.13639561668396,22.740855546569826L2.13779961668396,23.506055546569826L1.60148761668396,22.105155546569826L3.09570561668396,22.236755546569825L2.98838561668396,23.455555546569823L1.4941637516839599,23.323955546569824L0.9578526166839599,21.923155546569824L2.62473561668396,21.284955546569826L3.16104561668396,22.685855546569826L2.62473561668396,21.284955546569826L2.7486456166839597,21.237555546569823L3.28496561668396,22.638355546569823L2.7486456166839597,21.237555546569823L2.91115561668396,21.175355546569826L4.941245616683959,22.712655546569824Q4.86460561668396,23.551455546569823,4.86460561668396,24.405855546569825L3.36460561668396,24.405855546569825L4.86460561668396,24.405855546569825Q4.86460561668396,27.869455546569824,6.12755561668396,31.089655546569823L4.73110561668396,31.637355546569825L6.12754561668396,31.089655546569823Q7.06394561668396,33.477155546569826,8.586665616683959,35.47105554656982L7.52086561668396,37.87615554656983L7.38956561668396,37.887255546569826L7.38954561668396,37.887255546569826L7.25244561668396,37.89885554656983L7.12614561668396,36.404155546569825L7.25245561668396,37.89885554656983L6.61573561668396,37.95265554656982L5.71831561668396,37.744655546569824L3.3308056166839597,36.31365554656983L4.10191561668396,35.02705554656983L5.32277561668396,34.15555554656982L6.71673561668396,36.108355546569825L5.49588561668396,36.97985554656982L6.71673561668396,36.108355546569825Q6.78671561668396,36.206355546569824,6.85797561668396,36.30365554656982L5.64787561668396,37.19005554656982L6.85796561668396,36.30365554656982L6.91765561668396,36.38515554656983L5.70756561668396,37.27155554656982L6.47868561668396,35.98495554656982L6.56531561668396,36.036855546569825L5.79420561668396,37.323455546569825L6.56531561668396,36.036855546569825L6.84785561668396,36.206155546569825L6.07674561668396,37.492755546569825L6.84299561668396,36.20325554656982L6.99555561668396,36.293955546569826L6.22930561668396,37.58345554656982L6.10612561668396,36.08855554656982L6.28108561668396,36.074055546569824L6.4042656166839595,37.56905554656982L6.27795561668396,36.07435554656983L7.15837561668396,35.99995554656982L7.15841561668396,35.99995554656982L7.29599561668396,35.98835554656982L7.42226561668396,37.482955546569826L7.29595561668396,35.98835554656982L8.114105616683961,35.919155546569826L9.36770561668396,36.424255546569825Q9.73517561668396,36.842955546569826,10.13149561668396,37.242955546569824L10.13149561668396,37.242955546569824Q12.76348561668396,39.89975554656982,16.223585616683962,41.28245554656982L16.223585616683962,41.28245554656982Q19.40938561668396,42.55555554656983,22.83558561668396,42.55555554656983L22.83558561668396,42.55555554656983Q25.36918561668396,42.55555554656983,27.76868561668396,41.86035554656982L29.29878561668396,42.29515554656982L29.73838561668396,42.78135554656983L29.73838561668396,42.78135554656983L29.81888561668396,42.87045554656982L28.70618561668396,43.876355546569826L29.81888561668396,42.870355546569826L30.69218561668396,43.83635554656983L29.57948561668396,44.84235554656983L29.07468561668396,43.429855546569826L29.49088561668396,43.281055546569824L29.99578561668396,44.693555546569826L29.49088561668396,43.281055546569824L30.19478561668396,43.02945554656982L30.69968561668396,44.44195554656982L29.58698561668396,45.447855546569826L28.43808561668396,44.177055546569825L28.43808561668396,44.177055546569825L28.35768561668396,44.08815554656982L29.47038561668396,43.082255546569826L28.35778561668396,44.08815554656982L28.21998561668396,43.93575554656982L28.82668561668396,41.51775554656982Q29.13808561668396,41.40615554656983,29.44758561668396,41.28245554656982L29.44768561668396,41.28245554656982Q32.90778561668396,39.89975554656982,35.53968561668396,37.242955546569824L35.53968561668396,37.242955546569824Q38.14998561668396,34.608155546569826,39.51978561668396,31.150155546569824L42.13928561668396,30.836855546569826L42.20978561668396,30.936655546569824L40.98478561668396,31.802355546569824L42.20978561668396,30.936555546569824L42.29058561668396,31.050955546569824L42.29058561668396,31.050955546569824L42.41778561668396,31.230955546569824L42.61368561668396,32.57745554656982L40.09488561668396,40.02215554656983L38.67408561668396,39.54145554656982L37.39348561668396,38.760355546569826L39.73498561668396,34.92165554656982L39.73508561668396,34.92165554656982Q39.85278561668396,34.728655546569826,39.96628561668396,34.532555546569824L39.96628561668396,34.53245554656982L39.99128561668396,34.489355546569826L41.28938561668396,35.24095554656982L39.86848561668396,34.760355546569826L39.88438561668396,34.71315554656982L39.88448561668396,34.71305554656983L40.90268561668396,31.703455546569824L40.90268561668396,31.703355546569824L40.99248561668396,31.438155546569824L42.41328561668396,31.918955546569823L41.18808561668396,32.784255546569824L41.02658561668396,32.555655546569824L42.25178561668396,31.690255546569823L41.02688561668396,32.55605554656982L40.69968561668396,32.09305554656983L40.69968561668396,32.09305554656983L40.61858561668396,31.978255546569823L41.84348561668396,31.112555546569823L40.61858561668396,31.978255546569823L40.14228561668396,31.304455546569823L39.93908561668396,29.980155546569826Q40.80658561668396,27.277755546569825,40.80658561668396,24.405855546569825L42.30658561668396,24.405855546569825L40.80658561668396,24.405855546569825Q40.80658561668396,20.942155546569825,39.54368561668396,17.722055546569823L39.54368561668396,17.722055546569823Q38.22768561668396,14.366455546569824,35.74918561668396,11.783555546569824L35.38668561668396,10.341845546569823L35.58148561668396,9.643695546569825L37.02628561668396,10.046815546569825L35.58148561668396,9.643715546569824L35.61588561668396,9.520125546569824L35.61588561668396,9.520105546569825L35.84908561668396,8.684615546569823L35.84938561668396,8.683415546569824L35.92838561668396,8.401125546569824L37.37288561668396,8.805445546569825L36.23128561668396,9.778525546569824L36.04118561668396,9.555415546569824L37.18268561668396,8.582335546569825L36.04138561668396,9.555715546569823L35.58168561668396,9.016655546569824L36.72288561668396,8.043275546569824L35.74278561668396,9.178775546569824L35.71388561668396,9.153805546569824L35.71388561668396,9.153795546569825Q35.49768561668396,8.967225546569825,35.27708561668396,8.787545546569824L36.22418561668396,7.624385546569824L35.27708561668396,8.787545546569824L31.01038561668396,5.313305546569824L31.95748561668396,4.150135546569825L33.098785616683955,3.176755546569824L37.29798561668396,8.100215546569824L37.60148561668396,9.476725546569824L37.46108561668396,9.980065546569824L36.01618561668396,9.576955546569824L37.46108561668396,9.980045546569825L37.42668561668396,10.103225546569824L37.42668561668396,10.103235546569824L37.38008561668396,10.270205546569825L34.91958561668396,10.970925546569823Q32.508485616683956,8.752405546569825,29.44758561668396,7.529205546569824L29.44758561668396,7.529205546569824Q26.26178561668396,6.256075546569824,22.83558561668396,6.256075546569824L22.83558561668396,4.756075546569824L22.83558561668396,6.256075546569824Q19.40938561668396,6.256075546569824,16.223585616683962,7.529215546569824L15.66688561668396,6.136315546569824L16.223585616683962,7.529215546569824Q14.80178561668396,8.097385546569825,13.52178561668396,8.879075546569824L11.24001561668396,7.598935546569824L11.24001561668396,6.717345546569824L12.06948561668396,5.375555546569824ZM13.41048561668396,8.059145546569823L12.73998561668396,6.717345546569824L14.23998561668396,6.717345546569824L14.23998561668396,7.598935546569824L12.73998561668396,7.598935546569824L11.95818561668396,6.318785546569824Q13.45378561668396,5.405375546569824,15.11028561668396,4.743415546569825L15.11028561668396,4.743415546569825Q18.83218561668396,3.256075546569824,22.83558561668396,3.256075546569824L22.83558561668396,3.256075546569824Q26.83898561668396,3.256075546569824,30.56088561668396,4.743415546569825L30.00428561668396,6.136315546569824L30.56088561668396,4.743415546569825Q34.13398561668396,6.171295546569824,36.95098561668396,8.763285546569824L35.93528561668396,9.867105546569825L34.49048561668396,9.463995546569825L34.53708561668396,9.297025546569824L35.98188561668396,9.700135546569824L34.53708561668396,9.297035546569823L34.57138561668396,9.173855546569825L34.57138561668396,9.173835546569824L34.71188561668396,8.670485546569825L36.15668561668396,9.073605546569825L35.01538561668396,10.046995546569825L30.81618561668396,5.123525546569825L32.90458561668396,2.9869755465698242L37.17128561668396,6.461215546569824L37.17128561668396,6.461215546569824Q37.42548561668396,6.668145546569824,37.67418561668396,6.882815546569824L36.69398561668396,8.018305546569824L37.67408561668396,6.882805546569824L37.70308561668396,6.907775546569824L37.86418561668396,7.069895546569824L38.32398561668396,7.608955546569824L38.32418561668396,7.609255546569824L38.51438561668396,7.832365546569824L38.81738561668396,9.209765546569823L38.738385616683956,9.492055546569825L37.29388561668396,9.087735546569824L38.73868561668396,9.490845546569824L38.50558561668396,10.326335546569824L37.06078561668396,9.923225546569824L38.50558561668396,10.326315546569825L38.47108561668396,10.449905546569823L38.47108561668396,10.449935546569824L38.27628561668396,11.148085546569824L36.83148561668396,10.744965546569825L37.91378561668396,9.706425546569823Q40.80358561668396,12.718055546569824,42.33648561668396,16.626655546569822L40.94008561668396,17.174355546569824L42.33648561668396,16.626655546569822Q43.80658561668396,20.374955546569826,43.80658561668396,24.405855546569825L43.80658561668396,24.405855546569825Q43.80658561668396,27.747555546569824,42.79548561668396,30.897155546569824L41.36728561668396,30.438655546569823L42.59218561668396,29.572955546569823L43.06848561668396,30.246855546569826L43.06848561668396,30.246855546569826L43.14958561668396,30.361655546569825L41.92468561668396,31.227355546569825L43.14958561668396,30.361655546569825L43.47678561668396,30.824555546569826L43.47708561668396,30.824955546569825L43.63858561668396,31.053555546569825L43.83418561668396,32.39975554656982L43.74438561668396,32.66495554656983L42.32358561668396,32.184155546569826L43.74448561668396,32.664855546569825L42.72628561668396,35.674455546569824L41.30538561668396,35.193755546569825L42.72628561668396,35.67435554656982L42.71038561668396,35.72145554656982L42.58758561668396,35.99245554656982L42.56258561668396,36.035555546569825L41.26448561668396,35.284055546569824L42.56268561668396,36.035555546569825Q42.43198561668396,36.26125554656982,42.29618561668396,36.48385554656983L41.01558561668396,35.702755546569826L42.29618561668396,36.48385554656983L39.95458561668396,40.32255554656982L37.25318561668396,39.06075554656982L39.77198561668396,31.615955546569825L41.19288561668396,32.09665554656982L39.96788561668396,32.96245554656983L39.84068561668396,32.782355546569825L41.06558561668396,31.916655546569825L39.84068561668396,32.78245554656982L39.75988561668396,32.668055546569825L39.75988561668396,32.668055546569825L39.68938561668396,32.56835554656982L40.91438561668396,31.702655546569826L42.30888561668396,32.25505554656982Q40.71308561668396,36.28355554656982,37.67098561668396,39.35435554656983L36.60528561668396,38.298655546569826L37.67098561668396,39.35435554656983Q34.60008561668396,42.45415554656982,30.56088561668396,44.06825554656982L30.00428561668396,42.675355546569826L30.56088561668396,44.06825554656982Q30.20118561668396,44.211955546569826,29.83858561668396,44.34195554656982L29.33258561668396,42.929855546569826L30.44528561668396,41.923855546569825L30.58308561668396,42.076255546569826L30.58308561668396,42.076255546569826L30.66348561668396,42.16515554656982L29.55078561668396,43.171055546569825L30.66348561668396,42.16515554656982L31.81238561668396,43.436055546569825L31.20458561668396,45.854455546569824L30.50058561668396,46.10605554656983L30.50058561668396,46.10605554656983L30.08438561668396,46.25485554656982L28.46678561668396,45.848255546569824L27.59348561668396,44.88225554656982L27.59348561668396,44.88225554656982L27.51298561668396,44.79315554656982L28.62568561668396,43.787255546569824L27.51298561668396,44.79315554656982L27.07338561668396,44.30705554656983L28.18608561668396,43.30105554656983L28.60358561668396,44.74175554656983Q25.79508561668396,45.55555554656983,22.83558561668396,45.55555554656983L22.83558561668396,44.05555554656983L22.83558561668396,45.55555554656983Q18.83218561668396,45.55555554656983,15.11028561668396,44.06825554656982L15.66688561668396,42.675355546569826L15.11028561668396,44.06825554656982Q11.07112561668396,42.45415554656982,8.00024561668396,39.35435554656983L9.065865616683961,38.298655546569826L8.00024561668396,39.35435554656983Q7.54029561668396,38.890055546569826,7.11314561668396,38.40345554656982L8.240425616683961,37.41385554656983L8.366735616683961,38.90855554656982L7.54858561668396,38.97765554656982L7.54854561668396,38.97765554656982L7.41095561668396,38.98925554656982L7.2846856166839595,37.494655546569824L7.41099561668396,38.98925554656982L6.53057561668396,39.06365554656983L6.52744561668396,39.06395554656982L6.35248561668396,39.078355546569824L5.46306561668396,38.87295554656983L5.31050561668396,38.782355546569825L5.30564561668396,38.77945554656982L5.02309561668396,38.610055546569825L5.02308561668396,38.610055546569825L4.93644561668396,38.55815554656982L4.4974756166839605,38.15795554656982L4.43778561668396,38.076455546569825L4.43777561668396,38.076455546569825Q4.355705616683959,37.96435554656983,4.27503561668396,37.85135554656983L4.27502561668396,37.85135554656983L2.88105561668396,35.898555546569824L4.87302561668396,33.74045554656983L7.26053561668396,35.17135554656983L6.48942561668396,36.45795554656983L6.3631156166839595,34.96335554656982L6.99983561668396,34.90955554656983L6.9998456166839595,34.90955554656983L7.13694561668396,34.897955546569825L7.26324561668396,36.392555546569824L7.13692561668396,34.897955546569825L7.26822561668396,34.88685554656983L7.39454561668396,36.38155554656982L6.20242561668396,37.291955546569824Q4.42454561668396,34.96395554656982,3.33466561668396,32.184955546569824L3.33466561668396,32.184955546569824Q1.86460261668396,28.436655546569824,1.86460261668396,24.405855546569825L1.86460261668396,24.405855546569825Q1.86460261668396,23.414655546569826,1.95369961668396,22.439655546569824L3.4474756166839597,22.576155546569826L3.98379561668396,23.977055546569826L3.82127561668396,24.039255546569823L3.82127561668396,24.039255546569823L3.69736561668396,24.086655546569823L3.69735561668396,24.086655546569823L2.03047461668396,24.724855546569824L-0.00005438331604001867,23.192455546569825L0.10726561668396006,21.973655546569823L1.06517461668396,20.704355546569825L3.06377561668396,19.939155546569825L3.60008561668396,21.340055546569825L2.11799561668396,21.108955546569824Q2.47519161668396,18.818155546569823,3.33466561668396,16.626655546569822L3.33466561668396,16.626655546569822Q4.93158561668396,12.554955546569824,8.00024561668396,9.457345546569824L8.00024561668396,9.457345546569824Q9.29871561668396,8.146635546569824,10.77266561668396,7.100275546569824L11.64098561668396,8.323415546569823L10.14096561668396,8.323415546569823L10.14096561668396,6.037085546569824L10.97049561668396,4.695265546569824L11.27455561668396,4.543335546569825L11.94498561668396,5.885145546569825L11.27451561668396,4.543355546569824L13.47418561668396,3.4441655465698244L14.14468561668396,4.785955546569824L14.29848561668396,6.278045546569825L9.82917561668396,6.738895546569824L9.354215616683959,3.7815855465698243L16.73268561668396,2.1645695465698243L17.05388561668396,3.629795546569824L16.556185616683962,2.2147715465698243L22.85298561668396,0.000025546569824230758L24.02118561668396,2.7568455465698243L20.70338561668396,4.414805546569824L20.03288561668396,3.073015546569824L19.87898561668396,1.5809245465698243L21.60398561668396,1.4030511465698243L21.68408561668396,1.3969547465698242L21.69748561668396,1.3962962465698243L21.77128561668396,2.8944855465698245L21.69748561668396,1.3962968465698242Q22.26438561668396,1.3683802465698243,22.83818561668396,1.3683847465698242L22.84428561668396,1.3683972465698242L23.01888561668396,1.3691101465698243L23.01278561668396,2.8690955465698242L23.01888561668396,1.3691101465698243L32.37028561668396,1.4072859265698243L32.51808561668396,4.399365546569824L17.39848561668396,5.958395546569824L17.24468561668396,4.466305546569824L17.91518561668396,5.808105546569824L16.88618561668396,6.322285546569824L16.88618561668396,6.322285546569824L13.41048561668396,8.059145546569823ZM11.38342561668396,7.893595546569824L11.87018561668396,7.560385546569824L11.89048561668396,7.546735546569824Q13.57388561668396,6.434315546569824,15.48138561668396,5.672015546569824L15.48138561668396,5.672015546569824Q19.02458561668396,4.256075546569824,22.83558561668396,4.256075546569824L22.83558561668396,5.756075546569824L22.83558561668396,4.256075546569824Q26.64658561668396,4.256075546569824,30.18978561668396,5.672015546569824L29.63318561668396,7.064915546569824L30.18978561668396,5.672015546569824Q33.87278561668396,7.1438055465698245,36.71128561668396,9.913785546569825L36.72708561668396,9.929435546569824L36.95808561668396,10.161545546569824L36.96108561668396,10.164605546569824L37.16908561668396,10.374885546569825L37.18438561668396,10.390635546569824Q39.94298561668396,13.262555546569825,41.40558561668396,16.991755546569824L41.40558561668396,16.991755546569824Q42.80658561668396,20.564055546569826,42.80658561668396,24.405855546569825L42.80658561668396,24.405855546569825Q42.80658561668396,27.508955546569823,41.89168561668396,30.438655546569823L41.88068561668396,30.472555546569826L41.63608561668396,31.194655546569823L40.21538561668396,30.713555546569825L41.44048561668396,29.848155546569824L41.44248561668396,29.850955546569825L41.62998561668396,31.220855546569823Q41.52258561668396,31.521455546569825,41.40558561668396,31.819855546569823L41.40558561668396,31.819855546569823Q39.88398561668396,35.699555546569826,36.96048561668396,38.65055554656983L36.96048561668396,38.65055554656983Q34.03598561668396,41.60265554656982,30.18978561668396,43.13965554656983L29.63318561668396,41.74675554656982L30.18978561668396,43.13965554656983Q29.63748561668396,43.36035554656982,29.07818561668396,43.54675554656983L27.49138561668396,43.12985554656982L27.48988561668396,43.12815554656982L28.60228561668396,42.122055546569825L29.04768561668396,43.55435554656982L28.25028561668396,43.80235554656982L28.21378561668396,43.813155546569824Q25.59338561668396,44.55555554656983,22.83558561668396,44.55555554656983L22.83558561668396,44.55555554656983Q19.02458561668396,44.55555554656983,15.48138561668396,43.13965554656983L15.48138561668396,43.13965554656983Q11.63518561668396,41.60265554656982,8.71066561668396,38.65055554656983L8.71065561668396,38.65055554656983Q8.26539561668396,38.201055546569826,7.85235561668396,37.72955554656983L7.8374256166839595,37.71225554656982L7.46838561668396,37.277855546569825L7.45366561668396,37.26025554656982Q5.440555616683961,34.81565554656982,4.26562561668396,31.819855546569823L4.26562561668396,31.819855546569823Q2.86460561668396,28.247555546569824,2.86460561668396,24.405855546569825L4.36460561668396,24.405855546569825L2.86460561668396,24.405855546569825Q2.86460561668396,23.140055546569823,3.01703561668396,21.902155546569823L3.0197456166839602,21.881355546569825L3.04762561668396,21.678455546569825L3.04762561668396,21.678455546569825L3.09053561668396,21.366155546569825L3.09353561668396,21.345355546569824Q3.43120561668396,19.119355546569825,4.26562561668396,16.991755546569824L5.66206561668396,17.539455546569823L4.26562561668396,16.991755546569824Q5.78721561668396,13.112155546569824,8.71066561668396,10.161125546569824L8.71066561668396,10.161125546569824Q9.95271561668396,8.907365546569824,11.36336561668396,7.9075755465698245L11.38342561668396,7.893595546569824ZM13.07798561668396,10.369145546569824L12.23068561668396,9.131365546569825L13.09808561668396,10.355165546569824Q11.90028561668396,11.204075546569824,10.84190561668396,12.272455546569825L9.77628561668396,11.216795546569823L10.84190561668396,12.272455546569825Q8.35408561668396,14.783755546569823,7.05850561668396,18.087155546569825L7.05850561668396,18.087155546569825Q6.34685561668396,19.901655546569824,6.05960561668396,21.795255546569823L4.57657561668396,21.570255546569825L6.06261561668396,21.774455546569826L6.01970561668396,22.086755546569826L4.53366561668396,21.882655546569826L6.01970561668396,22.086755546569826L5.99183561668396,22.289655546569826L4.50579561668396,22.085555546569825L5.99454561668396,22.268855546569824Q5.86460561668396,23.324055546569824,5.86460561668396,24.405855546569825L5.86460561668396,24.405855546569825Q5.86460561668396,27.680355546569825,7.05851561668396,30.724555546569825L5.66206561668396,31.272155546569824L7.05851561668396,30.724555546569825Q8.05940561668396,33.276555546569824,9.76950561668396,35.35325554656983L8.61158561668396,36.306755546569825L9.75478561668396,35.33555554656982L10.123825616683959,35.77005554656982L8.980625616683959,36.74115554656982L10.10889561668396,35.75275554656982Q10.46133561668396,36.15505554656983,10.84190561668396,36.53915554656982L9.77628561668396,37.594855546569825L10.84190561668396,36.53915554656982Q13.32758561668396,39.04825554656983,16.59468561668396,40.353855546569825L16.03798561668396,41.74675554656982L16.59468561668396,40.353855546569825Q19.60188561668396,41.55555554656983,22.83558561668396,41.55555554656983L22.83558561668396,43.05555554656983L22.83558561668396,41.55555554656983Q25.17658561668396,41.55555554656983,27.39598561668396,40.92675554656982L27.80488561668396,42.36995554656983L27.35948561668396,40.93765554656982L28.15698561668396,40.689655546569824L29.71478561668396,41.115855546569826L29.71638561668396,41.117555546569825L28.60388561668396,42.123755546569825L28.12958561668396,40.70065554656983Q28.60568561668396,40.54205554656983,29.07658561668396,40.353855546569825L29.07658561668396,40.353855546569825Q32.34358561668396,39.04825554656983,34.82928561668396,36.53915554656982L35.89488561668396,37.594855546569825L34.82928561668396,36.53915554656982Q37.31708561668396,34.02795554656982,38.61268561668396,30.724555546569825L40.00908561668396,31.272155546569824L38.61268561668396,30.724555546569825Q38.71288561668396,30.468955546569823,38.80468561668396,30.211955546569826L40.21728561668396,30.716355546569826L38.99218561668396,31.581755546569823L38.99018561668396,31.579055546569823L38.79458561668396,30.232455546569824L39.03908561668396,29.510355546569823L40.45988561668396,29.991455546569824L39.02808561668396,29.544355546569825Q39.80658561668396,27.051455546569823,39.80658561668396,24.405855546569825L41.30658561668396,24.405855546569825L39.80658561668396,24.405855546569825Q39.80658561668396,21.131255546569825,38.61268561668396,18.087155546569825L40.00908561668396,17.539455546569823L38.61268561668396,18.087155546569825Q37.36728561668396,14.911655546569824,35.02088561668396,12.468855546569824L36.10258561668396,11.429755546569824L35.03618561668396,12.484555546569824L34.82818561668396,12.274255546569824L35.89468561668396,11.219455546569824L34.83118561668396,12.277355546569824L34.60028561668396,12.045255546569825L35.663685616683956,10.987335546569824L34.61608561668396,12.060855546569824Q32.204985616683956,9.707995546569824,29.07658561668396,8.457805546569825L29.07658561668396,8.457805546569825Q26.06938561668396,7.256075546569824,22.83558561668396,7.256075546569824L22.83558561668396,7.256075546569824Q19.60188561668396,7.256075546569824,16.59468561668396,8.457805546569825L16.03798561668396,7.064915546569824L16.59468561668396,8.457805546569825Q14.97188561668396,9.106285546569824,13.54448561668396,10.049595546569824L12.71748561668396,8.798165546569823L13.56478561668396,10.035935546569824L13.07798561668396,10.369145546569824Z" fill="#3FAFFF" fill-opacity="1"/></g><g style="opacity:0.6816871166229248;"></g><g style="mix-blend-mode:passthrough" filter="url(#master_svg1_236_53820)"><path d="M15.470970007476806,14.521354080200195C15.905370007476806,11.646524080200194,19.88911000747681,10.226128080200196,20.924610007476808,10.168828080200194C21.03571000747681,10.162679180200195,21.170010007476805,10.151415380200195,21.324310007476807,10.138484180200196C22.607310007476805,10.030906180200196,25.266510007476807,9.807934080200194,27.378410007476806,11.454824080200195C27.535510007476805,11.577364080200196,30.020310007476805,14.240824080200195,30.020310007476805,17.642214080200194C30.020310007476805,19.470464080200195,29.769510007476807,20.511804080200193,29.537410007476808,21.083904080200195C30.246610007476807,20.826004080200196,30.912210007476805,21.322804080200193,30.912210007476805,22.537904080200196C30.912210007476805,24.419204080200196,29.253510007476805,25.267504080200197,29.253510007476805,25.267504080200197C29.253510007476805,25.267504080200197,29.253510007476805,29.840604080200194,26.145710007476808,31.821204080200197C26.294410007476806,32.93300408020019,26.599710007476805,34.678004080200196,27.125210007476806,35.49760408020019C27.929810007476807,36.75240408020019,35.62321000747681,36.938704080200196,36.64021000747681,38.76780408020019C37.657010007476806,40.59700408020019,38.3399100074768,47.014904080200196,38.3399100074768,47.014904080200196L7.438910007476807,47.014904080200196C7.438910007476807,47.014904080200196,7.573426007476806,40.90350408020019,9.231260007476807,39.115504080200196C10.889080007476807,37.327604080200196,18.231210007476804,36.7196040802002,18.732510007476805,35.49760408020019C19.05091000747681,34.7217040802002,19.33581000747681,33.0449040802002,19.501310007476807,31.924104080200195C16.359400007476808,30.108204080200196,16.401590007476806,25.766804080200195,16.32529000747681,25.229104080200194C15.524920007476807,24.753304080200195,14.669380007476807,23.797404080200195,14.669380007476807,22.537904080200196C14.669380007476807,21.537404080200197,15.421680007476807,21.221104080200195,15.963500007476807,21.195404080200195C15.873310007476807,21.142904080200196,15.777000007476806,21.068604080200195,15.684880007476806,20.963704080200195C15.369500007476805,20.604404080200197,15.036570007476808,17.396204080200196,15.470970007476806,14.521354080200195Z" fill-rule="evenodd" fill="#0B3AD3" fill-opacity="1"/><path d="M14.482200007476806,14.371954080200195Q14.835280007476808,12.035254080200195,17.450510007476808,10.435465080200196Q18.352210007476806,9.883916080200196,19.363010007476806,9.526123080200195Q20.275310007476804,9.203230080200195,20.869310007476805,9.170355080200196Q20.966310007476807,9.164990080200194,21.240710007476807,9.141981080200196Q22.972010007476804,8.996814080200195,24.165010007476805,9.146510080200196Q26.405010007476807,9.427580080200196,27.993310007476808,10.666260080200196Q28.215410007476805,10.839459080200195,28.639610007476808,11.371804080200196Q29.176110007476808,12.045114080200195,29.623610007476806,12.817724080200195Q31.020310007476805,15.229064080200196,31.020310007476805,17.642214080200194Q31.020310007476805,20.088304080200196,30.46411000747681,21.459804080200193L29.537410007476808,21.083904080200195L29.195710007476805,20.144104080200194Q30.337810007476808,19.728804080200195,31.181810007476805,20.535704080200198Q31.912210007476805,21.234004080200194,31.912210007476805,22.537904080200196Q31.912210007476805,24.105904080200197,30.816110007476805,25.288104080200196Q30.281110007476805,25.865104080200197,29.708810007476806,26.157804080200194L29.253510007476805,25.267504080200197L30.253510007476805,25.267504080200197Q30.253510007476805,26.547804080200194,29.828110007476806,28.070604080200194Q28.948310007476806,31.220904080200196,26.683210007476806,32.664504080200196L26.145710007476808,31.821204080200197L27.136910007476807,31.688704080200196Q27.470410007476808,34.1832040802002,27.967110007476805,34.95780408020019Q28.099710007476805,35.164704080200195,31.362710007476807,35.810204080200194Q33.81191000747681,36.29470408020019,34.867410007476806,36.620804080200195Q36.94811000747681,37.2637040802002,37.514210007476805,38.28190408020019Q38.23471000747681,39.57810408020019,38.858410007476806,43.41700408020019Q39.16071000747681,45.27720408020019,39.3343100074768,46.909104080200194L39.45201000747681,48.014904080200196L6.416660007476807,48.014904080200196L6.439152007476807,46.9929040802002Q6.474044007476807,45.4077040802002,6.722722007476807,43.5995040802002Q7.247403007476807,39.784304080200194,8.497980007476807,38.43560408020019Q9.250720007476806,37.623804080200195,11.180400007476807,36.96640408020019Q12.219660007476808,36.61240408020019,14.526340007476808,36.035804080200194Q16.40133000747681,35.567104080200195,17.077410007476807,35.337004080200195Q17.556810007476805,35.1738040802002,17.796310007476805,35.037804080200196Q17.87411000747681,34.9936040802002,17.900410007476808,34.9696040802002Q17.849010007476807,35.016604080200196,17.807410007476804,35.118004080200194Q18.137510007476806,34.3133040802002,18.512110007476807,31.778004080200194L19.501310007476807,31.924104080200195L19.001010007476808,32.789904080200195Q15.719470007476806,30.893404080200195,15.350870007476807,25.575304080200198Q15.337950007476806,25.388904080200195,15.335210007476807,25.369604080200197L16.32529000747681,25.229104080200194L15.814340007476806,26.088704080200195Q14.942200007476806,25.570304080200195,14.373580007476807,24.744504080200194Q13.669380007476807,23.721904080200197,13.669380007476807,22.537904080200196Q13.669380007476807,21.384204080200195,14.483600007476806,20.724204080200195Q15.086050007476807,20.235904080200193,15.916120007476806,20.196604080200196L15.963500007476807,21.195404080200195L15.459860007476806,22.059404080200196Q15.165450007476807,21.887704080200194,14.933420007476807,21.623404080200196Q14.429050007476807,21.048804080200195,14.298360007476806,18.742414080200195Q14.168390007476805,16.448704080200194,14.482200007476806,14.371954080200195L14.482200007476806,14.371954080200195ZM16.459750007476806,14.670764080200195Q16.176920007476806,16.542534080200195,16.295160007476806,18.629264080200194Q16.34228000747681,19.460864080200196,16.442590007476806,20.038734080200193Q16.48409000747681,20.277804080200195,16.52490000747681,20.413404080200195Q16.535370007476807,20.448204080200195,16.538550007476807,20.455304080200193Q16.506630007476808,20.384004080200196,16.436350007476804,20.303904080200198Q16.453760007476806,20.323704080200194,16.467140007476807,20.331504080200197L19.387710007476805,22.034104080200194L16.010890007476807,22.194304080200197Q15.669380007476807,22.210504080200195,15.669380007476807,22.537904080200196Q15.669380007476807,23.099904080200197,16.020810007476804,23.610204080200194Q16.340860007476806,24.075004080200195,16.836230007476807,24.369504080200194L17.24806000747681,24.614204080200196L17.315370007476808,25.088604080200195Q17.32820000747681,25.179004080200194,17.346080007476807,25.437004080200197Q17.641110007476804,29.694004080200195,20.001710007476806,31.058304080200195L20.589910007476806,31.398204080200195L20.490610007476807,32.070304080200195Q20.080410007476807,34.846804080200194,19.65771000747681,35.8771040802002Q19.326710007476805,36.6840040802002,17.721910007476808,37.2303040802002Q16.967080007476806,37.4872040802002,15.011370007476806,37.976104080200194Q12.785630007476808,38.5325040802002,11.825320007476806,38.8596040802002Q10.373800007476806,39.354104080200194,9.964540007476806,39.7954040802002Q9.142820007476807,40.68170408020019,8.704070007476806,43.871904080200196Q8.471030007476806,45.56640408020019,8.438668007476807,47.036904080200195L7.438910007476807,47.014904080200196L7.438910007476807,46.014904080200196L38.3399100074768,46.014904080200196L38.3399100074768,47.014904080200196L37.345510007476804,47.1207040802002Q37.177710007476804,45.5436040802002,36.884310007476806,43.737704080200196Q36.31671000747681,40.244104080200195,35.76621000747681,39.2538040802002Q35.43271000747681,38.654004080200195,30.974610007476805,37.7722040802002Q29.055410007476805,37.3925040802002,28.291010007476807,37.1763040802002Q26.730710007476805,36.7350040802002,26.283410007476807,36.037304080200194Q25.546910007476807,34.888604080200196,25.154610007476805,31.953704080200197L25.070010007476807,31.321004080200197L25.608310007476806,30.977904080200194Q27.227910007476808,29.945704080200194,27.901910007476808,27.532604080200194Q28.253510007476805,26.273704080200194,28.253510007476805,25.267504080200197L28.253510007476805,24.655704080200195L28.798110007476808,24.377204080200194Q29.055210007476806,24.245704080200195,29.349510007476805,23.928204080200196Q29.912210007476805,23.321404080200196,29.912210007476805,22.537904080200196Q29.912210007476805,22.088904080200194,29.799710007476808,21.981304080200196Q29.826610007476805,22.007004080200197,29.873610007476806,22.015504080200195L29.879210007476807,22.023704080200197L27.765510007476806,22.792404080200196L28.610810007476807,20.708104080200194Q29.020310007476805,19.698194080200196,29.020310007476805,17.642214080200194Q29.020310007476805,15.766474080200195,27.893010007476807,13.820184080200196Q27.519610007476807,13.175694080200195,27.07541000747681,12.618154080200195Q26.798610007476807,12.270854080200195,26.763410007476807,12.243394080200195Q25.609410007476807,11.343434080200195,23.916010007476807,11.130944080200194Q22.930610007476808,11.007302080200196,21.407810007476805,11.134984080200196Q21.105110007476807,11.160364080200196,20.979810007476807,11.167304080200195Q20.672210007476806,11.184324080200195,20.030410007476807,11.411504080200196Q19.217110007476805,11.699374080200196,18.49421000747681,12.141574080200195Q16.673640007476806,13.255224080200195,16.459750007476806,14.670764080200195L16.459750007476806,14.670764080200195Z" fill="#8AD2FF" fill-opacity="1"/></g><g style="opacity:0.20000000298023224;mix-blend-mode:passthrough"><ellipse cx="22.8894202709198" cy="24.460503101348877" rx="17.62942886352539" ry="17.795547485351562" fill-opacity="0" stroke-opacity="0.20000000298023224" stroke="#41B0FF" fill="none" stroke-width="3"/></g></g></g></svg>