<svg xmlns="http://www.w3.org/2000/svg" xmlns:xlink="http://www.w3.org/1999/xlink" fill="none" version="1.1" width="111.978759765625" height="87" viewBox="0 0 111.978759765625 87"><defs><mask id="master_svg0_236_51559"><g style="mix-blend-mode:passthrough"><ellipse cx="55.9892578125" cy="43.5" rx="43" ry="43" fill="#FFFFFF" fill-opacity="1"/></g></mask><filter id="master_svg1_236_51560" filterUnits="objectBoundingBox" color-interpolation-filters="sRGB" x="-108.73126983642578" y="-108.73126983642578" width="321.89111328125" height="269.33555603027344"><feFlood flood-opacity="0" result="BackgroundImageFix"/><feBlend mode="normal" in="SourceGraphic" in2="BackgroundImageFix" result="shape"/><feGaussianBlur stdDeviation="27.182817459106445" result="effect1_foregroundBlur"/></filter><filter id="master_svg2_236_51561" filterUnits="objectBoundingBox" color-interpolation-filters="sRGB" x="0" y="0" width="86" height="86"><feFlood flood-opacity="0" result="BackgroundImageFix"/><feBlend mode="normal" in="SourceGraphic" in2="BackgroundImageFix" result="shape"/><feGaussianBlur stdDeviation="0" result="effect1_foregroundBlur"/></filter><linearGradient x1="0.3082001209259033" y1="0" x2="0.3082001209259033" y2="0.38359975814819336" id="master_svg3_78_023884"><stop offset="0%" stop-color="#66F4FF" stop-opacity="1"/><stop offset="100%" stop-color="#10DDFF" stop-opacity="0.00009999999747378752"/></linearGradient><linearGradient x1="0.18908533453941345" y1="0.41463562846183777" x2="0.18908533453941345" y2="1" id="master_svg4_78_023919"><stop offset="0%" stop-color="#1A83FF" stop-opacity="0.2389112412929535"/><stop offset="100%" stop-color="#1CFFBD" stop-opacity="0.9350824952125549"/></linearGradient><linearGradient x1="0.18615978956222534" y1="0.9012430310249329" x2="0.8832976818084717" y2="0.9012430310249329" id="master_svg5_78_023903"><stop offset="0%" stop-color="#00272D" stop-opacity="1"/><stop offset="46.87372446060181%" stop-color="#004651" stop-opacity="1"/><stop offset="100%" stop-color="#002D34" stop-opacity="1"/></linearGradient><linearGradient x1="0.07592069357633591" y1="1" x2="1.0759207010269165" y2="0.848158597946167" id="master_svg6_78_023906"><stop offset="0%" stop-color="#0089A0" stop-opacity="0.4034688472747803"/><stop offset="53.85998487472534%" stop-color="#0FAFCC" stop-opacity="1"/><stop offset="100%" stop-color="#00849A" stop-opacity="0.13603584468364716"/></linearGradient><linearGradient x1="0" y1="0" x2="0" y2="1" id="master_svg7_78_023855"><stop offset="0%" stop-color="#25F0FF" stop-opacity="1"/><stop offset="100%" stop-color="#10DDFF" stop-opacity="0.00009999999747378752"/></linearGradient><linearGradient x1="0" y1="0" x2="0" y2="1" id="master_svg8_78_023855"><stop offset="0%" stop-color="#25F0FF" stop-opacity="1"/><stop offset="100%" stop-color="#10DDFF" stop-opacity="0.00009999999747378752"/></linearGradient><linearGradient x1="0" y1="0" x2="0" y2="1" id="master_svg9_78_023855"><stop offset="0%" stop-color="#25F0FF" stop-opacity="1"/><stop offset="100%" stop-color="#10DDFF" stop-opacity="0.00009999999747378752"/></linearGradient><linearGradient x1="0" y1="0" x2="0" y2="1" id="master_svga_78_023855"><stop offset="0%" stop-color="#25F0FF" stop-opacity="1"/><stop offset="100%" stop-color="#10DDFF" stop-opacity="0.00009999999747378752"/></linearGradient><linearGradient x1="0" y1="0" x2="0" y2="1" id="master_svgb_78_023855"><stop offset="0%" stop-color="#25F0FF" stop-opacity="1"/><stop offset="100%" stop-color="#10DDFF" stop-opacity="0.00009999999747378752"/></linearGradient><linearGradient x1="0" y1="0" x2="0" y2="1" id="master_svgc_78_023855"><stop offset="0%" stop-color="#25F0FF" stop-opacity="1"/><stop offset="100%" stop-color="#10DDFF" stop-opacity="0.00009999999747378752"/></linearGradient><linearGradient x1="0" y1="0" x2="0" y2="1" id="master_svgd_78_023855"><stop offset="0%" stop-color="#25F0FF" stop-opacity="1"/><stop offset="100%" stop-color="#10DDFF" stop-opacity="0.00009999999747378752"/></linearGradient><linearGradient x1="0" y1="0" x2="0" y2="1" id="master_svge_78_023855"><stop offset="0%" stop-color="#25F0FF" stop-opacity="1"/><stop offset="100%" stop-color="#10DDFF" stop-opacity="0.00009999999747378752"/></linearGradient><linearGradient x1="0" y1="0" x2="0" y2="1" id="master_svgf_78_023855"><stop offset="0%" stop-color="#25F0FF" stop-opacity="1"/><stop offset="100%" stop-color="#10DDFF" stop-opacity="0.00009999999747378752"/></linearGradient><linearGradient x1="0.10644068568944931" y1="0.2553962171077728" x2="0.10886064171791077" y2="1.0012099742889404" id="master_svgg_78_023850"><stop offset="0%" stop-color="#1A83FF" stop-opacity="0.2389112412929535"/><stop offset="35.14942228794098%" stop-color="#25F0FF" stop-opacity="1"/><stop offset="72.7460503578186%" stop-color="#1CFFBD" stop-opacity="0.9350824952125549"/><stop offset="100%" stop-color="#FFFFFF" stop-opacity="1"/></linearGradient><linearGradient x1="0.10644068568944931" y1="0.2553962171077728" x2="0.10886064171791077" y2="1.0012099742889404" id="master_svgh_78_023850"><stop offset="0%" stop-color="#1A83FF" stop-opacity="0.2389112412929535"/><stop offset="35.14942228794098%" stop-color="#25F0FF" stop-opacity="1"/><stop offset="72.7460503578186%" stop-color="#1CFFBD" stop-opacity="0.9350824952125549"/><stop offset="100%" stop-color="#FFFFFF" stop-opacity="1"/></linearGradient><filter id="master_svgi_236_51579" filterUnits="objectBoundingBox" color-interpolation-filters="sRGB" x="-21.746253967285156" y="-21.746253967285156" width="111.9785385131836" height="75.61200714111328"><feFlood flood-opacity="0" result="BackgroundImageFix"/><feBlend mode="normal" in="SourceGraphic" in2="BackgroundImageFix" result="shape"/><feGaussianBlur stdDeviation="5.436563491821289" result="effect1_foregroundBlur"/></filter><linearGradient x1="0" y1="0" x2="0" y2="1" id="master_svgj_78_023888"><stop offset="0%" stop-color="#25F0FF" stop-opacity="0.00009999999747378752"/><stop offset="100%" stop-color="#10DDFF" stop-opacity="1"/></linearGradient></defs><g style="mix-blend-mode:passthrough"><g style="mix-blend-mode:passthrough" mask="url(#master_svg0_236_51559)"><g style="mix-blend-mode:passthrough"></g><g style="mix-blend-mode:passthrough" filter="url(#master_svg1_236_51560)"><ellipse cx="57.69561004638672" cy="21.658737182617188" rx="52.21428680419922" ry="25.936508178710938" fill="#10DDFF" fill-opacity="1"/></g></g><g style="mix-blend-mode:passthrough" filter="url(#master_svg2_236_51561)"><ellipse cx="55.9892578125" cy="43.5" rx="43" ry="43" stroke="url(#master_svg3_78_023884)" fill-opacity="0" fill="none" stroke-width="1"/></g><g style="opacity:0.276394784450531;"><ellipse cx="55.797183990478516" cy="74.9772367477417" rx="35.093265533447266" ry="10.609591484069824" stroke="url(#master_svg4_78_023919)" fill-opacity="0" fill="none" stroke-width="1"/></g><g style="mix-blend-mode:passthrough"><path d="M56.33054853515625,78.99204350585937Q57.19344853515625,78.99204350585937,58.05534853515625,78.97934350585938Q58.91714853515625,78.96654350585938,59.77594853515625,78.94114350585937Q60.63464853515625,78.91564350585938,61.48824853515625,78.87754350585938Q62.34174853515625,78.83944350585938,63.18814853515625,78.78874350585937Q64.03444853515626,78.73814350585937,64.87144853515625,78.67504350585938Q65.70854853515624,78.61194350585937,66.53424853515625,78.53654350585937Q67.36004853515625,78.46114350585938,68.17244853515625,78.37364350585938Q68.98494853515625,78.28614350585937,69.78214853515625,78.18674350585937Q70.57934853515624,78.08734350585938,71.35944853515625,77.97634350585938Q72.13944853515625,77.86534350585937,72.90054853515625,77.74284350585938Q73.66154853515624,77.62044350585937,74.40164853515626,77.48694350585937Q75.14184853515624,77.35344350585937,75.85924853515624,77.20914350585937Q76.57674853515624,77.06484350585937,77.26984853515626,76.91014350585937Q77.96294853515624,76.75544350585938,78.62994853515625,76.59064350585938Q79.29704853515625,76.42594350585938,79.93634853515624,76.25154350585937Q80.57574853515625,76.07704350585938,81.18594853515626,75.89344350585938Q81.79604853515625,75.70984350585937,82.37554853515624,75.51734350585937Q82.95504853515625,75.32494350585938,83.50244853515625,75.12414350585938Q84.04984853515626,74.92344350585938,84.56394853515624,74.71484350585938Q85.07794853515625,74.50624350585937,85.55734853515625,74.29024350585938Q86.03674853515625,74.07434350585937,86.48034853515625,73.85154350585938Q86.92404853515625,73.62884350585938,87.33074853515625,73.39974350585938Q87.73754853515625,73.17074350585938,88.10644853515625,72.93594350585937Q88.47544853515625,72.70124350585938,88.80564853515625,72.46124350585937Q89.13584853515626,72.22134350585938,89.42654853515624,71.97674350585937Q89.71724853515624,71.73224350585937,89.96774853515625,71.48374350585938Q90.21824853515625,71.23524350585937,90.42784853515624,70.98324350585938Q90.63754853515626,70.73134350585937,90.80594853515625,70.47664350585937Q90.97424853515625,70.22194350585937,91.10084853515625,69.96504350585937Q91.22744853515626,69.70814350585937,91.31204853515625,69.44964350585937Q91.39664853515625,69.19124350585938,91.43894853515626,68.93184350585938Q91.48134853515624,68.67244350585938,91.48134853515624,68.41274350585937Q91.48134853515624,68.24174350585938,91.46294853515624,68.07084350585937L91.48134853515624,68.07084350585937L91.48134853515624,61.24545350585937L82.18554853515624,61.24545350585937Q81.57034853515626,61.044433505859374,80.92154853515625,60.85323350585938Q80.27264853515625,60.66204350585937,79.59194853515625,60.48118350585938Q78.91114853515626,60.300323505859375,78.20024853515625,60.13029350585938Q77.48934853515625,59.96025350585938,76.75024853515626,59.801493505859376Q76.01104853515625,59.642733505859375,75.24574853515625,59.495663505859376Q74.48034853515625,59.34860350585937,73.69074853515625,59.213623505859374Q72.90124853515624,59.07865350585938,72.08954853515624,58.956123505859374Q71.27784853515625,58.83360350585937,70.44624853515626,58.72384950585938Q69.61464853515625,58.614100505859376,68.76524853515625,58.51742050585938Q67.91594853515625,58.42074050585938,67.05114853515624,58.33738850585937Q66.18634853515624,58.25403550585938,65.30844853515626,58.184233505859375Q64.43054853515625,58.114430505859374,63.54174853515625,58.058363505859376Q62.65304853515625,58.00229550585937,61.75584853515625,57.96011450585937Q60.85864853515625,57.91793260585938,59.95544853515625,57.88974880585938Q59.05224853515625,57.861564905859375,58.14544853515625,57.84745420585938Q57.23854853515625,57.833343505859375,56.33054853515625,57.833343505859375Q55.42244853515625,57.833343505859375,54.51564853515625,57.84745420585938Q53.60884853515625,57.861564905859375,52.70564853515625,57.88974880585938Q51.80234853515625,57.91793260585938,50.90524853515625,57.96011450585937Q50.00804853515625,58.00229550585937,49.11934853515625,58.058363505859376Q48.230548535156245,58.114430505859374,47.35264853515625,58.184233505859375Q46.47474853515625,58.25403550585938,45.60994853515625,58.33738850585937Q44.74514853515625,58.42074050585938,43.89584853515625,58.51742050585938Q43.04644853515625,58.614100505859376,42.21484853515625,58.72384950585938Q41.38324853515625,58.83360350585937,40.57154853515625,58.956123505859374Q39.75984853515625,59.07865350585938,38.97034853515625,59.213623505859374Q38.180748535156255,59.34860350585937,37.415348535156255,59.495663505859376Q36.64994853515625,59.642733505859375,35.91084853515625,59.801493505859376Q35.171748535156254,59.96025350585938,34.46084853515625,60.13029350585938Q33.74994853515625,60.300323505859375,33.06914853515625,60.48118350585938Q32.388348535156254,60.66204350585937,31.73954853515625,60.85323350585938Q31.09070853515625,61.044433505859374,30.47552853515625,61.24545350585937L21.17974853515625,61.24545350585937L21.17974853515625,68.07084350585937L21.19810513515625,68.07084350585937Q21.17974853515625,68.24174350585938,21.17974853515625,68.41274350585937Q21.17974853515625,68.67244350585938,21.22208923515625,68.93184350585938Q21.26442983515625,69.19124350585938,21.34900953515625,69.44964350585937Q21.43358853515625,69.70814350585937,21.56020253515625,69.96504350585937Q21.68681653515625,70.22194350585937,21.85516153515625,70.47664350585937Q22.02350553515625,70.73134350585937,22.23317853515625,70.98324350585938Q22.44283853515625,71.23524350585937,22.69332853515625,71.48374350585938Q22.94381853515625,71.73224350585937,23.23451853515625,71.97674350585937Q23.52522853515625,72.22134350585938,23.85543853515625,72.46124350585937Q24.18565853515625,72.70124350585938,24.55459853515625,72.93594350585937Q24.92353853515625,73.17074350585938,25.33030853515625,73.39974350585938Q25.73707853515625,73.62884350585938,26.18069853515625,73.85154350585938Q26.62431853515625,74.07434350585937,27.10372853515625,74.29024350585938Q27.58312853515625,74.50624350585937,28.09715853515625,74.71484350585938Q28.611188535156252,74.92344350585938,29.15860853515625,75.12414350585938Q29.70602853515625,75.32494350585938,30.28551853515625,75.51734350585937Q30.86500853515625,75.70984350585937,31.47514853515625,75.89344350585938Q32.08534853515625,76.07704350585938,32.72474853515625,76.25154350585937Q33.36404853515625,76.42594350585938,34.03114853515625,76.59064350585938Q34.69814853515625,76.75544350585938,35.39124853515625,76.91014350585937Q36.08434853515625,77.06484350585937,36.80184853515625,77.20914350585937Q37.51924853515625,77.35344350585937,38.25944853515625,77.48694350585937Q38.99954853515625,77.62044350585937,39.760548535156246,77.74284350585938Q40.52154853515625,77.86534350585937,41.30164853515625,77.97634350585938Q42.08164853515625,78.08734350585938,42.878948535156255,78.18674350585937Q43.67614853515625,78.28614350585937,44.488548535156255,78.37364350585938Q45.301048535156255,78.46114350585938,46.12684853515625,78.53654350585937Q46.952548535156254,78.61194350585937,47.78954853515625,78.67504350585938Q48.62664853515625,78.73814350585937,49.47294853515625,78.78874350585937Q50.31924853515625,78.83944350585938,51.17284853515625,78.87754350585938Q52.02644853515625,78.91564350585938,52.88514853515625,78.94114350585937Q53.74394853515625,78.96654350585938,54.60574853515625,78.97934350585938Q55.46764853515625,78.99204350585937,56.33054853515625,78.99204350585937Z" fill-rule="evenodd" fill="url(#master_svg5_78_023903)" fill-opacity="1"/><path d="M56.33054853515625,78.49204350585937Q63.00554853515625,78.49204350585937,69.21024853515625,77.75274350585937Q75.93564853515625,76.95144350585937,81.04184853515625,75.41464350585937Q86.10304853515625,73.89144350585937,88.71074853515626,71.90884350585938Q90.98134853515624,70.18264350585937,90.98134853515624,68.41274350585937Q90.98134853515624,68.26854350585937,90.96584853515625,68.12424350585937L90.90634853515625,67.57085350585938L91.48134853515624,67.57085350585938L91.48134853515624,68.07084350585937L90.98134853515624,68.07084350585937L90.98134853515624,61.24545350585937L91.48134853515624,61.24545350585937L91.48134853515624,61.74545350585937L82.10594853515624,61.74545350585937L82.03024853515625,61.720723505859375Q77.08264853515625,60.104003505859374,70.38084853515625,59.21955350585937Q63.66564853515625,58.333343505859375,56.33054853515625,58.333343505859375Q48.99544853515625,58.333343505859375,42.28024853515625,59.21955350585937Q35.57844853515625,60.104003505859374,30.630828535156247,61.720723505859375L30.55514853515625,61.74545350585937L21.17974853515625,61.74545350585937L21.17974853515625,61.24545350585937L21.67974853515625,61.24545350585937L21.67974853515625,68.07084350585937L21.17974853515625,68.07084350585937L21.17974853515625,67.57085350585938L21.75469253515625,67.57085350585938L21.69524553515625,68.12424350585937Q21.67974853515625,68.26854350585937,21.67974853515625,68.41274350585937Q21.67974853515625,70.18264350585937,23.95034853515625,71.90884350585938Q26.55810853515625,73.89144350585937,31.619248535156252,75.41464350585937Q36.72534853515625,76.95144350585937,43.450848535156254,77.75274350585937Q49.65554853515625,78.49204350585937,56.33054853515625,78.49204350585937ZM56.33054853515625,79.49204350585937Q49.596148535156246,79.49204350585937,43.33254853515625,78.74574350585938Q36.52054853515625,77.93414350585937,31.33104853515625,76.37224350585937Q26.09680853515625,74.79684350585937,23.345148535156248,72.70494350585938Q20.67974853515625,70.67864350585937,20.67974853515625,68.41274350585937Q20.67974853515625,68.21494350585938,20.70096553515625,68.01744350585938L21.19810513515625,68.07084350585937L21.19810513515625,68.57084350585937L20.67974853515625,68.57084350585937L20.67974853515625,60.74545350585937L30.47552853515625,60.74545350585937L30.47552853515625,61.24545350585937L30.32021853515625,60.77018350585938Q35.35584853515625,59.12470350585937,42.14944853515625,58.228147505859376Q48.92974853515625,57.333343505859375,56.33054853515625,57.333343505859375Q63.73134853515625,57.333343505859375,70.51164853515624,58.228147505859376Q77.30524853515625,59.124713505859376,82.34084853515625,60.77018350585938L82.18554853515624,61.24545350585937L82.18554853515624,60.74545350585937L91.98134853515624,60.74545350585937L91.98134853515624,68.57084350585937L91.46294853515624,68.57084350585937L91.46294853515624,68.07084350585937L91.96014853515625,68.01744350585938Q91.98134853515624,68.21494350585938,91.98134853515624,68.41274350585937Q91.98134853515624,70.67864350585937,89.31594853515625,72.70494350585938Q86.56434853515626,74.79684350585937,81.33004853515625,76.37224350585937Q76.14054853515626,77.93414350585937,69.32854853515624,78.74574350585938Q63.06494853515625,79.49214350585937,56.33054853515625,79.49204350585937Z" fill="url(#master_svg6_78_023906)" fill-opacity="1"/></g><g style="mix-blend-mode:passthrough"><g style="mix-blend-mode:passthrough"><path d="M52.235274375,73.95700028564453C52.235274375,73.76852228564454,52.082482375,73.61573028564453,51.894004375,73.61573028564453C51.705526375,73.61573028564453,51.552734375,73.76852228564454,51.552734375,73.95700028564453C51.552734375,73.95700028564453,52.235274375,73.95700028564453,52.235274375,73.95700028564453C52.235274375,73.95700028564453,52.235274375,73.95700028564453,52.235274375,73.95700028564453ZM51.552734375,77.02428028564454C51.552734375,77.21276028564453,51.705526375,77.36555028564453,51.894004375,77.36555028564453C52.082482375,77.36555028564453,52.235274375,77.21276028564453,52.235274375,77.02428028564454C52.235274375,77.02428028564454,51.552734375,77.02428028564454,51.552734375,77.02428028564454C51.552734375,77.02428028564454,51.552734375,77.02428028564454,51.552734375,77.02428028564454ZM51.552734375,73.95700028564453C51.552734375,73.95700028564453,51.552734375,77.02428028564454,51.552734375,77.02428028564454C51.552734375,77.02428028564454,52.235274375,77.02428028564454,52.235274375,77.02428028564454C52.235274375,77.02428028564454,52.235274375,73.95700028564453,52.235274375,73.95700028564453C52.235274375,73.95700028564453,51.552734375,73.95700028564453,51.552734375,73.95700028564453C51.552734375,73.95700028564453,51.552734375,73.95700028564453,51.552734375,73.95700028564453Z" fill="url(#master_svg7_78_023855)" fill-opacity="1"/></g><g style="opacity:0.6000000238418579;"><path d="M44.04478365234375,73.27444413330078C44.04478365234375,73.08596613330079,43.89199165234375,72.93317413330078,43.70351365234375,72.93317413330078C43.51503565234375,72.93317413330078,43.36224365234375,73.08596613330079,43.36224365234375,73.27444413330078C43.36224365234375,73.27444413330078,44.04478365234375,73.27444413330078,44.04478365234375,73.27444413330078C44.04478365234375,73.27444413330078,44.04478365234375,73.27444413330078,44.04478365234375,73.27444413330078ZM43.36224365234375,76.34172413330079C43.36224365234375,76.53020413330078,43.51503565234375,76.68299413330078,43.70351365234375,76.68299413330078C43.89199165234375,76.68299413330078,44.04478365234375,76.53020413330078,44.04478365234375,76.34172413330079C44.04478365234375,76.34172413330079,43.36224365234375,76.34172413330079,43.36224365234375,76.34172413330079C43.36224365234375,76.34172413330079,43.36224365234375,76.34172413330079,43.36224365234375,76.34172413330079ZM43.36224365234375,73.27444413330078C43.36224365234375,73.27444413330078,43.36224365234375,76.34172413330079,43.36224365234375,76.34172413330079C43.36224365234375,76.34172413330079,44.04478365234375,76.34172413330079,44.04478365234375,76.34172413330079C44.04478365234375,76.34172413330079,44.04478365234375,73.27444413330078,44.04478365234375,73.27444413330078C44.04478365234375,73.27444413330078,43.36224365234375,73.27444413330078,43.36224365234375,73.27444413330078C43.36224365234375,73.27444413330078,43.36224365234375,73.27444413330078,43.36224365234375,73.27444413330078Z" fill="url(#master_svg8_78_023855)" fill-opacity="1"/></g><g style="opacity:0.4000000059604645;"><path d="M35.1717978125,71.90939286376953C35.1717978125,71.72091486376954,35.0190058125,71.56812286376953,34.8305278125,71.56812286376953C34.6420498125,71.56812286376953,34.4892578125,71.72091486376954,34.4892578125,71.90939286376953C34.4892578125,71.90939286376953,35.1717978125,71.90939286376953,35.1717978125,71.90939286376953C35.1717978125,71.90939286376953,35.1717978125,71.90939286376953,35.1717978125,71.90939286376953ZM34.4892578125,74.97667286376954C34.4892578125,75.16515286376953,34.6420498125,75.31794286376953,34.8305278125,75.31794286376953C35.0190058125,75.31794286376953,35.1717978125,75.16515286376953,35.1717978125,74.97667286376954C35.1717978125,74.97667286376954,34.4892578125,74.97667286376954,34.4892578125,74.97667286376954C34.4892578125,74.97667286376954,34.4892578125,74.97667286376954,34.4892578125,74.97667286376954ZM34.4892578125,71.90939286376953C34.4892578125,71.90939286376953,34.4892578125,74.97667286376954,34.4892578125,74.97667286376954C34.4892578125,74.97667286376954,35.1717978125,74.97667286376954,35.1717978125,74.97667286376954C35.1717978125,74.97667286376954,35.1717978125,71.90939286376953,35.1717978125,71.90939286376953C35.1717978125,71.90939286376953,34.4892578125,71.90939286376953,34.4892578125,71.90939286376953C34.4892578125,71.90939286376953,34.4892578125,71.90939286376953,34.4892578125,71.90939286376953Z" fill="url(#master_svg9_78_023855)" fill-opacity="1"/></g><g style="opacity:0.20000000298023224;"><path d="M26.98130708984375,69.86172440673828C26.98130708984375,69.67324640673829,26.82851508984375,69.52045440673828,26.64003708984375,69.52045440673828C26.45155908984375,69.52045440673828,26.29876708984375,69.67324640673829,26.29876708984375,69.86172440673828C26.29876708984375,69.86172440673828,26.98130708984375,69.86172440673828,26.98130708984375,69.86172440673828C26.98130708984375,69.86172440673828,26.98130708984375,69.86172440673828,26.98130708984375,69.86172440673828ZM26.29876708984375,72.92900440673829C26.29876708984375,73.11748440673828,26.45155908984375,73.27027440673828,26.64003708984375,73.27027440673828C26.82851508984375,73.27027440673828,26.98130708984375,73.11748440673828,26.98130708984375,72.92900440673829C26.98130708984375,72.92900440673829,26.29876708984375,72.92900440673829,26.29876708984375,72.92900440673829C26.29876708984375,72.92900440673829,26.29876708984375,72.92900440673829,26.29876708984375,72.92900440673829ZM26.29876708984375,69.86172440673828C26.29876708984375,69.86172440673828,26.29876708984375,72.92900440673829,26.29876708984375,72.92900440673829C26.29876708984375,72.92900440673829,26.98130708984375,72.92900440673829,26.98130708984375,72.92900440673829C26.98130708984375,72.92900440673829,26.98130708984375,69.86172440673828,26.98130708984375,69.86172440673828C26.98130708984375,69.86172440673828,26.29876708984375,69.86172440673828,26.29876708984375,69.86172440673828C26.29876708984375,69.86172440673828,26.29876708984375,69.86172440673828,26.29876708984375,69.86172440673828Z" fill="url(#master_svga_78_023855)" fill-opacity="1"/></g><g style="mix-blend-mode:passthrough"><path d="M65.88609224609375,73.95700028564453C65.88609224609375,73.76852228564454,65.73330024609375,73.61573028564453,65.54482224609374,73.61573028564453C65.35634424609376,73.61573028564453,65.20355224609375,73.76852228564454,65.20355224609375,73.95700028564453C65.20355224609375,73.95700028564453,65.88609224609375,73.95700028564453,65.88609224609375,73.95700028564453C65.88609224609375,73.95700028564453,65.88609224609375,73.95700028564453,65.88609224609375,73.95700028564453ZM65.20355224609375,77.02428028564454C65.20355224609375,77.21276028564453,65.35634424609376,77.36555028564453,65.54482224609374,77.36555028564453C65.73330024609375,77.36555028564453,65.88609224609375,77.21276028564453,65.88609224609375,77.02428028564454C65.88609224609375,77.02428028564454,65.20355224609375,77.02428028564454,65.20355224609375,77.02428028564454C65.20355224609375,77.02428028564454,65.20355224609375,77.02428028564454,65.20355224609375,77.02428028564454ZM65.20355224609375,73.95700028564453C65.20355224609375,73.95700028564453,65.20355224609375,77.02428028564454,65.20355224609375,77.02428028564454C65.20355224609375,77.02428028564454,65.88609224609375,77.02428028564454,65.88609224609375,77.02428028564454C65.88609224609375,77.02428028564454,65.88609224609375,73.95700028564453,65.88609224609375,73.95700028564453C65.88609224609375,73.95700028564453,65.20355224609375,73.95700028564453,65.20355224609375,73.95700028564453C65.20355224609375,73.95700028564453,65.20355224609375,73.95700028564453,65.20355224609375,73.95700028564453Z" fill="url(#master_svgb_78_023855)" fill-opacity="1"/></g><g style="opacity:0.6000000238418579;"><path d="M74.07658296875,72.59188798095703C74.07658296875,72.40340998095704,73.92379096875,72.25061798095703,73.73531296875,72.25061798095703C73.54683496875,72.25061798095703,73.39404296875,72.40340998095704,73.39404296875,72.59188798095703C73.39404296875,72.59188798095703,74.07658296875,72.59188798095703,74.07658296875,72.59188798095703C74.07658296875,72.59188798095703,74.07658296875,72.59188798095703,74.07658296875,72.59188798095703ZM73.39404296875,75.65916798095704C73.39404296875,75.84764798095703,73.54683496875,76.00043798095703,73.73531296875,76.00043798095703C73.92379096875,76.00043798095703,74.07658296875,75.84764798095703,74.07658296875,75.65916798095704C74.07658296875,75.65916798095704,73.39404296875,75.65916798095704,73.39404296875,75.65916798095704C73.39404296875,75.65916798095704,73.39404296875,75.65916798095704,73.39404296875,75.65916798095704ZM73.39404296875,72.59188798095703C73.39404296875,72.59188798095703,73.39404296875,75.65916798095704,73.39404296875,75.65916798095704C73.39404296875,75.65916798095704,74.07658296875,75.65916798095704,74.07658296875,75.65916798095704C74.07658296875,75.65916798095704,74.07658296875,72.59188798095703,74.07658296875,72.59188798095703C74.07658296875,72.59188798095703,73.39404296875,72.59188798095703,73.39404296875,72.59188798095703C73.39404296875,72.59188798095703,73.39404296875,72.59188798095703,73.39404296875,72.59188798095703Z" fill="url(#master_svgc_78_023855)" fill-opacity="1"/></g><g style="opacity:0.4000000059604645;"><path d="M80.90196138671875,70.54428055908203C80.90196138671875,70.35580255908204,80.74916938671875,70.20301055908203,80.56069138671874,70.20301055908203C80.37221338671876,70.20301055908203,80.21942138671875,70.35580255908204,80.21942138671875,70.54428055908203C80.21942138671875,70.54428055908203,80.90196138671875,70.54428055908203,80.90196138671875,70.54428055908203C80.90196138671875,70.54428055908203,80.90196138671875,70.54428055908203,80.90196138671875,70.54428055908203ZM80.21942138671875,73.61156055908204C80.21942138671875,73.80004055908203,80.37221338671876,73.95283055908203,80.56069138671874,73.95283055908203C80.74916938671875,73.95283055908203,80.90196138671875,73.80004055908203,80.90196138671875,73.61156055908204C80.90196138671875,73.61156055908204,80.21942138671875,73.61156055908204,80.21942138671875,73.61156055908204C80.21942138671875,73.61156055908204,80.21942138671875,73.61156055908204,80.21942138671875,73.61156055908204ZM80.21942138671875,70.54428055908203C80.21942138671875,70.54428055908203,80.21942138671875,73.61156055908204,80.21942138671875,73.61156055908204C80.21942138671875,73.61156055908204,80.90196138671875,73.61156055908204,80.90196138671875,73.61156055908204C80.90196138671875,73.61156055908204,80.90196138671875,70.54428055908203,80.90196138671875,70.54428055908203C80.90196138671875,70.54428055908203,80.21942138671875,70.54428055908203,80.21942138671875,70.54428055908203C80.21942138671875,70.54428055908203,80.21942138671875,70.54428055908203,80.21942138671875,70.54428055908203Z" fill="url(#master_svgd_78_023855)" fill-opacity="1"/></g><g style="opacity:0.4000000059604645;"><path d="M87.7273398046875,67.81411698486328C87.7273398046875,67.62563898486329,87.5745478046875,67.47284698486328,87.3860698046875,67.47284698486328C87.1975918046875,67.47284698486328,87.0447998046875,67.62563898486329,87.0447998046875,67.81411698486328C87.0447998046875,67.81411698486328,87.7273398046875,67.81411698486328,87.7273398046875,67.81411698486328C87.7273398046875,67.81411698486328,87.7273398046875,67.81411698486328,87.7273398046875,67.81411698486328ZM87.0447998046875,70.88139698486329C87.0447998046875,71.06987698486328,87.1975918046875,71.22266698486328,87.3860698046875,71.22266698486328C87.5745478046875,71.22266698486328,87.7273398046875,71.06987698486328,87.7273398046875,70.88139698486329C87.7273398046875,70.88139698486329,87.0447998046875,70.88139698486329,87.0447998046875,70.88139698486329C87.0447998046875,70.88139698486329,87.0447998046875,70.88139698486329,87.0447998046875,70.88139698486329ZM87.0447998046875,67.81411698486328C87.0447998046875,67.81411698486328,87.0447998046875,70.88139698486329,87.0447998046875,70.88139698486329C87.0447998046875,70.88139698486329,87.7273398046875,70.88139698486329,87.7273398046875,70.88139698486329C87.7273398046875,70.88139698486329,87.7273398046875,67.81411698486328,87.7273398046875,67.81411698486328C87.7273398046875,67.81411698486328,87.0447998046875,67.81411698486328,87.0447998046875,67.81411698486328C87.0447998046875,67.81411698486328,87.0447998046875,67.81411698486328,87.0447998046875,67.81411698486328Z" fill="url(#master_svge_78_023855)" fill-opacity="1"/></g><g style="mix-blend-mode:passthrough"><path d="M59.06065279296875,73.95700028564453C59.06065279296875,73.76852228564454,58.90786079296875,73.61573028564453,58.71938279296875,73.61573028564453C58.53090479296875,73.61573028564453,58.37811279296875,73.76852228564454,58.37811279296875,73.95700028564453C58.37811279296875,73.95700028564453,59.06065279296875,73.95700028564453,59.06065279296875,73.95700028564453C59.06065279296875,73.95700028564453,59.06065279296875,73.95700028564453,59.06065279296875,73.95700028564453ZM58.37811279296875,77.02428028564454C58.37811279296875,77.21276028564453,58.53090479296875,77.36555028564453,58.71938279296875,77.36555028564453C58.90786079296875,77.36555028564453,59.06065279296875,77.21276028564453,59.06065279296875,77.02428028564454C59.06065279296875,77.02428028564454,58.37811279296875,77.02428028564454,58.37811279296875,77.02428028564454C58.37811279296875,77.02428028564454,58.37811279296875,77.02428028564454,58.37811279296875,77.02428028564454ZM58.37811279296875,73.95700028564453C58.37811279296875,73.95700028564453,58.37811279296875,77.02428028564454,58.37811279296875,77.02428028564454C58.37811279296875,77.02428028564454,59.06065279296875,77.02428028564454,59.06065279296875,77.02428028564454C59.06065279296875,77.02428028564454,59.06065279296875,73.95700028564453,59.06065279296875,73.95700028564453C59.06065279296875,73.95700028564453,58.37811279296875,73.95700028564453,58.37811279296875,73.95700028564453C58.37811279296875,73.95700028564453,58.37811279296875,73.95700028564453,58.37811279296875,73.95700028564453Z" fill="url(#master_svgf_78_023855)" fill-opacity="1"/></g></g><g style="mix-blend-mode:passthrough"><ellipse cx="55.797183990478516" cy="61.065463066101074" rx="35.093265533447266" ry="10.609591484069824" fill="#001B1F" fill-opacity="1"/><ellipse cx="55.797183990478516" cy="61.065463066101074" rx="35.093265533447266" ry="10.609591484069824" stroke="url(#master_svgg_78_023850)" fill-opacity="0" fill="none" stroke-width="1"/></g><g style="mix-blend-mode:passthrough"><ellipse cx="55.7972412109375" cy="61.06549310684204" rx="23.59637451171875" ry="7.507936954498291" fill-opacity="0" stroke-opacity="1" stroke="#00343D" fill="none" stroke-width="2"/></g><g style="mix-blend-mode:passthrough"><ellipse cx="55.989256858825684" cy="60.86002492904663" rx="11.654906272888184" ry="3.412698268890381" fill="#10DDFF" fill-opacity="1"/><ellipse cx="55.989256858825684" cy="60.86002492904663" rx="11.654906272888184" ry="3.412698268890381" stroke="url(#master_svgh_78_023850)" fill-opacity="0" fill="none" stroke-width="1"/></g><g style="opacity:0.4155316948890686;" filter="url(#master_svgi_236_51579)"><path d="M67.25123789062499,61.81154711914063C67.25123789062499,61.81154711914063,44.727337890625,61.81154711914063,44.727337890625,61.81154711914063C44.727337890625,61.81154711914063,21.746337890625,29.692047119140625,21.746337890625,29.692047119140625C21.746337890625,29.692047119140625,90.232337890625,29.692047119140625,90.232337890625,29.692047119140625C90.232337890625,29.692047119140625,67.25123789062499,61.81154711914063,67.25123789062499,61.81154711914063C67.25123789062499,61.81154711914063,67.25123789062499,61.81154711914063,67.25123789062499,61.81154711914063Z" fill-rule="evenodd" fill="url(#master_svgj_78_023888)" fill-opacity="1"/></g><g style="mix-blend-mode:passthrough"><g style="mix-blend-mode:passthrough"><ellipse cx="43.021024227142334" cy="55.785733699798584" rx="1.365079402923584" ry="1.365079402923584" fill="#10DDFF" fill-opacity="1"/></g><g style="opacity:0.30000001192092896;"><ellipse cx="26.640042781829834" cy="40.76983404159546" rx="1.365079402923584" ry="1.365079402923584" fill="#10DDFF" fill-opacity="1"/></g><g style="opacity:0.6000000238418579;"><ellipse cx="32.100369930267334" cy="55.785733699798584" rx="1.365079402923584" ry="1.365079402923584" fill="#10DDFF" fill-opacity="1"/></g><g style="mix-blend-mode:passthrough"><ellipse cx="36.87815737724304" cy="48.27778506278992" rx="0.682539701461792" ry="0.682539701461792" fill="#10DDFF" fill-opacity="1"/></g><g style="opacity:0.4000000059604645;"><ellipse cx="36.19560122489929" cy="40.08729434013367" rx="0.682539701461792" ry="0.682539701461792" fill="#10DDFF" fill-opacity="1"/></g></g><g style="mix-blend-mode:passthrough" transform="matrix(-1,0,0,1,180.2325439453125,0)"><g style="mix-blend-mode:passthrough"><ellipse cx="96.25918340682983" cy="51.69048833847046" rx="1.365079402923584" ry="1.365079402923584" fill="#10DDFF" fill-opacity="1"/></g><g style="opacity:0.30000001192092896;"><ellipse cx="91.48135137557983" cy="35.99206304550171" rx="1.365079402923584" ry="1.365079402923584" fill="#10DDFF" fill-opacity="1"/></g><g style="opacity:0.6000000238418579;"><ellipse cx="104.44967412948608" cy="59.19842290878296" rx="1.365079402923584" ry="1.365079402923584" fill="#10DDFF" fill-opacity="1"/></g><g style="mix-blend-mode:passthrough"><ellipse cx="103.08451724052429" cy="45.54762148857117" rx="0.682539701461792" ry="0.682539701461792" fill="#10DDFF" fill-opacity="1"/></g><g style="opacity:0.4000000059604645;"><ellipse cx="101.03697085380554" cy="35.99204897880554" rx="0.682539701461792" ry="0.682539701461792" fill="#10DDFF" fill-opacity="1"/></g></g></g></svg>