<svg xmlns="http://www.w3.org/2000/svg" xmlns:xlink="http://www.w3.org/1999/xlink" fill="none" version="1.1" width="287.6015625" height="304.736328125" viewBox="0 0 287.6015625 304.736328125"><defs><linearGradient x1="-0.083123117685318" y1="0.1940765529870987" x2="-0.083123117685318" y2="1.2967610359191895" id="master_svg0_78_165052"><stop offset="0%" stop-color="#6BC1B7" stop-opacity="0.00009999999747378752"/><stop offset="100%" stop-color="#10DDFF" stop-opacity="1"/></linearGradient><linearGradient x1="-0.083123117685318" y1="0.1940765529870987" x2="-0.083123117685318" y2="1.2967610359191895" id="master_svg1_78_165052"><stop offset="0%" stop-color="#6BC1B7" stop-opacity="0.00009999999747378752"/><stop offset="100%" stop-color="#10DDFF" stop-opacity="1"/></linearGradient><linearGradient x1="0.18615978956222534" y1="0.9012430310249329" x2="0.8832976818084717" y2="0.9012430310249329" id="master_svg2_78_023903"><stop offset="0%" stop-color="#00272D" stop-opacity="1"/><stop offset="46.87372446060181%" stop-color="#004651" stop-opacity="1"/><stop offset="100%" stop-color="#002D34" stop-opacity="1"/></linearGradient><linearGradient x1="0.07592069357633591" y1="1" x2="1.0759207010269165" y2="0.848158597946167" id="master_svg3_78_023906"><stop offset="0%" stop-color="#0089A0" stop-opacity="0.4034688472747803"/><stop offset="53.85998487472534%" stop-color="#0FAFCC" stop-opacity="1"/><stop offset="100%" stop-color="#00849A" stop-opacity="0.13603584468364716"/></linearGradient><linearGradient x1="0.10644068568944931" y1="0.2553962171077728" x2="0.10886064171791077" y2="1.0012099742889404" id="master_svg4_78_023850"><stop offset="0%" stop-color="#1A83FF" stop-opacity="0.2389112412929535"/><stop offset="35.14942228794098%" stop-color="#25F0FF" stop-opacity="1"/><stop offset="72.7460503578186%" stop-color="#1CFFBD" stop-opacity="0.9350824952125549"/><stop offset="100%" stop-color="#FFFFFF" stop-opacity="1"/></linearGradient><linearGradient x1="0.011358518153429031" y1="0.022717028856277466" x2="0.011358518153429031" y2="1" id="master_svg5_78_165067"><stop offset="0%" stop-color="#25F0FF" stop-opacity="0.04992590472102165"/><stop offset="100%" stop-color="#EDFCFF" stop-opacity="1"/></linearGradient><linearGradient x1="-0.0972464308142662" y1="0" x2="-0.0972464308142662" y2="1.1944928169250488" id="master_svg6_78_165056"><stop offset="0%" stop-color="#25F0FF" stop-opacity="0.00009999999747378752"/><stop offset="100%" stop-color="#10DDFF" stop-opacity="1"/></linearGradient><linearGradient x1="-0.7544969916343689" y1="1.2333301305770874" x2="0.7121632099151611" y2="2.3765885829925537" id="master_svg7_78_165047"><stop offset="0%" stop-color="#25F0FF" stop-opacity="0.0294368714094162"/><stop offset="100%" stop-color="#10DDFF" stop-opacity="1"/></linearGradient><linearGradient x1="-0.7544969916343689" y1="1.2333301305770874" x2="0.7121632099151611" y2="2.3765885829925537" id="master_svg8_78_165047"><stop offset="0%" stop-color="#25F0FF" stop-opacity="0.0294368714094162"/><stop offset="100%" stop-color="#10DDFF" stop-opacity="1"/></linearGradient><linearGradient x1="-0.43561258912086487" y1="-0.8712252378463745" x2="-0.43561258912086487" y2="0.9999999403953552" id="master_svg9_78_165039"><stop offset="0%" stop-color="#25F0FF" stop-opacity="1"/><stop offset="100%" stop-color="#10DDFF" stop-opacity="0.00009999999747378752"/></linearGradient><linearGradient x1="-0.43561258912086487" y1="-0.8712252378463745" x2="-0.43561258912086487" y2="0.9999999403953552" id="master_svga_78_165039"><stop offset="0%" stop-color="#25F0FF" stop-opacity="1"/><stop offset="100%" stop-color="#10DDFF" stop-opacity="0.00009999999747378752"/></linearGradient><linearGradient x1="-0.43561258912086487" y1="-0.8712252378463745" x2="-0.43561258912086487" y2="0.9999999403953552" id="master_svgb_78_165039"><stop offset="0%" stop-color="#25F0FF" stop-opacity="1"/><stop offset="100%" stop-color="#10DDFF" stop-opacity="0.00009999999747378752"/></linearGradient><linearGradient x1="-0.43561258912086487" y1="-0.8712252378463745" x2="-0.43561258912086487" y2="0.9999999403953552" id="master_svgc_78_165039"><stop offset="0%" stop-color="#25F0FF" stop-opacity="1"/><stop offset="100%" stop-color="#10DDFF" stop-opacity="0.00009999999747378752"/></linearGradient><filter id="master_svgd_236_53442" filterUnits="objectBoundingBox" color-interpolation-filters="sRGB" x="-108.97296905517578" y="-108.97296905517578" width="253.66023635864258" height="230.44593906402588"><feFlood flood-opacity="0" result="BackgroundImageFix"/><feBlend mode="normal" in="SourceGraphic" in2="BackgroundImageFix" result="shape"/><feGaussianBlur stdDeviation="27.243242263793945" result="effect1_foregroundBlur"/></filter><filter id="master_svge_236_53443" filterUnits="objectBoundingBox" color-interpolation-filters="sRGB" x="0" y="0" width="99.99999237060547" height="100"><feFlood flood-opacity="0" result="BackgroundImageFix"/><feBlend mode="normal" in="SourceGraphic" in2="BackgroundImageFix" result="shape"/><feColorMatrix in="SourceAlpha" type="matrix" result="hardAlpha" values="0 0 0 0 0 0 0 0 0 0 0 0 0 0 0 0 0 0 127 0"/><feOffset dy="0" dx="0"/><feGaussianBlur stdDeviation="9.535135269165039"/><feComposite in2="hardAlpha" operator="arithmetic" k2="-1" k3="1"/><feColorMatrix type="matrix" values="0 0 0 0 0.9490196108818054 0 0 0 0 0.6000000238418579 0 0 0 0 0.29019609093666077 0 0 0 0.20000000298023224 0"/><feBlend mode="normal" in2="shape" result="effect1_innerShadow"/></filter><filter id="master_svgf_236_53445" filterUnits="objectBoundingBox" color-interpolation-filters="sRGB" x="0" y="0" width="84.8648681640625" height="84.86486053466797"><feFlood flood-opacity="0" result="BackgroundImageFix"/><feBlend mode="normal" in="SourceGraphic" in2="BackgroundImageFix" result="shape"/><feColorMatrix in="SourceAlpha" type="matrix" result="hardAlpha" values="0 0 0 0 0 0 0 0 0 0 0 0 0 0 0 0 0 0 127 0"/><feOffset dy="3.632432222366333" dx="0"/><feGaussianBlur stdDeviation="5.902702808380127"/><feComposite in2="hardAlpha" operator="arithmetic" k2="-1" k3="1"/><feColorMatrix type="matrix" values="0 0 0 0 0.4609791040420532 0 0 0 0 0.875 0 0 0 0 0.26614582538604736 0 0 0 0.25 0"/><feBlend mode="normal" in2="shape" result="effect1_innerShadow"/></filter><linearGradient x1="0.216560497879982" y1="0.09554139524698257" x2="0.7707006335258484" y2="0.9267516136169434" id="master_svgg_78_61645"><stop offset="0%" stop-color="#F2994A" stop-opacity="0"/><stop offset="52.947843074798584%" stop-color="#F2994A" stop-opacity="1"/><stop offset="100%" stop-color="#F2994A" stop-opacity="0"/></linearGradient><filter id="master_svgh_236_53446" filterUnits="objectBoundingBox" color-interpolation-filters="sRGB" x="-58" y="-58" width="136.76286125183105" height="120.81091547012329"><feFlood flood-opacity="0" result="BackgroundImageFix"/><feBlend mode="normal" in="SourceGraphic" in2="BackgroundImageFix" result="shape"/><feGaussianBlur stdDeviation="14.5" result="effect1_foregroundBlur"/></filter><filter id="master_svgi_236_53447" filterUnits="objectBoundingBox" color-interpolation-filters="sRGB" x="-108.97296905517578" y="-108.97296905517578" width="250.37836837768555" height="229.297287940979"><feFlood flood-opacity="0" result="BackgroundImageFix"/><feBlend mode="normal" in="SourceGraphic" in2="BackgroundImageFix" result="shape"/><feGaussianBlur stdDeviation="27.243242263793945" result="effect1_foregroundBlur"/></filter></defs><g style="mix-blend-mode:passthrough"><g style="mix-blend-mode:passthrough"><g style="opacity:0.6000000238418579;"><path d="M93.8067006171875,219.8805451751709C93.8067006171875,219.8805451751709,93.7026046171875,220.2450451751709,93.7026046171875,220.2450451751709C93.7026046171875,220.2450451751709,93.8067006171875,219.8805451751709,93.8067006171875,219.8805451751709C93.8067006171875,219.8805451751709,93.8067006171875,219.8805451751709,93.8067006171875,219.8805451751709ZM136.9923076171875,232.2196451751709C136.9923076171875,232.2196451751709,136.8883076171875,232.5842451751709,136.8883076171875,232.5842451751709C136.8883076171875,232.5842451751709,136.9923076171875,232.2196451751709,136.9923076171875,232.2196451751709C136.9923076171875,232.2196451751709,136.9923076171875,232.2196451751709,136.9923076171875,232.2196451751709ZM196.5328076171875,218.4127451751709C196.5328076171875,218.4127451751709,196.4478076171875,218.7821451751709,196.4478076171875,218.7821451751709C196.4478076171875,218.7821451751709,196.5328076171875,218.4127451751709,196.5328076171875,218.4127451751709C196.5328076171875,218.4127451751709,196.5328076171875,218.4127451751709,196.5328076171875,218.4127451751709ZM196.5698076171875,219.8807451751709C196.5698076171875,219.8807451751709,196.67280761718752,220.2453451751709,196.67280761718752,220.2453451751709C196.67280761718752,220.2453451751709,196.5698076171875,219.8807451751709,196.5698076171875,219.8807451751709C196.5698076171875,219.8807451751709,196.5698076171875,219.8807451751709,196.5698076171875,219.8807451751709ZM151.7894076171875,208.0318151751709C151.7894076171875,208.0318151751709,151.7038076171875,208.40115517517089,151.7038076171875,208.40115517517089C151.7038076171875,208.40115517517089,151.7894076171875,208.0318151751709,151.7894076171875,208.0318151751709C151.7894076171875,208.0318151751709,151.7894076171875,208.0318151751709,151.7894076171875,208.0318151751709ZM151.7038076171875,208.40115517517089C151.7038076171875,208.40115517517089,196.4478076171875,218.7821451751709,196.4478076171875,218.7821451751709C196.4478076171875,218.7821451751709,196.61880761718749,218.0434451751709,196.61880761718749,218.0434451751709C196.61880761718749,218.0434451751709,151.8751076171875,207.6624831751709,151.8751076171875,207.6624831751709C151.8751076171875,207.6624831751709,151.7038076171875,208.40115517517089,151.7038076171875,208.40115517517089C151.7038076171875,208.40115517517089,151.7038076171875,208.40115517517089,151.7038076171875,208.40115517517089ZM196.4658076171875,219.5160451751709C196.4658076171875,219.5160451751709,153.1018076171875,231.8624451751709,153.1018076171875,231.8624451751709C153.1018076171875,231.8624451751709,153.3094076171875,232.5917451751709,153.3094076171875,232.5917451751709C153.3094076171875,232.5917451751709,196.67280761718752,220.2453451751709,196.67280761718752,220.2453451751709C196.67280761718752,220.2453451751709,196.4658076171875,219.5160451751709,196.4658076171875,219.5160451751709C196.4658076171875,219.5160451751709,196.4658076171875,219.5160451751709,196.4658076171875,219.5160451751709ZM137.0965076171875,231.8550451751709C137.0965076171875,231.8550451751709,93.9108076171875,219.51594517517088,93.9108076171875,219.51594517517088C93.9108076171875,219.51594517517088,93.7026046171875,220.2450451751709,93.7026046171875,220.2450451751709C93.7026046171875,220.2450451751709,136.8883076171875,232.5842451751709,136.8883076171875,232.5842451751709C136.8883076171875,232.5842451751709,137.0965076171875,231.8550451751709,137.0965076171875,231.8550451751709C137.0965076171875,231.8550451751709,137.0965076171875,231.8550451751709,137.0965076171875,231.8550451751709ZM93.9289776171875,218.7821451751709C93.9289776171875,218.7821451751709,138.4935076171875,208.4062851751709,138.4935076171875,208.4062851751709C138.4935076171875,208.4062851751709,138.32170761718749,207.6677461751709,138.32170761718749,207.6677461751709C138.32170761718749,207.6677461751709,93.7571316171875,218.0436451751709,93.7571316171875,218.0436451751709C93.7571316171875,218.0436451751709,93.9289776171875,218.7821451751709,93.9289776171875,218.7821451751709C93.9289776171875,218.7821451751709,93.9289776171875,218.7821451751709,93.9289776171875,218.7821451751709ZM93.9108076171875,219.51594517517088C93.5347046171875,219.4085451751709,93.5480156171875,218.8708451751709,93.9289776171875,218.7821451751709C93.9289776171875,218.7821451751709,93.7571316171875,218.0436451751709,93.7571316171875,218.0436451751709C92.6142566171875,218.3097451751709,92.5743006171875,219.9227451751709,93.7026046171875,220.2450451751709C93.7026046171875,220.2450451751709,93.9108076171875,219.51594517517088,93.9108076171875,219.51594517517088C93.9108076171875,219.51594517517088,93.9108076171875,219.51594517517088,93.9108076171875,219.51594517517088ZM153.1018076171875,231.8624451751709C147.8702076171875,233.3520451751709,142.3267076171875,233.3494451751709,137.0965076171875,231.8550451751709C137.0965076171875,231.8550451751709,136.8883076171875,232.5842451751709,136.8883076171875,232.5842451751709C142.2543076171875,234.1173451751709,147.9419076171875,234.1200451751709,153.3094076171875,232.5917451751709C153.3094076171875,232.5917451751709,153.1018076171875,231.8624451751709,153.1018076171875,231.8624451751709C153.1018076171875,231.8624451751709,153.1018076171875,231.8624451751709,153.1018076171875,231.8624451751709ZM196.4478076171875,218.7821451751709C196.8288076171875,218.8706451751709,196.8428076171875,219.4089451751709,196.4658076171875,219.5160451751709C196.4658076171875,219.5160451751709,196.67280761718752,220.2453451751709,196.67280761718752,220.2453451751709C197.8028076171875,219.9237451751709,197.7628076171875,218.3088451751709,196.61880761718749,218.0434451751709C196.61880761718749,218.0434451751709,196.4478076171875,218.7821451751709,196.4478076171875,218.7821451751709C196.4478076171875,218.7821451751709,196.4478076171875,218.7821451751709,196.4478076171875,218.7821451751709ZM151.8751076171875,207.6624831751709C147.4162076171875,206.6279911751709,142.7797076171875,206.6297921751709,138.32170761718749,207.6677461751709C138.32170761718749,207.6677461751709,138.4935076171875,208.4062851751709,138.4935076171875,208.4062851751709C142.8387076171875,207.3946071751709,147.3578076171875,207.3928481751709,151.7038076171875,208.40115517517089C151.7038076171875,208.40115517517089,151.8751076171875,207.6624831751709,151.8751076171875,207.6624831751709C151.8751076171875,207.6624831751709,151.8751076171875,207.6624831751709,151.8751076171875,207.6624831751709Z" fill="url(#master_svg0_78_165052)" fill-opacity="1"/></g><g style="opacity:0.20000000298023224;"><path d="M93.8067006171875,225.1884808898926C93.8067006171875,225.1884808898926,93.7026046171875,225.55298088989258,93.7026046171875,225.55298088989258C93.7026046171875,225.55298088989258,93.8067006171875,225.1884808898926,93.8067006171875,225.1884808898926C93.8067006171875,225.1884808898926,93.8067006171875,225.1884808898926,93.8067006171875,225.1884808898926ZM136.9923076171875,237.5275808898926C136.9923076171875,237.5275808898926,136.8883076171875,237.8921808898926,136.8883076171875,237.8921808898926C136.8883076171875,237.8921808898926,136.9923076171875,237.5275808898926,136.9923076171875,237.5275808898926C136.9923076171875,237.5275808898926,136.9923076171875,237.5275808898926,136.9923076171875,237.5275808898926ZM196.5328076171875,223.72068088989258C196.5328076171875,223.72068088989258,196.4478076171875,224.0900808898926,196.4478076171875,224.0900808898926C196.4478076171875,224.0900808898926,196.5328076171875,223.72068088989258,196.5328076171875,223.72068088989258C196.5328076171875,223.72068088989258,196.5328076171875,223.72068088989258,196.5328076171875,223.72068088989258ZM196.5698076171875,225.18868088989257C196.5698076171875,225.18868088989257,196.67280761718752,225.5532808898926,196.67280761718752,225.5532808898926C196.67280761718752,225.5532808898926,196.5698076171875,225.18868088989257,196.5698076171875,225.18868088989257C196.5698076171875,225.18868088989257,196.5698076171875,225.18868088989257,196.5698076171875,225.18868088989257ZM151.7894076171875,213.33975088989257C151.7894076171875,213.33975088989257,151.7038076171875,213.70909088989256,151.7038076171875,213.70909088989256C151.7038076171875,213.70909088989256,151.7894076171875,213.33975088989257,151.7894076171875,213.33975088989257C151.7894076171875,213.33975088989257,151.7894076171875,213.33975088989257,151.7894076171875,213.33975088989257ZM151.7038076171875,213.70909088989256C151.7038076171875,213.70909088989256,196.4478076171875,224.0900808898926,196.4478076171875,224.0900808898926C196.4478076171875,224.0900808898926,196.61880761718749,223.35138088989257,196.61880761718749,223.35138088989257C196.61880761718749,223.35138088989257,151.8751076171875,212.97041888989258,151.8751076171875,212.97041888989258C151.8751076171875,212.97041888989258,151.7038076171875,213.70909088989256,151.7038076171875,213.70909088989256C151.7038076171875,213.70909088989256,151.7038076171875,213.70909088989256,151.7038076171875,213.70909088989256ZM196.4658076171875,224.82398088989257C196.4658076171875,224.82398088989257,153.1018076171875,237.17038088989258,153.1018076171875,237.17038088989258C153.1018076171875,237.17038088989258,153.3094076171875,237.89968088989258,153.3094076171875,237.89968088989258C153.3094076171875,237.89968088989258,196.67280761718752,225.5532808898926,196.67280761718752,225.5532808898926C196.67280761718752,225.5532808898926,196.4658076171875,224.82398088989257,196.4658076171875,224.82398088989257C196.4658076171875,224.82398088989257,196.4658076171875,224.82398088989257,196.4658076171875,224.82398088989257ZM137.0965076171875,237.16298088989257C137.0965076171875,237.16298088989257,93.9108076171875,224.82388088989256,93.9108076171875,224.82388088989256C93.9108076171875,224.82388088989256,93.7026046171875,225.55298088989258,93.7026046171875,225.55298088989258C93.7026046171875,225.55298088989258,136.8883076171875,237.8921808898926,136.8883076171875,237.8921808898926C136.8883076171875,237.8921808898926,137.0965076171875,237.16298088989257,137.0965076171875,237.16298088989257C137.0965076171875,237.16298088989257,137.0965076171875,237.16298088989257,137.0965076171875,237.16298088989257ZM93.9289776171875,224.0900808898926C93.9289776171875,224.0900808898926,138.4935076171875,213.71422088989257,138.4935076171875,213.71422088989257C138.4935076171875,213.71422088989257,138.32170761718749,212.97568188989257,138.32170761718749,212.97568188989257C138.32170761718749,212.97568188989257,93.7571316171875,223.35158088989257,93.7571316171875,223.35158088989257C93.7571316171875,223.35158088989257,93.9289776171875,224.0900808898926,93.9289776171875,224.0900808898926C93.9289776171875,224.0900808898926,93.9289776171875,224.0900808898926,93.9289776171875,224.0900808898926ZM93.9108076171875,224.82388088989256C93.5347046171875,224.71648088989258,93.5480156171875,224.17878088989258,93.9289776171875,224.0900808898926C93.9289776171875,224.0900808898926,93.7571316171875,223.35158088989257,93.7571316171875,223.35158088989257C92.6142566171875,223.61768088989257,92.5743006171875,225.23068088989257,93.7026046171875,225.55298088989258C93.7026046171875,225.55298088989258,93.9108076171875,224.82388088989256,93.9108076171875,224.82388088989256C93.9108076171875,224.82388088989256,93.9108076171875,224.82388088989256,93.9108076171875,224.82388088989256ZM153.1018076171875,237.17038088989258C147.8702076171875,238.65998088989258,142.3267076171875,238.65738088989258,137.0965076171875,237.16298088989257C137.0965076171875,237.16298088989257,136.8883076171875,237.8921808898926,136.8883076171875,237.8921808898926C142.2543076171875,239.42528088989258,147.9419076171875,239.42798088989258,153.3094076171875,237.89968088989258C153.3094076171875,237.89968088989258,153.1018076171875,237.17038088989258,153.1018076171875,237.17038088989258C153.1018076171875,237.17038088989258,153.1018076171875,237.17038088989258,153.1018076171875,237.17038088989258ZM196.4478076171875,224.0900808898926C196.8288076171875,224.17858088989257,196.8428076171875,224.7168808898926,196.4658076171875,224.82398088989257C196.4658076171875,224.82398088989257,196.67280761718752,225.5532808898926,196.67280761718752,225.5532808898926C197.8028076171875,225.23168088989257,197.7628076171875,223.61678088989257,196.61880761718749,223.35138088989257C196.61880761718749,223.35138088989257,196.4478076171875,224.0900808898926,196.4478076171875,224.0900808898926C196.4478076171875,224.0900808898926,196.4478076171875,224.0900808898926,196.4478076171875,224.0900808898926ZM151.8751076171875,212.97041888989258C147.4162076171875,211.93592688989258,142.7797076171875,211.93772788989259,138.32170761718749,212.97568188989257C138.32170761718749,212.97568188989257,138.4935076171875,213.71422088989257,138.4935076171875,213.71422088989257C142.8387076171875,212.70254288989258,147.3578076171875,212.7007838898926,151.7038076171875,213.70909088989256C151.7038076171875,213.70909088989256,151.8751076171875,212.97041888989258,151.8751076171875,212.97041888989258C151.8751076171875,212.97041888989258,151.8751076171875,212.97041888989258,151.8751076171875,212.97041888989258Z" fill="url(#master_svg1_78_165052)" fill-opacity="1"/></g><g style="mix-blend-mode:passthrough"><path d="M151.82537768101693,205.65765897790527C147.6424776810169,204.73929297790528,143.31007768101694,204.74089197790528,139.1278776810169,205.66234597790526L125.22767768101693,208.7249479779053L93.26687768101692,208.7249479779053L93.26687768101692,216.16076797790527L93.37470968101692,216.16076797790527C93.27978728101692,216.53056797790526,93.45523468101692,216.9670679779053,93.91001968101692,217.08996797790527L137.77537768101692,228.95036797790527C142.81897768101692,230.31406797790527,148.1338776810169,230.31646797790526,153.17867768101692,228.95716797790527L197.22287768101694,217.09016797790528C197.67887768101693,216.96746797790527,197.8538776810169,216.53076797790527,197.75887768101694,216.16076797790527L197.8778776810169,216.16076797790527L197.8778776810169,208.7249479779053L165.79607768101692,208.7249479779053L151.82537768101693,205.65765897790527Z" fill-rule="evenodd" fill="url(#master_svg2_78_023903)" fill-opacity="1"/><path d="M151.71807768101692,206.14602797790528Q145.47627768101694,204.77560697790528,139.23547768101693,206.15063797790526L125.28207768101691,209.2249479779053L93.26687768101692,209.2249479779053L93.26687768101692,208.7249479779053L93.76687768101692,208.7249479779053L93.76687768101692,216.16076797790527L93.26687768101692,216.16076797790527L93.26687768101692,215.66076797790527L94.01925468101692,215.66076797790527L93.85901068101693,216.28506797790527Q93.79343768101693,216.54046797790528,94.04051268101692,216.60726797790528L137.90587768101693,228.46766797790528Q145.47657768101692,230.51456797790527,153.04857768101692,228.47436797790527L197.09287768101692,216.60736797790528Q197.34087768101693,216.5406679779053,197.2748776810169,216.28496797790527L197.11487768101694,215.66076797790527L197.8778776810169,215.66076797790527L197.8778776810169,216.16076797790527L197.3778776810169,216.16076797790527L197.3778776810169,208.7249479779053L197.8778776810169,208.7249479779053L197.8778776810169,209.2249479779053L165.7417776810169,209.2249479779053L151.71807768101692,206.14602797790528L151.71807768101692,206.14602797790528ZM151.93257768101694,205.16929097790526L165.9032776810169,208.23657797790528L165.79607768101692,208.7249479779053L165.79607768101692,208.2249479779053L198.3778776810169,208.2249479779053L198.3778776810169,216.66076797790527L197.75887768101694,216.66076797790527L197.75887768101694,216.16076797790527L198.24387768101693,216.03656797790526Q198.36687768101692,216.51616797790527,198.14087768101692,216.94926797790527Q197.89187768101692,217.42796797790527,197.35287768101693,217.57286797790528L153.30877768101692,229.43996797790527Q145.4761776810169,231.55036797790527,137.6448776810169,229.43296797790526L93.77952768101692,217.57266797790527Q93.24171538101692,217.42726797790527,92.99269268101692,216.94876797790528Q92.76736668101692,216.51576797790528,92.89040868101692,216.03646797790526L93.37470968101692,216.16076797790527L93.37470968101692,216.66076797790527L92.76687768101692,216.66076797790527L92.76687768101692,208.2249479779053L125.22767768101693,208.2249479779053L125.22767768101693,208.7249479779053L125.12007768101692,208.23665797790528L139.02037768101692,205.17405697790528Q145.47587768101693,203.75170797790528,151.93257768101694,205.16929197790526L151.93257768101694,205.16929097790526Z" fill="url(#master_svg3_78_023906)" fill-opacity="1"/></g><g style="mix-blend-mode:passthrough"><path d="M138.40753996081352,196.66286470654296C142.80913996081352,195.63805170654297,147.38703996081352,195.63627270654297,151.78943996081352,196.65767070654297C151.78943996081352,196.65767070654297,196.53283996081353,207.03863670654297,196.53283996081353,207.03863670654297C197.2958399608135,207.21563670654297,197.32183996081352,208.29223670654298,196.5698399608135,208.50653670654296C196.5698399608135,208.50653670654296,153.20563996081353,220.85293670654298,153.20563996081353,220.85293670654298C147.90603996081353,222.36183670654296,142.29053996081353,222.35933670654296,136.99233996081352,220.84543670654296C136.99233996081352,220.84543670654296,93.80670096081353,208.50643670654296,93.80670096081353,208.50643670654296C93.05450196081352,208.29143670654298,93.08113996081352,207.21613670654295,93.84305696081353,207.03873670654298C93.84305696081353,207.03873670654298,138.40753996081352,196.66286470654296,138.40753996081352,196.66286470654296C138.40753996081352,196.66286470654296,138.40753996081352,196.66286470654296,138.40753996081352,196.66286470654296Z" fill-rule="evenodd" fill="#001B1F" fill-opacity="1"/><path d="M93.72967496081353,206.55183670654296L138.29413996081354,196.17588970654296Q145.09773996081353,194.59184670654298,151.90243996081352,196.17060870654296L196.64583996081353,206.55153670654298Q197.09583996081352,206.65593670654297,197.36483996081353,207.01033670654297Q197.60883996081353,207.33263670654296,197.61883996081352,207.74623670654296Q197.6298399608135,208.15973670654296,197.4018399608135,208.49373670654296Q197.15083996081353,208.86103670654296,196.7068399608135,208.98743670654298L153.34253996081353,221.33383670654297Q145.09763996081352,223.68133670654296,136.8549399608135,221.32623670654297L93.66933696081352,208.98713670654297Q93.22564576081352,208.86033670654297,92.97499096081353,208.49333670654298Q92.74699996081353,208.15943670654298,92.75723896081352,207.74613670654296Q92.76747796081352,207.33273670654296,93.01173396081352,207.01063670654298Q93.28027616081353,206.65643670654296,93.72969596081352,206.55183670654296L93.72967496081353,206.55183670654296ZM93.95641696081353,207.52573670654297Q93.76188296081352,207.57103670654297,93.75693196081352,207.77083670654298Q93.75198096081353,207.97073670654297,93.94406396081352,208.02563670654297L137.12973996081354,220.36473670654297Q145.09803996081354,222.64153670654298,153.06873996081353,220.37213670654296L196.4328399608135,208.02563670654297Q196.62483996081352,207.97093670654297,196.61983996081352,207.77093670654295Q196.61483996081353,207.57083670654296,196.41983996081353,207.52563670654297L151.67643996081352,197.14473670654297Q145.0981399608135,195.61850470654298,138.5209399608135,197.14983670654297L93.95643796081352,207.52573670654297L93.95641696081353,207.52573670654297Z" fill="url(#master_svg4_78_023850)" fill-opacity="1"/></g><g style="mix-blend-mode:passthrough"><path d="M136.4440952102661,217.1646304992676C136.4440952102661,217.1646304992676,136.24079521026613,217.89513049926757,136.24079521026613,217.89513049926757C136.24079521026613,217.89513049926757,136.4440952102661,217.1646304992676,136.4440952102661,217.1646304992676C136.4440952102661,217.1646304992676,136.4440952102661,217.1646304992676,136.4440952102661,217.1646304992676ZM183.5688952102661,207.00670049926757C183.5688952102661,207.00670049926757,183.4020952102661,207.74632049926757,183.4020952102661,207.74632049926757C183.4020952102661,207.74632049926757,183.5688952102661,207.00670049926757,183.5688952102661,207.00670049926757C183.5688952102661,207.00670049926757,183.5688952102661,207.00670049926757,183.5688952102661,207.00670049926757ZM183.60449521026612,208.47703049926758C183.60449521026612,208.47703049926758,183.4020952102661,207.74632049926757,183.4020952102661,207.74632049926757C183.4020952102661,207.74632049926757,183.60449521026612,208.47703049926758,183.60449521026612,208.47703049926758C183.60449521026612,208.47703049926758,183.60449521026612,208.47703049926758,183.60449521026612,208.47703049926758ZM137.83039521026612,199.62071049926757C137.83039521026612,199.62071049926757,137.66259521026612,198.88123249926758,137.66259521026612,198.88123249926758C137.66259521026612,198.88123249926758,137.83039521026612,199.62071049926757,137.83039521026612,199.62071049926757C137.83039521026612,199.62071049926757,137.83039521026612,199.62071049926757,137.83039521026612,199.62071049926757ZM150.72599521026612,200.3553504992676C150.72599521026612,200.3553504992676,183.4020952102661,207.74632049926757,183.4020952102661,207.74632049926757C183.4020952102661,207.74632049926757,183.7363952102661,206.2671504992676,183.7363952102661,206.2671504992676C183.7363952102661,206.2671504992676,151.0603952102661,198.87614949926757,151.0603952102661,198.87614949926757C151.0603952102661,198.87614949926757,150.72599521026612,200.3553504992676,150.72599521026612,200.3553504992676C150.72599521026612,200.3553504992676,150.72599521026612,200.3553504992676,150.72599521026612,200.3553504992676ZM183.4020952102661,207.74632049926757C183.4020952102661,207.74632049926757,152.0775952102661,216.4411304992676,152.0775952102661,216.4411304992676C152.0775952102661,216.4411304992676,152.4829952102661,217.90253049926758,152.4829952102661,217.90253049926758C152.4829952102661,217.90253049926758,183.80689521026613,209.20763049926757,183.80689521026613,209.20763049926757C183.80689521026613,209.20763049926757,183.4020952102661,207.74632049926757,183.4020952102661,207.74632049926757C183.4020952102661,207.74632049926757,183.4020952102661,207.74632049926757,183.4020952102661,207.74632049926757ZM136.64749521026613,216.43423049926758C136.64749521026613,216.43423049926758,105.45851521026611,207.74632049926757,105.45851521026611,207.74632049926757C105.45851521026611,207.74632049926757,105.0517952102661,209.20733049926758,105.0517952102661,209.20733049926758C105.0517952102661,209.20733049926758,136.24079521026613,217.89513049926757,136.24079521026613,217.89513049926757C136.24079521026613,217.89513049926757,136.64749521026613,216.43423049926758,136.64749521026613,216.43423049926758C136.64749521026613,216.43423049926758,136.64749521026613,216.43423049926758,136.64749521026613,216.43423049926758ZM105.45852521026612,207.74632049926757C105.45852521026612,207.74632049926757,137.99809521026611,200.36018049926759,137.99809521026611,200.36018049926759C137.99809521026611,200.36018049926759,137.66259521026612,198.88123249926758,137.66259521026612,198.88123249926758C137.66259521026612,198.88123249926758,105.12301521026612,206.26738049926757,105.12301521026612,206.26738049926757C105.12301521026612,206.26738049926757,105.45852521026612,207.74632049926757,105.45852521026612,207.74632049926757C105.45852521026612,207.74632049926757,105.45852521026612,207.74632049926757,105.45852521026612,207.74632049926757ZM105.45851521026611,207.74632049926757C105.45851521026611,207.74632049926757,105.45852521026612,207.74632049926757,105.45852521026612,207.74632049926757C105.45852521026612,207.74632049926757,105.12301521026612,206.26738049926757,105.12301521026612,206.26738049926757C103.58763321026612,206.61588049926758,103.53507021026611,208.78473049926757,105.0517952102661,209.20733049926758C105.0517952102661,209.20733049926758,105.45851521026611,207.74632049926757,105.45851521026611,207.74632049926757C105.45851521026611,207.74632049926757,105.45851521026611,207.74632049926757,105.45851521026611,207.74632049926757ZM152.0775952102661,216.4411304992676C147.02929521026613,217.84243049926758,141.6944952102661,217.84003049926758,136.64749521026613,216.43423049926758C136.64749521026613,216.43423049926758,136.24079521026613,217.89513049926757,136.24079521026613,217.89513049926757C141.5534952102661,219.37503049926758,147.1689952102661,219.37763049926758,152.4829952102661,217.90253049926758C152.4829952102661,217.90253049926758,152.0775952102661,216.4411304992676,152.0775952102661,216.4411304992676C152.0775952102661,216.4411304992676,152.0775952102661,216.4411304992676,152.0775952102661,216.4411304992676ZM183.4020952102661,207.74632049926757C183.4020952102661,207.74632049926757,183.4020952102661,207.74632049926757,183.4020952102661,207.74632049926757C183.4020952102661,207.74632049926757,183.80689521026613,209.20763049926757,183.80689521026613,209.20763049926757C185.32529521026612,208.7862304992676,185.27299521026612,206.61474049926758,183.7363952102661,206.2671504992676C183.7363952102661,206.2671504992676,183.4020952102661,207.74632049926757,183.4020952102661,207.74632049926757C183.4020952102661,207.74632049926757,183.4020952102661,207.74632049926757,183.4020952102661,207.74632049926757ZM151.0603952102661,198.87614949926757C146.64989521026612,197.87854449926758,142.0722952102661,197.88028149926757,137.66259521026612,198.88123249926758C137.66259521026612,198.88123249926758,137.99809521026611,200.36018049926759,137.99809521026611,200.36018049926759C142.18729521026611,199.40928049926757,146.53609521026613,199.40763049926758,150.72599521026612,200.3553504992676C150.72599521026612,200.3553504992676,151.0603952102661,198.87614949926757,151.0603952102661,198.87614949926757C151.0603952102661,198.87614949926757,151.0603952102661,198.87614949926757,151.0603952102661,198.87614949926757Z" fill="#00343D" fill-opacity="1"/></g><g style="mix-blend-mode:passthrough"><path d="M144.4092859802246,205.72103881835938C144.4092859802246,205.72103881835938,159.2172859802246,209.46615881835936,159.2172859802246,209.46615881835936C159.2172859802246,209.46615881835936,144.4092859802246,214.06207881835937,144.4092859802246,214.06207881835937C144.4092859802246,214.06207881835937,129.6532859802246,209.46615881835936,129.6532859802246,209.46615881835936C129.6532859802246,209.46615881835936,144.4092859802246,205.72103881835938,144.4092859802246,205.72103881835938C144.4092859802246,205.72103881835938,144.4092859802246,205.72103881835938,144.4092859802246,205.72103881835938Z" fill-rule="evenodd" fill="#10DDFF" fill-opacity="1"/></g><g style="mix-blend-mode:passthrough"><path d="M144.40922339477538,205.72104225915527C144.40922339477538,205.72104225915527,144.5021233947754,205.35347045915526,144.5021233947754,205.35347045915526C144.5021233947754,205.35347045915526,144.4091233947754,205.32993125915527,144.4091233947754,205.32993125915527C144.4091233947754,205.32993125915527,144.31602339477539,205.35354855915529,144.31602339477539,205.35354855915529C144.31602339477539,205.35354855915529,144.40922339477538,205.72104225915527,144.40922339477538,205.72104225915527C144.40922339477538,205.72104225915527,144.40922339477538,205.72104225915527,144.40922339477538,205.72104225915527ZM159.2172233947754,209.46616125915529C159.2172233947754,209.46616125915529,159.32962339477538,209.8282712591553,159.32962339477538,209.8282712591553C159.32962339477538,209.8282712591553,160.61622339477537,209.42891125915529,160.61622339477537,209.42891125915529C160.61622339477537,209.42891125915529,159.3102233947754,209.09859125915528,159.3102233947754,209.09859125915528C159.3102233947754,209.09859125915528,159.2172233947754,209.46616125915529,159.2172233947754,209.46616125915529C159.2172233947754,209.46616125915529,159.2172233947754,209.46616125915529,159.2172233947754,209.46616125915529ZM144.40922339477538,214.06208125915526C144.40922339477538,214.06208125915526,144.2965233947754,214.4240812591553,144.2965233947754,214.4240812591553C144.2965233947754,214.4240812591553,144.4090233947754,214.45912125915527,144.4090233947754,214.45912125915527C144.4090233947754,214.45912125915527,144.5215233947754,214.42416125915528,144.5215233947754,214.42416125915528C144.5215233947754,214.42416125915528,144.40922339477538,214.06208125915526,144.40922339477538,214.06208125915526C144.40922339477538,214.06208125915526,144.40922339477538,214.06208125915526,144.40922339477538,214.06208125915526ZM129.6532833947754,209.46616125915529C129.6532833947754,209.46616125915529,129.5600733947754,209.09866125915528,129.5600733947754,209.09866125915528C129.5600733947754,209.09866125915528,128.2588233947754,209.42893125915526,128.2588233947754,209.42893125915526C128.2588233947754,209.42893125915526,129.5406033947754,209.82815125915528,129.5406033947754,209.82815125915528C129.5406033947754,209.82815125915528,129.6532833947754,209.46616125915529,129.6532833947754,209.46616125915529C129.6532833947754,209.46616125915529,129.6532833947754,209.46616125915529,129.6532833947754,209.46616125915529ZM144.3163233947754,206.08861325915527C144.3163233947754,206.08861325915527,159.1243233947754,209.8337312591553,159.1243233947754,209.8337312591553C159.1243233947754,209.8337312591553,159.3102233947754,209.09859125915528,159.3102233947754,209.09859125915528C159.3102233947754,209.09859125915528,144.5021233947754,205.35347045915526,144.5021233947754,205.35347045915526C144.5021233947754,205.35347045915526,144.3163233947754,206.08861325915527,144.3163233947754,206.08861325915527C144.3163233947754,206.08861325915527,144.3163233947754,206.08861325915527,144.3163233947754,206.08861325915527ZM159.1049233947754,209.10405125915528C159.1049233947754,209.10405125915528,144.29692339477538,213.70001125915527,144.29692339477538,213.70001125915527C144.29692339477538,213.70001125915527,144.5215233947754,214.42416125915528,144.5215233947754,214.42416125915528C144.5215233947754,214.42416125915528,159.32962339477538,209.8282712591553,159.32962339477538,209.8282712591553C159.32962339477538,209.8282712591553,159.1049233947754,209.10405125915528,159.1049233947754,209.10405125915528C159.1049233947754,209.10405125915528,159.1049233947754,209.10405125915528,159.1049233947754,209.10405125915528ZM144.5219233947754,213.70008125915527C144.5219233947754,213.70008125915527,129.76596339477538,209.10416125915526,129.76596339477538,209.10416125915526C129.76596339477538,209.10416125915526,129.5406033947754,209.82815125915528,129.5406033947754,209.82815125915528C129.5406033947754,209.82815125915528,144.2965233947754,214.4240812591553,144.2965233947754,214.4240812591553C144.2965233947754,214.4240812591553,144.5219233947754,213.70008125915527,144.5219233947754,213.70008125915527C144.5219233947754,213.70008125915527,144.5219233947754,213.70008125915527,144.5219233947754,213.70008125915527ZM129.7465033947754,209.83365125915526C129.7465033947754,209.83365125915526,144.5024233947754,206.08853525915526,144.5024233947754,206.08853525915526C144.5024233947754,206.08853525915526,144.31602339477539,205.35354855915529,144.31602339477539,205.35354855915529C144.31602339477539,205.35354855915529,129.5600733947754,209.09866125915528,129.5600733947754,209.09866125915528C129.5600733947754,209.09866125915528,129.7465033947754,209.83365125915526,129.7465033947754,209.83365125915526C129.7465033947754,209.83365125915526,129.7465033947754,209.83365125915526,129.7465033947754,209.83365125915526Z" fill="url(#master_svg5_78_165067)" fill-opacity="1"/></g><g style="opacity:0.39926207065582275;"><path d="M134.48915782051085,209.88594531249998C134.48915782051085,209.88594531249998,93.63585782051086,178.0439453125,93.63585782051086,178.0439453125C93.63585782051086,178.0439453125,196.73085782051086,178.0439453125,196.73085782051086,178.0439453125C196.73085782051086,178.0439453125,160.13565782051086,209.8915453125,160.13565782051086,209.8915453125C160.13565782051086,209.8915453125,134.48915782051085,209.88594531249998,134.48915782051085,209.88594531249998C134.48915782051085,209.88594531249998,134.48915782051085,209.88594531249998,134.48915782051085,209.88594531249998Z" fill-rule="evenodd" fill="url(#master_svg6_78_165056)" fill-opacity="1"/></g><g style="mix-blend-mode:passthrough"><path d="M110.79849821618653,215.97025804853516C110.59606121618653,215.91696494853517,110.38876481618652,216.03791834853516,110.33548681618652,216.24041574853516C110.28220951618653,216.44291274853515,110.40312691618652,216.65027074853515,110.60556321618652,216.70356474853514C110.60556321618652,216.70356474853514,110.79849821618653,215.97025804853516,110.79849821618653,215.97025804853516C110.79849821618653,215.97025804853516,110.79849821618653,215.97025804853516,110.79849821618653,215.97025804853516ZM124.27081221618653,220.30107974853516C124.47331221618653,220.35436974853516,124.68051221618653,220.23341974853517,124.73381221618652,220.03091974853515C124.78711221618653,219.82842974853514,124.66621221618652,219.62106974853515,124.46371221618652,219.56777974853514C124.46371221618652,219.56777974853514,124.27081221618653,220.30107974853516,124.27081221618653,220.30107974853516C124.27081221618653,220.30107974853516,124.27081221618653,220.30107974853516,124.27081221618653,220.30107974853516ZM110.60556321618652,216.70356474853514C110.60556321618652,216.70356474853514,124.27081221618653,220.30107974853516,124.27081221618653,220.30107974853516C124.27081221618653,220.30107974853516,124.46371221618652,219.56777974853514,124.46371221618652,219.56777974853514C124.46371221618652,219.56777974853514,110.79849821618653,215.97025804853516,110.79849821618653,215.97025804853516C110.79849821618653,215.97025804853516,110.60556321618652,216.70356474853514,110.60556321618652,216.70356474853514C110.60556321618652,216.70356474853514,110.60556321618652,216.70356474853514,110.60556321618652,216.70356474853514Z" fill="url(#master_svg7_78_165047)" fill-opacity="1"/></g><g style="mix-blend-mode:passthrough"><path d="M110.79849821618653,219.00336199140625C110.59606121618653,218.95006889140626,110.38876481618652,219.07102229140625,110.33548681618652,219.27351969140625C110.28220951618653,219.47601669140624,110.40312691618652,219.68337469140624,110.60556321618652,219.73666869140624C110.60556321618652,219.73666869140624,110.79849821618653,219.00336199140625,110.79849821618653,219.00336199140625C110.79849821618653,219.00336199140625,110.79849821618653,219.00336199140625,110.79849821618653,219.00336199140625ZM124.27081221618653,223.33418369140625C124.47331221618653,223.38747369140626,124.68051221618653,223.26652369140626,124.73381221618652,223.06402369140625C124.78711221618653,222.86153369140624,124.66621221618652,222.65417369140624,124.46371221618652,222.60088369140624C124.46371221618652,222.60088369140624,124.27081221618653,223.33418369140625,124.27081221618653,223.33418369140625C124.27081221618653,223.33418369140625,124.27081221618653,223.33418369140625,124.27081221618653,223.33418369140625ZM110.60556321618652,219.73666869140624C110.60556321618652,219.73666869140624,124.27081221618653,223.33418369140625,124.27081221618653,223.33418369140625C124.27081221618653,223.33418369140625,124.46371221618652,222.60088369140624,124.46371221618652,222.60088369140624C124.46371221618652,222.60088369140624,110.79849821618653,219.00336199140625,110.79849821618653,219.00336199140625C110.79849821618653,219.00336199140625,110.60556321618652,219.73666869140624,110.60556321618652,219.73666869140624C110.60556321618652,219.73666869140624,110.60556321618652,219.73666869140624,110.60556321618652,219.73666869140624Z" fill="url(#master_svg8_78_165047)" fill-opacity="1"/></g><g style="mix-blend-mode:passthrough"><path d="M166.7977457397461,220.12829113720704C166.7977457397461,219.91889913720703,166.6280507397461,219.74915313720703,166.4187207397461,219.74915313720703C166.20939173974608,219.74915313720703,166.0396957397461,219.91889913720703,166.0396957397461,220.12829113720704C166.0396957397461,220.12829113720704,166.7977457397461,220.12829113720704,166.7977457397461,220.12829113720704C166.7977457397461,220.12829113720704,166.7977457397461,220.12829113720704,166.7977457397461,220.12829113720704ZM166.0396957397461,223.16139313720703C166.0396957397461,223.37078313720704,166.20939173974608,223.54053313720703,166.4187207397461,223.54053313720703C166.6280507397461,223.54053313720703,166.7977457397461,223.37078313720704,166.7977457397461,223.16139313720703C166.7977457397461,223.16139313720703,166.0396957397461,223.16139313720703,166.0396957397461,223.16139313720703C166.0396957397461,223.16139313720703,166.0396957397461,223.16139313720703,166.0396957397461,223.16139313720703ZM166.0396957397461,220.12829113720704C166.0396957397461,220.12829113720704,166.0396957397461,223.16139313720703,166.0396957397461,223.16139313720703C166.0396957397461,223.16139313720703,166.7977457397461,223.16139313720703,166.7977457397461,223.16139313720703C166.7977457397461,223.16139313720703,166.7977457397461,220.12829113720704,166.7977457397461,220.12829113720704C166.7977457397461,220.12829113720704,166.0396957397461,220.12829113720704,166.0396957397461,220.12829113720704C166.0396957397461,220.12829113720704,166.0396957397461,220.12829113720704,166.0396957397461,220.12829113720704Z" fill="url(#master_svg9_78_165039)" fill-opacity="1"/></g><g style="mix-blend-mode:passthrough"><path d="M168.31384376220703,220.12829113720704C168.31384376220703,219.91889913720703,168.14414876220704,219.74915313720703,167.93481876220704,219.74915313720703C167.72548976220702,219.74915313720703,167.55579376220703,219.91889913720703,167.55579376220703,220.12829113720704C167.55579376220703,220.12829113720704,168.31384376220703,220.12829113720704,168.31384376220703,220.12829113720704C168.31384376220703,220.12829113720704,168.31384376220703,220.12829113720704,168.31384376220703,220.12829113720704ZM167.55579376220703,223.16139313720703C167.55579376220703,223.37078313720704,167.72548976220702,223.54053313720703,167.93481876220704,223.54053313720703C168.14414876220704,223.54053313720703,168.31384376220703,223.37078313720704,168.31384376220703,223.16139313720703C168.31384376220703,223.16139313720703,167.55579376220703,223.16139313720703,167.55579376220703,223.16139313720703C167.55579376220703,223.16139313720703,167.55579376220703,223.16139313720703,167.55579376220703,223.16139313720703ZM167.55579376220703,220.12829113720704C167.55579376220703,220.12829113720704,167.55579376220703,223.16139313720703,167.55579376220703,223.16139313720703C167.55579376220703,223.16139313720703,168.31384376220703,223.16139313720703,168.31384376220703,223.16139313720703C168.31384376220703,223.16139313720703,168.31384376220703,220.12829113720704,168.31384376220703,220.12829113720704C168.31384376220703,220.12829113720704,167.55579376220703,220.12829113720704,167.55579376220703,220.12829113720704C167.55579376220703,220.12829113720704,167.55579376220703,220.12829113720704,167.55579376220703,220.12829113720704Z" fill="url(#master_svga_78_165039)" fill-opacity="1"/></g><g style="mix-blend-mode:passthrough"><path d="M171.34604743652343,220.12829113720704C171.34604743652343,219.91889913720703,171.17635243652344,219.74915313720703,170.96702243652345,219.74915313720703C170.75769343652343,219.74915313720703,170.58799743652344,219.91889913720703,170.58799743652344,220.12829113720704C170.58799743652344,220.12829113720704,171.34604743652343,220.12829113720704,171.34604743652343,220.12829113720704C171.34604743652343,220.12829113720704,171.34604743652343,220.12829113720704,171.34604743652343,220.12829113720704ZM170.58799743652344,223.16139313720703C170.58799743652344,223.37078313720704,170.75769343652343,223.54053313720703,170.96702243652345,223.54053313720703C171.17635243652344,223.54053313720703,171.34604743652343,223.37078313720704,171.34604743652343,223.16139313720703C171.34604743652343,223.16139313720703,170.58799743652344,223.16139313720703,170.58799743652344,223.16139313720703C170.58799743652344,223.16139313720703,170.58799743652344,223.16139313720703,170.58799743652344,223.16139313720703ZM170.58799743652344,220.12829113720704C170.58799743652344,220.12829113720704,170.58799743652344,223.16139313720703,170.58799743652344,223.16139313720703C170.58799743652344,223.16139313720703,171.34604743652343,223.16139313720703,171.34604743652343,223.16139313720703C171.34604743652343,223.16139313720703,171.34604743652343,220.12829113720704,171.34604743652343,220.12829113720704C171.34604743652343,220.12829113720704,170.58799743652344,220.12829113720704,170.58799743652344,220.12829113720704C170.58799743652344,220.12829113720704,170.58799743652344,220.12829113720704,170.58799743652344,220.12829113720704Z" fill="url(#master_svgb_78_165039)" fill-opacity="1"/></g><g style="mix-blend-mode:passthrough"><path d="M173.62020209960937,219.3700170588379C173.62020209960937,219.1606250588379,173.45050709960938,218.9908790588379,173.2411770996094,218.9908790588379C173.03184809960936,218.9908790588379,172.86215209960938,219.1606250588379,172.86215209960938,219.3700170588379C172.86215209960938,219.3700170588379,173.62020209960937,219.3700170588379,173.62020209960937,219.3700170588379C173.62020209960937,219.3700170588379,173.62020209960937,219.3700170588379,173.62020209960937,219.3700170588379ZM172.86215209960938,222.4031190588379C172.86215209960938,222.6125090588379,173.03184809960936,222.7822590588379,173.2411770996094,222.7822590588379C173.45050709960938,222.7822590588379,173.62020209960937,222.6125090588379,173.62020209960937,222.4031190588379C173.62020209960937,222.4031190588379,172.86215209960938,222.4031190588379,172.86215209960938,222.4031190588379C172.86215209960938,222.4031190588379,172.86215209960938,222.4031190588379,172.86215209960938,222.4031190588379ZM172.86215209960938,219.3700170588379C172.86215209960938,219.3700170588379,172.86215209960938,222.4031190588379,172.86215209960938,222.4031190588379C172.86215209960938,222.4031190588379,173.62020209960937,222.4031190588379,173.62020209960937,222.4031190588379C173.62020209960937,222.4031190588379,173.62020209960937,219.3700170588379,173.62020209960937,219.3700170588379C173.62020209960937,219.3700170588379,172.86215209960938,219.3700170588379,172.86215209960938,219.3700170588379C172.86215209960938,219.3700170588379,172.86215209960938,219.3700170588379,172.86215209960938,219.3700170588379Z" fill="url(#master_svgc_78_165039)" fill-opacity="1"/></g></g><g style="mix-blend-mode:passthrough"><g style="mix-blend-mode:passthrough"><g style="mix-blend-mode:passthrough" transform="matrix(0.8924668431282043,-0.4511130452156067,0.4511130452156067,0.8924668431282043,-68.10421612501722,83.5106503079782)" filter="url(#master_svgd_236_53442)"><ellipse cx="158.97304701805115" cy="190.857506275177" rx="17.857149124145508" ry="6.250000476837158" fill="#F2994A" fill-opacity="1"/></g><g style="opacity:0.800000011920929;mix-blend-mode:passthrough" filter="url(#master_svge_236_53443)"><ellipse cx="145.87780356407166" cy="150.0439453125" rx="49.999996185302734" ry="50" fill="#FF9900" fill-opacity="0.30000001192092896"/></g><g style="mix-blend-mode:passthrough"><ellipse cx="145.877681016922" cy="150.04396867752075" rx="44.67567825317383" ry="44.675682067871094" fill-opacity="0" stroke-opacity="0.6399999856948853" stroke="#FFFFFF" fill="none" stroke-width="2"/></g><g style="mix-blend-mode:passthrough" transform="matrix(-4.371138828673793e-8,1,-1,-4.371138828673793e-8,295.921824341916,-80.69879943624261)" filter="url(#master_svgf_236_53445)"><ellipse cx="230.7427442073822" cy="150.043936252594" rx="42.43243408203125" ry="42.432430267333984" fill="#081230" fill-opacity="0"/><ellipse cx="230.7427442073822" cy="150.043936252594" rx="41.93243408203125" ry="41.932430267333984" stroke="url(#master_svgg_78_61645)" fill-opacity="0" fill="none" stroke-width="1"/></g><g style="mix-blend-mode:passthrough" transform="matrix(0.4792020618915558,0.8777046203613281,-0.8777046203613281,0.4792020618915558,199.08351813351027,-85.42903220862627)" filter="url(#master_svgh_236_53446)"><path d="M192.29174650230408,128.8969953125C192.29174650230408,131.0249553125,188.34294650230407,128.9431053125,182.60954650230408,128.9431053125C176.87597650230407,128.9431053125,171.52884650230408,131.0249553125,171.52884650230408,128.8969953125C171.52884650230408,126.7690153125,176.17676650230408,125.0439453125,181.91024650230406,125.0439453125C187.64374650230408,125.0439453125,192.29174650230408,126.7690153125,192.29174650230408,128.8969953125C192.29174650230408,128.8969953125,192.29174650230408,128.8969953125,192.29174650230408,128.8969953125Z" fill="#F2994A" fill-opacity="1"/></g><g style="mix-blend-mode:passthrough" transform="matrix(-0.7225636839866638,0.6913043260574341,-0.6913043260574341,-0.7225636839866638,322.6009981988175,104.88199301573141)" filter="url(#master_svgi_236_53447)"><ellipse cx="156.47094130516052" cy="122.85026407241821" rx="16.216215133666992" ry="5.675674915313721" fill="#F2994A" fill-opacity="1"/></g></g></g></g></svg>
