<svg xmlns="http://www.w3.org/2000/svg" xmlns:xlink="http://www.w3.org/1999/xlink" fill="none" version="1.1" width="110" height="102.7548828125" viewBox="0 0 110 102.7548828125"><defs><linearGradient x1="-0.29541343450546265" y1="0.6950948238372803" x2="0.6308385729789734" y2="1.3393341302871704" id="master_svg0_78_165641"><stop offset="0%" stop-color="#4AFCFF" stop-opacity="1"/><stop offset="100%" stop-color="#2286FF" stop-opacity="1"/></linearGradient><linearGradient x1="0.3618638813495636" y1="1.3212473392486572" x2="1.280215859413147" y2="0.6947119832038879" id="master_svg1_78_165645"><stop offset="0%" stop-color="#4AFCFF" stop-opacity="1"/><stop offset="100%" stop-color="#2286FF" stop-opacity="1"/></linearGradient><linearGradient x1="0.27100008726119995" y1="-0.2651282846927643" x2="0.27100008726119995" y2="0.22901487350463867" id="master_svg2_78_165686"><stop offset="0%" stop-color="#00E4FF" stop-opacity="1"/><stop offset="100%" stop-color="#00C5FF" stop-opacity="0.00009999999747378752"/></linearGradient><linearGradient x1="0.27100008726119995" y1="-0.2651282846927643" x2="0.27100008726119995" y2="0.22901487350463867" id="master_svg3_78_165686"><stop offset="0%" stop-color="#00E4FF" stop-opacity="1"/><stop offset="100%" stop-color="#00C5FF" stop-opacity="0.00009999999747378752"/></linearGradient><linearGradient x1="-0.0028817991260439157" y1="-0.22642077505588531" x2="-0.0028817991260439157" y2="0.7793428301811218" id="master_svg4_78_165668"><stop offset="0%" stop-color="#00E4FF" stop-opacity="1"/><stop offset="72.31582999229431%" stop-color="#00C5FF" stop-opacity="1"/><stop offset="100%" stop-color="#00C5FF" stop-opacity="0.00009999999747378752"/></linearGradient><linearGradient x1="0.13006015121936798" y1="0.26012036204338074" x2="0.13006015121936798" y2="1" id="master_svg5_78_165655"><stop offset="0%" stop-color="#00E4FF" stop-opacity="0.00009999999747378752"/><stop offset="100%" stop-color="#00C5FF" stop-opacity="1"/></linearGradient></defs><g style="mix-blend-mode:passthrough"><g transform="matrix(-0.7071067690849304,-0.7071067690849304,-0.7071067690849304,0.7071067690849304,211.0973970554187,87.43940513249254)" style="opacity:0.2986886203289032;"><path d="M99.5478515625,58.20703125C99.5478515625,58.20703125,146.5575515625,75.19733125,146.5575515625,75.19733125C146.5575515625,75.19733125,163.5478515625,120.20703125,163.5478515625,120.20703125C163.5478515625,120.20703125,115.8281515625,103.92673125,115.8281515625,103.92673125C115.8281515625,103.92673125,99.5478515625,58.20703125,99.5478515625,58.20703125C99.5478515625,58.20703125,99.5478515625,58.20703125,99.5478515625,58.20703125Z" fill-rule="evenodd" fill="#2286FF" fill-opacity="1"/></g><g style="mix-blend-mode:passthrough" transform="matrix(-0.7071067690849304,-0.7071067690849304,-0.7071067690849304,0.7071067690849304,212.30437488824828,87.93935171532212)"><path d="M100.7548968125,58.70704525C100.7548968125,58.70704525,100.9248478125,58.23681495,100.9248478125,58.23681495C100.7428868125,58.17104995,100.5393148125,58.21616899,100.4021798125,58.35265725C100.2650449125,58.48914625,100.2189649125,58.69250225,100.2838689125,58.87477325C100.2838689125,58.87477325,100.7548968125,58.70704525,100.7548968125,58.70704525C100.7548968125,58.70704525,100.7548968125,58.70704525,100.7548968125,58.70704525ZM147.7645828125,75.69733125C147.7645828125,75.69733125,148.2323828125,75.52073125,148.2323828125,75.52073125C148.1807828125,75.38403124999999,148.0719828125,75.27673125,147.9344828125,75.22713125C147.9344828125,75.22713125,147.7645828125,75.69733125,147.7645828125,75.69733125C147.7645828125,75.69733125,147.7645828125,75.69733125,147.7645828125,75.69733125ZM164.7548828125,120.70703125C164.7548828125,120.70703125,164.59348281249999,121.18023124999999,164.59348281249999,121.18023124999999C164.7765828125,121.24273124999999,164.9793828125,121.19393124999999,165.1140828125,121.05483125C165.2486828125,120.91583125,165.2909828125,120.71153125000001,165.2226828125,120.53043124999999C165.2226828125,120.53043124999999,164.7548828125,120.70703125,164.7548828125,120.70703125C164.7548828125,120.70703125,164.7548828125,120.70703125,164.7548828125,120.70703125ZM117.0351828125,104.42673125C117.0351828125,104.42673125,116.56418281250001,104.59443125,116.56418281250001,104.59443125C116.6152828125,104.73823125,116.7292828125,104.85073125,116.8736828125,104.89993125000001C116.8736828125,104.89993125000001,117.0351828125,104.42673125,117.0351828125,104.42673125C117.0351828125,104.42673125,117.0351828125,104.42673125,117.0351828125,104.42673125ZM100.5849458125,59.17727525C100.5849458125,59.17727525,147.5945828125,76.16753125,147.5945828125,76.16753125C147.5945828125,76.16753125,147.9344828125,75.22713125,147.9344828125,75.22713125C147.9344828125,75.22713125,100.9248478125,58.23681495,100.9248478125,58.23681495C100.9248478125,58.23681495,100.5849458125,59.17727525,100.5849458125,59.17727525C100.5849458125,59.17727525,100.5849458125,59.17727525,100.5849458125,59.17727525ZM147.2967828125,75.87393125C147.2967828125,75.87393125,164.2870828125,120.88363125000001,164.2870828125,120.88363125000001C164.2870828125,120.88363125000001,165.2226828125,120.53043124999999,165.2226828125,120.53043124999999C165.2226828125,120.53043124999999,148.2323828125,75.52073125,148.2323828125,75.52073125C148.2323828125,75.52073125,147.2967828125,75.87393125,147.2967828125,75.87393125C147.2967828125,75.87393125,147.2967828125,75.87393125,147.2967828125,75.87393125ZM164.91628281250001,120.23383125000001C164.91628281250001,120.23383125000001,117.1965828125,103.95353125,117.1965828125,103.95353125C117.1965828125,103.95353125,116.8736828125,104.89993125000001,116.8736828125,104.89993125000001C116.8736828125,104.89993125000001,164.59348281249999,121.18023124999999,164.59348281249999,121.18023124999999C164.59348281249999,121.18023124999999,164.91628281250001,120.23383125000001,164.91628281250001,120.23383125000001C164.91628281250001,120.23383125000001,164.91628281250001,120.23383125000001,164.91628281250001,120.23383125000001ZM117.5061828125,104.25903124999999C117.5061828125,104.25903124999999,101.2259248125,58.53931725,101.2259248125,58.53931725C101.2259248125,58.53931725,100.2838689125,58.87477325,100.2838689125,58.87477325C100.2838689125,58.87477325,116.56418281250001,104.59443125,116.56418281250001,104.59443125C116.56418281250001,104.59443125,117.5061828125,104.25903124999999,117.5061828125,104.25903124999999C117.5061828125,104.25903124999999,117.5061828125,104.25903124999999,117.5061828125,104.25903124999999Z" fill="#154A91" fill-opacity="1"/></g><g style="opacity:0.8008044958114624;"><path d="M55.7069484375,79.02396875C55.7069484375,79.02396875,55.7069484375,87.25356875,55.7069484375,87.25356875C55.7069484375,87.25356875,10.4521484375,64.31828875,10.4521484375,64.31828875C10.4521484375,64.31828875,10.452148437500187,56.79296875,10.452148437500187,56.79296875C10.452148437500187,56.79296875,55.7069484375,79.02396875,55.7069484375,79.02396875C55.7069484375,79.02396875,55.7069484375,79.02396875,55.7069484375,79.02396875Z" fill-rule="evenodd" fill="url(#master_svg0_78_165641)" fill-opacity="1"/></g><g style="opacity:0.8008044958114624;"><path d="M55.70703125,87.25333125C55.70703125,87.25333125,99.54763125,66.42667125,99.54763125,66.42667125C99.54763125,66.42667125,99.54763125,58.20703125,99.54763125,58.20703125C99.54763125,58.20703125,55.70703125,79.02383125,55.70703125,79.02383125C55.70703125,79.02383125,55.70703125,87.25333125,55.70703125,87.25333125C55.70703125,87.25333125,55.70703125,87.25333125,55.70703125,87.25333125Z" fill-rule="evenodd" fill="url(#master_svg1_78_165645)" fill-opacity="1"/></g><g style="opacity:0.8008044958114624;"><path d="M55.70703125,87.25333125C55.70703125,87.25333125,55.20703125,87.25333125,55.20703125,87.25333125C55.20703125,87.42483125,55.29492525,87.58443125,55.43989325,87.67603125C55.58486125,87.76763125,55.76667425,87.77863125,55.92158025,87.70503125C55.92158025,87.70503125,55.70703125,87.25333125,55.70703125,87.25333125C55.70703125,87.25333125,55.70703125,87.25333125,55.70703125,87.25333125ZM99.54763125,66.42667125C99.54763125,66.42667125,99.76223125,66.87829125,99.76223125,66.87829125C99.93653125,66.79547125,100.04763125,66.61969125,100.04763125,66.42667125C100.04763125,66.42667125,99.54763125,66.42667125,99.54763125,66.42667125C99.54763125,66.42667125,99.54763125,66.42667125,99.54763125,66.42667125ZM99.54763125,58.20703225C99.54763125,58.20703225,100.04763125,58.20703225,100.04763125,58.20703225C100.04763125,58.03555125,99.95973125,57.87603325,99.81483125,57.78440235C99.66993124999999,57.69277035,99.48813125000001,57.68181035,99.33323125,57.75536335C99.33323125,57.75536335,99.54763125,58.20703225,99.54763125,58.20703225C99.54763125,58.20703225,99.54763125,58.20703225,99.54763125,58.20703225ZM55.70703125,79.02383125C55.70703125,79.02383125,55.49256625,78.57213125,55.49256625,78.57213125C55.31817225,78.65493125,55.20703125,78.83083125,55.20703125,79.02383125C55.20703125,79.02383125,55.70703125,79.02383125,55.70703125,79.02383125C55.70703125,79.02383125,55.70703125,79.02383125,55.70703125,79.02383125ZM55.92158025,87.70503125C55.92158025,87.70503125,99.76223125,66.87829125,99.76223125,66.87829125C99.76223125,66.87829125,99.33313125000001,65.97504125,99.33313125000001,65.97504125C99.33313125000001,65.97504125,55.49248225,86.80173125,55.49248225,86.80173125C55.49248225,86.80173125,55.92158025,87.70503125,55.92158025,87.70503125C55.92158025,87.70503125,55.92158025,87.70503125,55.92158025,87.70503125ZM100.04763125,66.42667125C100.04763125,66.42667125,100.04763125,58.20703225,100.04763125,58.20703225C100.04763125,58.20703225,99.04763125,58.20703225,99.04763125,58.20703225C99.04763125,58.20703225,99.04763125,66.42667125,99.04763125,66.42667125C99.04763125,66.42667125,100.04763125,66.42667125,100.04763125,66.42667125C100.04763125,66.42667125,100.04763125,66.42667125,100.04763125,66.42667125ZM99.33323125,57.75536335C99.33323125,57.75536335,55.49256625,78.57213125,55.49256625,78.57213125C55.49256625,78.57213125,55.92149625,79.47553125,55.92149625,79.47553125C55.92149625,79.47553125,99.76213125000001,58.65870125,99.76213125000001,58.65870125C99.76213125000001,58.65870125,99.33323125,57.75536335,99.33323125,57.75536335C99.33323125,57.75536335,99.33323125,57.75536335,99.33323125,57.75536335ZM55.20703125,79.02383125C55.20703125,79.02383125,55.20703125,87.25333125,55.20703125,87.25333125C55.20703125,87.25333125,56.20703125,87.25333125,56.20703125,87.25333125C56.20703125,87.25333125,56.20703125,79.02383125,56.20703125,79.02383125C56.20703125,79.02383125,55.20703125,79.02383125,55.20703125,79.02383125C55.20703125,79.02383125,55.20703125,79.02383125,55.20703125,79.02383125Z" fill="#00EEFF" fill-opacity="1"/></g><g style="opacity:0.3747442364692688;"><path d="M107.5,52C107.5,23.2812,84.2188,0,55.5,0C26.7812,0,3.5,23.2812,3.5,52" fill-rule="evenodd" fill="url(#master_svg2_78_165686)" fill-opacity="1"/></g><g style="mix-blend-mode:passthrough"><path d="M100.5,52C100.5,27.1472,80.3528,7,55.5,7C30.6472,7,10.5,27.1472,10.5,52" fill-rule="evenodd" fill="url(#master_svg3_78_165686)" fill-opacity="1"/></g><g style="mix-blend-mode:passthrough"><path d="M18,50C18,49.6707,18.00424,49.3425,18.01268,49.0153C18.01268,49.0153,17.013007,48.9895,17.013007,48.9895C17.004353,49.3253,17,49.6621,17,50C17,50,18,50,18,50C18,50,18,50,18,50ZM18.11397,47.0543C18.16492,46.3985,18.23274,45.7474,18.31699,45.1015C18.31699,45.1015,17.325387,44.9722,17.325387,44.9722C17.23889,45.6353,17.169271,46.3037,17.11697,46.9769C17.11697,46.9769,18.11397,47.0543,18.11397,47.0543C18.11397,47.0543,18.11397,47.0543,18.11397,47.0543ZM18.62186,43.1622C18.74089,42.516,18.87649,41.875699999999995,19.0282,41.2416C19.0282,41.2416,18.05564,41.0089,18.05564,41.0089C17.899866,41.66,17.76063,42.317499999999995,17.638405,42.981C17.638405,42.981,18.62186,43.1622,18.62186,43.1622C18.62186,43.1622,18.62186,43.1622,18.62186,43.1622ZM19.53515,39.3451C19.721330000000002,38.7157,19.92358,38.093199999999996,20.14143,37.4781C20.14143,37.4781,19.19879,37.1443,19.19879,37.1443C18.97509,37.7759,18.7674,38.4152,18.57622,39.061499999999995C18.57622,39.061499999999995,19.53515,39.3451,19.53515,39.3451C19.53515,39.3451,19.53515,39.3451,19.53515,39.3451ZM20.84532,35.6456C21.09655,35.0398,21.3632,34.442,21.64479,33.852599999999995C21.64479,33.852599999999995,20.7425,33.4215,20.7425,33.4215C20.45337,34.0266,20.17956,34.6405,19.9216,35.2625C19.9216,35.2625,20.84532,35.6456,20.84532,35.6456C20.84532,35.6456,20.84532,35.6456,20.84532,35.6456ZM22.537480000000002,32.1041C22.85078,31.5282,23.17874,30.9615,23.52085,30.4044C23.52085,30.4044,22.6687,29.8811,22.6687,29.8811C22.31747,30.453,21.98075,31.0349,21.65907,31.6261C21.65907,31.6261,22.537480000000002,32.1041,22.537480000000002,32.1041C22.537480000000002,32.1041,22.537480000000002,32.1041,22.537480000000002,32.1041ZM24.59183,28.7585C24.96338,28.2189,25.3487,27.6895,25.74728,27.1709C25.74728,27.1709,24.95436,26.561500000000002,24.95436,26.561500000000002C24.545189999999998,27.094,24.149630000000002,27.6375,23.7682,28.1914C23.7682,28.1914,24.59183,28.7585,24.59183,28.7585C24.59183,28.7585,24.59183,28.7585,24.59183,28.7585ZM26.983919999999998,25.6456C27.409399999999998,25.1479,27.8477,24.6614,28.298299999999998,24.186799999999998C28.298299999999998,24.186799999999998,27.573,23.4983,27.573,23.4983C27.110500000000002,23.985500000000002,26.66059,24.4849,26.22382,24.9958C26.22382,24.9958,26.983919999999998,25.6456,26.983919999999998,25.6456C26.983919999999998,25.6456,26.983919999999998,25.6456,26.983919999999998,25.6456ZM29.686799999999998,22.798299999999998C30.1614,22.3477,30.6479,21.909399999999998,31.1456,21.48393C31.1456,21.48393,30.4958,20.72382,30.4958,20.72382C29.9849,21.16059,29.485500000000002,21.610500000000002,28.9983,22.073C28.9983,22.073,29.686799999999998,22.798299999999998,29.686799999999998,22.798299999999998C29.686799999999998,22.798299999999998,29.686799999999998,22.798299999999998,29.686799999999998,22.798299999999998ZM32.6709,20.24729C33.189499999999995,19.8487,33.718900000000005,19.46338,34.2585,19.09183C34.2585,19.09183,33.6914,18.2682,33.6914,18.2682C33.1374,18.649639999999998,32.594,19.0452,32.0615,19.45437C32.0615,19.45437,32.6709,20.24729,32.6709,20.24729C32.6709,20.24729,32.6709,20.24729,32.6709,20.24729ZM35.904399999999995,18.02086C36.4615,17.67874,37.0282,17.35078,37.604,17.037480000000002C37.604,17.037480000000002,37.1261,16.15908,37.1261,16.15908C36.5349,16.48075,35.953,16.81747,35.3811,17.1687C35.3811,17.1687,35.904399999999995,18.02086,35.904399999999995,18.02086C35.904399999999995,18.02086,35.904399999999995,18.02086,35.904399999999995,18.02086ZM39.352599999999995,16.14479C39.941900000000004,15.863199999999999,40.5398,15.59655,41.1456,15.34533C41.1456,15.34533,40.7625,14.4216,40.7625,14.4216C40.1404,14.67957,39.5266,14.95337,38.9215,15.2425C38.9215,15.2425,39.352599999999995,16.14479,39.352599999999995,16.14479C39.352599999999995,16.14479,39.352599999999995,16.14479,39.352599999999995,16.14479ZM42.9781,14.64143C43.593199999999996,14.42358,44.2157,14.22133,44.8451,14.03515C44.8451,14.03515,44.561499999999995,13.07622,44.561499999999995,13.07622C43.9152,13.26741,43.2759,13.47509,42.6443,13.6988C42.6443,13.6988,42.9781,14.64143,42.9781,14.64143C42.9781,14.64143,42.9781,14.64143,42.9781,14.64143ZM46.7416,13.5282C47.3756,13.3765,48.016,13.2409,48.662099999999995,13.12186C48.662099999999995,13.12186,48.481,12.138409,48.481,12.138409C47.817499999999995,12.260633,47.16,12.399869,46.5089,12.55565C46.5089,12.55565,46.7416,13.5282,46.7416,13.5282C46.7416,13.5282,46.7416,13.5282,46.7416,13.5282ZM50.6015,12.81699C51.2474,12.73274,51.8985,12.66492,52.5543,12.61397C52.5543,12.61397,52.4769,11.616972,52.4769,11.616972C51.8036,11.669272,51.1353,11.738892,50.4722,11.825389C50.4722,11.825389,50.6015,12.81699,50.6015,12.81699C50.6015,12.81699,50.6015,12.81699,50.6015,12.81699ZM54.5152,12.51268C54.8425,12.50424,55.1707,12.5,55.5,12.5C55.5,12.5,55.5,11.5,55.5,11.5C55.1621,11.5,54.8253,11.504353,54.4895,11.513007C54.4895,11.513007,54.5152,12.51268,54.5152,12.51268C54.5152,12.51268,54.5152,12.51268,54.5152,12.51268ZM55.5,12.5C55.8293,12.5,56.1575,12.50424,56.4847,12.51268C56.4847,12.51268,56.5105,11.513007,56.5105,11.513007C56.1747,11.504353,55.8379,11.5,55.5,11.5C55.5,11.5,55.5,12.5,55.5,12.5C55.5,12.5,55.5,12.5,55.5,12.5ZM58.4457,12.61397C59.1015,12.66492,59.7526,12.73274,60.3985,12.81699C60.3985,12.81699,60.5278,11.825387,60.5278,11.825387C59.8647,11.73889,59.1963,11.669271,58.5231,11.61697C58.5231,11.61697,58.4457,12.61397,58.4457,12.61397C58.4457,12.61397,58.4457,12.61397,58.4457,12.61397ZM62.3378,13.12186C62.984,13.24089,63.6243,13.37649,64.2584,13.5282C64.2584,13.5282,64.4911,12.55564,64.4911,12.55564C63.84,12.399866,63.1825,12.26063,62.519,12.138405C62.519,12.138405,62.3378,13.12186,62.3378,13.12186C62.3378,13.12186,62.3378,13.12186,62.3378,13.12186ZM66.1549,14.03515C66.7843,14.22133,67.4068,14.42358,68.0219,14.64143C68.0219,14.64143,68.3557,13.698789999999999,68.3557,13.698789999999999C67.72409999999999,13.47509,67.0848,13.2674,66.4385,13.07622C66.4385,13.07622,66.1549,14.03515,66.1549,14.03515C66.1549,14.03515,66.1549,14.03515,66.1549,14.03515ZM69.8544,15.345320000000001C70.4602,15.59655,71.05799999999999,15.863199999999999,71.6474,16.14479C71.6474,16.14479,72.07849999999999,15.2425,72.07849999999999,15.2425C71.4734,14.95337,70.8595,14.67956,70.2375,14.4216C70.2375,14.4216,69.8544,15.345320000000001,69.8544,15.345320000000001C69.8544,15.345320000000001,69.8544,15.345320000000001,69.8544,15.345320000000001ZM73.3959,17.037480000000002C73.9718,17.35078,74.5385,17.67874,75.09559999999999,18.02085C75.09559999999999,18.02085,75.6189,17.1687,75.6189,17.1687C75.047,16.81747,74.4651,16.48075,73.87389999999999,16.15907C73.87389999999999,16.15907,73.3959,17.037480000000002,73.3959,17.037480000000002C73.3959,17.037480000000002,73.3959,17.037480000000002,73.3959,17.037480000000002ZM76.7415,19.09183C77.28110000000001,19.46338,77.81049999999999,19.8487,78.3291,20.24728C78.3291,20.24728,78.9385,19.45436,78.9385,19.45436C78.406,19.045189999999998,77.8625,18.649630000000002,77.3086,18.2682C77.3086,18.2682,76.7415,19.09183,76.7415,19.09183C76.7415,19.09183,76.7415,19.09183,76.7415,19.09183ZM79.8544,21.483919999999998C80.35210000000001,21.909399999999998,80.8386,22.3477,81.3132,22.798299999999998C81.3132,22.798299999999998,82.0017,22.073,82.0017,22.073C81.5145,21.610500000000002,81.0151,21.16059,80.5042,20.72382C80.5042,20.72382,79.8544,21.483919999999998,79.8544,21.483919999999998C79.8544,21.483919999999998,79.8544,21.483919999999998,79.8544,21.483919999999998ZM82.7017,24.186799999999998C83.1523,24.6614,83.5906,25.1479,84.0161,25.6456C84.0161,25.6456,84.7762,24.9958,84.7762,24.9958C84.3394,24.4849,83.8895,23.985500000000002,83.427,23.4983C83.427,23.4983,82.7017,24.186799999999998,82.7017,24.186799999999998C82.7017,24.186799999999998,82.7017,24.186799999999998,82.7017,24.186799999999998ZM85.2527,27.1709C85.6513,27.6895,86.0366,28.2189,86.4082,28.7585C86.4082,28.7585,87.2318,28.1914,87.2318,28.1914C86.8504,27.6374,86.4548,27.094,86.0456,26.561500000000002C86.0456,26.561500000000002,85.2527,27.1709,85.2527,27.1709C85.2527,27.1709,85.2527,27.1709,85.2527,27.1709ZM87.4791,30.4044C87.8213,30.9615,88.1492,31.5282,88.4625,32.104C88.4625,32.104,89.3409,31.6261,89.3409,31.6261C89.0192,31.0349,88.6825,30.453,88.3313,29.8811C88.3313,29.8811,87.4791,30.4044,87.4791,30.4044C87.4791,30.4044,87.4791,30.4044,87.4791,30.4044ZM89.3552,33.852599999999995C89.6368,34.441900000000004,89.9035,35.0398,90.1547,35.6456C90.1547,35.6456,91.0784,35.2625,91.0784,35.2625C90.8204,34.6404,90.5466,34.0266,90.2575,33.4215C90.2575,33.4215,89.3552,33.852599999999995,89.3552,33.852599999999995C89.3552,33.852599999999995,89.3552,33.852599999999995,89.3552,33.852599999999995ZM90.8586,37.4781C91.0764,38.093199999999996,91.2787,38.7157,91.4648,39.3451C91.4648,39.3451,92.4238,39.061499999999995,92.4238,39.061499999999995C92.2326,38.4152,92.0249,37.7759,91.8012,37.1443C91.8012,37.1443,90.8586,37.4781,90.8586,37.4781C90.8586,37.4781,90.8586,37.4781,90.8586,37.4781ZM91.9718,41.2416C92.1235,41.8756,92.2591,42.516,92.3781,43.162099999999995C92.3781,43.162099999999995,93.3616,42.981,93.3616,42.981C93.2394,42.317499999999995,93.1001,41.66,92.9444,41.0089C92.9444,41.0089,91.9718,41.2416,91.9718,41.2416C91.9718,41.2416,91.9718,41.2416,91.9718,41.2416ZM92.683,45.1015C92.7673,45.7474,92.8351,46.3985,92.886,47.0543C92.886,47.0543,93.883,46.9769,93.883,46.9769C93.8307,46.3036,93.7611,45.6353,93.6746,44.9722C93.6746,44.9722,92.683,45.1015,92.683,45.1015C92.683,45.1015,92.683,45.1015,92.683,45.1015ZM92.9873,49.0152C92.9958,49.3425,93,49.6707,93,50C93,50,94,50,94,50C94,49.6621,93.9956,49.3253,93.987,48.9895C93.987,48.9895,92.9873,49.0152,92.9873,49.0152C92.9873,49.0152,92.9873,49.0152,92.9873,49.0152Z" fill="url(#master_svg4_78_165668)" fill-opacity="1"/></g><g style="opacity:0.3127092719078064;"><path d="M0,58C0,67.89303,6.24333,76.7801,16.1925,83.1695C26.1471,89.5623,39.869,93.5,55,93.5C55,93.5,55,92.5,55,92.5C40.0315,92.5,26.5034,88.6027,16.7329,82.328C6.95691,76.04990000000001,1,67.43693,1,58C1,58,0,58,0,58C0,58,0,58,0,58ZM55,93.5C70.131,93.5,83.8529,89.5623,93.8075,83.1695C103.757,76.7801,110,67.89303,110,58C110,58,109,58,109,58C109,67.43693,103.043,76.04990000000001,93.2671,82.328C83.4966,88.6027,69.9685,92.5,55,92.5C55,92.5,55,93.5,55,93.5C55,93.5,55,93.5,55,93.5Z" fill="url(#master_svg5_78_165655)" fill-opacity="1"/></g><g style="mix-blend-mode:passthrough"><ellipse cx="24.5" cy="53" rx="2" ry="2" fill="#00C5FF" fill-opacity="1"/></g><g style="opacity:0.8036876916885376;"><ellipse cx="87.5" cy="50" rx="2" ry="2" fill="#00C5FF" fill-opacity="1"/></g><g style="opacity:0.8723028302192688;"><ellipse cx="16" cy="46.5" rx="1.5" ry="1.5" fill="#00C5FF" fill-opacity="1"/></g><g style="opacity:0.454287588596344;"><ellipse cx="83" cy="46.5" rx="1.5" ry="1.5" fill="#00C5FF" fill-opacity="1"/></g><g style="opacity:0.4459635317325592;"><ellipse cx="25" cy="35.5" rx="1.5" ry="1.5" fill="#00C5FF" fill-opacity="1"/></g><g style="mix-blend-mode:passthrough"><ellipse cx="83" cy="33.5" rx="1.5" ry="1.5" fill="#00C5FF" fill-opacity="1"/></g></g></svg>