<svg xmlns="http://www.w3.org/2000/svg" xmlns:xlink="http://www.w3.org/1999/xlink" fill="none" version="1.1" width="395" height="26" viewBox="0 0 395 26"><defs><linearGradient x1="0.37851178646087646" y1="0.223375603556633" x2="0.7762225270271301" y2="0.8868973851203918" id="master_svg0_5_597"><stop offset="0%" stop-color="#00FFFA" stop-opacity="0"/><stop offset="100%" stop-color="#00FFF4" stop-opacity="1"/></linearGradient></defs><g style="mix-blend-mode:passthrough"><g style="mix-blend-mode:passthrough"><g style="mix-blend-mode:passthrough"><rect x="19" y="23" width="74" height="2" rx="0" fill="#00FFF4" fill-opacity="1"/></g><g style="mix-blend-mode:passthrough"><rect x="95" y="23" width="4" height="2" rx="0" fill="#00FFF4" fill-opacity="1"/></g><g style="mix-blend-mode:passthrough"><rect x="101" y="23" width="2" height="2" rx="0" fill="#00FFF4" fill-opacity="1"/></g><g style="mix-blend-mode:passthrough"><rect x="121" y="23" width="2" height="2" rx="0" fill="#00FFF4" fill-opacity="1"/></g><g style="mix-blend-mode:passthrough"><rect x="111" y="23" width="2" height="2" rx="0" fill="#00FFF4" fill-opacity="1"/></g><g style="mix-blend-mode:passthrough"><rect x="131" y="23" width="2" height="2" rx="0" fill="#00FFF4" fill-opacity="1"/></g><g style="mix-blend-mode:passthrough"><rect x="105" y="23" width="4" height="2" rx="0" fill="#00FFF4" fill-opacity="1"/></g><g style="mix-blend-mode:passthrough"><rect x="125" y="23" width="4" height="2" rx="0" fill="#00FFF4" fill-opacity="1"/></g><g style="mix-blend-mode:passthrough"><rect x="115" y="23" width="4" height="2" rx="0" fill="#00FFF4" fill-opacity="1"/></g><g style="mix-blend-mode:passthrough"><rect x="135" y="23" width="4" height="2" rx="0" fill="#00FFF4" fill-opacity="1"/></g><g style="mix-blend-mode:passthrough"><rect x="141" y="23" width="254" height="2" rx="0" fill="#008E88" fill-opacity="1"/></g><g style="mix-blend-mode:passthrough"><path d="M13,0Q15.6442,0,18.0605,1.022015Q20.3936,2.00884,22.1924,3.80761Q23.9912,5.60638,24.978,7.93951Q26,10.35582,26,13Q26,15.6442,24.978,18.0605Q23.9912,20.3936,22.1924,22.1924Q20.3936,23.9912,18.0605,24.978Q15.6442,26,13,26Q10.35583,26,7.93951,24.978Q5.60638,23.9912,3.80761,22.1924Q2.00884,20.3936,1.0220145,18.0605Q0,15.6442,0,13L1.9999989999999999,13Q1.9999989999999999,15.2386,2.86402,17.2814Q3.69889,19.2552,5.22182,20.7782Q6.74476,22.3011,8.71861,23.136Q10.7614,24,13,24Q15.2386,24,17.2814,23.136Q19.2552,22.3011,20.7782,20.7782Q22.3011,19.2552,23.136,17.2814Q24,15.2386,24,13Q24,10.7614,23.136,8.71861Q22.3011,6.74476,20.7782,5.22183Q19.2552,3.69889,17.2814,2.86402Q15.2386,2,13,2L13,0Z" fill="url(#master_svg0_5_597)" fill-opacity="1"/></g><g style="mix-blend-mode:passthrough"><ellipse cx="13" cy="13" rx="4.5" ry="4.5" fill="#FFBC47" fill-opacity="1"/></g></g></g></svg>