<svg t="1631958018801" class="icon" viewBox="0 0 1024 1024" version="1.1" xmlns="http://www.w3.org/2000/svg" p-id="26216" width="30" height="30"><path d="M516.096 29.184c-22.528 0-40.96 18.432-40.96 40.96s18.432 40.96 40.96 40.96c220.16 0 399.36 179.2 399.36 399.36s-179.2 399.36-399.36 399.36-399.36-179.2-399.36-399.36c0-122.88 55.296-237.056 151.552-313.344 17.92-13.824 20.48-39.936 6.656-57.344-13.824-17.92-39.936-20.48-57.344-6.656C101.888 224.768 34.816 362.496 34.816 510.464c0 265.216 216.064 481.28 481.28 481.28s481.28-216.064 481.28-481.28-215.552-481.28-481.28-481.28z" fill="#1296db" p-id="26217"></path><path d="M340.992 737.792c22.528 0 40.96-18.432 40.96-40.96V491.52h210.944l-56.832 56.832c-15.872 15.872-15.872 41.984 0 57.856 8.192 8.192 18.432 11.776 29.184 11.776s20.992-4.096 29.184-11.776l126.976-126.976 0.512-0.512 2.56-2.56c0.512-0.512 1.024-1.024 1.024-1.536 0.512-0.512 1.024-1.024 1.024-1.536 0.512-0.512 1.024-1.024 1.024-2.048 0.512-0.512 0.512-1.024 1.024-1.536 0.512-0.512 0.512-1.536 1.024-2.048 0.512-0.512 0.512-1.024 1.024-1.536 0.512-0.512 0.512-1.536 0.512-2.048 0-0.512 0.512-1.024 0.512-2.048 0-0.512 0.512-1.536 0.512-2.048 0-0.512 0.512-1.024 0.512-2.048s0-1.536 0.512-2.56v-1.536c0.512-2.56 0.512-5.632 0-8.192v-1.536c0-1.024 0-1.536-0.512-2.56 0-0.512-0.512-1.024-0.512-2.048 0-0.512-0.512-1.536-0.512-2.048 0-0.512-0.512-1.024-0.512-2.048 0-0.512-0.512-1.536-0.512-2.048 0-0.512-0.512-1.024-1.024-1.536-0.512-0.512-0.512-1.536-1.024-2.048-0.512-0.512-0.512-1.024-1.024-1.536-0.512-0.512-0.512-1.024-1.024-2.048-0.512-0.512-1.024-1.024-1.024-1.536-0.512-0.512-0.512-1.024-1.024-1.536-0.512-1.024-1.536-2.048-2.56-2.56l-0.512-0.512L593.92 294.912c-15.872-15.872-41.984-15.872-57.856 0-15.872 15.872-15.872 41.984 0 57.856L592.896 409.6H340.992c-22.528 0-40.96 18.432-40.96 40.96v246.784c0 22.528 18.432 40.448 40.96 40.448z" fill="#1296db" p-id="26218"></path></svg>