<?xml version="1.0" encoding="utf-8"?>
<svg version="1.1" xmlns:xlink="http://www.w3.org/1999/xlink" width="376px" height="626px" xmlns="http://www.w3.org/2000/svg">
  <g transform="matrix(1 0 0 1 -688 -312 )">
    <path d="M 375 31.75  C 375.5 23.75  372.4375 15.75  366.34375 9.65625  C 360.25 3.5625  352.25 0.5  344.25 1  L 31.75 1  C 23.75 0.5  15.75 3.5625  9.65625 9.65625  C 3.5625 15.75  0.5 23.75  1 31.75  L 1 594.25  C 0.5 602.25  3.5625 610.25  9.65625 616.34375  C 15.7499999999999 622.4375  23.75 625.5  31.75 625  L 344.25 625  C 352.25 625.5  360.25 622.4375  366.34375 616.34375  C 372.4375 610.25  375.5 602.25  375 594.25  L 375 31.75  Z M 219.25 573.40625  C 219.25 590.65625  205.25 604.65625  188 604.65625  C 170.75 604.65625  156.75 590.65625  156.75 573.40625  C 156.75 556.15625  170.75 542.15625  188 542.15625  C 205.25 542.15625  219.25 556.15625  219.25 573.40625  Z M 344 63  L 344 531  L 32 531  L 32 63  L 344 63  Z " fill-rule="nonzero" fill="#f2f2f2" stroke="none" transform="matrix(1 0 0 1 688 312 )" />
  </g>
</svg>