<svg xmlns="http://www.w3.org/2000/svg" xmlns:xlink="http://www.w3.org/1999/xlink" fill="none" version="1.1" width="75.85205078125" height="76" viewBox="0 0 75.85205078125 76"><defs><linearGradient x1="-0.28482726216316223" y1="0.42471519112586975" x2="0.4637804925441742" y2="1.3586304187774658" id="master_svg0_52_04574"><stop offset="0%" stop-color="#00BBE4" stop-opacity="0.00009999999747378752"/><stop offset="100%" stop-color="#0068C4" stop-opacity="1"/></linearGradient><linearGradient x1="0.4495275616645813" y1="1.4181395769119263" x2="1.4121133089065552" y2="0.5190845131874084" id="master_svg1_52_04566"><stop offset="0%" stop-color="#00BBE4" stop-opacity="0.00009999999747378752"/><stop offset="100%" stop-color="#0068C4" stop-opacity="1"/></linearGradient><linearGradient x1="0.9600511193275452" y1="-0.29829472303390503" x2="0" y2="-0.29829472303390503" id="master_svg2_52_04570"><stop offset="0%" stop-color="#00BBE4" stop-opacity="0.00009999999747378752"/><stop offset="100%" stop-color="#0068C4" stop-opacity="1"/></linearGradient><filter id="master_svg3_236_60173" filterUnits="objectBoundingBox" color-interpolation-filters="sRGB" x="0" y="0" width="57.77776336669922" height="57.89063262939453"><feFlood flood-opacity="0" result="BackgroundImageFix"/><feBlend mode="normal" in="SourceGraphic" in2="BackgroundImageFix" result="shape"/><feGaussianBlur stdDeviation="0" result="effect1_foregroundBlur"/></filter></defs><g style="mix-blend-mode:passthrough"><g style="mix-blend-mode:passthrough"><g style="mix-blend-mode:passthrough"><g style="mix-blend-mode:passthrough"><path d="M57.37635803222656,6.873101577301025C67.76385803222657,13.383211577301026,74.66665803222656,24.922731577301025,74.66665803222656,38.07213157730103C74.66665803222656,38.07213157730103,75.85185803222656,38.07213157730103,75.85185803222656,38.07213157730103C75.85185803222656,24.495531577301026,68.72315803222656,12.583781577301025,58.00486803222656,5.866331577301025C58.00486803222656,5.866331577301025,57.37635803222656,6.873101577301025,57.37635803222656,6.873101577301025C57.37635803222656,6.873101577301025,57.37635803222656,6.873101577301025,57.37635803222656,6.873101577301025ZM74.66665803222656,38.07213157730103C74.66665803222656,41.519131577301025,74.19265803222656,44.85363157730102,73.30635803222657,48.01623157730103C73.30635803222657,48.01623157730103,74.44745803222656,48.33713157730102,74.44745803222656,48.33713157730102C75.36275803222657,45.070931577301025,75.85185803222656,41.62863157730103,75.85185803222656,38.07213157730103C75.85185803222656,38.07213157730103,74.66665803222656,38.07213157730103,74.66665803222656,38.07213157730103C74.66665803222656,38.07213157730103,74.66665803222656,38.07213157730103,74.66665803222656,38.07213157730103Z" fill="url(#master_svg0_52_04574)" fill-opacity="1"/></g><g style="mix-blend-mode:passthrough"><path d="M1.18518,38C1.18518,17.6693,17.6343,1.1875,37.9259,1.1875C37.9259,1.1875,37.9259,0,37.9259,0C16.9797,0,0,17.0135,0,38C0,38,1.18518,38,1.18518,38C1.18518,38,1.18518,38,1.18518,38Z" fill="url(#master_svg1_52_04566)" fill-opacity="1"/></g><g style="mix-blend-mode:passthrough"><path d="M12.547714233398438,66.16195698730469C19.281794233398436,72.27321698730469,28.24061423339844,75.99998698730468,38.072014233398434,75.99998698730468C38.072014233398434,75.99998698730468,38.072014233398434,74.81248698730468,38.072014233398434,74.81248698730468C28.545014233398437,74.81248698730468,19.867184233398437,71.20229698730469,13.343346233398437,65.28181398730469C13.343346233398437,65.28181398730469,12.547714233398438,66.16195698730469,12.547714233398438,66.16195698730469C12.547714233398438,66.16195698730469,12.547714233398438,66.16195698730469,12.547714233398438,66.16195698730469ZM38.072014233398434,75.99998698730468C48.168614233398436,75.99998698730468,57.344914233398434,72.06913698730469,64.13601423339844,65.66182898730469C64.13601423339844,65.66182898730469,63.32361423339844,64.79728698730469,63.32361423339844,64.79728698730469C56.744314233398434,71.00466698730469,47.85571423339844,74.81248698730468,38.072014233398434,74.81248698730468C38.072014233398434,74.81248698730468,38.072014233398434,75.99998698730468,38.072014233398434,75.99998698730468C38.072014233398434,75.99998698730468,38.072014233398434,75.99998698730468,38.072014233398434,75.99998698730468Z" fill="url(#master_svg2_52_04570)" fill-opacity="1"/></g><g style="mix-blend-mode:passthrough"><path d="M70.02177158050537,38.00010259857178C70.02177158050537,55.76100259857178,55.65227158050537,70.15850259857177,37.92637158050537,70.15850259857177C37.92637158050537,70.15850259857177,37.92637158050537,70.75230259857177,37.92637158050537,70.75230259857177C55.97967158050537,70.75230259857177,70.61437158050538,56.08870259857178,70.61437158050538,38.00010259857178C70.61437158050538,38.00010259857178,70.02177158050537,38.00010259857178,70.02177158050537,38.00010259857178C70.02177158050537,38.00010259857178,70.02177158050537,38.00010259857178,70.02177158050537,38.00010259857178ZM37.92637158050537,70.15850259857177C20.20017158050537,70.15850259857177,5.830063580505371,55.76100259857178,5.830063580505371,38.00010259857178C5.830063580505371,38.00010259857178,5.237471580505371,38.00010259857178,5.237471580505371,38.00010259857178C5.237471580505371,56.08870259857178,19.87287158050537,70.75230259857177,37.92637158050537,70.75230259857177C37.92637158050537,70.75230259857177,37.92637158050537,70.15850259857177,37.92637158050537,70.15850259857177C37.92637158050537,70.15850259857177,37.92637158050537,70.15850259857177,37.92637158050537,70.15850259857177ZM5.830063580505371,38.00010259857178C5.830063580505371,20.239102598571776,20.20017158050537,5.841452598571777,37.92637158050537,5.841452598571777C37.92637158050537,5.841452598571777,37.92637158050537,5.247702598571777,37.92637158050537,5.247702598571777C19.87287158050537,5.247702598571777,5.237471580505371,19.911202598571776,5.237471580505371,38.00010259857178C5.237471580505371,38.00010259857178,5.830063580505371,38.00010259857178,5.830063580505371,38.00010259857178C5.830063580505371,38.00010259857178,5.830063580505371,38.00010259857178,5.830063580505371,38.00010259857178ZM37.92637158050537,5.841452598571777C55.65227158050537,5.841452598571777,70.02177158050537,20.239102598571776,70.02177158050537,38.00010259857178C70.02177158050537,38.00010259857178,70.61437158050538,38.00010259857178,70.61437158050538,38.00010259857178C70.61437158050538,19.911202598571776,55.97967158050537,5.247702598571777,37.92637158050537,5.247702598571777C37.92637158050537,5.247702598571777,37.92637158050537,5.841452598571777,37.92637158050537,5.841452598571777C37.92637158050537,5.841452598571777,37.92637158050537,5.841452598571777,37.92637158050537,5.841452598571777Z" fill="#009DFF" fill-opacity="1"/></g><g style="mix-blend-mode:passthrough"><g style="mix-blend-mode:passthrough"><path d="M37.66489891905785,5.5445754235458375L38.187098919057846,5.5445754235458375L38.187098919057846,3.6192554235458374L37.66489891905785,3.6192554235458374L37.66489891905785,5.5445754235458375ZM21.180798919057846,7.997765423545838L22.099098919057845,9.670555423545839L22.553398919057845,9.418015423545837L21.634498919057847,7.745235423545838L21.180798919057846,7.997765423545838ZM54.28729891905785,9.944965423545838L53.847598919057845,9.681825423545838L54.77989891905785,8.019645423545837L55.22009891905785,8.282795423545839L54.28729891905785,9.944965423545838ZM8.278948919057846,20.63855542354584L9.929638919057847,21.772455423545836L10.200518919057846,21.256155423545838L8.549818919057845,20.122155423545838L8.278948919057846,20.63855542354584ZM66.18699891905786,22.04725542354584L65.92589891905784,21.602955423545836L67.58699891905785,20.67195542354584L67.84749891905784,21.116255423545837L66.18699891905786,22.04725542354584ZM3.612198919057846,37.69595542354584L5.525518919057846,37.72505542354584L5.533768919057846,37.203955423545835L3.619893999057846,37.17495542354584L3.612198919057846,37.69595542354584ZM72.23629891905784,38.541955423545836L70.31799891905784,38.532055423545835L70.32079891905785,38.00885542354584L72.23959891905784,38.01825542354584L72.23629891905784,38.541955423545836ZM8.004288919057846,54.60135542354584L8.259288919057846,55.053055423545835L9.925858919057845,54.129055423545836L9.670858919057846,53.677855423545836L8.004288919057846,54.60135542354584ZM67.30789891905785,55.60285542354584L65.65149891905784,54.664955423545834L65.91719891905785,54.22765542354584L67.57309891905786,55.16555542354584L67.30789891905785,55.60285542354584ZM20.790498919057846,67.70475542354583L20.357298919057847,67.43635542354585L21.297198919057845,65.77945542354584L21.729898919057845,66.04785542354584L20.790498919057846,67.70475542354583ZM54.49839891905785,67.98015542354584L53.57289891905785,66.31295542354584L54.01999891905785,66.05475542354583L54.945398919057844,67.72195542354584L54.49839891905785,67.98015542354584ZM37.90319891905784,72.38055542354584L37.38049891905785,72.37495542354584L37.39969891905785,70.45515542354583L37.92239891905785,70.46015542354584L37.90319891905784,72.38055542354584Z" fill-rule="evenodd" fill="#009DFF" fill-opacity="1"/></g><g style="mix-blend-mode:passthrough"><path d="M51.376893132925034,8.570083737373352C51.376893132925034,8.570083737373352,51.48740013292503,10.597533737373352,51.48740013292503,10.597533737373352C61.585193132925035,15.584113737373352,68.53779313292503,26.02508373737335,68.53779313292503,38.10248373737335C68.53779313292503,40.757883737373355,68.20109313292504,43.33418373737335,67.56929313292503,45.79108373737335C67.56929313292503,45.79108373737335,68.81549313292504,47.90158373737335,68.81549313292504,47.90158373737335C69.78919313292504,44.809883737373355,70.31809313292503,41.51848373737335,70.31809313292503,38.10248373737335C70.31809313292503,24.965983737373353,62.544993132925036,13.662563737373352,51.376893132925034,8.570083737373352Z" fill-rule="evenodd" fill="#009DFF" fill-opacity="1"/></g><g style="mix-blend-mode:passthrough"><path d="M7.326477789602279,38.082304839515686C7.326477789602279,27.474204839515686,12.71681778960228,18.126374839515684,20.906367789602278,12.624014839515686C20.906367789602278,12.624014839515686,20.906367789602278,10.495404839515686,20.906367789602278,10.495404839515686C11.681257789602281,16.216154839515685,5.53376778960228,26.429404839515684,5.53376778960228,38.082304839515686C5.53376778960228,40.904604839515684,5.895453789602279,43.64120483951569,6.5733977896022795,46.25130483951568C6.5733977896022795,46.25130483951568,8.117407789602279,44.98930483951568,8.117407789602279,44.98930483951568C7.606037789602279,42.768104839515686,7.326477789602279,40.459004839515686,7.326477789602279,38.082304839515686Z" fill-rule="evenodd" fill="#009DFF" fill-opacity="1"/></g><g style="mix-blend-mode:passthrough"><path d="M57.6906762444973,63.75075049686432C57.6906762444973,63.75075049686432,56.0486762444973,62.75296249686432,56.0486762444973,62.75296249686432C50.9689762444973,66.47122049686432,44.698176244497304,68.67249049686431,37.9079762444973,68.67249049686431C30.6320762444973,68.67249049686431,23.9518562444973,66.14442049686431,18.6959562444973,61.92900049686432C18.6959562444973,61.92900049686432,17.0631762444973,62.90303549686432,17.0631762444973,62.90303549686432C22.7010362444973,67.61445049686432,29.9699762444973,70.45543049686432,37.9079762444973,70.45543049686432C45.3567762444973,70.45543049686432,52.2145762444973,67.95111049686432,57.6906762444973,63.75075049686432Z" fill-rule="evenodd" fill="#009DFF" fill-opacity="1"/></g><g style="mix-blend-mode:passthrough"><path d="M50.849668318471906,2.9316427344131473C50.849668318471906,2.811172734413147,50.837868318471905,2.6931527344131467,50.81529831847191,2.578792734413147C50.81529831847191,2.578792734413147,50.233958318471906,2.694012734413147,50.233958318471906,2.694012734413147C50.249088318471905,2.770632734413147,50.25706831847191,2.850062734413147,50.25706831847191,2.9316427344131473C50.25706831847191,2.9316427344131473,50.849668318471906,2.9316427344131473,50.849668318471906,2.9316427344131473C50.849668318471906,2.9316427344131473,50.849668318471906,2.9316427344131473,50.849668318471906,2.9316427344131473ZM50.54527831847191,1.925967734413147C50.41352831847191,1.728753734413147,50.24412831847191,1.559005734413147,50.04727831847191,1.426961734413147C50.04727831847191,1.426961734413147,49.71761831847191,1.9203517344131469,49.71761831847191,1.9203517344131469C49.85007831847191,2.009205734413147,49.96417831847191,2.123542734413147,50.05284831847191,2.2562627344131467C50.05284831847191,2.2562627344131467,50.54527831847191,1.925967734413147,50.54527831847191,1.925967734413147C50.54527831847191,1.925967734413147,50.54527831847191,1.925967734413147,50.54527831847191,1.925967734413147ZM49.39570831847191,1.156437434413147C49.28157831847191,1.133822434413147,49.16379831847191,1.122012734413147,49.04355831847191,1.122012734413147C49.04355831847191,1.122012734413147,49.04355831847191,1.715762734413147,49.04355831847191,1.715762734413147C49.12499831847191,1.715762734413147,49.20426831847191,1.723754734413147,49.28073831847191,1.738907734413147C49.28073831847191,1.738907734413147,49.39570831847191,1.156437434413147,49.39570831847191,1.156437434413147C49.39570831847191,1.156437434413147,49.39570831847191,1.156437434413147,49.39570831847191,1.156437434413147ZM49.04355831847191,1.122012734413147C48.92330831847191,1.122012734413147,48.80551831847191,1.133837534413147,48.691378318471905,1.156477534413147C48.691378318471905,1.156477534413147,48.80645831847191,1.738924734413147,48.80645831847191,1.738924734413147C48.882908318471905,1.723760734413147,48.96215831847191,1.715762734413147,49.04355831847191,1.715762734413147C49.04355831847191,1.715762734413147,49.04355831847191,1.122012734413147,49.04355831847191,1.122012734413147C49.04355831847191,1.122012734413147,49.04355831847191,1.122012734413147,49.04355831847191,1.122012734413147ZM48.03989931847191,1.4270967344131469C47.843108318471906,1.559129734413147,47.67372331847191,1.728845734413147,47.541947318471905,1.926021734413147C47.541947318471905,1.926021734413147,48.03434131847191,2.256382734413147,48.03434131847191,2.256382734413147C48.12303731847191,2.1236627344131467,48.23715931847191,2.009324734413147,48.36961831847191,1.920452734413147C48.36961831847191,1.920452734413147,48.03989931847191,1.4270967344131469,48.03989931847191,1.4270967344131469C48.03989931847191,1.4270967344131469,48.03989931847191,1.4270967344131469,48.03989931847191,1.4270967344131469ZM47.27185591847191,2.578772734413147C47.24926011847191,2.693142734413147,47.23745831847191,2.811152734413147,47.23745831847191,2.9316427344131473C47.23745831847191,2.9316427344131473,47.83005031847191,2.9316427344131473,47.83005031847191,2.9316427344131473C47.83005031847191,2.8500827344131467,47.83803331847191,2.770682734413147,47.85316831847191,2.694072734413147C47.85316831847191,2.694072734413147,47.27185591847191,2.578772734413147,47.27185591847191,2.578772734413147C47.27185591847191,2.578772734413147,47.27185591847191,2.578772734413147,47.27185591847191,2.578772734413147ZM47.23745831847191,2.9316427344131473C47.23745831847191,3.052122734413147,47.24926011847191,3.170142734413147,47.27185591847191,3.284502734413147C47.27185591847191,3.284502734413147,47.85316831847191,3.169202734413147,47.85316831847191,3.169202734413147C47.83803331847191,3.092602734413147,47.83005031847191,3.0131927344131473,47.83005031847191,2.9316427344131473C47.83005031847191,2.9316427344131473,47.23745831847191,2.9316427344131473,47.23745831847191,2.9316427344131473C47.23745831847191,2.9316427344131473,47.23745831847191,2.9316427344131473,47.23745831847191,2.9316427344131473ZM47.54194831847191,3.937262734413147C47.67372331847191,4.1344327344131475,47.843108318471906,4.304152734413147,48.03989931847191,4.436172734413147C48.03989931847191,4.436172734413147,48.36961831847191,3.942832734413147,48.36961831847191,3.942832734413147C48.23715931847191,3.853962734413147,48.12304031847191,3.739612734413147,48.03434131847191,3.606902734413147C48.03434131847191,3.606902734413147,47.54194831847191,3.937262734413147,47.54194831847191,3.937262734413147C47.54194831847191,3.937262734413147,47.54194831847191,3.937262734413147,47.54194831847191,3.937262734413147ZM48.691378318471905,4.7068127344131465C48.80551831847191,4.729432734413146,48.92330831847191,4.741272734413148,49.04355831847191,4.741272734413148C49.04355831847191,4.741272734413148,49.04355831847191,4.147522734413148,49.04355831847191,4.147522734413148C48.96215831847191,4.147522734413148,48.882908318471905,4.139522734413147,48.80645831847191,4.124352734413147C48.80645831847191,4.124352734413147,48.691378318471905,4.7068127344131465,48.691378318471905,4.7068127344131465C48.691378318471905,4.7068127344131465,48.691378318471905,4.7068127344131465,48.691378318471905,4.7068127344131465ZM49.04355831847191,4.741272734413148C49.16379831847191,4.741272734413148,49.28157831847191,4.729462734413147,49.39570831847191,4.706842734413147C49.39570831847191,4.706842734413147,49.28073831847191,4.1243727344131464,49.28073831847191,4.1243727344131464C49.20426831847191,4.139532734413147,49.12499831847191,4.147522734413148,49.04355831847191,4.147522734413148C49.04355831847191,4.147522734413148,49.04355831847191,4.741272734413148,49.04355831847191,4.741272734413148C49.04355831847191,4.741272734413148,49.04355831847191,4.741272734413148,49.04355831847191,4.741272734413148ZM50.04727831847191,4.436322734413147C50.24412831847191,4.304272734413146,50.41352831847191,4.134522734413147,50.54527831847191,3.937312734413147C50.54527831847191,3.937312734413147,50.05284831847191,3.607022734413147,50.05284831847191,3.607022734413147C49.96417831847191,3.739742734413147,49.85007831847191,3.854072734413147,49.71761831847191,3.942932734413147C49.71761831847191,3.942932734413147,50.04727831847191,4.436322734413147,50.04727831847191,4.436322734413147C50.04727831847191,4.436322734413147,50.04727831847191,4.436322734413147,50.04727831847191,4.436322734413147ZM50.81529831847191,3.284492734413147C50.837868318471905,3.170122734413147,50.849668318471906,3.052112734413147,50.849668318471906,2.9316427344131473C50.849668318471906,2.9316427344131473,50.25706831847191,2.9316427344131473,50.25706831847191,2.9316427344131473C50.25706831847191,3.013222734413147,50.249088318471905,3.092642734413147,50.233958318471906,3.169262734413147C50.233958318471906,3.169262734413147,50.81529831847191,3.284492734413147,50.81529831847191,3.284492734413147C50.81529831847191,3.284492734413147,50.81529831847191,3.284492734413147,50.81529831847191,3.284492734413147Z" fill="#009DFF" fill-opacity="1"/></g><g style="mix-blend-mode:passthrough"><path d="M73.08495121642113,58.215883457069395C73.08495121642113,58.0954134570694,73.07315121642112,57.977413457069396,73.05061121642113,57.863063457069394C73.05061121642113,57.863063457069394,72.46926121642113,57.9781834570694,72.46926121642113,57.9781834570694C72.48437121642112,58.0548134570694,72.49235121642113,58.1342534570694,72.49235121642113,58.215883457069395C72.49235121642113,58.215883457069395,73.08495121642113,58.215883457069395,73.08495121642113,58.215883457069395C73.08495121642113,58.215883457069395,73.08495121642113,58.215883457069395,73.08495121642113,58.215883457069395ZM72.78071121642112,57.2101434570694C72.64893121642113,57.0128674570694,72.47951121642113,56.8431084570694,72.28262121642113,56.7110784570694C72.28262121642113,56.7110784570694,71.95302121642112,57.2045174570694,71.95302121642112,57.2045174570694C72.08549121642113,57.2933454570694,72.19958121642112,57.407653457069394,72.28823121642112,57.540383457069396C72.28823121642112,57.540383457069396,72.78071121642112,57.2101434570694,72.78071121642112,57.2101434570694C72.78071121642112,57.2101434570694,72.78071121642112,57.2101434570694,72.78071121642112,57.2101434570694ZM71.63097121642113,56.4406508570694C71.51684121642113,56.4180524570694,71.39907121642113,56.4062534570694,71.27884121642113,56.4062534570694C71.27884121642113,56.4062534570694,71.27884121642113,57.0000034570694,71.27884121642113,57.0000034570694C71.36030121642112,57.0000034570694,71.43960121642112,57.0079894570694,71.51607121642112,57.0231364570694C71.51607121642112,57.0231364570694,71.63097121642113,56.4406508570694,71.63097121642113,56.4406508570694C71.63097121642113,56.4406508570694,71.63097121642113,56.4406508570694,71.63097121642113,56.4406508570694ZM71.27884121642113,56.4062534570694C71.15860121642113,56.4062534570694,71.04082121642112,56.4180675570694,70.92668121642113,56.4406909570694C70.92668121642113,56.4406909570694,71.04168121642113,57.023154457069396,71.04168121642113,57.023154457069396C71.11815121642113,57.0079954570694,71.19742121642113,57.0000034570694,71.27884121642113,57.0000034570694C71.27884121642113,57.0000034570694,71.27884121642113,56.4062534570694,71.27884121642113,56.4062534570694C71.27884121642113,56.4062534570694,71.27884121642113,56.4062534570694,71.27884121642113,56.4062534570694ZM70.27512921642112,56.711214457069396C70.07829921642113,56.843233457069395,69.90888221642113,57.0129594570694,69.77709521642113,57.210196457069394C69.77709521642113,57.210196457069394,70.26952321642112,57.540513457069395,70.26952321642112,57.540513457069395C70.35820421642113,57.4077834570694,70.47231721642113,57.2934614570694,70.60478121642113,57.204615457069394C70.60478121642113,57.204615457069394,70.27512921642112,56.711214457069396,70.27512921642112,56.711214457069396C70.27512921642112,56.711214457069396,70.27512921642112,56.711214457069396,70.27512921642112,56.711214457069396ZM69.50709881642113,57.863043457069395C69.48452791642113,57.9773934570694,69.47274121642113,58.095403457069395,69.47274121642113,58.215883457069395C69.47274121642113,58.215883457069395,70.06533321642112,58.215883457069395,70.06533321642112,58.215883457069395C70.06533321642112,58.134283457069394,70.07331021642112,58.0548534570694,70.08843321642112,57.9782434570694C70.08843321642112,57.9782434570694,69.50709881642113,57.863043457069395,69.50709881642113,57.863043457069395C69.50709881642113,57.863043457069395,69.50709881642113,57.863043457069395,69.50709881642113,57.863043457069395ZM69.47274121642113,58.215883457069395C69.47274121642113,58.336363457069396,69.48454301642113,58.4543834570694,69.50713881642113,58.568743457069395C69.50713881642113,58.568743457069395,70.08845121642113,58.4534434570694,70.08845121642113,58.4534434570694C70.07331621642113,58.3768434570694,70.06533321642112,58.297433457069396,70.06533321642112,58.215883457069395C70.06533321642112,58.215883457069395,69.47274121642113,58.215883457069395,69.47274121642113,58.215883457069395C69.47274121642113,58.215883457069395,69.47274121642113,58.215883457069395,69.47274121642113,58.215883457069395ZM69.77723121642113,59.221503457069396C69.90900621642113,59.418673457069396,70.07839121642112,59.588393457069394,70.27518221642113,59.7204134570694C70.27518221642113,59.7204134570694,70.60490121642113,59.227073457069395,70.60490121642113,59.227073457069395C70.47244221642113,59.138203457069395,70.35832321642113,59.0238534570694,70.26962421642112,58.8911434570694C70.26962421642112,58.8911434570694,69.77723121642113,59.221503457069396,69.77723121642113,59.221503457069396C69.77723121642113,59.221503457069396,69.77723121642113,59.221503457069396,69.77723121642113,59.221503457069396ZM70.92666121642112,59.9910534570694C71.04080121642113,60.013673457069395,71.15859121642113,60.025513457069394,71.27884121642113,60.025513457069394C71.27884121642113,60.025513457069394,71.27884121642113,59.431763457069394,71.27884121642113,59.431763457069394C71.19744121642113,59.431763457069394,71.11819121642112,59.4237634570694,71.04174121642113,59.408593457069394C71.04174121642113,59.408593457069394,70.92666121642112,59.9910534570694,70.92666121642112,59.9910534570694C70.92666121642112,59.9910534570694,70.92666121642112,59.9910534570694,70.92666121642112,59.9910534570694ZM71.27884121642113,60.025513457069394C71.39908121642112,60.025513457069394,71.51686121642113,60.0137034570694,71.63099121642112,59.991083457069394C71.63099121642112,59.991083457069394,71.51602121642112,59.4086134570694,71.51602121642112,59.4086134570694C71.43955121642112,59.423773457069395,71.36028121642113,59.431763457069394,71.27884121642113,59.431763457069394C71.27884121642113,59.431763457069394,71.27884121642113,60.025513457069394,71.27884121642113,60.025513457069394C71.27884121642113,60.025513457069394,71.27884121642113,60.025513457069394,71.27884121642113,60.025513457069394ZM72.28256121642113,59.720563457069396C72.47941121642113,59.588513457069396,72.64881121642112,59.418763457069396,72.78056121642113,59.2215534570694C72.78056121642113,59.2215534570694,72.28813121642112,58.8912634570694,72.28813121642112,58.8912634570694C72.19946121642113,59.0239834570694,72.08536121642113,59.138313457069394,71.95290121642113,59.2271734570694C71.95290121642113,59.2271734570694,72.28256121642113,59.720563457069396,72.28256121642113,59.720563457069396C72.28256121642113,59.720563457069396,72.28256121642113,59.720563457069396,72.28256121642113,59.720563457069396ZM73.05058121642112,58.5687334570694C73.07315121642112,58.4543634570694,73.08495121642113,58.3363534570694,73.08495121642113,58.215883457069395C73.08495121642113,58.215883457069395,72.49235121642113,58.215883457069395,72.49235121642113,58.215883457069395C72.49235121642113,58.2974634570694,72.48437121642112,58.3768834570694,72.46924121642112,58.453503457069395C72.46924121642112,58.453503457069395,73.05058121642112,58.5687334570694,73.05058121642112,58.5687334570694C73.05058121642112,58.5687334570694,73.05058121642112,58.5687334570694,73.05058121642112,58.5687334570694Z" fill="#009DFF" fill-opacity="1"/></g><g style="mix-blend-mode:passthrough"><path d="M3.9085062090969087,53.54009839237213C3.9085062090969087,53.41960839237213,3.8966762090969085,53.30159839237213,3.8741062090969085,53.187228392372134C3.8741062090969085,53.187228392372134,3.2927862090969087,53.30252839237213,3.2927862090969087,53.30252839237213C3.3079262090969084,53.379138392372134,3.3159062090969087,53.458538392372134,3.3159062090969087,53.54009839237213C3.3159062090969087,53.54009839237213,3.9085062090969087,53.54009839237213,3.9085062090969087,53.54009839237213C3.9085062090969087,53.54009839237213,3.9085062090969087,53.54009839237213,3.9085062090969087,53.54009839237213ZM3.6039962090969087,52.53447739237213C3.4722262090969087,52.33730139237213,3.3028462090969084,52.16758539237213,3.1060562090969084,52.03555239237213C3.1060562090969084,52.03555239237213,2.7763362090969084,52.52890839237213,2.7763362090969084,52.52890839237213C2.9087962090969084,52.61777739237213,3.0229162090969086,52.73211839237213,3.1116162090969084,52.86483839237213C3.1116162090969084,52.86483839237213,3.6039962090969087,52.53447739237213,3.6039962090969087,52.53447739237213C3.6039962090969087,52.53447739237213,3.6039962090969087,52.53447739237213,3.6039962090969087,52.53447739237213ZM2.4545762090969085,51.76493319237213C2.3404362090969086,51.74229319237213,2.222646209096909,51.73046839237213,2.1023962090969084,51.73046839237213C2.1023962090969084,51.73046839237213,2.1023962090969084,52.32421839237213,2.1023962090969084,52.32421839237213C2.1837962090969087,52.32421839237213,2.263046209096909,52.33221639237213,2.3394962090969087,52.34738039237213C2.3394962090969087,52.34738039237213,2.4545762090969085,51.76493319237213,2.4545762090969085,51.76493319237213C2.4545762090969085,51.76493319237213,2.4545762090969085,51.76493319237213,2.4545762090969085,51.76493319237213ZM2.1023962090969084,51.73046839237213C1.9821562090969085,51.73046839237213,1.8643762090969085,51.74227809237213,1.7502462090969086,51.764893092372134C1.7502462090969086,51.764893092372134,1.8652162090969087,52.34736339237213,1.8652162090969087,52.34736339237213C1.9416762090969086,52.33221039237213,2.0209562090969087,52.32421839237213,2.1023962090969084,52.32421839237213C2.1023962090969084,52.32421839237213,2.1023962090969084,51.73046839237213,2.1023962090969084,51.73046839237213C2.1023962090969084,51.73046839237213,2.1023962090969084,51.73046839237213,2.1023962090969084,51.73046839237213ZM1.0986722090969085,52.03541739237213C0.9018192090969086,52.16746139237213,0.7324242090969086,52.33720939237213,0.6006622090969086,52.53442339237213C0.6006622090969086,52.53442339237213,1.0931022090969087,52.86471839237213,1.0931022090969087,52.86471839237213C1.1817742090969086,52.731998392372134,1.2958752090969086,52.617661392372135,1.4283362090969085,52.52880739237213C1.4283362090969085,52.52880739237213,1.0986722090969085,52.03541739237213,1.0986722090969085,52.03541739237213C1.0986722090969085,52.03541739237213,1.0986722090969085,52.03541739237213,1.0986722090969085,52.03541739237213ZM0.3306666090969086,53.18724839237213C0.30808730909690857,53.30160839237213,0.29629620909690857,53.41962839237213,0.29629620909690857,53.54009839237213C0.29629620909690857,53.54009839237213,0.8888882090969086,53.54009839237213,0.8888882090969086,53.54009839237213C0.8888882090969086,53.458518392372135,0.8968652090969086,53.37908839237213,0.9119942090969085,53.302468392372134C0.9119942090969085,53.302468392372134,0.3306666090969086,53.18724839237213,0.3306666090969086,53.18724839237213C0.3306666090969086,53.18724839237213,0.3306666090969086,53.18724839237213,0.3306666090969086,53.18724839237213ZM0.29629620909690857,53.54009839237213C0.29629620909690857,53.660568392372134,0.30808730909690857,53.77857839237213,0.3306666090969086,53.89294839237213C0.3306666090969086,53.89294839237213,0.9119942090969085,53.77771839237213,0.9119942090969085,53.77771839237213C0.8968652090969086,53.70109839237213,0.8888882090969086,53.62167839237213,0.8888882090969086,53.54009839237213C0.8888882090969086,53.54009839237213,0.29629620909690857,53.54009839237213,0.29629620909690857,53.54009839237213C0.29629620909690857,53.54009839237213,0.29629620909690857,53.54009839237213,0.29629620909690857,53.54009839237213ZM0.6006622090969086,54.54576839237213C0.7324242090969086,54.74297839237213,0.9018192090969086,54.91272839237213,1.0986722090969085,55.04477839237213C1.0986722090969085,55.04477839237213,1.4283362090969085,54.55138839237213,1.4283362090969085,54.55138839237213C1.2958752090969086,54.46252839237213,1.1817742090969086,54.34819839237213,1.0931022090969087,54.215478392372134C1.0931022090969087,54.215478392372134,0.6006622090969086,54.54576839237213,0.6006622090969086,54.54576839237213C0.6006622090969086,54.54576839237213,0.6006622090969086,54.54576839237213,0.6006622090969086,54.54576839237213ZM1.7502462090969086,55.31529839237213C1.8643762090969085,55.33791839237213,1.9821562090969085,55.34972839237213,2.1023962090969084,55.34972839237213C2.1023962090969084,55.34972839237213,2.1023962090969084,54.75597839237213,2.1023962090969084,54.75597839237213C2.0209562090969087,54.75597839237213,1.9416862090969085,54.74798839237213,1.8652162090969087,54.732828392372134C1.8652162090969087,54.732828392372134,1.7502462090969086,55.31529839237213,1.7502462090969086,55.31529839237213C1.7502462090969086,55.31529839237213,1.7502462090969086,55.31529839237213,1.7502462090969086,55.31529839237213ZM2.1023962090969084,55.34972839237213C2.222646209096909,55.34972839237213,2.3404362090969086,55.33788839237213,2.4545762090969085,55.31526839237213C2.4545762090969085,55.31526839237213,2.3394962090969087,54.73280839237213,2.3394962090969087,54.73280839237213C2.263046209096909,54.74797839237213,2.1837962090969087,54.75597839237213,2.1023962090969084,54.75597839237213C2.1023962090969084,54.75597839237213,2.1023962090969084,55.34972839237213,2.1023962090969084,55.34972839237213C2.1023962090969084,55.34972839237213,2.1023962090969084,55.34972839237213,2.1023962090969084,55.34972839237213ZM3.1060562090969084,55.04462839237213C3.3028462090969084,54.91260839237213,3.4722262090969087,54.74288839237213,3.6039962090969087,54.54571839237213C3.6039962090969087,54.54571839237213,3.1116162090969084,54.21534839237213,3.1116162090969084,54.21534839237213C3.0229162090969086,54.348068392372134,2.9087962090969084,54.46241839237213,2.7763362090969084,54.55128839237213C2.7763362090969084,54.55128839237213,3.1060562090969084,55.04462839237213,3.1060562090969084,55.04462839237213C3.1060562090969084,55.04462839237213,3.1060562090969084,55.04462839237213,3.1060562090969084,55.04462839237213ZM3.8741062090969085,53.89295839237213C3.8966762090969085,53.77859839237213,3.9085062090969087,53.66057839237213,3.9085062090969087,53.54009839237213C3.9085062090969087,53.54009839237213,3.3159062090969087,53.54009839237213,3.3159062090969087,53.54009839237213C3.3159062090969087,53.62164839237213,3.3079262090969084,53.70105839237213,3.2927862090969087,53.77765839237213C3.2927862090969087,53.77765839237213,3.8741062090969085,53.89295839237213,3.8741062090969085,53.89295839237213C3.8741062090969085,53.89295839237213,3.8741062090969085,53.89295839237213,3.8741062090969085,53.89295839237213Z" fill="#009DFF" fill-opacity="1"/></g></g></g><g style="mix-blend-mode:passthrough" filter="url(#master_svg3_236_60173)"><path d="M38.07408257141113,67.09372595367432Q38.783282571411135,67.09372595367432,39.49158257141113,67.05892595367432Q40.19988257141114,67.02402595367431,40.905682571411134,66.95442595367432Q41.61148257141113,66.88472595367432,42.31298257141113,66.78042595367432Q43.014482571411136,66.67622595367432,43.70998257141113,66.53752595367432Q44.40558257141113,66.39892595367431,45.09348257141113,66.22632595367432Q45.781382571411136,66.05362595367431,46.460082571411135,65.84732595367431Q47.13868257141113,65.64112595367432,47.80648257141113,65.40172595367432Q48.474182571411134,65.16232595367433,49.129382571411135,64.89042595367431Q49.784582571411136,64.61852595367432,50.42568257141113,64.31472595367433Q51.06678257141113,64.01092595367432,51.69218257141113,63.675925953674316Q52.31758257141113,63.340925953674315,52.92588257141113,62.97562595367432Q53.53418257141113,62.61032595367432,54.12388257141113,62.21562595367432Q54.713482571411134,61.820825953674316,55.28318257141113,61.39752595367432Q55.85278257141113,60.97422595367431,56.400982571411134,60.52342595367432Q56.949182571411136,60.072725953674315,57.47468257141113,59.59552595367432Q58.000082571411134,59.118325953674315,58.501582571411134,58.61582595367432Q59.003082571411134,58.113425953674316,59.47928257141113,57.58692595367432Q59.955582571411135,57.06042595367432,60.405482571411135,56.511125953674316Q60.855382571411134,55.961825953674314,61.27778257141113,55.39112595367432Q61.70028257141113,54.82042595367432,62.094282571411135,54.229625953674315Q62.48828257141113,53.63872595367432,62.852882571411136,53.02932595367432Q63.21748257141113,52.41982595367432,63.55178257141113,51.79312595367432Q63.88608257141113,51.166525953674316,64.18928257141113,50.524125953674314Q64.49248257141113,49.881825953674316,64.76388257141113,49.225325953674314Q65.03528257141113,48.56882595367431,65.27418257141113,47.899825953674316Q65.51318257141114,47.23082595367432,65.71898257141113,46.55082595367432Q65.92488257141113,45.87082595367432,66.09718257141114,45.18162595367431Q66.26948257141113,44.49232595367432,66.40788257141114,43.79542595367432Q66.54618257141112,43.098425953674315,66.65028257141114,42.39562595367432Q66.75428257141112,41.69272595367432,66.82388257141113,40.985625953674315Q66.89338257141114,40.278425953674315,66.92818257141113,39.56872595367432Q66.96298257141113,38.85902595367432,66.96298257141113,38.14842595367432Q66.96298257141113,37.43782595367432,66.92818257141113,36.728125953674315Q66.89338257141114,36.01842595367432,66.82388257141113,35.31132595367431Q66.75428257141112,34.60412595367431,66.65028257141114,33.901325953674316Q66.54618257141112,33.19842595367432,66.40788257141114,32.50152595367432Q66.26948257141113,31.804525953674318,66.09718257141114,31.115325953674315Q65.92488257141113,30.426025953674316,65.71898257141113,29.746025953674316Q65.51318257141114,29.066125953674316,65.27418257141113,28.397025953674316Q65.03528257141113,27.728025953674315,64.76388257141113,27.071525953674318Q64.49248257141113,26.415025953674316,64.18928257141113,25.772725953674318Q63.88608257141113,25.13042595367432,63.55178257141113,24.503725953674316Q63.21748257141113,23.877025953674316,62.852882571411136,23.267525953674316Q62.48828257141113,22.658125953674315,62.094282571411135,22.067325953674317Q61.70028257141113,21.476425953674315,61.27778257141113,20.905725953674317Q60.855382571411134,20.335025953674318,60.405482571411135,19.785725953674316Q59.955582571411135,19.236425953674317,59.47928257141113,18.709955953674317Q59.003082571411134,18.18345595367432,58.501582571411134,17.68101595367432Q58.000082571411134,17.178565953674315,57.47468257141113,16.701375953674315Q56.949182571411136,16.224185953674315,56.400982571411134,15.773405953674317Q55.85278257141113,15.322625953674317,55.28318257141113,14.899345953674317Q54.713482571411134,14.476055953674315,54.12388257141113,14.081295953674317Q53.53418257141113,13.686515953674316,52.92588257141113,13.321215953674315Q52.31758257141113,12.955915953674317,51.69218257141113,12.620955953674317Q51.06678257141113,12.285995953674316,50.42568257141113,11.982185953674316Q49.784582571411136,11.678375953674315,49.129382571411135,11.406455953674316Q48.474182571411134,11.134535953674316,47.80648257141113,10.895155953674315Q47.13868257141113,10.655765953674317,46.460082571411135,10.449505953674317Q45.781382571411136,10.243235953674317,45.09348257141113,10.070580953674316Q44.40558257141113,9.897926953674316,43.70998257141113,9.759301953674317Q43.014482571411136,9.620676953674316,42.31298257141113,9.516414953674316Q41.61148257141113,9.412152953674317,40.905682571411134,9.342505953674316Q40.19988257141114,9.272857753674316,39.49158257141113,9.237991853674316Q38.783282571411135,9.203125953674316,38.07408257141113,9.203125953674316Q37.36488257141113,9.203125953674316,36.656582571411136,9.237991853674316Q35.94818257141114,9.272857753674316,35.24248257141113,9.342505953674316Q34.536682571411134,9.412152953674317,33.83518257141113,9.516414953674316Q33.13368257141113,9.620676953674316,32.43808257141113,9.759301953674317Q31.742582571411134,9.897926953674316,31.05468257141113,10.070580953674316Q30.366682571411133,10.243235953674317,29.688082571411133,10.449505953674317Q29.009382571411134,10.655765953674317,28.341682571411134,10.895155953674315Q27.673982571411134,11.134535953674316,27.018782571411133,11.406455953674316Q26.363582571411133,11.678375953674315,25.72248257141113,11.982185953674316Q25.081382571411133,12.285995953674316,24.455982571411134,12.620955953674317Q23.83048257141113,12.955915953674317,23.222182571411132,13.321215953674315Q22.613882571411132,13.686515953674316,22.024282571411135,14.081295953674317Q21.434582571411134,14.476055953674315,20.864982571411133,14.899345953674317Q20.295382571411132,15.322625953674317,19.74718257141113,15.773405953674317Q19.198982571411133,16.224185953674315,18.673472571411132,16.701375953674315Q18.148002571411133,17.178565953674315,17.646542571411132,17.68101595367432Q17.145072571411134,18.18345595367432,16.66881257141113,18.709955953674317Q16.192552571411134,19.236425953674317,15.742652571411133,19.785725953674316Q15.292752571411132,20.335025953674318,14.870292571411133,20.905725953674317Q14.447832571411134,21.476425953674315,14.053832571411132,22.067325953674317Q13.659832571411133,22.658125953674315,13.295242571411134,23.267525953674316Q12.930652571411134,23.877025953674316,12.596342571411133,24.503725953674316Q12.262042571411133,25.13042595367432,11.958822571411133,25.772725953674318Q11.655612571411133,26.415025953674316,11.384212571411133,27.071525953674318Q11.112822571411133,27.728025953674315,10.873912571411132,28.397025953674316Q10.634992571411132,29.066125953674316,10.429132571411133,29.746025953674316Q10.223262571411134,30.426025953674316,10.050945571411132,31.115325953674315Q9.878628571411133,31.804525953674318,9.740274571411133,32.50152595367432Q9.601919571411132,33.19842595367432,9.497860571411133,33.901325953674316Q9.393802571411133,34.60412595367431,9.324290571411133,35.31132595367431Q9.254778371411133,36.01842595367432,9.219980471411132,36.728125953674315Q9.185182571411133,37.43782595367432,9.185182571411133,38.14842595367432Q9.185182571411133,38.85902595367432,9.219980471411132,39.56872595367432Q9.254778371411133,40.278425953674315,9.324290571411133,40.985625953674315Q9.393802571411133,41.69272595367432,9.497860571411133,42.39562595367432Q9.601919571411132,43.098425953674315,9.740274571411133,43.79542595367432Q9.878628571411133,44.49232595367432,10.050945571411132,45.18162595367431Q10.223262571411134,45.87082595367432,10.429132571411133,46.55082595367432Q10.634992571411132,47.23082595367432,10.873912571411132,47.899825953674316Q11.112822571411133,48.56882595367431,11.384212571411133,49.225325953674314Q11.655612571411133,49.881825953674316,11.958822571411133,50.524125953674314Q12.262042571411133,51.166525953674316,12.596342571411133,51.79312595367432Q12.930652571411134,52.41982595367432,13.295242571411134,53.02932595367432Q13.659832571411133,53.63872595367432,14.053832571411132,54.229625953674315Q14.447832571411134,54.82042595367432,14.870292571411133,55.39112595367432Q15.292752571411132,55.961825953674314,15.742652571411133,56.511125953674316Q16.192552571411134,57.06042595367432,16.66881257141113,57.58692595367432Q17.145072571411134,58.113425953674316,17.646542571411132,58.61582595367432Q18.148002571411133,59.118325953674315,18.673472571411132,59.59552595367432Q19.198982571411133,60.072725953674315,19.74718257141113,60.52342595367432Q20.295382571411132,60.97422595367431,20.864982571411133,61.39752595367432Q21.434582571411134,61.820825953674316,22.024282571411135,62.21562595367432Q22.613882571411132,62.61032595367432,23.222182571411132,62.97562595367432Q23.83048257141113,63.340925953674315,24.455982571411134,63.675925953674316Q25.081382571411133,64.01092595367432,25.72248257141113,64.31472595367433Q26.363582571411133,64.61852595367432,27.018782571411133,64.89042595367431Q27.673982571411134,65.16232595367433,28.341682571411134,65.40172595367432Q29.009382571411134,65.64112595367432,29.688082571411133,65.84742595367432Q30.366682571411133,66.05362595367431,31.05468257141113,66.22632595367432Q31.742582571411134,66.39892595367431,32.43808257141113,66.53762595367431Q33.13368257141113,66.67622595367432,33.83518257141113,66.78042595367432Q34.536682571411134,66.88472595367432,35.24248257141113,66.95442595367432Q35.94818257141114,67.02402595367431,36.656582571411136,67.05892595367432Q37.36488257141113,67.09372595367432,38.07408257141113,67.09372595367432ZM38.07408257141113,59.60812595367432Q38.59988257141113,59.60812595367432,39.125082571411134,59.582325953674314Q39.650182571411136,59.556425953674314,40.17348257141113,59.50482595367431Q40.69668257141113,59.453125953674316,41.21678257141113,59.375825953674315Q41.73688257141113,59.298525953674314,42.25258257141113,59.195825953674316Q42.76818257141113,59.093025953674314,43.27828257141113,58.96502595367431Q43.78828257141113,58.83702595367431,44.291382571411134,58.684025953674315Q44.794582571411134,58.53112595367432,45.28958257141113,58.35362595367432Q45.78468257141113,58.17622595367432,46.27038257141113,57.97462595367432Q46.75618257141113,57.77302595367431,47.231482571411135,57.547725953674316Q47.70678257141113,57.322525953674315,48.170482571411135,57.07412595367432Q48.63418257141113,56.82582595367432,49.08518257141113,56.55502595367432Q49.53618257141113,56.28412595367432,49.97328257141113,55.99152595367432Q50.41048257141113,55.698825953674316,50.83278257141113,55.385025953674315Q51.25508257141113,55.07112595367432,51.66158257141113,54.736925953674316Q52.067982571411136,54.40272595367431,52.45758257141113,54.04892595367431Q52.84718257141113,53.69522595367432,53.218882571411136,53.322725953674315Q53.590682571411136,52.95022595367432,53.943782571411134,52.55982595367431Q54.29688257141113,52.16952595367432,54.630482571411136,51.76222595367432Q54.96398257141113,51.355025953674314,55.27718257141113,50.931925953674316Q55.59038257141113,50.508725953674315,55.88248257141113,50.07072595367432Q56.174582571411136,49.63272595367432,56.44498257141113,49.180825953674315Q56.71528257141113,48.729025953674316,56.963082571411135,48.26442595367432Q57.21098257141113,47.799825953674315,57.43578257141113,47.32352595367431Q57.66058257141113,46.847325953674314,57.86178257141113,46.360625953674315Q58.06298257141113,45.873925953674316,58.240082571411136,45.377925953674314Q58.41718257141113,44.88192595367432,58.569882571411135,44.377725953674314Q58.722482571411135,43.87362595367431,58.85018257141113,43.36262595367432Q58.97798257141113,42.851625953674315,59.080582571411135,42.334925953674315Q59.18318257141113,41.818225953674315,59.26028257141113,41.29712595367432Q59.33748257141113,40.77602595367432,59.388982571411134,40.25172595367432Q59.44048257141113,39.72742595367431,59.466282571411135,39.20132595367431Q59.49208257141113,38.67512595367432,59.49208257141113,38.148325953674316Q59.49208257141113,37.621525953674315,59.466282571411135,37.09532595367432Q59.44048257141113,36.569125953674316,59.388982571411134,36.04482595367432Q59.33748257141113,35.52062595367431,59.26028257141113,34.999525953674315Q59.18318257141113,34.47842595367432,59.080582571411135,33.96172595367432Q58.97798257141113,33.44502595367432,58.850282571411135,32.934025953674315Q58.722482571411135,32.422925953674316,58.569882571411135,31.918825953674315Q58.41718257141113,31.414725953674317,58.240082571411136,30.918725953674315Q58.06298257141113,30.422725953674316,57.86178257141113,29.936025953674317Q57.66058257141113,29.449225953674315,57.43578257141113,28.973025953674316Q57.21098257141113,28.496825953674318,56.963082571411135,28.032225953674317Q56.71528257141113,27.567625953674316,56.444882571411135,27.115725953674318Q56.174582571411136,26.663925953674315,55.88248257141113,26.225825953674317Q55.59038257141113,25.787825953674318,55.27718257141113,25.364725953674316Q54.96398257141113,24.941525953674315,54.630482571411136,24.53432595367432Q54.29688257141113,24.127125953674316,53.943782571411134,23.736725953674316Q53.590682571411136,23.346425953674316,53.218882571411136,22.973925953674318Q52.84718257141113,22.601425953674315,52.45758257141113,22.247625953674316Q52.067982571411136,21.893825953674316,51.66158257141113,21.559625953674317Q51.25508257141113,21.225425953674318,50.83278257141113,20.911625953674317Q50.41048257141113,20.597825953674317,49.97328257141113,20.305125953674317Q49.53618257141113,20.012425953674317,49.08518257141113,19.741625953674315Q48.63418257141113,19.470725953674318,48.170482571411135,19.222425953674318Q47.70678257141113,18.97408595367432,47.231482571411135,18.748845953674316Q46.75618257141113,18.523605953674316,46.27038257141113,18.322005953674317Q45.78468257141113,18.120405953674315,45.28958257141113,17.942935953674315Q44.794582571411134,17.765455953674316,44.291382571411134,17.612525953674314Q43.78828257141113,17.459605953674316,43.27828257141113,17.331595953674316Q42.768282571411135,17.203595953674316,42.25258257141113,17.100825953674317Q41.73688257141113,16.998045953674318,41.21678257141113,16.920745953674317Q40.69668257141113,16.843445953674316,40.17348257141113,16.791815953674316Q39.650182571411136,16.740175953674317,39.125082571411134,16.714325953674315Q38.59988257141113,16.688475953674317,38.07408257141113,16.688475953674317Q37.54838257141113,16.688475953674317,37.023182571411134,16.714325953674315Q36.49808257141113,16.740175953674317,35.97478257141113,16.791815953674316Q35.45158257141114,16.843445953674316,34.93148257141114,16.920745953674317Q34.41138257141113,16.998045953674318,33.89568257141113,17.100825953674317Q33.379982571411134,17.203595953674316,32.86998257141113,17.331605953674316Q32.35998257141114,17.459605953674316,31.856782571411134,17.612525953674314Q31.353682571411134,17.765455953674316,30.858582571411134,17.942935953674315Q30.363582571411133,18.120405953674315,29.87778257141113,18.322005953674317Q29.392082571411134,18.523605953674316,28.916782571411133,18.748845953674316Q28.441482571411132,18.97408595367432,27.977782571411133,19.222425953674318Q27.514082571411134,19.470725953674318,27.063082571411133,19.741625953674315Q26.612082571411133,20.012425953674317,26.174882571411132,20.305125953674317Q25.737782571411135,20.597825953674317,25.31548257141113,20.911625953674317Q24.893082571411135,21.225425953674318,24.486682571411134,21.559625953674317Q24.080282571411132,21.893825953674316,23.69068257141113,22.247625953674316Q23.301082571411133,22.601425953674315,22.929282571411132,22.973925953674318Q22.557482571411132,23.346425953674316,22.204482571411134,23.736725953674316Q21.851382571411133,24.127125953674316,21.517782571411132,24.53432595367432Q21.18428257141113,24.941525953674315,20.870982571411133,25.364725953674316Q20.55778257141113,25.787825953674318,20.265682571411133,26.225825953674317Q19.973582571411132,26.663925953674315,19.703282571411133,27.115725953674318Q19.43298257141113,27.567625953674316,19.18513257141113,28.032225953674317Q18.93728257141113,28.496825953674318,18.712482571411133,28.973025953674316Q18.487682571411135,29.449225953674315,18.28647257141113,29.936025953674317Q18.085262571411135,30.422725953674316,17.908132571411134,30.918725953674315Q17.731002571411132,31.414725953674317,17.578382571411133,31.918825953674315Q17.42575257141113,32.422925953674316,17.298002571411132,32.934025953674315Q17.170242571411134,33.44502595367432,17.067672571411133,33.96172595367432Q16.965092571411134,34.47842595367432,16.88794257141113,34.999525953674315Q16.81080257141113,35.52062595367431,16.759262571411135,36.04482595367432Q16.70773257141113,36.569125953674316,16.68193257141113,37.09532595367432Q16.656132571411135,37.621525953674315,16.656132571411135,38.148325953674316Q16.656132571411135,38.67512595367432,16.68193257141113,39.20132595367431Q16.70773257141113,39.72742595367431,16.759262571411135,40.25172595367432Q16.81080257141113,40.77602595367432,16.88794257141113,41.29712595367432Q16.965092571411134,41.818225953674315,17.067672571411133,42.334925953674315Q17.170242571411134,42.851625953674315,17.298002571411132,43.36262595367432Q17.42575257141113,43.87362595367431,17.578382571411133,44.377725953674314Q17.731002571411132,44.88192595367432,17.908132571411134,45.377925953674314Q18.085262571411135,45.873925953674316,18.28647257141113,46.360625953674315Q18.487682571411135,46.847325953674314,18.712482571411133,47.32352595367431Q18.93728257141113,47.799825953674315,19.185142571411134,48.26442595367432Q19.43298257141113,48.729025953674316,19.703282571411133,49.180825953674315Q19.973582571411132,49.63272595367432,20.265682571411133,50.07072595367432Q20.55778257141113,50.508725953674315,20.870982571411133,50.931925953674316Q21.18428257141113,51.355025953674314,21.517782571411132,51.76222595367432Q21.851382571411133,52.16952595367432,22.204482571411134,52.55982595367431Q22.557482571411132,52.95022595367432,22.929282571411132,53.322725953674315Q23.301082571411133,53.69522595367432,23.69068257141113,54.04902595367432Q24.080282571411132,54.40272595367431,24.486682571411134,54.736925953674316Q24.893082571411135,55.07112595367432,25.31548257141113,55.385025953674315Q25.737782571411135,55.698825953674316,26.174882571411132,55.99152595367432Q26.612082571411133,56.28412595367432,27.063082571411133,56.55502595367432Q27.514082571411134,56.82582595367432,27.977782571411133,57.07412595367432Q28.441482571411132,57.322525953674315,28.916782571411133,57.547725953674316Q29.392082571411134,57.77302595367431,29.87778257141113,57.97462595367432Q30.363582571411133,58.17622595367432,30.858582571411134,58.35362595367432Q31.353682571411134,58.53112595367432,31.856782571411134,58.684025953674315Q32.35998257141114,58.83702595367431,32.86998257141113,58.96502595367431Q33.379982571411134,59.093025953674314,33.89568257141113,59.195825953674316Q34.41138257141113,59.298525953674314,34.93148257141114,59.375825953674315Q35.45158257141114,59.453125953674316,35.97478257141113,59.50482595367431Q36.49808257141113,59.556425953674314,37.023182571411134,59.582325953674314Q37.54838257141113,59.60812595367432,38.07408257141113,59.60812595367432Z" fill-rule="evenodd" fill="#00578D" fill-opacity="1"/></g><g style="mix-blend-mode:passthrough"><path d="M37.92594472198486,63.828075Q38.558744721984866,63.828075,39.19074472198486,63.796975Q39.822844721984865,63.765875,40.452544721984864,63.703775Q41.08234472198487,63.641575,41.70834472198486,63.548575Q42.33424472198486,63.455575,42.95494472198486,63.331875Q43.57554472198486,63.208175,44.18944472198486,63.054075Q44.80324472198486,62.900075,45.40884472198486,62.715975Q46.01434472198486,62.531875,46.61014472198487,62.318275Q47.20604472198486,62.104675,47.79064472198486,61.862075Q48.37524472198486,61.619475,48.94734472198486,61.348375Q49.519344721984865,61.077275,50.07744472198486,60.778375Q50.635544721984864,60.479475,51.178344721984864,60.153475Q51.721144721984864,59.827575,52.24724472198486,59.475275Q52.773444721984866,59.123075,53.281744721984865,58.745375Q53.78994472198487,58.367675,54.27914472198486,57.965375Q54.76834472198486,57.563175,55.237244721984865,57.137375Q55.70604472198486,56.711575,56.153544721984865,56.263275Q56.60104472198486,55.814875,57.025944721984864,55.345075Q57.45094472198486,54.875275,57.85244472198487,54.385175Q58.25384472198486,53.895075,58.630844721984865,53.385775Q59.007744721984864,52.876475,59.35934472198486,52.349375Q59.710944721984866,51.822175,60.036244721984865,51.278275Q60.36154472198486,50.734475,60.65984472198486,50.175275Q60.958144721984866,49.616075,61.22874472198486,49.042975Q61.49934472198486,48.469775,61.74144472198486,47.883975Q61.98364472198487,47.298175,62.19684472198486,46.701275Q62.41004472198486,46.104275,62.59374472198486,45.497475Q62.77734472198486,44.890775,62.931144721984865,44.275675Q63.08494472198486,43.660675,63.208344721984865,43.038775Q63.331844721984865,42.416975,63.42464472198486,41.789775Q63.51754472198486,41.162575000000004,63.57954472198486,40.531575000000004Q63.641544721984864,39.900575,63.67264472198487,39.267275Q63.703644721984865,38.634074999999996,63.703644721984865,37.999975Q63.703644721984865,37.365975,63.67264472198487,36.732675Q63.641544721984864,36.099374999999995,63.57954472198486,35.468375Q63.51754472198486,34.837375,63.42464472198486,34.210274999999996Q63.331844721984865,33.583075,63.208344721984865,32.961175Q63.08494472198486,32.339275,62.931144721984865,31.724275Q62.77734472198486,31.109275,62.59374472198486,30.502475Q62.41004472198486,29.895775,62.19684472198486,29.298775Q61.98364472198487,28.701775,61.74144472198486,28.115975Q61.49934472198486,27.530175,61.22874472198486,26.957075Q60.958144721984866,26.383875,60.65984472198486,25.824675Q60.36154472198486,25.265575,60.036244721984865,24.721674999999998Q59.710944721984866,24.177875,59.35934472198486,23.650675Q59.007744721984864,23.123475,58.630844721984865,22.614175Q58.25384472198486,22.104934999999998,57.85244472198487,21.614815Q57.45094472198486,21.124685,57.025944721984864,20.654895Q56.60104472198486,20.185095,56.153544721984865,19.736755Q55.70604472198486,19.288415,55.237244721984865,18.862625Q54.76834472198486,18.436825,54.27914472198486,18.034585Q53.78994472198487,17.632355,53.281744721984865,17.254655Q52.773444721984866,16.876955,52.24724472198486,16.524695Q51.721144721984864,16.172445,51.178344721984864,15.846475Q50.635544721984864,15.520515,50.07744472198486,15.221625Q49.519344721984865,14.922744999999999,48.94734472198486,14.651655Q48.37524472198486,14.380565,47.79064472198486,14.137925Q47.20604472198486,13.895285,46.61014472198487,13.681685Q46.01434472198486,13.468075,45.40884472198486,13.284025Q44.80324472198486,13.099972,44.18944472198486,12.945911Q43.57554472198486,12.791851,42.95494472198486,12.668155Q42.33424472198486,12.544459,41.70834472198486,12.451425Q41.08234472198487,12.358392,40.452544721984864,12.296244Q39.822844721984865,12.2340972,39.19074472198486,12.2029861Q38.558744721984866,12.171875,37.92594472198486,12.171875Q37.29314472198486,12.171875,36.661044721984865,12.2029861Q36.02904472198486,12.2340972,35.399244721984864,12.296244Q34.76944472198487,12.358392,34.14354472198487,12.451425Q33.51754472198486,12.544459,32.896944721984866,12.668155Q32.27624472198487,12.791851,31.662444721984862,12.945911Q31.048544721984864,13.099972,30.44304472198486,13.284025Q29.837444721984863,13.468075,29.241644721984862,13.681685Q28.64584472198486,13.895285,28.061144721984864,14.137925Q27.476544721984865,14.380565,26.904544721984863,14.651655Q26.332444721984864,14.922744999999999,25.774344721984864,15.221625Q25.216244721984864,15.520515,24.673444721984865,15.846475Q24.13074472198486,16.172445,23.604544721984865,16.524695Q23.078344721984863,16.876955,22.570144721984864,17.254655Q22.061834721984866,17.632355,21.572674721984864,18.034585Q21.083504721984863,18.436825,20.614624721984864,18.862625Q20.14574472198486,19.288415,19.698274721984863,19.736755Q19.250814721984863,20.185095,18.825844721984865,20.654895Q18.400874721984863,21.124685,17.999424721984862,21.614815Q17.597974721984862,22.104934999999998,17.221014721984865,22.614175Q16.84405472198486,23.123475,16.492484721984862,23.650675Q16.140914721984863,24.177875,15.815584721984862,24.721674999999998Q15.490254721984863,25.265575,15.191954721984864,25.824675Q14.893644721984863,26.383875,14.623084721984863,26.957075Q14.352524721984864,27.530175,14.110364721984864,28.115975Q13.868194721984864,28.701775,13.655004721984863,29.298775Q13.441824721984863,29.895775,13.258124721984863,30.502475Q13.074431721984864,31.109275,12.920671721984863,31.724275Q12.766911721984863,32.339275,12.643457721984863,32.961175Q12.520002721984863,33.583075,12.427149721984863,34.210274999999996Q12.334297721984864,34.837375,12.272271721984863,35.468375Q12.210245621984864,36.099374999999995,12.179195121984863,36.732675Q12.148144721984863,37.365975,12.148144721984863,37.999975Q12.148144721984863,38.634074999999996,12.179195121984863,39.267275Q12.210245621984864,39.900575,12.272271721984863,40.531575000000004Q12.334297721984864,41.162575000000004,12.427149721984863,41.789775Q12.520002721984863,42.416975,12.643457721984863,43.038775Q12.766911721984863,43.660675,12.920671721984863,44.275675Q13.074431721984864,44.890775,13.258124721984863,45.497475Q13.441824721984863,46.104275,13.655004721984863,46.701275Q13.868194721984864,47.298175,14.110364721984864,47.883975Q14.352524721984864,48.469775,14.623084721984863,49.042975Q14.893644721984863,49.616075,15.191954721984864,50.175275Q15.490254721984863,50.734475,15.815584721984862,51.278275Q16.140914721984863,51.822175,16.492484721984862,52.349375Q16.84405472198486,52.876475,17.221014721984865,53.385775Q17.597974721984862,53.895075,17.999424721984862,54.385175Q18.400874721984863,54.875275,18.825844721984865,55.345075Q19.250814721984863,55.814875,19.698274721984863,56.263275Q20.14574472198486,56.711575,20.614624721984864,57.137375Q21.083504721984863,57.563175,21.572674721984864,57.965375Q22.061834721984866,58.367675,22.570144721984864,58.745375Q23.078344721984863,59.123075,23.604544721984865,59.475275Q24.13074472198486,59.827575,24.673444721984865,60.153475Q25.216244721984864,60.479475,25.774344721984864,60.778375Q26.332444721984864,61.077275,26.904544721984863,61.348375Q27.476544721984865,61.619475,28.061144721984864,61.862075Q28.64584472198486,62.104675,29.241644721984862,62.318275Q29.837444721984863,62.531875,30.44304472198486,62.715975Q31.048544721984864,62.900075,31.662444721984862,63.054075Q32.27624472198487,63.208175,32.896944721984866,63.331875Q33.51754472198486,63.455575,34.14354472198487,63.548575Q34.76944472198487,63.641575,35.399244721984864,63.703775Q36.02904472198486,63.765875,36.661044721984865,63.796975Q37.29314472198486,63.828075,37.92594472198486,63.828075ZM37.92584472198486,61.749975Q38.507744721984864,61.749975,39.08894472198486,61.721375Q39.670044721984866,61.692775,40.24914472198486,61.635675Q40.82824472198486,61.578475,41.40384472198487,61.492975Q41.97944472198486,61.407375,42.550144721984864,61.293675Q43.12084472198487,61.179875,43.68534472198486,61.038275Q44.249844721984864,60.896575,44.80664472198486,60.727375Q45.36344472198486,60.558075,45.91134472198486,60.361675Q46.45924472198487,60.165275,46.996844721984864,59.942175Q47.53444472198486,59.718975,48.060444721984865,59.469775Q48.58644472198486,59.220475,49.099644721984866,58.945675Q49.612844721984864,58.670775,50.11194472198486,58.371075Q50.61104472198486,58.071275,51.09484472198486,57.747375Q51.57874472198486,57.423475,52.04604472198486,57.076175Q52.51344472198486,56.728875,52.963244721984864,56.358975Q53.41304472198486,55.989175,53.844244721984865,55.597575Q54.27544472198486,55.206075,54.68684472198486,54.793775Q55.098344721984866,54.381475,55.48904472198486,53.949475Q55.87984472198486,53.517475,56.249044721984866,53.066875Q56.61814472198486,52.616175,56.964744721984864,52.147875Q57.31144472198486,51.679575,57.634744721984866,51.194775Q57.957944721984866,50.709975,58.257144721984865,50.209975Q58.556344721984864,49.709875,58.83064472198486,49.195675Q59.104944721984864,48.681475,59.35374472198486,48.154475Q59.60244472198487,47.627375,59.82514472198486,47.088775Q60.047844721984866,46.550075,60.243844721984864,46.001175Q60.439944721984865,45.452175,60.608844721984866,44.894275Q60.77774472198487,44.336375,60.919144721984864,43.770775Q61.06054472198486,43.205175,61.17404472198486,42.633375Q61.287544721984865,42.061575000000005,61.372944721984865,41.484875Q61.458344721984865,40.908175,61.51534472198486,40.327875Q61.572444721984866,39.747675,61.60094472198487,39.165375Q61.629544721984864,38.583075,61.629544721984864,37.999975Q61.629544721984864,37.416975,61.60094472198487,36.834675000000004Q61.572444721984866,36.252275,61.51534472198486,35.672075Q61.458344721984865,35.091875,61.372944721984865,34.515175Q61.287544721984865,33.938475,61.17404472198486,33.366575Q61.06054472198486,32.794775,60.919144721984864,32.229175Q60.77774472198487,31.663675,60.608844721984866,31.105775Q60.439944721984865,30.547775,60.243844721984864,29.998875Q60.047844721984866,29.449875,59.82514472198486,28.911275Q59.60244472198487,28.372575,59.35374472198486,27.845575Q59.104944721984864,27.318475,58.83064472198486,26.804375Q58.556344721984864,26.290174999999998,58.257144721984865,25.790075Q57.957944721984866,25.289975,57.634744721984866,24.805175Q57.31144472198486,24.320475000000002,56.96484472198486,23.852175000000003Q56.61814472198486,23.383875,56.249044721984866,22.933175Q55.87984472198486,22.482475,55.48904472198486,22.050475Q55.098344721984866,21.618475,54.68684472198486,21.206215Q54.27544472198486,20.793955,53.844244721984865,20.402414999999998Q53.41304472198486,20.010875,52.963244721984864,19.641005Q52.51344472198486,19.271135,52.04604472198486,18.923825Q51.57874472198486,18.576515,51.09484472198486,18.252595Q50.61104472198486,17.928685,50.11194472198486,17.628945Q49.612844721984864,17.329205,49.099644721984866,17.054365Q48.58644472198486,16.779535,48.060444721984865,16.530255Q47.53444472198486,16.280974999999998,46.996844721984864,16.057865Q46.45924472198487,15.834745,45.91134472198486,15.638325Q45.36344472198486,15.441915,44.80664472198486,15.272665Q44.249844721984864,15.103425,43.68534472198486,14.961755Q43.12084472198487,14.820095,42.550144721984864,14.706344999999999Q41.97944472198486,14.592604999999999,41.40384472198487,14.507055Q40.82824472198486,14.421505,40.24914472198486,14.364365Q39.670044721984866,14.307215,39.08894472198486,14.278605Q38.507744721984864,14.249995,37.92584472198486,14.249995Q37.34394472198486,14.249995,36.76274472198486,14.278605Q36.181544721984864,14.307215,35.60244472198487,14.364365Q35.02334472198486,14.421505,34.44774472198486,14.507055Q33.87214472198487,14.592604999999999,33.301444721984865,14.706344999999999Q32.73074472198486,14.820095,32.16624472198487,14.961755Q31.601844721984865,15.103425,31.045044721984862,15.272665Q30.488144721984863,15.441915,29.940244721984865,15.638325Q29.392444721984862,15.834745,28.854844721984865,16.057865Q28.317244721984864,16.280974999999998,27.791144721984864,16.530255Q27.265144721984864,16.779535,26.751944721984863,17.054365Q26.238744721984865,17.329205,25.739644721984863,17.628945Q25.24054472198486,17.928685,24.756744721984862,18.252595Q24.272944721984864,18.576515,23.805544721984866,18.923825Q23.33814472198486,19.271135,22.888344721984865,19.641005Q22.43854472198486,20.010875,22.007384721984863,20.402414999999998Q21.57623472198486,20.793955,21.164774721984863,21.206215Q20.75330472198486,21.618475,20.362534721984865,22.050475Q19.971754721984865,22.482475,19.602604721984864,22.933175Q19.233464721984863,23.383875,18.886824721984862,23.852175000000003Q18.540194721984864,24.320475000000002,18.216914721984864,24.805175Q17.893624721984864,25.289975,17.594474721984863,25.790075Q17.295324721984862,26.290174999999998,17.021024721984865,26.804375Q16.746714721984862,27.318475,16.497924721984862,27.845575Q16.249134721984863,28.372575,16.026454721984862,28.911275Q15.803774721984864,29.449875,15.607744721984863,29.998875Q15.411704721984863,30.547775,15.242794721984863,31.105775Q15.073874721984863,31.663675,14.932484721984864,32.229175Q14.791104721984864,32.794775,14.677574721984863,33.366575Q14.564054721984864,33.938475,14.478674721984863,34.515175Q14.393294721984864,35.091875,14.336254721984863,35.672075Q14.279224721984864,36.252275,14.250674721984863,36.834675000000004Q14.222114721984862,37.416975,14.222114721984862,37.999975Q14.222114721984862,38.583075,14.250674721984863,39.165375Q14.279224721984864,39.747675,14.336254721984863,40.327875Q14.393294721984864,40.908175,14.478674721984863,41.484875Q14.564054721984864,42.061575000000005,14.677574721984863,42.633375Q14.791104721984864,43.205175,14.932484721984864,43.770775Q15.073874721984863,44.336375,15.242794721984863,44.894275Q15.411704721984863,45.452175,15.607744721984863,46.001175Q15.803774721984864,46.550075,16.026454721984862,47.088775Q16.249134721984863,47.627375,16.497924721984862,48.154475Q16.746714721984862,48.681475,17.021024721984865,49.195675Q17.295324721984862,49.709875,17.594474721984863,50.209975Q17.893624721984864,50.709975,18.216914721984864,51.194775Q18.540194721984864,51.679575,18.886824721984862,52.147875Q19.233464721984863,52.616175,19.602604721984864,53.066875Q19.971754721984865,53.517475,20.362534721984865,53.949475Q20.75330472198486,54.381475,21.164774721984863,54.793775Q21.57623472198486,55.206075,22.007384721984863,55.597575Q22.43854472198486,55.989175,22.888344721984865,56.358975Q23.33814472198486,56.728875,23.805544721984866,57.076175Q24.272944721984864,57.423475,24.756744721984862,57.747375Q25.24054472198486,58.071275,25.739644721984863,58.371075Q26.238744721984865,58.670775,26.751944721984863,58.945675Q27.265144721984864,59.220475,27.791144721984864,59.469775Q28.317244721984864,59.718975,28.854844721984865,59.942175Q29.392444721984862,60.165275,29.940244721984865,60.361675Q30.488144721984863,60.558075,31.045044721984862,60.727375Q31.601844721984865,60.896575,32.16624472198487,61.038275Q32.73074472198486,61.179875,33.301444721984865,61.293675Q33.87214472198487,61.407375,34.44774472198486,61.492975Q35.02334472198486,61.578475,35.60244472198487,61.635675Q36.181544721984864,61.692775,36.76274472198486,61.721375Q37.34394472198486,61.749975,37.92584472198486,61.749975Z" fill-rule="evenodd" fill="#009DFF" fill-opacity="1"/></g></g></g></svg>
