<svg xmlns="http://www.w3.org/2000/svg" xmlns:xlink="http://www.w3.org/1999/xlink" fill="none" version="1.1" width="106" height="100.5" viewBox="0 0 106 100.5"><defs><linearGradient x1="0.18908533453941345" y1="0.41463562846183777" x2="0.18908533453941345" y2="1" id="master_svg0_78_023919"><stop offset="0%" stop-color="#1A83FF" stop-opacity="0.2389112412929535"/><stop offset="100%" stop-color="#1CFFBD" stop-opacity="0.9350824952125549"/></linearGradient><linearGradient x1="0.18615978956222534" y1="0.9012430310249329" x2="0.8832976818084717" y2="0.9012430310249329" id="master_svg1_78_023903"><stop offset="0%" stop-color="#00272D" stop-opacity="1"/><stop offset="46.87372446060181%" stop-color="#004651" stop-opacity="1"/><stop offset="100%" stop-color="#002D34" stop-opacity="1"/></linearGradient><linearGradient x1="0.07592069357633591" y1="1" x2="1.0759207010269165" y2="0.848158597946167" id="master_svg2_78_023906"><stop offset="0%" stop-color="#0089A0" stop-opacity="0.4034688472747803"/><stop offset="53.85998487472534%" stop-color="#0FAFCC" stop-opacity="1"/><stop offset="100%" stop-color="#00849A" stop-opacity="0.13603584468364716"/></linearGradient><linearGradient x1="0" y1="0" x2="0" y2="1" id="master_svg3_78_023855"><stop offset="0%" stop-color="#25F0FF" stop-opacity="1"/><stop offset="100%" stop-color="#10DDFF" stop-opacity="0.00009999999747378752"/></linearGradient><linearGradient x1="0" y1="0" x2="0" y2="1" id="master_svg4_78_023855"><stop offset="0%" stop-color="#25F0FF" stop-opacity="1"/><stop offset="100%" stop-color="#10DDFF" stop-opacity="0.00009999999747378752"/></linearGradient><linearGradient x1="0" y1="0" x2="0" y2="1" id="master_svg5_78_023855"><stop offset="0%" stop-color="#25F0FF" stop-opacity="1"/><stop offset="100%" stop-color="#10DDFF" stop-opacity="0.00009999999747378752"/></linearGradient><linearGradient x1="0" y1="0" x2="0" y2="1" id="master_svg6_78_023855"><stop offset="0%" stop-color="#25F0FF" stop-opacity="1"/><stop offset="100%" stop-color="#10DDFF" stop-opacity="0.00009999999747378752"/></linearGradient><linearGradient x1="0" y1="0" x2="0" y2="1" id="master_svg7_78_023855"><stop offset="0%" stop-color="#25F0FF" stop-opacity="1"/><stop offset="100%" stop-color="#10DDFF" stop-opacity="0.00009999999747378752"/></linearGradient><linearGradient x1="0" y1="0" x2="0" y2="1" id="master_svg8_78_023855"><stop offset="0%" stop-color="#25F0FF" stop-opacity="1"/><stop offset="100%" stop-color="#10DDFF" stop-opacity="0.00009999999747378752"/></linearGradient><linearGradient x1="0" y1="0" x2="0" y2="1" id="master_svg9_78_023855"><stop offset="0%" stop-color="#25F0FF" stop-opacity="1"/><stop offset="100%" stop-color="#10DDFF" stop-opacity="0.00009999999747378752"/></linearGradient><linearGradient x1="0" y1="0" x2="0" y2="1" id="master_svga_78_023855"><stop offset="0%" stop-color="#25F0FF" stop-opacity="1"/><stop offset="100%" stop-color="#10DDFF" stop-opacity="0.00009999999747378752"/></linearGradient><linearGradient x1="0" y1="0" x2="0" y2="1" id="master_svgb_78_023855"><stop offset="0%" stop-color="#25F0FF" stop-opacity="1"/><stop offset="100%" stop-color="#10DDFF" stop-opacity="0.00009999999747378752"/></linearGradient><linearGradient x1="0.10644068568944931" y1="0.2553962171077728" x2="0.10886064171791077" y2="1.0012099742889404" id="master_svgc_78_023850"><stop offset="0%" stop-color="#1A83FF" stop-opacity="0.2389112412929535"/><stop offset="35.14942228794098%" stop-color="#25F0FF" stop-opacity="1"/><stop offset="72.7460503578186%" stop-color="#1CFFBD" stop-opacity="0.9350824952125549"/><stop offset="100%" stop-color="#FFFFFF" stop-opacity="1"/></linearGradient><linearGradient x1="0.07196318358182907" y1="0.2616981565952301" x2="0.08698701113462448" y2="1.0764669179916382" id="master_svgd_78_238808"><stop offset="0%" stop-color="#1A83FF" stop-opacity="0.028311775997281075"/><stop offset="35.14942228794098%" stop-color="#25F0FF" stop-opacity="1"/><stop offset="72.7460503578186%" stop-color="#1CFFBD" stop-opacity="0.9350824952125549"/><stop offset="100%" stop-color="#FFFFFF" stop-opacity="1"/></linearGradient><linearGradient x1="0.10644068568944931" y1="0.2553962171077728" x2="0.10886064171791077" y2="1.0012099742889404" id="master_svge_78_023850"><stop offset="0%" stop-color="#1A83FF" stop-opacity="0.2389112412929535"/><stop offset="35.14942228794098%" stop-color="#25F0FF" stop-opacity="1"/><stop offset="72.7460503578186%" stop-color="#1CFFBD" stop-opacity="0.9350824952125549"/><stop offset="100%" stop-color="#FFFFFF" stop-opacity="1"/></linearGradient><linearGradient x1="0" y1="0" x2="0" y2="1" id="master_svgf_78_023888"><stop offset="0%" stop-color="#25F0FF" stop-opacity="0.00009999999747378752"/><stop offset="100%" stop-color="#10DDFF" stop-opacity="1"/></linearGradient><linearGradient x1="0" y1="0" x2="0" y2="1" id="master_svgg_78_023888"><stop offset="0%" stop-color="#25F0FF" stop-opacity="0.00009999999747378752"/><stop offset="100%" stop-color="#10DDFF" stop-opacity="1"/></linearGradient></defs><g style="mix-blend-mode:passthrough"><g style="opacity:0.276394784450531;"><ellipse cx="52.81098175048828" cy="84.13962459564209" rx="34.49408721923828" ry="10.43894100189209" stroke="url(#master_svg0_78_023919)" fill-opacity="0" fill="none" stroke-width="1"/></g><g style="mix-blend-mode:passthrough"><path d="M53.33526796875,88.08939609375Q54.18346796875,88.08939609375,55.03056796875,88.07689609375001Q55.87776796875,88.06429609375,56.72186796875,88.03929609375Q57.56596796875,88.01419609375,58.40496796875,87.97669609375001Q59.24386796875,87.93919609375,60.07576796875,87.88939609375001Q60.90766796875,87.83949609375,61.73036796875,87.77739609375Q62.55316796875,87.71539609375,63.36486796875,87.64119609375Q64.17646796875,87.56699609374999,64.97506796875,87.48089609375Q65.77366796875,87.39479609375,66.55726796875,87.29699609375Q67.34086796874999,87.19929609375001,68.10756796875,87.08999609375Q68.87436796875,86.98069609375,69.62236796875,86.86029609375001Q70.37036796875,86.73979609375,71.09786796875,86.60849609375Q71.82536796875,86.47709609374999,72.53056796875,86.33509609375Q73.23586796875,86.19319609375,73.91706796874999,86.04089609375Q74.59836796875,85.88869609375,75.25396796875,85.72659609375Q75.90966796875,85.56449609375,76.53806796875,85.39289609375Q77.16656796875,85.22129609375,77.76626796875,85.04059609375Q78.36606796875,84.85989609375,78.93566796875001,84.67059609374999Q79.50526796874999,84.48129609375,80.04326796875,84.28369609375Q80.58136796875,84.08619609375,81.08666796874999,83.88099609375Q81.59186796875,83.67569609374999,82.06306796875,83.46319609375Q82.53426796875,83.25079609375,82.97036796875,83.03159609375Q83.40636796875,82.81239609375,83.80626796875,82.58709609375Q84.20606796875,82.36169609375,84.56866796875,82.13069609375Q84.93136796875,81.89969609375,85.25596796875,81.66359609375Q85.58046796875,81.42749609375,85.86626796875,81.18699609375Q86.15196796875,80.94639609375,86.39816796875,80.70179609375Q86.64436796875,80.45729609375,86.85046796875,80.20939609375Q87.05656796875,79.96159609375,87.22206796875,79.71089609375Q87.38756796875,79.46029609375,87.51196796875,79.20749609375Q87.63646796875,78.95479609375,87.71956796875,78.70049609375Q87.80266796875,78.44619609375,87.84426796875,78.19099609375Q87.88596796875,77.93569609375,87.88596796875,77.68019609375Q87.88596796875,77.51209609375,87.86786796875,77.34399609375001L87.88596796875,77.34399609375001L87.88596796875,70.62841609375L78.74946796875,70.62841609375Q78.14476796875,70.43061609375,77.50706796875,70.24248609375Q76.86926796875,70.05435609375,76.20006796875,69.87640609375Q75.53096796874999,69.69844609375,74.83216796875,69.53113609375Q74.13336796875001,69.36382609375,73.40686796874999,69.20760609375Q72.68036796875,69.05138609375,71.92806796875,68.90667609375Q71.17576796875,68.76196609375,70.39956796875,68.62915609375Q69.62346796874999,68.49634609375,68.82566796875,68.37578609375Q68.02776796875,68.25522209375,67.21036796875,68.14723209375Q66.39296796875,68.03924209375,65.55806796875001,67.94411109375Q64.72326796875001,67.84898109375,63.87316796875,67.76696409375Q63.02316796875,67.68494709375,62.16016796875,67.61626309375Q61.29716796875,67.54757809375,60.42356796875,67.49241009375Q59.55006796875,67.43724109375,58.66816796875,67.39573509375Q57.78626796875,67.35422969375,56.89846796875,67.32649749375Q56.01066796875,67.29876529375,55.11926796875,67.28488069375Q54.22786796875,67.27099609375,53.33526796875,67.27099609375Q52.44276796875,67.27099609375,51.55136796875,67.28488069375Q50.659967968749996,67.29876529375,49.77216796875,67.32649749375Q48.88436796875,67.35422969375,48.00246796875,67.39573509375Q47.120567968749995,67.43724109375,46.24696796875,67.49241009375Q45.37336796875,67.54757809375,44.51046796875,67.61626309375Q43.64746796875,67.68494709375,42.79746796875,67.76696409375Q41.94736796875,67.84898109375,41.11256796875,67.94411109375Q40.277667968749995,68.03924209375,39.46026796875,68.14723209375Q38.64276796875,68.25522209375,37.84496796875,68.37578609375Q37.04706796875,68.49634609375,36.27096796875,68.62915609375Q35.49486796875,68.76196609375,34.74256796875,68.90667609375Q33.990267968750004,69.05138609375,33.26376796875,69.20760609375Q32.53726796875,69.36382609375,31.838467968750003,69.53113609375Q31.13966796875,69.69844609375,30.47056796875,69.87640609375Q29.80136796875,70.05435609375,29.16356796875,70.24248609375Q28.525817968749998,70.43061609375,27.92113796875,70.62841609375L18.78466796875,70.62841609375L18.78466796875,77.34399609375001L18.80269026875,77.34399609375001Q18.78466796875,77.51209609375,18.78466796875,77.68019609375Q18.78466796875,77.93569609375,18.82628566875,78.19099609375Q18.86790346875,78.44619609375,18.95103896875,78.70049609375Q19.03417396875,78.95479609375,19.158625968750002,79.20749609375Q19.28307896875,79.46029609375,19.44854896875,79.71089609375Q19.61401796875,79.96159609375,19.82010796875,80.20939609375Q20.02619796875,80.45729609375,20.27240796875,80.70179609375Q20.51861796875,80.94639609375,20.80435796875,81.18699609375Q21.09009796875,81.42749609375,21.41467796875,81.66359609375Q21.73925796875,81.89969609375,22.10189796875,82.13069609375Q22.46453796875,82.36169609375,22.86435796875,82.58709609375Q23.26418796875,82.81239609375,23.70023796875,83.03159609375Q24.13627796875,83.25079609375,24.60749796875,83.46319609375Q25.07871796875,83.67569609374999,25.58396796875,83.88099609375Q26.089227968750002,84.08619609375,26.62729796875,84.28369609375Q27.165367968749997,84.48129609375,27.73496796875,84.67059609374999Q28.30456796875,84.85989609375,28.90426796875,85.04059609375Q29.50406796875,85.22129609375,30.13246796875,85.39289609375Q30.760967968750002,85.56449609375,31.41656796875,85.72659609375Q32.07226796875,85.88869609375,32.75346796875,86.04089609375Q33.43476796875,86.19319609375,34.13996796875,86.33509609375Q34.84526796875,86.47709609374999,35.57276796875,86.60849609375Q36.30026796875,86.73979609375,37.04826796875,86.86029609375001Q37.79626796875,86.98069609375,38.56296796875,87.08999609375Q39.329767968750005,87.19929609375001,40.11336796875,87.29699609375Q40.896967968750005,87.39479609375,41.69556796875,87.48089609375Q42.49416796875,87.56699609374999,43.305767968750004,87.64119609375Q44.11746796875,87.71539609375,44.94016796875,87.77739609375Q45.762967968750004,87.83949609375,46.59476796875,87.88939609375001Q47.426667968749996,87.93919609375,48.26566796875,87.97669609375001Q49.10466796875,88.01419609375,49.948767968750005,88.03929609375Q50.79286796875,88.06429609375,51.63996796875,88.07689609375001Q52.48716796875,88.08939609375,53.33526796875,88.08939609375Z" fill-rule="evenodd" fill="url(#master_svg1_78_023903)" fill-opacity="1"/><path d="M53.33526796875,87.58939609375Q59.89586796875,87.58939609375,65.99396796875,86.86209609375Q72.60396796875,86.07369609375,77.62206796875,84.56189609375Q82.59526796875,83.06359609375,85.15726796875,81.11389609375Q87.38596796875,79.41789609375,87.38596796875,77.68019609375Q87.38596796875,77.53879609375,87.37076796875,77.39729609375L87.31146796875,76.84402609375L87.88596796875,76.84402609375L87.88596796875,77.34399609375001L87.38596796875,77.34399609375001L87.38596796875,70.62841609375L87.88596796875,70.62841609375L87.88596796875,71.12841609375L78.66976796875,71.12841609375L78.59396796875001,71.10363609375Q73.73166796875,69.51309609375,67.14486796874999,68.64292609375Q60.54476796875,67.77099609375,53.33526796875,67.77099609375Q46.12586796875,67.77099609375,39.52566796875,68.64292609375Q32.93896796875,69.51309609375,28.076587968749998,71.10363609375L28.000837968749998,71.12841609375L18.78466796875,71.12841609375L18.78466796875,70.62841609375L19.28466796875,70.62841609375L19.28466796875,77.34399609375001L18.78466796875,77.34399609375001L18.78466796875,76.84402609375L19.35918296875,76.84402609375L19.29983896875,77.39739609375Q19.28466796875,77.53879609375,19.28466796875,77.68019609375Q19.28466796875,79.41789609375,21.513317968750002,81.11389609375Q24.07530796875,83.06359609375,29.04856796875,84.56189609375Q34.06666796875,86.07369609375,40.67656796875,86.86209609375Q46.77476796875,87.58939609375,53.33526796875,87.58939609375ZM53.33526796875,88.58939609375Q46.71526796875,88.58939609375,40.55816796875,87.85499609375Q33.86166796875,87.05629609375,28.76007796875,85.51939609375Q23.61364796875,83.96889609375,20.90772796875,81.90969609375Q18.28466796875,79.91349609375,18.28466796875,77.68019609375Q18.28466796875,77.48529609375,18.30554096875,77.29069609375L18.80269026875,77.34399609375001L18.80269026875,77.84399609375001L18.28466796875,77.84399609375001L18.28466796875,70.12841609375L27.92113796875,70.12841609375L27.92113796875,70.62841609375L27.765677968749998,70.15319609375Q32.71606796875,68.53384609375,39.39476796875,67.65153909375Q46.060067968750005,66.77099609375,53.33526796875,66.77099609375Q60.61056796875,66.77099609375,67.27586796874999,67.65153909375Q73.95456796875,68.53384609375,78.90496796875,70.15319609375L78.74946796875,70.62841609375L78.74946796875,70.12841609375L88.38596796875,70.12841609375L88.38596796875,77.84399609375001L87.86786796875,77.84399609375001L87.86786796875,77.34399609375001L88.36506796875,77.29069609375Q88.38596796875,77.48539609375,88.38596796875,77.68019609375Q88.38596796875,79.91349609375,85.76286796875,81.90969609375Q83.05696796875,83.96889609375,77.91056796875,85.51939609375Q72.80896796875,87.05629609375,66.11246796875,87.85499609375Q59.95526796875,88.58939609375,53.33526796875,88.58939609375Z" fill="url(#master_svg2_78_023906)" fill-opacity="1"/></g><g style="mix-blend-mode:passthrough"><g style="mix-blend-mode:passthrough"><path d="M49.31007858117676,83.13569249902343C49.31007858117676,82.95024549902344,49.159895581176755,82.79991149902344,48.974635581176756,82.79991149902344C48.789375581176756,82.79991149902344,48.63919258117676,82.95024549902344,48.63919258117676,83.13569249902343C48.63919258117676,83.13569249902343,49.31007858117676,83.13569249902343,49.31007858117676,83.13569249902343C49.31007858117676,83.13569249902343,49.31007858117676,83.13569249902343,49.31007858117676,83.13569249902343ZM48.63919258117676,86.15363149902343C48.63919258117676,86.33908149902344,48.789375581176756,86.48941149902343,48.974635581176756,86.48941149902343C49.159895581176755,86.48941149902343,49.31007858117676,86.33908149902344,49.31007858117676,86.15363149902343C49.31007858117676,86.15363149902343,48.63919258117676,86.15363149902343,48.63919258117676,86.15363149902343C48.63919258117676,86.15363149902343,48.63919258117676,86.15363149902343,48.63919258117676,86.15363149902343ZM48.63919258117676,83.13569249902343C48.63919258117676,83.13569249902343,48.63919258117676,86.15363149902343,48.63919258117676,86.15363149902343C48.63919258117676,86.15363149902343,49.31007858117676,86.15363149902343,49.31007858117676,86.15363149902343C49.31007858117676,86.15363149902343,49.31007858117676,83.13569249902343,49.31007858117676,83.13569249902343C49.31007858117676,83.13569249902343,48.63919258117676,83.13569249902343,48.63919258117676,83.13569249902343C48.63919258117676,83.13569249902343,48.63919258117676,83.13569249902343,48.63919258117676,83.13569249902343Z" fill="url(#master_svg3_78_023855)" fill-opacity="1"/></g><g style="opacity:0.6000000238418579;"><path d="M41.25944419702149,82.46413125787353C41.25944419702149,82.27868425787354,41.10926119702148,82.12835025787354,40.92400119702148,82.12835025787354C40.73874119702148,82.12835025787354,40.588558197021484,82.27868425787354,40.588558197021484,82.46413125787353C40.588558197021484,82.46413125787353,41.25944419702149,82.46413125787353,41.25944419702149,82.46413125787353C41.25944419702149,82.46413125787353,41.25944419702149,82.46413125787353,41.25944419702149,82.46413125787353ZM40.588558197021484,85.48207025787353C40.588558197021484,85.66752025787353,40.73874119702148,85.81785025787353,40.92400119702148,85.81785025787353C41.10926119702148,85.81785025787353,41.25944419702149,85.66752025787353,41.25944419702149,85.48207025787353C41.25944419702149,85.48207025787353,40.588558197021484,85.48207025787353,40.588558197021484,85.48207025787353C40.588558197021484,85.48207025787353,40.588558197021484,85.48207025787353,40.588558197021484,85.48207025787353ZM40.588558197021484,82.46413125787353C40.588558197021484,82.46413125787353,40.588558197021484,85.48207025787353,40.588558197021484,85.48207025787353C40.588558197021484,85.48207025787353,41.25944419702149,85.48207025787353,41.25944419702149,85.48207025787353C41.25944419702149,85.48207025787353,41.25944419702149,82.46413125787353,41.25944419702149,82.46413125787353C41.25944419702149,82.46413125787353,40.588558197021484,82.46413125787353,40.588558197021484,82.46413125787353C40.588558197021484,82.46413125787353,40.588558197021484,82.46413125787353,40.588558197021484,82.46413125787353Z" fill="url(#master_svg4_78_023855)" fill-opacity="1"/></g><g style="opacity:0.4000000059604645;"><path d="M32.53792568048096,81.12100877557373C32.53792568048096,80.93556177557373,32.387742680480955,80.78522777557373,32.202482680480955,80.78522777557373C32.017222680480955,80.78522777557373,31.867039680480957,80.93556177557373,31.867039680480957,81.12100877557373C31.867039680480957,81.12100877557373,32.53792568048096,81.12100877557373,32.53792568048096,81.12100877557373C32.53792568048096,81.12100877557373,32.53792568048096,81.12100877557373,32.53792568048096,81.12100877557373ZM31.867039680480957,84.13894777557373C31.867039680480957,84.32439777557373,32.017222680480955,84.47472777557373,32.202482680480955,84.47472777557373C32.387742680480955,84.47472777557373,32.53792568048096,84.32439777557373,32.53792568048096,84.13894777557373C32.53792568048096,84.13894777557373,31.867039680480957,84.13894777557373,31.867039680480957,84.13894777557373C31.867039680480957,84.13894777557373,31.867039680480957,84.13894777557373,31.867039680480957,84.13894777557373ZM31.867039680480957,81.12100877557373C31.867039680480957,81.12100877557373,31.867039680480957,84.13894777557373,31.867039680480957,84.13894777557373C31.867039680480957,84.13894777557373,32.53792568048096,84.13894777557373,32.53792568048096,84.13894777557373C32.53792568048096,84.13894777557373,32.53792568048096,81.12100877557373,32.53792568048096,81.12100877557373C32.53792568048096,81.12100877557373,31.867039680480957,81.12100877557373,31.867039680480957,81.12100877557373C31.867039680480957,81.12100877557373,31.867039680480957,81.12100877557373,31.867039680480957,81.12100877557373Z" fill="url(#master_svg5_78_023855)" fill-opacity="1"/></g><g style="opacity:0.20000000298023224;"><path d="M24.48729225,79.10632457528686C24.48729225,78.92087757528687,24.33710925,78.77054357528687,24.15184925,78.77054357528687C23.96658925,78.77054357528687,23.81640625,78.92087757528687,23.81640625,79.10632457528686C23.81640625,79.10632457528686,24.48729225,79.10632457528686,24.48729225,79.10632457528686C24.48729225,79.10632457528686,24.48729225,79.10632457528686,24.48729225,79.10632457528686ZM23.81640625,82.12426357528686C23.81640625,82.30971357528686,23.96658925,82.46004357528686,24.15184925,82.46004357528686C24.33710925,82.46004357528686,24.48729225,82.30971357528686,24.48729225,82.12426357528686C24.48729225,82.12426357528686,23.81640625,82.12426357528686,23.81640625,82.12426357528686C23.81640625,82.12426357528686,23.81640625,82.12426357528686,23.81640625,82.12426357528686ZM23.81640625,79.10632457528686C23.81640625,79.10632457528686,23.81640625,82.12426357528686,23.81640625,82.12426357528686C23.81640625,82.12426357528686,24.48729225,82.12426357528686,24.48729225,82.12426357528686C24.48729225,82.12426357528686,24.48729225,79.10632457528686,24.48729225,79.10632457528686C24.48729225,79.10632457528686,23.81640625,79.10632457528686,23.81640625,79.10632457528686C23.81640625,79.10632457528686,23.81640625,79.10632457528686,23.81640625,79.10632457528686Z" fill="url(#master_svg6_78_023855)" fill-opacity="1"/></g><g style="mix-blend-mode:passthrough"><path d="M62.72780128320313,83.13569249902343C62.72780128320313,82.95024549902344,62.57761828320312,82.79991149902344,62.39235828320312,82.79991149902344C62.20709828320312,82.79991149902344,62.056915283203125,82.95024549902344,62.056915283203125,83.13569249902343C62.056915283203125,83.13569249902343,62.72780128320313,83.13569249902343,62.72780128320313,83.13569249902343C62.72780128320313,83.13569249902343,62.72780128320313,83.13569249902343,62.72780128320313,83.13569249902343ZM62.056915283203125,86.15363149902343C62.056915283203125,86.33908149902344,62.20709828320312,86.48941149902343,62.39235828320312,86.48941149902343C62.57761828320312,86.48941149902343,62.72780128320313,86.33908149902344,62.72780128320313,86.15363149902343C62.72780128320313,86.15363149902343,62.056915283203125,86.15363149902343,62.056915283203125,86.15363149902343C62.056915283203125,86.15363149902343,62.056915283203125,86.15363149902343,62.056915283203125,86.15363149902343ZM62.056915283203125,83.13569249902343C62.056915283203125,83.13569249902343,62.056915283203125,86.15363149902343,62.056915283203125,86.15363149902343C62.056915283203125,86.15363149902343,62.72780128320313,86.15363149902343,62.72780128320313,86.15363149902343C62.72780128320313,86.15363149902343,62.72780128320313,83.13569249902343,62.72780128320313,83.13569249902343C62.72780128320313,83.13569249902343,62.056915283203125,83.13569249902343,62.056915283203125,83.13569249902343C62.056915283203125,83.13569249902343,62.056915283203125,83.13569249902343,62.056915283203125,83.13569249902343Z" fill="url(#master_svg7_78_023855)" fill-opacity="1"/></g><g style="opacity:0.6000000238418579;"><path d="M70.77843376000976,81.79257001672363C70.77843376000976,81.60712301672363,70.62825076000976,81.45678901672363,70.44299076000976,81.45678901672363C70.25773076000976,81.45678901672363,70.10754776000977,81.60712301672363,70.10754776000977,81.79257001672363C70.10754776000977,81.79257001672363,70.77843376000976,81.79257001672363,70.77843376000976,81.79257001672363C70.77843376000976,81.79257001672363,70.77843376000976,81.79257001672363,70.77843376000976,81.79257001672363ZM70.10754776000977,84.81050901672363C70.10754776000977,84.99595901672363,70.25773076000976,85.14628901672363,70.44299076000976,85.14628901672363C70.62825076000976,85.14628901672363,70.77843376000976,84.99595901672363,70.77843376000976,84.81050901672363C70.77843376000976,84.81050901672363,70.10754776000977,84.81050901672363,70.10754776000977,84.81050901672363C70.10754776000977,84.81050901672363,70.10754776000977,84.81050901672363,70.10754776000977,84.81050901672363ZM70.10754776000977,81.79257001672363C70.10754776000977,81.79257001672363,70.10754776000977,84.81050901672363,70.10754776000977,84.81050901672363C70.10754776000977,84.81050901672363,70.77843376000976,84.81050901672363,70.77843376000976,84.81050901672363C70.77843376000976,84.81050901672363,70.77843376000976,81.79257001672363,70.77843376000976,81.79257001672363C70.77843376000976,81.79257001672363,70.10754776000977,81.79257001672363,70.10754776000977,81.79257001672363C70.10754776000977,81.79257001672363,70.10754776000977,81.79257001672363,70.10754776000977,81.79257001672363Z" fill="url(#master_svg8_78_023855)" fill-opacity="1"/></g><g style="opacity:0.4000000059604645;"><path d="M77.48729225,79.77788581643676C77.48729225,79.59243881643677,77.33710925,79.44210481643677,77.15184925,79.44210481643677C76.96658925,79.44210481643677,76.81640625,79.59243881643677,76.81640625,79.77788581643676C76.81640625,79.77788581643676,77.48729225,79.77788581643676,77.48729225,79.77788581643676C77.48729225,79.77788581643676,77.48729225,79.77788581643676,77.48729225,79.77788581643676ZM76.81640625,82.79582481643676C76.81640625,82.98127481643677,76.96658925,83.13160481643676,77.15184925,83.13160481643676C77.33710925,83.13160481643676,77.48729225,82.98127481643677,77.48729225,82.79582481643676C77.48729225,82.79582481643676,76.81640625,82.79582481643676,76.81640625,82.79582481643676C76.81640625,82.79582481643676,76.81640625,82.79582481643676,76.81640625,82.79582481643676ZM76.81640625,79.77788581643676C76.81640625,79.77788581643676,76.81640625,82.79582481643676,76.81640625,82.79582481643676C76.81640625,82.79582481643676,77.48729225,82.79582481643676,77.48729225,82.79582481643676C77.48729225,82.79582481643676,77.48729225,79.77788581643676,77.48729225,79.77788581643676C77.48729225,79.77788581643676,76.81640625,79.77788581643676,76.81640625,79.77788581643676C76.81640625,79.77788581643676,76.81640625,79.77788581643676,76.81640625,79.77788581643676Z" fill="url(#master_svg9_78_023855)" fill-opacity="1"/></g><g style="opacity:0.4000000059604645;"><path d="M84.1961545546875,77.091640375C84.1961545546875,76.906193375,84.0459715546875,76.755859375,83.8607115546875,76.755859375C83.6754515546875,76.755859375,83.5252685546875,76.906193375,83.5252685546875,77.091640375C83.5252685546875,77.091640375,84.1961545546875,77.091640375,84.1961545546875,77.091640375C84.1961545546875,77.091640375,84.1961545546875,77.091640375,84.1961545546875,77.091640375ZM83.5252685546875,80.109579375C83.5252685546875,80.295029375,83.6754515546875,80.445359375,83.8607115546875,80.445359375C84.0459715546875,80.445359375,84.1961545546875,80.295029375,84.1961545546875,80.109579375C84.1961545546875,80.109579375,83.5252685546875,80.109579375,83.5252685546875,80.109579375C83.5252685546875,80.109579375,83.5252685546875,80.109579375,83.5252685546875,80.109579375ZM83.5252685546875,77.091640375C83.5252685546875,77.091640375,83.5252685546875,80.109579375,83.5252685546875,80.109579375C83.5252685546875,80.109579375,84.1961545546875,80.109579375,84.1961545546875,80.109579375C84.1961545546875,80.109579375,84.1961545546875,77.091640375,84.1961545546875,77.091640375C84.1961545546875,77.091640375,83.5252685546875,77.091640375,83.5252685546875,77.091640375C83.5252685546875,77.091640375,83.5252685546875,77.091640375,83.5252685546875,77.091640375Z" fill="url(#master_svga_78_023855)" fill-opacity="1"/></g><g style="mix-blend-mode:passthrough"><path d="M56.01893897851563,83.13569249902343C56.01893897851563,82.95024549902344,55.86875597851562,82.79991149902344,55.68349597851562,82.79991149902344C55.49823597851562,82.79991149902344,55.348052978515625,82.95024549902344,55.348052978515625,83.13569249902343C55.348052978515625,83.13569249902343,56.01893897851563,83.13569249902343,56.01893897851563,83.13569249902343C56.01893897851563,83.13569249902343,56.01893897851563,83.13569249902343,56.01893897851563,83.13569249902343ZM55.348052978515625,86.15363149902343C55.348052978515625,86.33908149902344,55.49823597851562,86.48941149902343,55.68349597851562,86.48941149902343C55.86875597851562,86.48941149902343,56.01893897851563,86.33908149902344,56.01893897851563,86.15363149902343C56.01893897851563,86.15363149902343,55.348052978515625,86.15363149902343,55.348052978515625,86.15363149902343C55.348052978515625,86.15363149902343,55.348052978515625,86.15363149902343,55.348052978515625,86.15363149902343ZM55.348052978515625,83.13569249902343C55.348052978515625,83.13569249902343,55.348052978515625,86.15363149902343,55.348052978515625,86.15363149902343C55.348052978515625,86.15363149902343,56.01893897851563,86.15363149902343,56.01893897851563,86.15363149902343C56.01893897851563,86.15363149902343,56.01893897851563,83.13569249902343,56.01893897851563,83.13569249902343C56.01893897851563,83.13569249902343,55.348052978515625,83.13569249902343,55.348052978515625,83.13569249902343C55.348052978515625,83.13569249902343,55.348052978515625,83.13569249902343,55.348052978515625,83.13569249902343Z" fill="url(#master_svgb_78_023855)" fill-opacity="1"/></g></g><g style="mix-blend-mode:passthrough"><ellipse cx="52.60785675048828" cy="70.32321834564209" rx="34.49408721923828" ry="10.43894100189209" fill="#001B1F" fill-opacity="1"/><ellipse cx="52.60785675048828" cy="70.32321834564209" rx="34.49408721923828" ry="10.43894100189209" stroke="url(#master_svgc_78_023850)" fill-opacity="0" fill="none" stroke-width="1"/></g><g style="mix-blend-mode:passthrough"><ellipse cx="52.811222076416016" cy="83.21090698242188" rx="42.936710357666016" ry="16.789031982421875" stroke="url(#master_svgd_78_238808)" fill-opacity="0" fill="none" stroke-width="1"/></g><g style="mix-blend-mode:passthrough"><ellipse cx="52.99978065490723" cy="70.24926900863647" rx="22.541772842407227" ry="4.700929164886475" fill="#10DDFF" fill-opacity="1"/><ellipse cx="52.99978065490723" cy="70.24926900863647" rx="22.541772842407227" ry="4.700929164886475" stroke="url(#master_svge_78_023850)" fill-opacity="0" fill="none" stroke-width="1"/></g><g style="opacity:0.4000000059604645;"><path d="M70.431,72.5285046875C70.431,72.5285046875,35.5692,72.5285046875,35.5692,72.5285046875C35.5692,72.5285046875,0,26.8623046875,0,26.8623046875C0,26.8623046875,106,26.8623046875,106,26.8623046875C106,26.8623046875,70.431,72.5285046875,70.431,72.5285046875C70.431,72.5285046875,70.431,72.5285046875,70.431,72.5285046875Z" fill-rule="evenodd" fill="url(#master_svgf_78_023888)" fill-opacity="1"/></g><g style="opacity:0.30000001192092896;"><path d="M70.431,72.5286C70.431,72.5286,35.5692,72.5286,35.5692,72.5286C35.5692,72.5286,0,0,0,0C0,0,106,0,106,0C106,0,70.431,72.5286,70.431,72.5286C70.431,72.5286,70.431,72.5286,70.431,72.5286Z" fill-rule="evenodd" fill="url(#master_svgg_78_023888)" fill-opacity="1"/></g></g></svg>