<svg xmlns="http://www.w3.org/2000/svg" xmlns:xlink="http://www.w3.org/1999/xlink" fill="none" version="1.1" width="100" height="55.8681640625" viewBox="0 0 100 55.8681640625"><defs><linearGradient x1="-0.083123117685318" y1="0.1940765529870987" x2="-0.083123117685318" y2="1.2967610359191895" id="master_svg0_78_165052"><stop offset="0%" stop-color="#6BC1B7" stop-opacity="0.00009999999747378752"/><stop offset="100%" stop-color="#10DDFF" stop-opacity="1"/></linearGradient><linearGradient x1="-0.083123117685318" y1="0.1940765529870987" x2="-0.083123117685318" y2="1.2967610359191895" id="master_svg1_78_165052"><stop offset="0%" stop-color="#6BC1B7" stop-opacity="0.00009999999747378752"/><stop offset="100%" stop-color="#10DDFF" stop-opacity="1"/></linearGradient><linearGradient x1="0.18615978956222534" y1="0.9012430310249329" x2="0.8832976818084717" y2="0.9012430310249329" id="master_svg2_78_023903"><stop offset="0%" stop-color="#00272D" stop-opacity="1"/><stop offset="46.87372446060181%" stop-color="#004651" stop-opacity="1"/><stop offset="100%" stop-color="#002D34" stop-opacity="1"/></linearGradient><linearGradient x1="0.07592069357633591" y1="1" x2="1.0759207010269165" y2="0.848158597946167" id="master_svg3_78_023906"><stop offset="0%" stop-color="#0089A0" stop-opacity="0.4034688472747803"/><stop offset="53.85998487472534%" stop-color="#0FAFCC" stop-opacity="1"/><stop offset="100%" stop-color="#00849A" stop-opacity="0.13603584468364716"/></linearGradient><linearGradient x1="0.10644068568944931" y1="0.2553962171077728" x2="0.10886064171791077" y2="1.0012099742889404" id="master_svg4_78_023850"><stop offset="0%" stop-color="#1A83FF" stop-opacity="0.2389112412929535"/><stop offset="35.14942228794098%" stop-color="#25F0FF" stop-opacity="1"/><stop offset="72.7460503578186%" stop-color="#1CFFBD" stop-opacity="0.9350824952125549"/><stop offset="100%" stop-color="#FFFFFF" stop-opacity="1"/></linearGradient><linearGradient x1="-0.7544969916343689" y1="1.2333301305770874" x2="0.7121632099151611" y2="2.3765885829925537" id="master_svg5_78_165047"><stop offset="0%" stop-color="#25F0FF" stop-opacity="0.0294368714094162"/><stop offset="100%" stop-color="#10DDFF" stop-opacity="1"/></linearGradient><linearGradient x1="-0.7544969916343689" y1="1.2333301305770874" x2="0.7121632099151611" y2="2.3765885829925537" id="master_svg6_78_165047"><stop offset="0%" stop-color="#25F0FF" stop-opacity="0.0294368714094162"/><stop offset="100%" stop-color="#10DDFF" stop-opacity="1"/></linearGradient><linearGradient x1="-0.43561258912086487" y1="-0.8712252378463745" x2="-0.43561258912086487" y2="0.9999999403953552" id="master_svg7_78_165039"><stop offset="0%" stop-color="#25F0FF" stop-opacity="1"/><stop offset="100%" stop-color="#10DDFF" stop-opacity="0.00009999999747378752"/></linearGradient><linearGradient x1="-0.43561258912086487" y1="-0.8712252378463745" x2="-0.43561258912086487" y2="0.9999999403953552" id="master_svg8_78_165039"><stop offset="0%" stop-color="#25F0FF" stop-opacity="1"/><stop offset="100%" stop-color="#10DDFF" stop-opacity="0.00009999999747378752"/></linearGradient><linearGradient x1="-0.43561258912086487" y1="-0.8712252378463745" x2="-0.43561258912086487" y2="0.9999999403953552" id="master_svg9_78_165039"><stop offset="0%" stop-color="#25F0FF" stop-opacity="1"/><stop offset="100%" stop-color="#10DDFF" stop-opacity="0.00009999999747378752"/></linearGradient><linearGradient x1="-0.43561258912086487" y1="-0.8712252378463745" x2="-0.43561258912086487" y2="0.9999999403953552" id="master_svga_78_165039"><stop offset="0%" stop-color="#25F0FF" stop-opacity="1"/><stop offset="100%" stop-color="#10DDFF" stop-opacity="0.00009999999747378752"/></linearGradient><linearGradient x1="-0.0972464308142662" y1="0" x2="-0.0972464308142662" y2="1.1944928169250488" id="master_svgb_236_35682"><stop offset="0%" stop-color="#25F0FF" stop-opacity="0.00009999999747378752"/><stop offset="100%" stop-color="#00DAFF" stop-opacity="1"/></linearGradient><linearGradient x1="0" y1="0" x2="0" y2="1" id="master_svgc_78_165213"><stop offset="0%" stop-color="#334E89" stop-opacity="1"/><stop offset="100%" stop-color="#172651" stop-opacity="1"/></linearGradient><linearGradient x1="0" y1="0" x2="0" y2="1" id="master_svgd_78_165213"><stop offset="0%" stop-color="#334E89" stop-opacity="1"/><stop offset="100%" stop-color="#172651" stop-opacity="1"/></linearGradient></defs><g style="mix-blend-mode:passthrough"><g style="mix-blend-mode:passthrough"><g style="opacity:0.6000000238418579;"><path d="M3.0091120152130126,38.13280902557373C3.0091120152130126,38.13280902557373,2.9286970152130127,38.41440902557373,2.9286970152130127,38.41440902557373C2.9286970152130127,38.41440902557373,3.0091120152130126,38.13280902557373,3.0091120152130126,38.13280902557373C3.0091120152130126,38.13280902557373,3.0091120152130126,38.13280902557373,3.0091120152130126,38.13280902557373ZM3.037190015213013,36.998809025573735C3.037190015213013,36.998809025573735,2.9708170152130124,36.71360902557373,2.9708170152130124,36.71360902557373C2.9708170152130124,36.71360902557373,3.037190015213013,36.998809025573735,3.037190015213013,36.998809025573735C3.037190015213013,36.998809025573735,3.037190015213013,36.998809025573735,3.037190015213013,36.998809025573735ZM56.218098015213016,49.75420902557373C56.218098015213016,49.75420902557373,56.13789801521301,49.47250902557373,56.13789801521301,49.47250902557373C56.13789801521301,49.47250902557373,56.218098015213016,49.75420902557373,56.218098015213016,49.75420902557373C56.218098015213016,49.75420902557373,56.218098015213016,49.75420902557373,56.218098015213016,49.75420902557373ZM43.69399801521301,49.748409025573736C43.69399801521301,49.748409025573736,43.613598015213014,50.03010902557373,43.613598015213014,50.03010902557373C43.613598015213014,50.03010902557373,43.69399801521301,49.748409025573736,43.69399801521301,49.748409025573736C43.69399801521301,49.748409025573736,43.69399801521301,49.748409025573736,43.69399801521301,49.748409025573736ZM97.03819801521301,36.998809025573735C97.03819801521301,36.998809025573735,96.97199801521302,37.28410902557373,96.97199801521302,37.28410902557373C96.97199801521302,37.28410902557373,97.03819801521301,36.998809025573735,97.03819801521301,36.998809025573735C97.03819801521301,36.998809025573735,97.03819801521301,36.998809025573735,97.03819801521301,36.998809025573735ZM97.06629801521301,38.13290902557373C97.06629801521301,38.13290902557373,97.14659801521302,38.41460902557373,97.14659801521302,38.41460902557373C97.14659801521302,38.41460902557373,97.06629801521301,38.13290902557373,97.06629801521301,38.13290902557373C97.06629801521301,38.13290902557373,97.06629801521301,38.13290902557373,97.06629801521301,38.13290902557373ZM44.787198015213015,27.28570302557373C44.787198015213015,27.28570302557373,44.85359801521301,27.57098902557373,44.85359801521301,27.57098902557373C44.85359801521301,27.57098902557373,44.787198015213015,27.28570302557373,44.787198015213015,27.28570302557373C44.787198015213015,27.28570302557373,44.787198015213015,27.28570302557373,44.787198015213015,27.28570302557373ZM55.05789801521301,27.56702902557373C55.05789801521301,27.56702902557373,96.97199801521302,37.28410902557373,96.97199801521302,37.28410902557373C96.97199801521302,37.28410902557373,97.10439801521301,36.71340902557373,97.10439801521301,36.71340902557373C97.10439801521301,36.71340902557373,55.190198015213014,26.99635202557373,55.190198015213014,26.99635202557373C55.190198015213014,26.99635202557373,55.05789801521301,27.56702902557373,55.05789801521301,27.56702902557373C55.05789801521301,27.56702902557373,55.05789801521301,27.56702902557373,55.05789801521301,27.56702902557373ZM96.98599801521301,37.85120902557373C96.98599801521301,37.85120902557373,56.13789801521301,49.47250902557373,56.13789801521301,49.47250902557373C56.13789801521301,49.47250902557373,56.29819801521301,50.03600902557373,56.29819801521301,50.03600902557373C56.29819801521301,50.03600902557373,97.14659801521302,38.41460902557373,97.14659801521302,38.41460902557373C97.14659801521302,38.41460902557373,96.98599801521301,37.85120902557373,96.98599801521301,37.85120902557373C96.98599801521301,37.85120902557373,96.98599801521301,37.85120902557373,96.98599801521301,37.85120902557373ZM43.77439801521301,49.466709025573735C43.77439801521301,49.466709025573735,3.0895200152130124,37.851109025573734,3.0895200152130124,37.851109025573734C3.0895200152130124,37.851109025573734,2.9286970152130127,38.41440902557373,2.9286970152130127,38.41440902557373C2.9286970152130127,38.41440902557373,43.613598015213014,50.03010902557373,43.613598015213014,50.03010902557373C43.613598015213014,50.03010902557373,43.77439801521301,49.466709025573735,43.77439801521301,49.466709025573735C43.77439801521301,49.466709025573735,43.77439801521301,49.466709025573735,43.77439801521301,49.466709025573735ZM3.103562015213013,37.28410902557373C3.103562015213013,37.28410902557373,44.85359801521301,27.57098902557373,44.85359801521301,27.57098902557373C44.85359801521301,27.57098902557373,44.72089801521301,27.00041102557373,44.72089801521301,27.00041102557373C44.72089801521301,27.00041102557373,2.9708170152130124,36.71360902557373,2.9708170152130124,36.71360902557373C2.9708170152130124,36.71360902557373,3.103562015213013,37.28410902557373,3.103562015213013,37.28410902557373C3.103562015213013,37.28410902557373,3.103562015213013,37.28410902557373,3.103562015213013,37.28410902557373ZM3.0895200152130124,37.851109025573734C2.7988280152130125,37.76810902557373,2.8091200152130127,37.35260902557373,3.103562015213013,37.28410902557373C3.103562015213013,37.28410902557373,2.9708170152130124,36.71360902557373,2.9708170152130124,36.71360902557373C2.0874850152130127,36.91910902557373,2.056630015213013,38.16540902557373,2.9286970152130127,38.41440902557373C2.9286970152130127,38.41440902557373,3.0895200152130124,37.851109025573734,3.0895200152130124,37.851109025573734C3.0895200152130124,37.851109025573734,3.0895200152130124,37.851109025573734,3.0895200152130124,37.851109025573734ZM56.13789801521301,49.47250902557373C52.09659801521301,50.62220902557373,47.814598015213015,50.62030902557373,43.77439801521301,49.466709025573735C43.77439801521301,49.466709025573735,43.613598015213014,50.03010902557373,43.613598015213014,50.03010902557373C47.758698015213014,51.21350902557373,52.15199801521301,51.21560902557373,56.29819801521301,50.03600902557373C56.29819801521301,50.03600902557373,56.13789801521301,49.47250902557373,56.13789801521301,49.47250902557373C56.13789801521301,49.47250902557373,56.13789801521301,49.47250902557373,56.13789801521301,49.47250902557373ZM96.97199801521302,37.28410902557373C97.26669801521301,37.352409025573735,97.27719801521302,37.76840902557373,96.98599801521301,37.85120902557373C96.98599801521301,37.85120902557373,97.14659801521302,38.41460902557373,97.14659801521302,38.41460902557373C98.01939801521301,38.16630902557373,97.98899801521301,36.91840902557373,97.10439801521301,36.71340902557373C97.10439801521301,36.71340902557373,96.97199801521302,37.28410902557373,96.97199801521302,37.28410902557373C96.97199801521302,37.28410902557373,96.97199801521302,37.28410902557373,96.97199801521302,37.28410902557373ZM55.190198015213014,26.99635202557373C51.74599801521301,26.197860025573732,48.16449801521301,26.19924802557373,44.72089801521301,27.00041102557373C44.72089801521301,27.00041102557373,44.85359801521301,27.57098902557373,44.85359801521301,27.57098902557373C48.21009801521301,26.790110025573732,51.70079801521301,26.78875702557373,55.05789801521301,27.56702902557373C55.05789801521301,27.56702902557373,55.190198015213014,26.99635202557373,55.190198015213014,26.99635202557373C55.190198015213014,26.99635202557373,55.190198015213014,26.99635202557373,55.190198015213014,26.99635202557373Z" fill="url(#master_svg0_78_165052)" fill-opacity="1"/></g><g style="opacity:0.20000000298023224;"><path d="M3.0091120152130126,43.081930500793455C3.0091120152130126,43.081930500793455,2.9286970152130127,43.36353050079346,2.9286970152130127,43.36353050079346C2.9286970152130127,43.36353050079346,3.0091120152130126,43.081930500793455,3.0091120152130126,43.081930500793455C3.0091120152130126,43.081930500793455,3.0091120152130126,43.081930500793455,3.0091120152130126,43.081930500793455ZM3.037190015213013,41.94793050079346C3.037190015213013,41.94793050079346,2.9708170152130124,41.66273050079346,2.9708170152130124,41.66273050079346C2.9708170152130124,41.66273050079346,3.037190015213013,41.94793050079346,3.037190015213013,41.94793050079346C3.037190015213013,41.94793050079346,3.037190015213013,41.94793050079346,3.037190015213013,41.94793050079346ZM56.218098015213016,54.703330500793456C56.218098015213016,54.703330500793456,56.13789801521301,54.421630500793455,56.13789801521301,54.421630500793455C56.13789801521301,54.421630500793455,56.218098015213016,54.703330500793456,56.218098015213016,54.703330500793456C56.218098015213016,54.703330500793456,56.218098015213016,54.703330500793456,56.218098015213016,54.703330500793456ZM43.69399801521301,54.69753050079346C43.69399801521301,54.69753050079346,43.613598015213014,54.979230500793456,43.613598015213014,54.979230500793456C43.613598015213014,54.979230500793456,43.69399801521301,54.69753050079346,43.69399801521301,54.69753050079346C43.69399801521301,54.69753050079346,43.69399801521301,54.69753050079346,43.69399801521301,54.69753050079346ZM97.03819801521301,41.94793050079346C97.03819801521301,41.94793050079346,96.97199801521302,42.233230500793454,96.97199801521302,42.233230500793454C96.97199801521302,42.233230500793454,97.03819801521301,41.94793050079346,97.03819801521301,41.94793050079346C97.03819801521301,41.94793050079346,97.03819801521301,41.94793050079346,97.03819801521301,41.94793050079346ZM97.06629801521301,43.08203050079346C97.06629801521301,43.08203050079346,97.14659801521302,43.36373050079346,97.14659801521302,43.36373050079346C97.14659801521302,43.36373050079346,97.06629801521301,43.08203050079346,97.06629801521301,43.08203050079346C97.06629801521301,43.08203050079346,97.06629801521301,43.08203050079346,97.06629801521301,43.08203050079346ZM44.787198015213015,32.23482450079346C44.787198015213015,32.23482450079346,44.85359801521301,32.52011050079346,44.85359801521301,32.52011050079346C44.85359801521301,32.52011050079346,44.787198015213015,32.23482450079346,44.787198015213015,32.23482450079346C44.787198015213015,32.23482450079346,44.787198015213015,32.23482450079346,44.787198015213015,32.23482450079346ZM55.05789801521301,32.51615050079346C55.05789801521301,32.51615050079346,96.97199801521302,42.233230500793454,96.97199801521302,42.233230500793454C96.97199801521302,42.233230500793454,97.10439801521301,41.66253050079346,97.10439801521301,41.66253050079346C97.10439801521301,41.66253050079346,55.190198015213014,31.945473500793458,55.190198015213014,31.945473500793458C55.190198015213014,31.945473500793458,55.05789801521301,32.51615050079346,55.05789801521301,32.51615050079346C55.05789801521301,32.51615050079346,55.05789801521301,32.51615050079346,55.05789801521301,32.51615050079346ZM96.98599801521301,42.80033050079346C96.98599801521301,42.80033050079346,56.13789801521301,54.421630500793455,56.13789801521301,54.421630500793455C56.13789801521301,54.421630500793455,56.29819801521301,54.98513050079346,56.29819801521301,54.98513050079346C56.29819801521301,54.98513050079346,97.14659801521302,43.36373050079346,97.14659801521302,43.36373050079346C97.14659801521302,43.36373050079346,96.98599801521301,42.80033050079346,96.98599801521301,42.80033050079346C96.98599801521301,42.80033050079346,96.98599801521301,42.80033050079346,96.98599801521301,42.80033050079346ZM43.77439801521301,54.41583050079346C43.77439801521301,54.41583050079346,3.0895200152130124,42.80023050079346,3.0895200152130124,42.80023050079346C3.0895200152130124,42.80023050079346,2.9286970152130127,43.36353050079346,2.9286970152130127,43.36353050079346C2.9286970152130127,43.36353050079346,43.613598015213014,54.979230500793456,43.613598015213014,54.979230500793456C43.613598015213014,54.979230500793456,43.77439801521301,54.41583050079346,43.77439801521301,54.41583050079346C43.77439801521301,54.41583050079346,43.77439801521301,54.41583050079346,43.77439801521301,54.41583050079346ZM3.103562015213013,42.233230500793454C3.103562015213013,42.233230500793454,44.85359801521301,32.52011050079346,44.85359801521301,32.52011050079346C44.85359801521301,32.52011050079346,44.72089801521301,31.949532500793456,44.72089801521301,31.949532500793456C44.72089801521301,31.949532500793456,2.9708170152130124,41.66273050079346,2.9708170152130124,41.66273050079346C2.9708170152130124,41.66273050079346,3.103562015213013,42.233230500793454,3.103562015213013,42.233230500793454C3.103562015213013,42.233230500793454,3.103562015213013,42.233230500793454,3.103562015213013,42.233230500793454ZM3.0895200152130124,42.80023050079346C2.7988280152130125,42.717230500793455,2.8091200152130127,42.301730500793454,3.103562015213013,42.233230500793454C3.103562015213013,42.233230500793454,2.9708170152130124,41.66273050079346,2.9708170152130124,41.66273050079346C2.0874850152130127,41.86823050079346,2.056630015213013,43.11453050079346,2.9286970152130127,43.36353050079346C2.9286970152130127,43.36353050079346,3.0895200152130124,42.80023050079346,3.0895200152130124,42.80023050079346C3.0895200152130124,42.80023050079346,3.0895200152130124,42.80023050079346,3.0895200152130124,42.80023050079346ZM56.13789801521301,54.421630500793455C52.09659801521301,55.57133050079346,47.814598015213015,55.56943050079346,43.77439801521301,54.41583050079346C43.77439801521301,54.41583050079346,43.613598015213014,54.979230500793456,43.613598015213014,54.979230500793456C47.758698015213014,56.162630500793455,52.15199801521301,56.16473050079345,56.29819801521301,54.98513050079346C56.29819801521301,54.98513050079346,56.13789801521301,54.421630500793455,56.13789801521301,54.421630500793455C56.13789801521301,54.421630500793455,56.13789801521301,54.421630500793455,56.13789801521301,54.421630500793455ZM96.97199801521302,42.233230500793454C97.26669801521301,42.30153050079346,97.27719801521302,42.71753050079346,96.98599801521301,42.80033050079346C96.98599801521301,42.80033050079346,97.14659801521302,43.36373050079346,97.14659801521302,43.36373050079346C98.01939801521301,43.11543050079346,97.98899801521301,41.86753050079346,97.10439801521301,41.66253050079346C97.10439801521301,41.66253050079346,96.97199801521302,42.233230500793454,96.97199801521302,42.233230500793454C96.97199801521302,42.233230500793454,96.97199801521302,42.233230500793454,96.97199801521302,42.233230500793454ZM55.190198015213014,31.945473500793458C51.74599801521301,31.14698150079346,48.16449801521301,31.148369500793457,44.72089801521301,31.949532500793456C44.72089801521301,31.949532500793456,44.85359801521301,32.52011050079346,44.85359801521301,32.52011050079346C48.21009801521301,31.73923150079346,51.70079801521301,31.737878500793457,55.05789801521301,32.51615050079346C55.05789801521301,32.51615050079346,55.190198015213014,31.945473500793458,55.190198015213014,31.945473500793458C55.190198015213014,31.945473500793458,55.190198015213014,31.945473500793458,55.190198015213014,31.945473500793458Z" fill="url(#master_svg1_78_165052)" fill-opacity="1"/></g><g style="mix-blend-mode:passthrough"><path d="M54.898931766653064,24.460931444000245C51.49833176665306,23.672547444000244,47.96223176665306,23.673918444000243,44.56213176665306,24.464944444000245L31.49743176665306,27.504447444000245L2.717429766653061,27.504447444000245L2.717429766653061,34.20785744400024C2.222828766653061,34.40715744400025,2.235611766653061,35.155357444000245,2.784033766653061,35.31195744400024L43.468931766653064,46.927657444000246C47.56153176665306,48.09615744400024,51.89923176665306,48.09805744400025,55.99293176665306,46.93345744400024L96.84123176665307,35.31215744400024C97.38733176665306,35.156857444000245,97.40273176665306,34.415457444000246,96.91643176665306,34.211257444000246L96.91643176665306,27.504447444000245L68.02703176665307,27.504447444000245L54.898931766653064,24.460931444000245Z" fill-rule="evenodd" fill="url(#master_svg2_78_023903)" fill-opacity="1"/><path d="M54.78603176665306,24.948017444000243Q49.73033176665306,23.775930844000243,44.67543176665306,24.951937444000244L31.55483176665306,28.004447444000245L2.717429766653061,28.004447444000245L2.717429766653061,27.504447444000245L3.217429766653061,27.504447444000245L3.217429766653061,34.545357444000246L2.9043457666530608,34.67155744400024Q2.8564127666530608,34.69095744400025,2.859139766653061,34.75455744400024Q2.861695766653061,34.814157444000244,2.921324766653061,34.831257444000244L43.606131766653064,46.446857444000244Q49.73033176665306,48.19525744400025,55.856131766653064,46.45255744400025L96.70443176665306,34.83115744400024Q96.76373176665307,34.814357444000244,96.76653176665306,34.75545744400024Q96.76973176665307,34.691957444000245,96.72283176665306,34.672257444000245L96.41643176665306,34.54355744400024L96.41643176665306,27.504447444000245L96.91643176665306,27.504447444000245L96.91643176665306,28.004447444000245L67.96983176665306,28.004447444000245L54.78603176665306,24.948017444000243L54.78603176665306,24.948017444000243ZM55.01193176665306,23.973849444000244L68.13993176665306,27.017367444000243L68.02703176665307,27.504447444000245L68.02703176665307,27.004447444000245L97.41643176665306,27.004447444000245L97.41643176665306,34.211257444000246L96.91643176665306,34.211257444000246L97.11003176665307,33.75023744400025Q97.80283176665306,34.041257444000244,97.76533176665306,34.804557444000245Q97.72723176665306,35.580057444000246,96.97803176665306,35.79305744400024L56.12983176665306,47.414357444000245Q49.729831766653064,49.235157444000244,43.33163176665306,47.40845744400025L2.6467427666530607,35.792757444000245Q1.8934997666530609,35.577657444000245,1.860056766653061,34.79735744400024Q1.827067766653061,34.02765744400024,2.5305147666530607,33.744097444000246L2.717429766653061,34.20785744400024L2.217429766653061,34.20785744400024L2.217429766653061,27.004447444000245L31.49743176665306,27.004447444000245L31.49743176665306,27.504447444000245L31.38413176665306,27.017457444000243L44.44883176665306,23.977949444000245Q49.729831766653064,22.749317444000244,55.01193176665306,23.973849444000244L55.01193176665306,23.973849444000244Z" fill="url(#master_svg3_78_023906)" fill-opacity="1"/></g><g style="mix-blend-mode:passthrough"><path d="M44.78720984277725,16.680441937744142C48.18730984277725,15.88941593774414,51.72340984277725,15.88804493774414,55.124009842777255,16.67642893774414C55.124009842777255,16.67642893774414,97.03820984277725,26.393554937744142,97.03820984277725,26.393554937744142C97.62750984277726,26.530154937744143,97.64860984277725,27.36205493774414,97.06630984277726,27.52765493774414C97.06630984277726,27.52765493774414,56.21800984277725,39.148954937744136,56.21800984277725,39.148954937744136C52.12430984277725,40.313554937744144,47.78660984277725,40.31165493774414,43.694009842777255,39.14315493774414C43.694009842777255,39.14315493774414,3.0091118427772523,27.52745493774414,3.0091118427772523,27.52745493774414C2.427725842777252,27.361454937744142,2.4483058427772524,26.53065493774414,3.037189842777252,26.393554937744142C3.037189842777252,26.393554937744142,44.78720984277725,16.680441937744142,44.78720984277725,16.680441937744142C44.78720984277725,16.680441937744142,44.78720984277725,16.680441937744142,44.78720984277725,16.680441937744142Z" fill-rule="evenodd" fill="#001B1F" fill-opacity="1"/><path d="M2.923890842777252,25.90660493774414L44.67390984277725,16.19344693774414Q49.954909842777255,14.96481493774414,55.237009842777255,16.18934693774414L97.15110984277725,25.90645493774414Q97.53870984277725,25.99629493774414,97.77130984277726,26.30275493774414Q97.98250984277725,26.58095493774414,97.99140984277726,26.937254937744143Q98.00040984277726,27.29355493774414,97.80320984277725,27.58195493774414Q97.58600984277726,27.89965493774414,97.20300984277725,28.00855493774414L56.35490984277725,39.62985493774414Q49.954909842777255,41.45065493774414,43.55670984277725,39.623954937744145L2.8718448427772523,28.00825493774414Q2.489461742777252,27.89905493774414,2.272561842777252,27.58155493774414Q2.0756348427772524,27.29335493774414,2.084452842777252,26.937254937744143Q2.093270842777252,26.58125493774414,2.304225842777252,26.303054937744143Q2.536578242777252,25.99672493774414,2.9238768427772523,25.90660493774414L2.923890842777252,25.90660493774414ZM3.1505028427772523,26.88055493774414Q3.0857908427772522,26.89565493774414,3.0841458427772523,26.962054937744142Q3.082501842777252,27.02845493774414,3.146377842777252,27.04675493774414L43.831209842777255,38.66235493774414Q49.95540984277725,40.41085493774414,56.081209842777255,38.668054937744145L96.92960984277725,27.04665493774414Q96.99340984277725,27.02855493774414,96.99180984277726,26.96225493774414Q96.99010984277726,26.89565493774414,96.92530984277725,26.88065493774414L55.01110984277725,17.16351493774414Q49.95540984277725,15.991427437744141,44.900509842777254,17.16743493774414L3.150488842777252,26.88055493774414L3.1505028427772523,26.88055493774414Z" fill="url(#master_svg4_78_023850)" fill-opacity="1"/></g><g style="mix-blend-mode:passthrough"><path d="M13.74046979560852,26.65221708381653C13.74046979560852,26.65221708381653,13.60772679560852,26.08169708381653,13.60772679560852,26.08169708381653C13.60772679560852,26.08169708381653,13.74046979560852,26.65221708381653,13.74046979560852,26.65221708381653C13.74046979560852,26.65221708381653,13.74046979560852,26.65221708381653,13.74046979560852,26.65221708381653ZM56.00536979560852,36.29108708381653C56.00536979560852,36.29108708381653,55.845069795608524,35.72758708381653,55.845069795608524,35.72758708381653C55.845069795608524,35.72758708381653,56.00536979560852,36.29108708381653,56.00536979560852,36.29108708381653C56.00536979560852,36.29108708381653,56.00536979560852,36.29108708381653,56.00536979560852,36.29108708381653ZM85.89936979560852,27.786297083816528C85.89936979560852,27.786297083816528,86.05926979560851,28.349687083816526,86.05926979560851,28.349687083816526C86.05926979560851,28.349687083816526,85.89936979560852,27.786297083816528,85.89936979560852,27.786297083816528C85.89936979560852,27.786297083816528,85.89936979560852,27.786297083816528,85.89936979560852,27.786297083816528ZM54.77906979560852,20.04535708381653C54.77906979560852,20.04535708381653,85.73886979560852,27.22285708381653,85.73886979560852,27.22285708381653C85.73886979560852,27.22285708381653,86.00366979560852,26.081457083816527,86.00366979560852,26.081457083816527C86.00366979560852,26.081457083816527,55.04366979560852,18.903997083816527,55.04366979560852,18.903997083816527C55.04366979560852,18.903997083816527,54.77906979560852,20.04535708381653,54.77906979560852,20.04535708381653C54.77906979560852,20.04535708381653,54.77906979560852,20.04535708381653,54.77906979560852,20.04535708381653ZM85.73886979560852,27.22285708381653C85.73886979560852,27.22285708381653,55.845069795608524,35.72758708381653,55.845069795608524,35.72758708381653C55.845069795608524,35.72758708381653,56.16566979560852,36.85448708381653,56.16566979560852,36.85448708381653C56.16566979560852,36.85448708381653,86.05926979560851,28.349687083816526,86.05926979560851,28.349687083816526C86.05926979560851,28.349687083816526,85.73886979560852,27.22285708381653,85.73886979560852,27.22285708381653C85.73886979560852,27.22285708381653,85.73886979560852,27.22285708381653,85.73886979560852,27.22285708381653ZM43.642169795608524,35.72198708381653C43.642169795608524,35.72198708381653,13.87321979560852,27.222807083816527,13.87321979560852,27.222807083816527C13.87321979560852,27.222807083816527,13.551570795608521,28.349487083816527,13.551570795608521,28.349487083816527C13.551570795608521,28.349487083816527,43.32046979560852,36.848587083816525,43.32046979560852,36.848587083816525C43.32046979560852,36.848587083816525,43.642169795608524,35.72198708381653,43.642169795608524,35.72198708381653C43.642169795608524,35.72198708381653,43.642169795608524,35.72198708381653,43.642169795608524,35.72198708381653ZM13.87321979560852,27.222807083816527C13.87321979560852,27.222807083816527,44.70726979560852,20.049267083816527,44.70726979560852,20.049267083816527C44.70726979560852,20.049267083816527,44.441869795608525,18.908110083816528,44.441869795608525,18.908110083816528C44.441869795608525,18.908110083816528,13.60772679560852,26.08169708381653,13.60772679560852,26.08169708381653C13.60772679560852,26.08169708381653,13.87321979560852,27.222807083816527,13.87321979560852,27.222807083816527C13.87321979560852,27.222807083816527,13.87321979560852,27.222807083816527,13.87321979560852,27.222807083816527ZM13.87321979560852,27.222807083816527C13.87321979560852,27.222807083816527,13.87321979560852,27.222807083816527,13.87321979560852,27.222807083816527C13.87321979560852,27.222807083816527,13.60772679560852,26.08169708381653,13.60772679560852,26.08169708381653C12.42994079560852,26.35567708381653,12.38882279560852,28.01745708381653,13.551570795608521,28.349487083816527C13.551570795608521,28.349487083816527,13.87321979560852,27.222807083816527,13.87321979560852,27.222807083816527C13.87321979560852,27.222807083816527,13.87321979560852,27.222807083816527,13.87321979560852,27.222807083816527ZM55.845069795608524,35.72758708381653C51.85626979560852,36.86248708381653,47.62986979560852,36.86048708381653,43.642169795608524,35.72198708381653C43.642169795608524,35.72198708381653,43.32046979560852,36.848587083816525,43.32046979560852,36.848587083816525C47.51806979560852,38.04698708381653,51.96696979560852,38.04908708381653,56.16566979560852,36.85448708381653C56.16566979560852,36.85448708381653,55.845069795608524,35.72758708381653,55.845069795608524,35.72758708381653C55.845069795608524,35.72758708381653,55.845069795608524,35.72758708381653,55.845069795608524,35.72758708381653ZM85.73886979560852,27.22285708381653C85.73886979560852,27.22285708381653,85.73886979560852,27.22285708381653,85.73886979560852,27.22285708381653C85.73886979560852,27.22285708381653,86.05926979560851,28.349687083816526,86.05926979560851,28.349687083816526C87.22336979560852,28.018577083816528,87.18226979560852,26.35479708381653,86.00366979560852,26.081457083816527C86.00366979560852,26.081457083816527,85.73886979560852,27.22285708381653,85.73886979560852,27.22285708381653C85.73886979560852,27.22285708381653,85.73886979560852,27.22285708381653,85.73886979560852,27.22285708381653ZM55.04366979560852,18.903997083816527C51.55586979560852,18.095396083816528,47.92906979560852,18.096805083816527,44.441869795608525,18.908110083816528C44.441869795608525,18.908110083816528,44.70726979560852,20.049267083816527,44.70726979560852,20.049267083816527C48.020169795608524,19.278520083816527,51.46556979560852,19.27718408381653,54.77906979560852,20.04535708381653C54.77906979560852,20.04535708381653,55.04366979560852,18.903997083816527,55.04366979560852,18.903997083816527C55.04366979560852,18.903997083816527,55.04366979560852,18.903997083816527,55.04366979560852,18.903997083816527Z" fill="#00343D" fill-opacity="1"/></g><g style="mix-blend-mode:passthrough"><path d="M18.78323445832825,34.81975082290039C18.627433458328248,34.77622012290039,18.465842758328247,34.86723342290039,18.42231205832825,35.02303522290039C18.378781358328247,35.178836222900394,18.469794658328247,35.34042622290039,18.625596458328246,35.38395722290039C18.625596458328246,35.38395722290039,18.78323445832825,34.81975082290039,18.78323445832825,34.81975082290039C18.78323445832825,34.81975082290039,18.78323445832825,34.81975082290039,18.78323445832825,34.81975082290039ZM30.631133458328247,38.73828222290039C30.78693345832825,38.78181222290039,30.94853345832825,38.69080222290039,30.992033458328248,38.53500222290039C31.035533458328246,38.37920222290039,30.944533458328245,38.21761222290039,30.788733458328245,38.17408222290039C30.788733458328245,38.17408222290039,30.631133458328247,38.73828222290039,30.631133458328247,38.73828222290039C30.631133458328247,38.73828222290039,30.631133458328247,38.73828222290039,30.631133458328247,38.73828222290039ZM18.625596458328246,35.38395722290039C18.625596458328246,35.38395722290039,30.631133458328247,38.73828222290039,30.631133458328247,38.73828222290039C30.631133458328247,38.73828222290039,30.788733458328245,38.17408222290039,30.788733458328245,38.17408222290039C30.788733458328245,38.17408222290039,18.78323445832825,34.81975082290039,18.78323445832825,34.81975082290039C18.78323445832825,34.81975082290039,18.625596458328246,35.38395722290039,18.625596458328246,35.38395722290039C18.625596458328246,35.38395722290039,18.625596458328246,35.38395722290039,18.625596458328246,35.38395722290039Z" fill="url(#master_svg5_78_165047)" fill-opacity="1"/></g><g style="mix-blend-mode:passthrough"><path d="M18.78323445832825,36.94080261123047C18.627433458328248,36.89727191123047,18.465842758328247,36.98828521123047,18.42231205832825,37.14408701123047C18.378781358328247,37.29988801123047,18.469794658328247,37.46147801123047,18.625596458328246,37.50500901123047C18.625596458328246,37.50500901123047,18.78323445832825,36.94080261123047,18.78323445832825,36.94080261123047C18.78323445832825,36.94080261123047,18.78323445832825,36.94080261123047,18.78323445832825,36.94080261123047ZM30.631133458328247,40.859334011230466C30.78693345832825,40.90286401123047,30.94853345832825,40.811854011230466,30.992033458328248,40.65605401123047C31.035533458328246,40.50025401123047,30.944533458328245,40.33866401123047,30.788733458328245,40.295134011230466C30.788733458328245,40.295134011230466,30.631133458328247,40.859334011230466,30.631133458328247,40.859334011230466C30.631133458328247,40.859334011230466,30.631133458328247,40.859334011230466,30.631133458328247,40.859334011230466ZM18.625596458328246,37.50500901123047C18.625596458328246,37.50500901123047,30.631133458328247,40.859334011230466,30.631133458328247,40.859334011230466C30.631133458328247,40.859334011230466,30.788733458328245,40.295134011230466,30.788733458328245,40.295134011230466C30.788733458328245,40.295134011230466,18.78323445832825,36.94080261123047,18.78323445832825,36.94080261123047C18.78323445832825,36.94080261123047,18.625596458328246,37.50500901123047,18.625596458328246,37.50500901123047C18.625596458328246,37.50500901123047,18.625596458328246,37.50500901123047,18.625596458328246,37.50500901123047Z" fill="url(#master_svg6_78_165047)" fill-opacity="1"/></g><g style="mix-blend-mode:passthrough"><path d="M69.5807702549591,39.51321911853027C69.5807702549591,39.35145111853027,69.4496312549591,39.22031211853027,69.2878632549591,39.22031211853027C69.12609525495911,39.22031211853027,68.9949562549591,39.35145111853027,68.9949562549591,39.51321911853027C68.9949562549591,39.51321911853027,69.5807702549591,39.51321911853027,69.5807702549591,39.51321911853027C69.5807702549591,39.51321911853027,69.5807702549591,39.51321911853027,69.5807702549591,39.51321911853027ZM68.9949562549591,42.160432118530274C68.9949562549591,42.32220211853027,69.12609525495911,42.45334211853027,69.2878632549591,42.45334211853027C69.4496312549591,42.45334211853027,69.5807702549591,42.32220211853027,69.5807702549591,42.160432118530274C69.5807702549591,42.160432118530274,68.9949562549591,42.160432118530274,68.9949562549591,42.160432118530274C68.9949562549591,42.160432118530274,68.9949562549591,42.160432118530274,68.9949562549591,42.160432118530274ZM68.9949562549591,39.51321911853027C68.9949562549591,39.51321911853027,68.9949562549591,42.160432118530274,68.9949562549591,42.160432118530274C68.9949562549591,42.160432118530274,69.5807702549591,42.160432118530274,69.5807702549591,42.160432118530274C69.5807702549591,42.160432118530274,69.5807702549591,39.51321911853027,69.5807702549591,39.51321911853027C69.5807702549591,39.51321911853027,68.9949562549591,39.51321911853027,68.9949562549591,39.51321911853027C68.9949562549591,39.51321911853027,68.9949562549591,39.51321911853027,68.9949562549591,39.51321911853027Z" fill="url(#master_svg7_78_165039)" fill-opacity="1"/></g><g style="mix-blend-mode:passthrough"><path d="M71.6897027500763,38.8062012199707C71.6897027500763,38.6444332199707,71.55856375007629,38.5132942199707,71.3967957500763,38.5132942199707C71.2350277500763,38.5132942199707,71.1038887500763,38.6444332199707,71.1038887500763,38.8062012199707C71.1038887500763,38.8062012199707,71.6897027500763,38.8062012199707,71.6897027500763,38.8062012199707C71.6897027500763,38.8062012199707,71.6897027500763,38.8062012199707,71.6897027500763,38.8062012199707ZM71.1038887500763,41.4534142199707C71.1038887500763,41.6151842199707,71.2350277500763,41.7463242199707,71.3967957500763,41.7463242199707C71.55856375007629,41.7463242199707,71.6897027500763,41.6151842199707,71.6897027500763,41.4534142199707C71.6897027500763,41.4534142199707,71.1038887500763,41.4534142199707,71.1038887500763,41.4534142199707C71.1038887500763,41.4534142199707,71.1038887500763,41.4534142199707,71.1038887500763,41.4534142199707ZM71.1038887500763,38.8062012199707C71.1038887500763,38.8062012199707,71.1038887500763,41.4534142199707,71.1038887500763,41.4534142199707C71.1038887500763,41.4534142199707,71.6897027500763,41.4534142199707,71.6897027500763,41.4534142199707C71.6897027500763,41.4534142199707,71.6897027500763,38.8062012199707,71.6897027500763,38.8062012199707C71.6897027500763,38.8062012199707,71.1038887500763,38.8062012199707,71.1038887500763,38.8062012199707C71.1038887500763,38.8062012199707,71.1038887500763,38.8062012199707,71.1038887500763,38.8062012199707Z" fill="url(#master_svg8_78_165039)" fill-opacity="1"/></g><g style="mix-blend-mode:passthrough"><path d="M73.79863524519348,38.099185228759765C73.79863524519348,37.93741722875976,73.66749624519348,37.806278228759766,73.50572824519348,37.806278228759766C73.34396024519349,37.806278228759766,73.21282124519348,37.93741722875976,73.21282124519348,38.099185228759765C73.21282124519348,38.099185228759765,73.79863524519348,38.099185228759765,73.79863524519348,38.099185228759765C73.79863524519348,38.099185228759765,73.79863524519348,38.099185228759765,73.79863524519348,38.099185228759765ZM73.21282124519348,40.746398228759766C73.21282124519348,40.90816822875976,73.34396024519349,41.039308228759765,73.50572824519348,41.039308228759765C73.66749624519348,41.039308228759765,73.79863524519348,40.90816822875976,73.79863524519348,40.746398228759766C73.79863524519348,40.746398228759766,73.21282124519348,40.746398228759766,73.21282124519348,40.746398228759766C73.21282124519348,40.746398228759766,73.21282124519348,40.746398228759766,73.21282124519348,40.746398228759766ZM73.21282124519348,38.099185228759765C73.21282124519348,38.099185228759765,73.21282124519348,40.746398228759766,73.21282124519348,40.746398228759766C73.21282124519348,40.746398228759766,73.79863524519348,40.746398228759766,73.79863524519348,40.746398228759766C73.79863524519348,40.746398228759766,73.79863524519348,38.099185228759765,73.79863524519348,38.099185228759765C73.79863524519348,38.099185228759765,73.21282124519348,38.099185228759765,73.21282124519348,38.099185228759765C73.21282124519348,38.099185228759765,73.21282124519348,38.099185228759765,73.21282124519348,38.099185228759765Z" fill="url(#master_svg9_78_165039)" fill-opacity="1"/></g><g style="mix-blend-mode:passthrough"><path d="M75.9075753697052,37.39216542285156C75.9075753697052,37.23039742285156,75.7764363697052,37.09925842285156,75.6146683697052,37.09925842285156C75.4529003697052,37.09925842285156,75.3217613697052,37.23039742285156,75.3217613697052,37.39216542285156C75.3217613697052,37.39216542285156,75.9075753697052,37.39216542285156,75.9075753697052,37.39216542285156C75.9075753697052,37.39216542285156,75.9075753697052,37.39216542285156,75.9075753697052,37.39216542285156ZM75.3217613697052,40.03937842285156C75.3217613697052,40.20114842285156,75.4529003697052,40.33228842285156,75.6146683697052,40.33228842285156C75.7764363697052,40.33228842285156,75.9075753697052,40.20114842285156,75.9075753697052,40.03937842285156C75.9075753697052,40.03937842285156,75.3217613697052,40.03937842285156,75.3217613697052,40.03937842285156C75.3217613697052,40.03937842285156,75.3217613697052,40.03937842285156,75.3217613697052,40.03937842285156ZM75.3217613697052,37.39216542285156C75.3217613697052,37.39216542285156,75.3217613697052,40.03937842285156,75.3217613697052,40.03937842285156C75.3217613697052,40.03937842285156,75.9075753697052,40.03937842285156,75.9075753697052,40.03937842285156C75.9075753697052,40.03937842285156,75.9075753697052,37.39216542285156,75.9075753697052,37.39216542285156C75.9075753697052,37.39216542285156,75.3217613697052,37.39216542285156,75.3217613697052,37.39216542285156C75.3217613697052,37.39216542285156,75.3217613697052,37.39216542285156,75.3217613697052,37.39216542285156Z" fill="url(#master_svga_78_165039)" fill-opacity="1"/></g></g><g><path d="M39.772501710510255,27.19001197090149C39.772501710510255,27.19001197090149,8.201401710510254,2.5901119709014893,8.201401710510254,2.5901119709014893C8.201401710510254,2.5901119709014893,87.87220171051025,2.5901119709014893,87.87220171051025,2.5901119709014893C87.87220171051025,2.5901119709014893,59.59190171051026,27.194311970901488,59.59190171051026,27.194311970901488C59.59190171051026,27.194311970901488,39.772501710510255,27.19001197090149,39.772501710510255,27.19001197090149C39.772501710510255,27.19001197090149,39.772501710510255,27.19001197090149,39.772501710510255,27.19001197090149Z" fill-rule="evenodd" fill="url(#master_svgb_236_35682)" fill-opacity="1"/></g><g style="mix-blend-mode:passthrough" transform="matrix(0.9961947202682495,0.08715574443340302,-0.08715574443340302,0.9961947202682495,0.00922696486961172,-0.21133347579204909)"><g style="mix-blend-mode:passthrough"><path d="M6.54752769832611,0.5518639976531983C6.54752769832611,0.5518639976531983,7.14986769832611,1.1932012976531983,7.14986769832611,2.216348297653198C7.14986769832611,3.2394882976531982,6.382337698326111,3.9962882976531984,6.244097698326111,3.9962882976531984C6.105857698326111,3.9962882976531984,5.883197698326111,4.093758297653198,5.883197698326111,4.208558297653198C5.883197698326111,4.323358297653199,5.578437698326111,5.220298297653199,5.578437698326111,5.220298297653199C5.578437698326111,5.220298297653199,4.052813698326111,5.017358297653198,4.052813698326111,5.017358297653198C4.052813698326111,5.017358297653198,3.634977698326111,3.012728297653198,3.634977698326111,3.012728297653198C3.634977698326111,3.012728297653198,3.8328756983261107,0.8051682976531982,4.052813698326111,0.8051682976531982C4.09838069832611,0.8051682976531982,4.359454698326111,0.5681727976531983,4.537319698326111,0.5518639976531983C4.931797698326111,0.5156935976531982,6.54752769832611,0.5518639976531983,6.54752769832611,0.5518639976531983C6.54752769832611,0.5518639976531983,6.54752769832611,0.5518639976531983,6.54752769832611,0.5518639976531983Z" fill-rule="evenodd" fill="#FFACAC" fill-opacity="1"/></g><g style="mix-blend-mode:passthrough"><path d="M7.074392119121551,0.435961C7.074392119121551,0.435961,6.894242119121552,1.13084,6.3004321191215515,1.5226C5.962422119121552,1.79375,5.830442119121551,2.28752,6.009332119121551,2.58241C5.683492119121551,2.44834,5.094722119121552,2.10891,5.094722119121552,2.58241C5.094722119121552,3.05591,5.4968721191215515,3.3871,5.4968721191215515,3.3871C5.4968721191215515,3.3871,5.027402119121552,4.07754,4.600182119121552,4.07754C4.172972119121551,4.07754,3.8287411191215517,3.86661,3.4429171191215513,3.15378C3.0570915191215513,2.44095,2.5712261191215515,1.26956,3.5408591191215515,0.527457C4.510492119121551,-0.214645,5.4968721191215515,0.0434257,5.4968721191215515,0.0434257C5.4968721191215515,0.0434257,7.074392119121551,0.435961,7.074392119121551,0.435961C7.074392119121551,0.435961,7.074392119121551,0.435961,7.074392119121551,0.435961Z" fill-rule="evenodd" fill="url(#master_svgc_78_165213)" fill-opacity="1"/></g><g style="mix-blend-mode:passthrough"><path d="M2.7566507756710052,11.88164234161377C2.7566507756710052,11.88164234161377,2.910237775671005,13.297242341613769,2.910237775671005,13.59696234161377C2.910237775671005,13.896682341613769,3.582168775671005,14.22490234161377,3.582168775671005,14.22490234161377C3.582168775671005,14.22490234161377,3.928280775671005,13.59696234161377,3.928280775671005,13.59696234161377C3.928280775671005,13.59696234161377,3.582168775671005,12.51144534161377,3.582168775671005,12.51144534161377C3.582168775671005,12.51144534161377,2.7566507756710052,11.88164234161377,2.7566507756710052,11.88164234161377C2.7566507756710052,11.88164234161377,2.7566507756710052,11.88164234161377,2.7566507756710052,11.88164234161377Z" fill-rule="evenodd" fill="#FFACAC" fill-opacity="1"/></g><g style="mix-blend-mode:passthrough"><path d="M8.19851499433899,26.712620880737305C8.19851499433899,26.712620880737305,7.931262994338989,27.677700880737305,8.19851499433899,27.811420880737305C8.46576599433899,27.945150880737305,10.21857599433899,26.835690880737303,10.36669599433899,26.174363880737303C10.514815994338989,25.513041780737304,10.133665994338989,25.479230880737305,10.133665994338989,25.479230880737305C10.133665994338989,25.479230880737305,8.19851499433899,26.712620880737305,8.19851499433899,26.712620880737305C8.19851499433899,26.712620880737305,8.19851499433899,26.712620880737305,8.19851499433899,26.712620880737305Z" fill-rule="evenodd" fill="#152144" fill-opacity="1"/></g><g style="mix-blend-mode:passthrough"><path d="M5.135020098983764,25.254062741088866C5.135020098983764,25.254062741088866,4.852562098983765,26.187612741088866,5.135020098983764,26.31697274108887C5.417477098983765,26.446322741088867,7.1366930989837645,25.295912741088866,7.293243098983765,24.656189741088866C7.449783098983765,24.016469141088866,7.046943098983764,23.983762741088867,7.046943098983764,23.983762741088867C7.046943098983764,23.983762741088867,5.135020098983764,25.254062741088866,5.135020098983764,25.254062741088866C5.135020098983764,25.254062741088866,5.135020098983764,25.254062741088866,5.135020098983764,25.254062741088866Z" fill-rule="evenodd" fill="#152144" fill-opacity="1"/></g><g style="mix-blend-mode:passthrough"><path d="M3.2894065380096436,13.539093971252441C3.2894065380096436,13.539093971252441,3.4148945380096434,14.60184397125244,3.6254985380096434,15.966123971252442C4.405866538009644,21.56434397125244,4.8434165380096434,24.413093971252444,4.938136538009644,24.51229397125244C5.099476538009643,24.68139397125244,6.218476538009643,24.836093971252442,6.218476538009643,24.28609397125244C6.218476538009643,23.73609397125244,6.218476538009643,14.16842897125244,6.218476538009643,14.16842897125244C6.218476538009643,14.16842897125244,3.2894065380096436,13.539093971252441,3.2894065380096436,13.539093971252441C3.2894065380096436,13.539093971252441,3.2894065380096436,13.539093971252441,3.2894065380096436,13.539093971252441Z" fill-rule="evenodd" fill="#FFC12A" fill-opacity="1"/></g><g style="mix-blend-mode:passthrough"><path d="M4.504318952560425,12.772350311279297C4.504318952560425,12.772350311279297,5.382414952560425,14.726080311279297,6.016738952560425,15.944680311279297C6.134808952560425,16.233240311279296,7.375298952560424,20.170310311279298,7.6402589525604245,21.637540311279295C7.905198952560425,23.104750311279297,8.326758952560425,26.1660503112793,8.326758952560425,26.1660503112793C8.326758952560425,26.1660503112793,9.190808952560424,26.414250311279297,9.190808952560424,25.892850311279297C9.190808952560424,25.371550311279297,8.891838952560425,19.785020311279297,8.804338952560425,19.509220311279297C8.716838952560424,19.233410311279297,7.977178952560425,13.908030311279298,7.410588952560425,13.431046311279296C6.844008952560425,12.954064311279296,4.504318952560425,12.772350311279297,4.504318952560425,12.772350311279297C4.504318952560425,12.772350311279297,4.504318952560425,12.772350311279297,4.504318952560425,12.772350311279297Z" fill-rule="evenodd" fill="#FFF52E" fill-opacity="1"/></g><g style="mix-blend-mode:passthrough"><path d="M3.5962196535491944,5.452173233032227C3.5962196535491944,5.452173233032227,2.4247796535491943,7.342833233032227,2.4247796535491943,10.216773233032226C2.4247796535491943,13.090723233032227,3.5964096535491943,13.067583233032227,3.5964096535491943,13.067583233032227C3.5964096535491943,13.067583233032227,3.5962196535491944,5.452173233032227,3.5962196535491944,5.452173233032227C3.5962196535491944,5.452173233032227,3.5962196535491944,5.452173233032227,3.5962196535491944,5.452173233032227Z" fill-rule="evenodd" fill="#51AEFF" fill-opacity="1"/></g><g style="mix-blend-mode:passthrough"><path d="M3.716415315395355,4.69820371895752C4.060424315395355,4.544252618957519,6.8907043153953556,4.86171361895752,6.944284315395356,5.51868261895752C6.9978743153953555,6.17564161895752,7.871674315395355,13.163761618957519,7.722034315395355,13.46961161895752C7.572394315395355,13.77547161895752,7.743594315395355,14.71090161895752,6.165824315395355,14.61136161895752C4.588054315395356,14.51189161895752,3.3004023153953552,14.44986161895752,3.1049107153953552,13.350281618957519C2.893065315395355,6.179951618957519,3.372410315395355,4.8521546189575195,3.716415315395355,4.69820371895752C3.716415315395355,4.69820371895752,3.716415315395355,4.69820371895752,3.716415315395355,4.69820371895752Z" fill-rule="evenodd" fill="#1993FC" fill-opacity="1"/></g><g style="mix-blend-mode:passthrough"><path d="M8.162089586257935,13.954070417114258C8.162089586257935,13.954070417114258,8.282579586257935,14.430376417114259,8.282579586257935,14.527469417114258C8.282579586257935,14.624562417114259,8.475350586257935,14.930329417114258,8.825957586257935,14.930329417114258C9.176559586257934,14.930329417114258,9.333709586257935,14.854669417114257,9.333709586257935,14.691070417114258C9.333709586257935,14.527469417114258,9.336389586257935,14.200775417114258,9.228549586257934,14.200775417114258C9.120716586257934,14.200775417114258,8.747909586257935,13.954070417114258,8.747903586257934,13.954070417114258C8.747901586257935,13.954070417114258,8.553132586257934,13.758699417114258,8.553132586257934,13.758699417114258C8.553132586257934,13.758699417114258,8.162089586257935,13.954070417114258,8.162089586257935,13.954070417114258C8.162089586257935,13.954070417114258,8.162089586257935,13.954070417114258,8.162089586257935,13.954070417114258Z" fill-rule="evenodd" fill="#FFACAC" fill-opacity="1"/></g><g style="mix-blend-mode:passthrough"><path d="M6.129778314544677,5.430590970001221C5.888042414544678,6.32635097000122,5.888042414544678,8.460090970001222,6.129778314544677,9.771850970001221C6.371514314544678,11.08363097000122,7.517846314544678,13.26953097000122,8.055236314544677,13.26953097000122C8.592626314544678,13.26953097000122,8.877546314544677,12.78881097000122,8.877546314544677,12.78881097000122C8.877546314544677,12.78881097000122,7.570406314544678,9.99826097000122,7.4432263145446775,9.13533097000122C7.316056314544678,8.272400970001222,7.4432263145446775,6.51043097000122,7.4432263145446775,5.567300970001221C7.4432263145446775,5.14325937000122,6.333695314544678,4.76313297000122,6.129778314544677,5.430590970001221C6.129778314544677,5.430590970001221,6.129778314544677,5.430590970001221,6.129778314544677,5.430590970001221Z" fill-rule="evenodd" fill="#51AEFF" fill-opacity="1"/></g></g><g style="mix-blend-mode:passthrough" transform="matrix(-0.9961947202682495,0.08715574443340302,0.08715574443340302,0.9961947202682495,194.7786937382716,-8.504221497111075)"><g style="mix-blend-mode:passthrough"><path d="M101.69774475460052,0.551864057257843C101.69774475460052,0.551864057257843,102.30008475460052,1.193201357257843,102.30008475460052,2.216348357257843C102.30008475460052,3.239488357257843,101.53255475460053,3.996288357257843,101.39431475460053,3.996288357257843C101.25607475460052,3.996288357257843,101.03341475460053,4.093758357257843,101.03341475460053,4.208558357257843C101.03341475460053,4.323358357257844,100.72865475460053,5.220298357257843,100.72865475460053,5.220298357257843C100.72865475460053,5.220298357257843,99.20303075460052,5.017358357257843,99.20303075460052,5.017358357257843C99.20303075460052,5.017358357257843,98.78519475460052,3.012728357257843,98.78519475460052,3.012728357257843C98.78519475460052,3.012728357257843,98.98309275460052,0.805168357257843,99.20303075460052,0.805168357257843C99.24859775460052,0.805168357257843,99.50967175460052,0.5681728572578431,99.68753675460053,0.551864057257843C100.08201475460052,0.515693657257843,101.69774475460052,0.551864057257843,101.69774475460052,0.551864057257843C101.69774475460052,0.551864057257843,101.69774475460052,0.551864057257843,101.69774475460052,0.551864057257843Z" fill-rule="evenodd" fill="#FFACAC" fill-opacity="1"/></g><g style="mix-blend-mode:passthrough"><path d="M102.2246093542099,0.435961C102.2246093542099,0.435961,102.0444593542099,1.13084,101.4506493542099,1.5226C101.1126393542099,1.79375,100.9806593542099,2.28752,101.1595493542099,2.58241C100.8337093542099,2.44834,100.2449393542099,2.10891,100.2449393542099,2.58241C100.2449393542099,3.05591,100.6470893542099,3.3871,100.6470893542099,3.3871C100.6470893542099,3.3871,100.1776193542099,4.07754,99.7503993542099,4.07754C99.3231893542099,4.07754,98.9789583542099,3.86661,98.5931343542099,3.15378C98.2073087542099,2.44095,97.7214433542099,1.26956,98.6910763542099,0.527457C99.6607093542099,-0.214645,100.6470893542099,0.0434257,100.6470893542099,0.0434257C100.6470893542099,0.0434257,102.2246093542099,0.435961,102.2246093542099,0.435961C102.2246093542099,0.435961,102.2246093542099,0.435961,102.2246093542099,0.435961Z" fill-rule="evenodd" fill="url(#master_svgd_78_165213)" fill-opacity="1"/></g><g style="mix-blend-mode:passthrough"><path d="M97.906868070364,11.881645202636719C97.906868070364,11.881645202636719,98.060455070364,13.297245202636718,98.060455070364,13.596965202636719C98.060455070364,13.896685202636718,98.732386070364,14.22490520263672,98.732386070364,14.22490520263672C98.732386070364,14.22490520263672,99.07849807036399,13.596965202636719,99.07849807036399,13.596965202636719C99.07849807036399,13.596965202636719,98.732386070364,12.51144820263672,98.732386070364,12.51144820263672C98.732386070364,12.51144820263672,97.906868070364,11.881645202636719,97.906868070364,11.881645202636719C97.906868070364,11.881645202636719,97.906868070364,11.881645202636719,97.906868070364,11.881645202636719Z" fill-rule="evenodd" fill="#FFACAC" fill-opacity="1"/></g><g style="mix-blend-mode:passthrough"><path d="M103.34873228903199,26.71262469543457C103.34873228903199,26.71262469543457,103.08148028903199,27.67770469543457,103.34873228903199,27.81142469543457C103.61598328903199,27.94515469543457,105.36879328903198,26.83569469543457,105.51691328903198,26.17436769543457C105.66503328903198,25.51304559543457,105.28388328903198,25.47923469543457,105.28388328903198,25.47923469543457C105.28388328903198,25.47923469543457,103.34873228903199,26.71262469543457,103.34873228903199,26.71262469543457C103.34873228903199,26.71262469543457,103.34873228903199,26.71262469543457,103.34873228903199,26.71262469543457Z" fill-rule="evenodd" fill="#152144" fill-opacity="1"/></g><g style="mix-blend-mode:passthrough"><path d="M100.28523739367675,25.2540646484375C100.28523739367675,25.2540646484375,100.00277939367676,26.1876146484375,100.28523739367675,26.3169746484375C100.56769439367676,26.4463246484375,102.28691039367676,25.2959146484375,102.44346039367676,24.6561916484375C102.60000039367675,24.0164710484375,102.19716039367675,23.9837646484375,102.19716039367675,23.9837646484375C102.19716039367675,23.9837646484375,100.28523739367675,25.2540646484375,100.28523739367675,25.2540646484375C100.28523739367675,25.2540646484375,100.28523739367675,25.2540646484375,100.28523739367675,25.2540646484375Z" fill-rule="evenodd" fill="#152144" fill-opacity="1"/></g><g style="mix-blend-mode:passthrough"><path d="M98.43962371349335,13.539094924926758C98.43962371349335,13.539094924926758,98.56511171349335,14.601844924926757,98.77571571349334,15.966124924926758C99.55608371349335,21.564344924926758,99.99363371349335,24.41309492492676,100.08835371349335,24.512294924926756C100.24969371349334,24.681394924926757,101.36869371349334,24.83609492492676,101.36869371349334,24.286094924926758C101.36869371349334,23.736094924926757,101.36869371349334,14.168429924926757,101.36869371349334,14.168429924926757C101.36869371349334,14.168429924926757,98.43962371349335,13.539094924926758,98.43962371349335,13.539094924926758C98.43962371349335,13.539094924926758,98.43962371349335,13.539094924926758,98.43962371349335,13.539094924926758Z" fill-rule="evenodd" fill="#FFC12A" fill-opacity="1"/></g><g style="mix-blend-mode:passthrough"><path d="M99.65453624725342,12.77235221862793C99.65453624725342,12.77235221862793,100.53263224725342,14.72608221862793,101.16695624725342,15.94468221862793C101.28502624725341,16.23324221862793,102.52551624725342,20.17031221862793,102.79047624725342,21.637542218627928C103.05541624725342,23.10475221862793,103.47697624725342,26.166052218627932,103.47697624725342,26.166052218627932C103.47697624725342,26.166052218627932,104.34102624725342,26.41425221862793,104.34102624725342,25.89285221862793C104.34102624725342,25.37155221862793,104.04205624725341,19.78502221862793,103.95455624725342,19.50922221862793C103.86705624725342,19.23341221862793,103.12739624725342,13.90803221862793,102.56080624725342,13.431048218627929C101.99422624725342,12.95406621862793,99.65453624725342,12.77235221862793,99.65453624725342,12.77235221862793C99.65453624725342,12.77235221862793,99.65453624725342,12.77235221862793,99.65453624725342,12.77235221862793Z" fill-rule="evenodd" fill="#FFF52E" fill-opacity="1"/></g><g style="mix-blend-mode:passthrough"><path d="M98.74643694824219,5.452174186706543C98.74643694824219,5.452174186706543,97.57499694824219,7.342834186706543,97.57499694824219,10.216774186706543C97.57499694824219,13.090724186706543,98.74662694824218,13.067584186706544,98.74662694824218,13.067584186706544C98.74662694824218,13.067584186706544,98.74643694824219,5.452174186706543,98.74643694824219,5.452174186706543C98.74643694824219,5.452174186706543,98.74643694824219,5.452174186706543,98.74643694824219,5.452174186706543Z" fill-rule="evenodd" fill="#51AEFF" fill-opacity="1"/></g><g style="mix-blend-mode:passthrough"><path d="M98.86663272929763,4.69820371895752C99.21064172929763,4.544252618957519,102.04092172929764,4.86171361895752,102.09450172929763,5.51868261895752C102.14809172929763,6.17564161895752,103.02189172929764,13.163761618957519,102.87225172929763,13.46961161895752C102.72261172929764,13.77547161895752,102.89381172929764,14.71090161895752,101.31604172929764,14.61136161895752C99.73827172929764,14.51189161895752,98.45061972929764,14.44986161895752,98.25512812929763,13.350281618957519C98.04328272929764,6.179951618957519,98.52262772929764,4.8521546189575195,98.86663272929763,4.69820371895752C98.86663272929763,4.69820371895752,98.86663272929763,4.69820371895752,98.86663272929763,4.69820371895752Z" fill-rule="evenodd" fill="#1993FC" fill-opacity="1"/></g><g style="mix-blend-mode:passthrough"><path d="M103.31230688095093,13.95407232446289C103.31230688095093,13.95407232446289,103.43279688095093,14.430378324462891,103.43279688095093,14.52747132446289C103.43279688095093,14.624564324462892,103.62556788095092,14.930331324462891,103.97617488095092,14.930331324462891C104.32677688095093,14.930331324462891,104.48392688095093,14.85467132446289,104.48392688095093,14.69107232446289C104.48392688095093,14.52747132446289,104.48660688095093,14.20077732446289,104.37876688095093,14.20077732446289C104.27093388095093,14.20077732446289,103.89812688095093,13.95407232446289,103.89812088095093,13.95407232446289C103.89811888095093,13.95407232446289,103.70334988095092,13.75870132446289,103.70334988095092,13.75870132446289C103.70334988095092,13.75870132446289,103.31230688095093,13.95407232446289,103.31230688095093,13.95407232446289C103.31230688095093,13.95407232446289,103.31230688095093,13.95407232446289,103.31230688095093,13.95407232446289Z" fill-rule="evenodd" fill="#FFACAC" fill-opacity="1"/></g><g style="mix-blend-mode:passthrough"><path d="M101.27999560923767,5.430590970001221C101.03825970923766,6.32635097000122,101.03825970923766,8.460090970001222,101.27999560923767,9.771850970001221C101.52173160923768,11.08363097000122,102.66806360923768,13.26953097000122,103.20545360923767,13.26953097000122C103.74284360923767,13.26953097000122,104.02776360923767,12.78881097000122,104.02776360923767,12.78881097000122C104.02776360923767,12.78881097000122,102.72062360923768,9.99826097000122,102.59344360923767,9.13533097000122C102.46627360923767,8.272400970001222,102.59344360923767,6.51043097000122,102.59344360923767,5.567300970001221C102.59344360923767,5.14325937000122,101.48391260923768,4.76313297000122,101.27999560923767,5.430590970001221C101.27999560923767,5.430590970001221,101.27999560923767,5.430590970001221,101.27999560923767,5.430590970001221Z" fill-rule="evenodd" fill="#51AEFF" fill-opacity="1"/></g></g></g></svg>