<svg xmlns="http://www.w3.org/2000/svg" xmlns:xlink="http://www.w3.org/1999/xlink" fill="none" version="1.1" width="60" height="81.9150390625" viewBox="0 0 60 81.9150390625"><defs><linearGradient x1="0.9950979351997375" y1="0.736322820186615" x2="0.7437529563903809" y2="-0.05879651755094528" id="master_svg0_78_243659"><stop offset="0%" stop-color="#46BBFF" stop-opacity="0.00009999999747378752"/><stop offset="100%" stop-color="#2286FF" stop-opacity="1"/></linearGradient><linearGradient x1="0.269408255815506" y1="-0.5131137371063232" x2="-0.6937898993492126" y2="0.17782200872898102" id="master_svg1_78_243651"><stop offset="0%" stop-color="#00E4FF" stop-opacity="1"/><stop offset="100%" stop-color="#00C5FF" stop-opacity="0.00009999999747378752"/></linearGradient><linearGradient x1="0.05429720878601074" y1="-0.2629731595516205" x2="-0.22144147753715515" y2="0.8621306419372559" id="master_svg2_78_243671"><stop offset="0%" stop-color="#68ACFF" stop-opacity="0.24991804361343384"/><stop offset="100%" stop-color="#18D5FF" stop-opacity="1"/></linearGradient><linearGradient x1="0.5" y1="1.4724819660186768" x2="1.444963812828064" y2="0.472481906414032" id="master_svg3_78_243667"><stop offset="0%" stop-color="#46F2FF" stop-opacity="0.00009999999747378752"/><stop offset="25.052785873413086%" stop-color="#CBFBFF" stop-opacity="1"/><stop offset="67.53286123275757%" stop-color="#22E0FF" stop-opacity="1"/><stop offset="100%" stop-color="#22E0FF" stop-opacity="0.00009999999747378752"/></linearGradient><linearGradient x1="0" y1="0" x2="0" y2="1" id="master_svg4_78_243663"><stop offset="0%" stop-color="#FFFFFF" stop-opacity="1"/><stop offset="23.891469836235046%" stop-color="#1FE6F9" stop-opacity="1"/><stop offset="100%" stop-color="#3CE2FF" stop-opacity="0.00009999999747378752"/></linearGradient><linearGradient x1="1.4902561902999878" y1="0.5922744274139404" x2="0.5410969853401184" y2="-0.435680627822876" id="master_svg5_78_243655"><stop offset="0%" stop-color="#FFFFFF" stop-opacity="1"/><stop offset="23.891469836235046%" stop-color="#1FE6F9" stop-opacity="1"/><stop offset="100%" stop-color="#3CE2FF" stop-opacity="0.00009999999747378752"/></linearGradient><linearGradient x1="0.022881433367729187" y1="0.045762885361909866" x2="0.022881433367729187" y2="1" id="master_svg6_78_243640"><stop offset="0%" stop-color="#46BBFF" stop-opacity="0.00009999999747378752"/><stop offset="100%" stop-color="#22DEFF" stop-opacity="1"/></linearGradient></defs><g style="mix-blend-mode:passthrough"><g style="mix-blend-mode:passthrough"><g style="opacity:0.2785760760307312;"><path d="M22.07589340209961,48.77509132324219C22.07589340209961,48.77509132324219,57.73629340209961,43.97148132324219,57.73629340209961,43.97148132324219C57.73629340209961,43.97148132324219,49.40699340209961,76.19648132324218,49.40699340209961,76.19648132324218C49.40699340209961,76.19648132324218,22.07589340209961,81.00018132324219,22.07589340209961,81.00018132324219C22.07589340209961,81.00018132324219,22.07589340209961,48.77509132324219,22.07589340209961,48.77509132324219C22.07589340209961,48.77509132324219,22.07589340209961,48.77509132324219,22.07589340209961,48.77509132324219Z" fill-rule="evenodd" fill="url(#master_svg0_78_243659)" fill-opacity="1"/><path d="M21.57589340209961,81.00018132324219L21.57589340209961,48.33793132324219L58.406493402099606,43.37669032324219L49.81049340209961,76.63328132324219L21.57589340209961,81.59568132324219L21.57589340209961,81.00018132324219ZM22.57589340209961,81.00018132324219L22.07589340209961,81.00018132324219L21.98934180209961,80.5076813232422L49.32039340209961,75.70408132324219L49.40699340209961,76.19648132324218L48.92289340209961,76.07138132324218L57.25219340209961,43.84635632324219L57.73629340209961,43.97148132324219L57.80299340209961,44.46700532324219L22.14264270209961,49.27062132324219L22.07589340209961,48.77509132324219L22.57589340209961,48.77509132324219L22.57589340209961,81.00018132324219Z" fill="#2286FF" fill-opacity="1"/></g><g style="opacity:0.5048130750656128;"><path d="M22.07583934645653,81.00011167297363C22.07583934645653,81.00011167297363,22.07583934645653,48.56510167297363,22.07583934645653,48.56510167297363C22.07583934645653,48.56510167297363,1.6985393464565277,38.88501167297363,1.6985393464565277,38.88501167297363C1.6985393464565277,38.88501167297363,5.986109346456527,70.67091167297363,5.986109346456527,70.67091167297363C5.986109346456527,70.67091167297363,22.07583934645653,81.00011167297363,22.07583934645653,81.00011167297363C22.07583934645653,81.00011167297363,22.07583934645653,81.00011167297363,22.07583934645653,81.00011167297363Z" fill-rule="evenodd" fill="url(#master_svg1_78_243651)" fill-opacity="1"/><path d="M6.256229346456528,70.25011167297363L22.34593934645653,80.57941167297363L22.07583934645653,81.00011167297363L21.57583934645653,81.00011167297363L21.57583934645653,48.56510167297363L22.07583934645653,48.56510167297363L21.86133934645653,49.016711672973635L1.4839953464565276,39.33664267297363L1.6985393464565277,38.88501167297363L2.194051346456528,38.818172372973635L6.481619346456528,70.60401167297363L5.986109346456527,70.67091167297363L6.256229346456528,70.25011167297363ZM5.7159993464565275,71.09161167297364L5.521499346456528,70.96681167297363L1.0796883464565277,38.03748267297363L22.57583934645653,48.24908167297363L22.57583934645653,81.91531167297363L5.7159993464565275,71.09161167297364Z" fill="#00C5FF" fill-opacity="1"/></g><g style="opacity:0.701846182346344;"><path d="M22.07583934645653,48.775097656249955C22.07583934645653,48.775097656249955,58.131239346456525,43.971487656249955,58.131239346456525,43.971487656249955C58.131239346456525,43.971487656249955,38.28163934645653,34.47509765624996,38.28163934645653,34.47509765624996C38.28163934645653,34.47509765624996,1.6985393464565277,38.89900765624996,1.6985393464565277,38.89900765624996C1.6985393464565277,38.89900765624996,22.07583934645653,48.775097656249955,22.07583934645653,48.775097656249955C22.07583934645653,48.775097656249955,22.07583934645653,48.775097656249955,22.07583934645653,48.775097656249955Z" fill-rule="evenodd" fill="url(#master_svg2_78_243671)" fill-opacity="1"/><path d="M1.9166083464565278,38.44906765624996L22.29393934645653,48.325197656249955L22.07583934645653,48.775097656249955L22.009839346456527,48.27949765624996L58.065139346456526,43.47586765624996L58.131239346456525,43.971487656249955L57.91543934645653,44.422527656249954L38.06583934645653,34.92613665624996L38.28163934645653,34.47509765624996L38.341639346456525,34.971481656249956L1.7585658464565277,39.39538765624996L1.6985393464565277,38.89900765624996L1.9166083464565278,38.44906765624996ZM1.4804703464565276,39.348947656249955Q1.4239823464565278,39.321567656249954,1.3760143464565278,39.281077656249956Q1.3280463464565277,39.240577656249954,1.2915763464565277,39.18948765624996Q1.2551073464565277,39.13839765624996,1.2323993464565277,39.07986765624996Q1.2096913464565278,39.02134765624996,1.2021553464565278,38.95902765624996Q1.1962433464565279,38.91013765624996,1.1999833464565277,38.861037656249955Q1.2037223464565276,38.81193765624996,1.2169693464565277,38.76449765624996Q1.2302163464565277,38.71706765624996,1.2524623464565277,38.673137656249956Q1.2747083464565276,38.62920765624996,1.3050983464565278,38.59045765624996Q1.3354873464565278,38.55169765624996,1.3728533464565278,38.51962765624996Q1.4102183464565277,38.48754765624996,1.4531243464565278,38.46337765624996Q1.4960303464565277,38.439207656249955,1.5428263464565277,38.42386765624996Q1.5896233464565277,38.40852765624996,1.6385128464565277,38.40261765624996L38.22163934645653,33.97871365624996Q38.36613934645653,33.96123865624996,38.49743934645653,34.024058656249956L58.34693934645653,43.52044765624996Q58.40323934645653,43.547347656249954,58.45113934645653,43.58722765624996Q58.49903934645653,43.62710765624996,58.53563934645653,43.67751765624996Q58.57233934645653,43.727937656249956,58.59543934645653,43.78580765624996Q58.61853934645653,43.84367765624996,58.62683934645653,43.90545765624996Q58.63333934645653,43.954267656249954,58.63013934645653,44.00341765624996Q58.62703934645653,44.052567656249956,58.614339346456525,44.10014765624996Q58.60163934645653,44.14773765624996,58.57993934645653,44.191937656249955Q58.558239346456524,44.23613765624996,58.52833934645653,44.275257656249956Q58.49843934645653,44.314367656249956,58.46143934645653,44.34689765624996Q58.42443934645653,44.37942765624996,58.38183934645653,44.40411765624996Q58.33923934645653,44.42880765624996,58.292639346456525,44.44470765624996Q58.24603934645653,44.460607656249955,58.19723934645653,44.46710765624996L22.141939346456528,49.27069765624996Q21.992939346456527,49.29059765624996,21.85783934645653,49.224997656249954L1.4804703464565276,39.348947656249955Z" fill="#69A0E2" fill-opacity="1"/></g><g style="mix-blend-mode:passthrough"><path d="M57.69284781494141,43.649949073791504C57.69284781494141,43.649949073791504,22.032447814941406,48.4535590737915,22.032447814941406,48.4535590737915C22.032447814941406,48.4535590737915,22.119339814941405,49.096629073791505,22.119339814941405,49.096629073791505C22.119339814941405,49.096629073791505,57.779647814941406,44.293014073791504,57.779647814941406,44.293014073791504C57.779647814941406,44.293014073791504,57.69284781494141,43.649949073791504,57.69284781494141,43.649949073791504C57.69284781494141,43.649949073791504,57.69284781494141,43.649949073791504,57.69284781494141,43.649949073791504Z" fill="url(#master_svg3_78_243667)" fill-opacity="1"/></g><g style="mix-blend-mode:passthrough"><path d="M22.400841044921876,80.04559498596191C22.400841044921876,80.04559498596191,22.400841044921876,48.775094985961914,22.400841044921876,48.775094985961914C22.400841044921876,48.775094985961914,21.750946044921875,48.775094985961914,21.750946044921875,48.775094985961914C21.750946044921875,48.775094985961914,21.750946044921875,80.04559498596191,21.750946044921875,80.04559498596191C21.750946044921875,80.04559498596191,22.400841044921876,80.04559498596191,22.400841044921876,80.04559498596191C22.400841044921876,80.04559498596191,22.400841044921876,80.04559498596191,22.400841044921876,80.04559498596191Z" fill="url(#master_svg4_78_243663)" fill-opacity="1"/></g><g style="mix-blend-mode:passthrough"><path d="M22.217840625,48.483186712799075C22.217840625,48.483186712799075,1.840437625,38.60712671279907,1.840437625,38.60712671279907C1.840437625,38.60712671279907,1.556640625,39.190879712799074,1.556640625,39.190879712799074C1.556640625,39.190879712799074,21.934040625,49.06702671279907,21.934040625,49.06702671279907C21.934040625,49.06702671279907,22.217840625,48.483186712799075,22.217840625,48.483186712799075C22.217840625,48.483186712799075,22.217840625,48.483186712799075,22.217840625,48.483186712799075Z" fill="url(#master_svg5_78_243655)" fill-opacity="1"/></g></g><g style="mix-blend-mode:passthrough"><g style="opacity:0.9022972583770752;"><path d="M13.1235116875,33.9100227355957L13.0185546875,33.9100227355957L13.0185546875,41.176302735595705L13.1238916875,41.176302735595705Q13.1669606875,41.2504127355957,13.2275316875,41.3240627355957Q13.2881026875,41.39772273559571,13.3660486875,41.4707727355957Q13.4439956875,41.5438127355957,13.5391546875,41.6161027355957Q13.6343146875,41.688392735595706,13.7464886875,41.7597627355957Q13.8586636875,41.831142735595705,13.9876216875,41.9014627355957Q14.1165746875,41.97177273559571,14.2620446875,42.0408827355957Q14.4075246875,42.1100027355957,14.569204687500001,42.17776273559571Q14.7308846875,42.2455227355957,14.9084446875,42.311802735595705Q15.086004687500001,42.3780727355957,15.2790646875,42.442712735595705Q15.4721246875,42.507362735595706,15.6802946875,42.570242735595706Q15.8884646875,42.6331327355957,16.1113046875,42.694122735595705Q16.3341446875,42.7551127355957,16.5711946875,42.814082735595704Q16.8082446875,42.87305273559571,17.0590046875,42.929882735595704Q17.3097746875,42.9867127355957,17.5737246875,43.0412827355957Q17.8376846875,43.0958527355957,18.1142946875,43.1480427355957Q18.3908946875,43.2002427355957,18.6795646875,43.249952735595706Q18.9682346875,43.2996627355957,19.2683846875,43.3467927355957Q19.568524687500002,43.3939227355957,19.8795146875,43.4383627355957Q20.1905046875,43.482802735595705,20.5116846875,43.5244727355957Q20.832874687500002,43.566142735595704,21.1635946875,43.6049427355957Q21.494304687499998,43.6437427355957,21.8338646875,43.6796027355957Q22.173424687500003,43.715472735595704,22.5211246875,43.748312735595704Q22.868824687500002,43.781152735595704,23.223954687499997,43.81091273559571Q23.579054687499998,43.8406627355957,23.9408546875,43.867272735595705Q24.302654687500002,43.8938827355957,24.6703546875,43.917322735595704Q25.0380546875,43.9407227355957,25.410954687500002,43.960822735595706Q25.7837546875,43.9810227355957,26.1610546875,43.997822735595705Q26.5382546875,44.014722735595704,26.9191546875,44.028222735595705Q27.299954687499998,44.041722735595705,27.683654687500002,44.0519227355957Q28.0673546875,44.06212273559571,28.4529546875,44.068922735595706Q28.8386546875,44.075722735595704,29.2255546875,44.0791227355957Q29.6123546875,44.0825227355957,29.9996546875,44.0825227355957Q30.3869546875,44.0825227355957,30.7738546875,44.0791227355957Q31.1607546875,44.075722735595704,31.5463546875,44.068922735595706Q31.9320546875,44.06212273559571,32.3156546875,44.0519227355957Q32.699354687500005,44.041722735595705,33.0802546875,44.028222735595705Q33.461054687499995,44.014722735595704,33.8383546875,43.997822735595705Q34.2155546875,43.9810227355957,34.588454687500004,43.960822735595706Q34.9613546875,43.9407227355957,35.329054687500005,43.917322735595704Q35.696754687500004,43.8938827355957,36.0585546875,43.867272735595705Q36.4203546875,43.8406627355957,36.7754546875,43.81091273559571Q37.130554687499995,43.781152735595704,37.4782546875,43.748312735595704Q37.8259546875,43.715472735595704,38.1654546875,43.6796027355957Q38.5050546875,43.6437427355957,38.8357546875,43.6049427355957Q39.1664546875,43.566142735595704,39.4876546875,43.5244727355957Q39.8088546875,43.482802735595705,40.119854687499995,43.4383627355957Q40.4308546875,43.3939227355957,40.7309546875,43.3467927355957Q41.0311546875,43.2996627355957,41.3197546875,43.249952735595706Q41.6084546875,43.2002427355957,41.8850546875,43.1480427355957Q42.161654687500004,43.0958527355957,42.4256546875,43.0412827355957Q42.6895546875,42.9867127355957,42.940354687500005,42.929882735595704Q43.1911546875,42.87305273559571,43.4281546875,42.814082735595704Q43.665254687499996,42.7551127355957,43.8880546875,42.694122735595705Q44.1108546875,42.6331327355957,44.3190546875,42.570242735595706Q44.527254687500005,42.507362735595706,44.7202546875,42.442712735595705Q44.913354687500004,42.3780727355957,45.0909546875,42.311802735595705Q45.2684546875,42.2455227355957,45.4301546875,42.17776273559571Q45.5918546875,42.1100027355957,45.7373546875,42.040892735595705Q45.8827546875,41.97177273559571,46.0117546875,41.9014627355957Q46.1406546875,41.831142735595705,46.2528546875,41.7597627355957Q46.3650546875,41.688392735595706,46.4602546875,41.6161027355957Q46.5553546875,41.5438127355957,46.6333546875,41.4707727355957Q46.7112546875,41.39772273559571,46.7718546875,41.3240627355957Q46.8323546875,41.2504127355957,46.8754546875,41.176302735595705L46.9808546875,41.176302735595705L46.9808546875,33.9100227355957L46.8758546875,33.9100227355957Q46.8328546875,33.9841449355957,46.7723546875,34.057812735595704Q46.7118546875,34.131479735595704,46.6339546875,34.2045397355957Q46.5560546875,34.2775997355957,46.4609546875,34.349899735595706Q46.3658546875,34.422199735595704,46.2537546875,34.4935887355957Q46.1416546875,34.5649787355957,46.0126546875,34.635309735595705Q45.8837546875,34.7056407355957,45.7383546875,34.7747677355957Q45.5929546875,34.84389373559571,45.4312546875,34.9116727355957Q45.2696546875,34.9794527355957,45.0920546875,35.045732735595706Q44.9145546875,35.1120227355957,44.7215546875,35.176682735595705Q44.5284546875,35.2413427355957,44.3203546875,35.3042427355957Q44.112154687499995,35.367142735595706,43.8893546875,35.428142735595706Q43.666554687499996,35.4891527355957,43.4294546875,35.5481327355957Q43.1924546875,35.6071227355957,42.941654687500005,35.6639627355957Q42.6908546875,35.720802735595704,42.4269546875,35.7753927355957Q42.162954687500005,35.8299727355957,41.8863546875,35.8821727355957Q41.6097546875,35.934382735595705,41.321054687499995,35.9841127355957Q41.0323546875,36.0338327355957,40.7322546875,36.0809727355957Q40.4320546875,36.12811273559571,40.1210546875,36.172562735595704Q39.8100546875,36.217022735595705,39.4888546875,36.258702735595705Q39.167654687500004,36.3003727355957,38.8368546875,36.3391927355957Q38.5061546875,36.3780027355957,38.166554687499996,36.4138727355957Q37.8269546875,36.449742735595706,37.4791546875,36.4825927355957Q37.131454687499996,36.515442735595705,36.7762546875,36.545212735595705Q36.4211546875,36.5749727355957,36.059354687500004,36.601582735595706Q35.6974546875,36.6282027355957,35.3297546875,36.651612735595705Q34.9619546875,36.675022735595704,34.589054687499996,36.6951827355957Q34.2161546875,36.7153327355957,33.8388546875,36.732202735595706Q33.4615546875,36.7490627355957,33.0806546875,36.7625927355957Q32.699754687500004,36.776122735595706,32.3160546875,36.786302735595704Q31.9323546875,36.7964727355957,31.5465546875,36.8032627355957Q31.1608546875,36.8100627355957,30.7739546875,36.81346273559571Q30.3870546875,36.816862735595706,29.9996546875,36.816862735595706Q29.6123546875,36.816862735595706,29.2254546875,36.81346273559571Q28.8384546875,36.8100627355957,28.4527546875,36.8032627355957Q28.0670546875,36.7964727355957,27.6833546875,36.786302735595704Q27.299654687500002,36.776122735595706,26.918754687499998,36.7625927355957Q26.5378546875,36.7490627355957,26.1605546875,36.732202735595706Q25.783254687499998,36.7153327355957,25.4102546875,36.6951827355957Q25.0373546875,36.675022735595704,24.6696546875,36.651612735595705Q24.3018546875,36.6282027355957,23.9400546875,36.601582735595706Q23.5782546875,36.5749727355957,23.2230546875,36.545212735595705Q22.8679046875,36.515442735595705,22.520174687500003,36.4825927355957Q22.1724346875,36.449742735595706,21.8328446875,36.4138727355957Q21.493244687500002,36.3780027355957,21.1624946875,36.3391927355957Q20.8317446875,36.3003727355957,20.510534687499998,36.258702735595705Q20.1893246875,36.217022735595705,19.8783146875,36.172562735595704Q19.5673046875,36.12811273559571,19.2671446875,36.0809727355957Q18.9669746875,36.0338327355957,18.6782946875,35.9841127355957Q18.3896046875,35.934382735595705,18.1129946875,35.8821727355957Q17.8363846875,35.8299727355957,17.5724146875,35.7753927355957Q17.3084546875,35.720802735595704,17.0576946875,35.6639627355957Q16.8069346875,35.6071227355957,16.5698846875,35.5481327355957Q16.3328446875,35.4891527355957,16.1100146875,35.428142735595706Q15.8871846875,35.367142735595706,15.6790346875,35.3042427355957Q15.4708846875,35.2413427355957,15.2778446875,35.176682735595705Q15.0847946875,35.1120227355957,14.9072646875,35.045732735595706Q14.7297346875,34.9794527355957,14.5680846875,34.9116727355957Q14.4064346875,34.84389373559571,14.2610046875,34.7747677355957Q14.1155746875,34.7056407355957,13.9866616875,34.635309735595705Q13.857748687499999,34.5649787355957,13.7456236875,34.4935887355957Q13.6334986875,34.422199735595704,13.5383946875,34.349899735595706Q13.4432906875,34.2775997355957,13.3654046875,34.2045397355957Q13.2875196875,34.131479735595704,13.2270146875,34.057812735595704Q13.1665096875,33.9841449355957,13.1235116875,33.9100227355957Z" fill-rule="evenodd" fill="#22F3FF" fill-opacity="1"/></g><g style="opacity:0.866582989692688;"><ellipse cx="29.99968147277832" cy="33.9100227355957" rx="16.98112678527832" ry="3.390979766845703" fill="#79F4FF" fill-opacity="1"/></g></g><g style="opacity:0.280854731798172;"><path d="M0,0C0,0,60,0,60,0C60,0,46.6666,33.9098,46.6666,33.9098C46.6666,33.9098,13.3333,33.9098,13.3333,33.9098C13.3333,33.9098,0,0,0,0C0,0,0,0,0,0Z" fill-rule="evenodd" fill="url(#master_svg6_78_243640)" fill-opacity="1"/></g><g style="mix-blend-mode:passthrough"><path d="M48.9627115625,23.73681640625C48.9627115625,23.73681640625,51.6588315625,25.29101640625,51.6588315625,25.29101640625C51.6588315625,25.29101640625,51.6588315625,28.39940640625,51.6588315625,28.39940640625C51.6588315625,28.39940640625,48.9627115625,29.95361640625,48.9627115625,29.95361640625C48.9627115625,29.95361640625,46.2666015625,28.39940640625,46.2666015625,28.39940640625C46.2666015625,28.39940640625,46.2666015625,25.29101640625,46.2666015625,25.29101640625C46.2666015625,25.29101640625,48.9627115625,23.73681640625,48.9627115625,23.73681640625C48.9627115625,23.73681640625,48.9627115625,23.73681640625,48.9627115625,23.73681640625Z" fill-rule="evenodd" fill="#00C5FF" fill-opacity="0.27365604043006897"/></g><g style="opacity:0.5242745280265808;"><path d="M12.452904375,23.73681640625C12.452904375,23.73681640625,15.884304375,25.71488640625,15.884304375,25.71488640625C15.884304375,25.71488640625,15.884304375,29.67102640625,15.884304375,29.67102640625C15.884304375,29.67102640625,12.452904375,31.64906640625,12.452904375,31.64906640625C12.452904375,31.64906640625,9.021484375,29.67102640625,9.021484375,29.67102640625C9.021484375,29.67102640625,9.021484375,25.71488640625,9.021484375,25.71488640625C9.021484375,25.71488640625,12.452904375,23.73681640625,12.452904375,23.73681640625C12.452904375,23.73681640625,12.452904375,23.73681640625,12.452904375,23.73681640625Z" fill-rule="evenodd" fill="#00C5FF" fill-opacity="0.27365604043006897"/></g><g style="opacity:0.627069354057312;"><path d="M9.9061396875,11.86865234375C9.9061396875,11.86865234375,11.6218496875,12.85768534375,11.6218496875,12.85768534375C11.6218496875,12.85768534375,11.6218496875,14.83576234375,11.6218496875,14.83576234375C11.6218496875,14.83576234375,9.9061396875,15.82479234375,9.9061396875,15.82479234375C9.9061396875,15.82479234375,8.1904296875,14.83576234375,8.1904296875,14.83576234375C8.1904296875,14.83576234375,8.1904296875,12.85768534375,8.1904296875,12.85768534375C8.1904296875,12.85768534375,9.9061396875,11.86865234375,9.9061396875,11.86865234375C9.9061396875,11.86865234375,9.9061396875,11.86865234375,9.9061396875,11.86865234375Z" fill-rule="evenodd" fill="#00C5FF" fill-opacity="0.6495301723480225"/></g><g style="opacity:0.6082589030265808;"><path d="M14.1512740625,17.52001953125C14.1512740625,17.52001953125,15.6218840625,18.36776353125,15.6218840625,18.36776353125C15.6218840625,18.36776353125,15.6218840625,20.06324953125,15.6218840625,20.06324953125C15.6218840625,20.06324953125,14.1512740625,20.91099953125,14.1512740625,20.91099953125C14.1512740625,20.91099953125,12.6806640625,20.06324953125,12.6806640625,20.06324953125C12.6806640625,20.06324953125,12.6806640625,18.36776353125,12.6806640625,18.36776353125C12.6806640625,18.36776353125,14.1512740625,17.52001953125,14.1512740625,17.52001953125C14.1512740625,17.52001953125,14.1512740625,17.52001953125,14.1512740625,17.52001953125Z" fill-rule="evenodd" fill="#00C5FF" fill-opacity="0.3393247425556183"/></g><g style="mix-blend-mode:passthrough"><path d="M47.8299678125,19.21533203125C47.8299678125,19.21533203125,49.5456778125,20.20436503125,49.5456778125,20.20436503125C49.5456778125,20.20436503125,49.5456778125,22.182442031249998,49.5456778125,22.182442031249998C49.5456778125,22.182442031249998,47.8299678125,23.17147203125,47.8299678125,23.17147203125C47.8299678125,23.17147203125,46.1142578125,22.182442031249998,46.1142578125,22.182442031249998C46.1142578125,22.182442031249998,46.1142578125,20.20436503125,46.1142578125,20.20436503125C46.1142578125,20.20436503125,47.8299678125,19.21533203125,47.8299678125,19.21533203125C47.8299678125,19.21533203125,47.8299678125,19.21533203125,47.8299678125,19.21533203125Z" fill-rule="evenodd" fill="#00C5FF" fill-opacity="0.5892154574394226"/></g><g style="opacity:0.2008230984210968;"><path d="M46.698063125,10.73828125C46.698063125,10.73828125,49.394183125,12.29248125,49.394183125,12.29248125C49.394183125,12.29248125,49.394183125,15.40087125,49.394183125,15.40087125C49.394183125,15.40087125,46.698063125,16.95508125,46.698063125,16.95508125C46.698063125,16.95508125,44.001953125,15.40087125,44.001953125,15.40087125C44.001953125,15.40087125,44.001953125,12.29248125,44.001953125,12.29248125C44.001953125,12.29248125,46.698063125,10.73828125,46.698063125,10.73828125C46.698063125,10.73828125,46.698063125,10.73828125,46.698063125,10.73828125Z" fill-rule="evenodd" fill="#00C5FF" fill-opacity="0.5892154574394226"/></g><g style="opacity:0.4943033754825592;"><ellipse cx="11.886958003044128" cy="25.432572722434998" rx="1.1320751905441284" ry="1.1303266286849976" fill="#00FFD4" fill-opacity="1"/></g><g style="mix-blend-mode:passthrough"><ellipse cx="16.41527831554413" cy="28.823197722434998" rx="1.1320751905441284" ry="1.1303266286849976" fill="#00FFD4" fill-opacity="1"/></g><g style="mix-blend-mode:passthrough"><ellipse cx="45.28344237804413" cy="28.258256316184998" rx="1.1320751905441284" ry="1.1303266286849976" fill="#00FFD4" fill-opacity="1"/></g><g style="mix-blend-mode:passthrough"><ellipse cx="49.24535644054413" cy="15.259232878684998" rx="1.1320751905441284" ry="1.1303266286849976" fill="#00FFD4" fill-opacity="1"/></g><g style="mix-blend-mode:passthrough"><ellipse cx="10.189084470272064" cy="20.3459250330925" rx="0.5660375952720642" ry="0.5651633143424988" fill="#00FFD4" fill-opacity="1"/></g><g style="mix-blend-mode:passthrough"><ellipse cx="15.282834470272064" cy="20.9108664393425" rx="0.5660375952720642" ry="0.5651633143424988" fill="#00FFD4" fill-opacity="1"/></g><g style="mix-blend-mode:passthrough"><ellipse cx="43.584592282772064" cy="20.9108664393425" rx="0.5660375952720642" ry="0.5651633143424988" fill="#00FFD4" fill-opacity="1"/></g><g style="opacity:0.5927501916885376;"><ellipse cx="52.075803220272064" cy="14.129128158092499" rx="0.5660375952720642" ry="0.5651633143424988" fill="#00FFD4" fill-opacity="1"/></g></g></svg>