<svg xmlns="http://www.w3.org/2000/svg" xmlns:xlink="http://www.w3.org/1999/xlink" fill="none" version="1.1" width="2061.892578125" height="93.8056640625" viewBox="0 0 2061.892578125 93.8056640625"><defs><linearGradient x1="0.19786521792411804" y1="0" x2="1" y2="1" id="master_svg0_5_856"><stop offset="0%" stop-color="#00E4DF" stop-opacity="0.2531806528568268"/><stop offset="63.71831297874451%" stop-color="#1EFFF5" stop-opacity="1"/><stop offset="80.41292428970337%" stop-color="#1EFFF5" stop-opacity="1"/><stop offset="100%" stop-color="#1EFFF5" stop-opacity="0"/></linearGradient><linearGradient x1="0.9819040298461914" y1="0" x2="0.5" y2="1" id="master_svg1_5_851"><stop offset="0%" stop-color="#00BFFF" stop-opacity="0"/><stop offset="100%" stop-color="#00FFF7" stop-opacity="1"/></linearGradient><linearGradient x1="0.19786521792411804" y1="0" x2="1" y2="1" id="master_svg2_5_920"><stop offset="0%" stop-color="#00E4DF" stop-opacity="0.2531806528568268"/><stop offset="63.71831297874451%" stop-color="#1EFFF5" stop-opacity="1"/><stop offset="80.41292428970337%" stop-color="#1EFFF5" stop-opacity="1"/><stop offset="100%" stop-color="#1EFFF5" stop-opacity="0"/></linearGradient><linearGradient x1="0.9819040298461914" y1="0" x2="0.5" y2="1" id="master_svg3_5_916"><stop offset="0%" stop-color="#00BFFF" stop-opacity="0"/><stop offset="100%" stop-color="#00FFF7" stop-opacity="1"/></linearGradient><filter id="master_svg4_236_52016" filterUnits="objectBoundingBox" color-interpolation-filters="sRGB" x="0" y="0" width="569.56396484375" height="81.28610229492188"><feFlood flood-opacity="0" result="BackgroundImageFix"/><feBlend mode="normal" in="SourceGraphic" in2="BackgroundImageFix" result="shape"/><feColorMatrix in="SourceAlpha" type="matrix" result="hardAlpha" values="0 0 0 0 0 0 0 0 0 0 0 0 0 0 0 0 0 0 127 0"/><feOffset dy="0" dx="0"/><feGaussianBlur stdDeviation="5"/><feComposite in2="hardAlpha" operator="arithmetic" k2="-1" k3="1"/><feColorMatrix type="matrix" values="0 0 0 0 0.05921541526913643 0 0 0 0 1 0 0 0 0 0.9584256410598755 0 0 0 0.7119055390357971 0"/><feBlend mode="normal" in2="shape" result="effect1_innerShadow"/></filter><linearGradient x1="0.03772115334868431" y1="0.26220089197158813" x2="0.9538998007774353" y2="0.2510899007320404" id="master_svg5_5_879"><stop offset="0%" stop-color="#007B77" stop-opacity="1"/><stop offset="51.27362608909607%" stop-color="#09FFFA" stop-opacity="1"/><stop offset="100%" stop-color="#007B77" stop-opacity="1"/></linearGradient><filter id="master_svg6_236_52026" filterUnits="objectBoundingBox" color-interpolation-filters="sRGB" x="-21.760000228881836" y="-21.760000228881836" width="105.52000045776367" height="60.52000045776367"><feFlood flood-opacity="0" result="BackgroundImageFix"/><feBlend mode="normal" in="SourceGraphic" in2="BackgroundImageFix" result="shape"/><feGaussianBlur stdDeviation="5.440000057220459" result="effect1_foregroundBlur"/></filter><linearGradient x1="0.5" y1="0" x2="0.5" y2="1" id="master_svg7_5_911"><stop offset="0%" stop-color="#FFBC47" stop-opacity="0"/><stop offset="77.33401656150818%" stop-color="#FFBC47" stop-opacity="1"/><stop offset="100%" stop-color="#FFFFFF" stop-opacity="1"/></linearGradient><filter id="master_svg8_236_52027" filterUnits="objectBoundingBox" color-interpolation-filters="sRGB" x="-21.760000228881836" y="-21.760000228881836" width="105.52000045776367" height="60.52000045776367"><feFlood flood-opacity="0" result="BackgroundImageFix"/><feBlend mode="normal" in="SourceGraphic" in2="BackgroundImageFix" result="shape"/><feGaussianBlur stdDeviation="5.440000057220459" result="effect1_foregroundBlur"/></filter><linearGradient x1="0.5" y1="0" x2="0.5" y2="1" id="master_svg9_5_834"><stop offset="0%" stop-color="#00FAFF" stop-opacity="0"/><stop offset="77.33401656150818%" stop-color="#00F4FF" stop-opacity="1"/><stop offset="100%" stop-color="#FFFFFF" stop-opacity="1"/></linearGradient><filter id="master_svga_236_52028" filterUnits="objectBoundingBox" color-interpolation-filters="sRGB" x="-21.760000228881836" y="-21.760000228881836" width="105.52000045776367" height="60.52000045776367"><feFlood flood-opacity="0" result="BackgroundImageFix"/><feBlend mode="normal" in="SourceGraphic" in2="BackgroundImageFix" result="shape"/><feGaussianBlur stdDeviation="5.440000057220459" result="effect1_foregroundBlur"/></filter><linearGradient x1="0.5" y1="0" x2="0.5" y2="1" id="master_svgb_5_828"><stop offset="0%" stop-color="#00FAFF" stop-opacity="0"/><stop offset="77.33401656150818%" stop-color="#00F4FF" stop-opacity="1"/><stop offset="100%" stop-color="#FFFFFF" stop-opacity="1"/></linearGradient><filter id="master_svgc_236_52029" filterUnits="objectBoundingBox" color-interpolation-filters="sRGB" x="-21.760000228881836" y="-21.760000228881836" width="105.52000045776367" height="60.52000045776367"><feFlood flood-opacity="0" result="BackgroundImageFix"/><feBlend mode="normal" in="SourceGraphic" in2="BackgroundImageFix" result="shape"/><feGaussianBlur stdDeviation="5.440000057220459" result="effect1_foregroundBlur"/></filter><linearGradient x1="0.5" y1="0" x2="0.5" y2="1" id="master_svgd_5_846"><stop offset="0%" stop-color="#00FAFF" stop-opacity="0"/><stop offset="77.33401656150818%" stop-color="#00F4FF" stop-opacity="1"/><stop offset="100%" stop-color="#FFFFFF" stop-opacity="1"/></linearGradient></defs><g style="mix-blend-mode:passthrough"><g style="mix-blend-mode:passthrough"><g style="mix-blend-mode:passthrough" transform="matrix(1,0,0,-1,0,163.42884826660156)"><path d="M112.54599082088471,91.71442413330078L251.1609908208847,91.71442413330078L251.1609908208847,89.71442413330078L113.4309908208847,89.71442413330078L106.15899082088471,81.71442413330078L79.2725908208847,81.71442413330078L71.7383908208847,89.71442413330078L22.451890820884703,89.71442413330078L7.331320820884705,98.62222413330079L-0.000061035115295410156,123.60092413330078L1.9189908208847046,124.16422413330079L9.027710820884705,99.94412413330079L22.997190820884704,91.71442413330078L72.6021908208847,91.71442413330078L80.13629082088471,83.71442413330078L105.2739908208847,83.71442413330078L112.54599082088471,91.71442413330078ZM730.6459908208847,91.71442413330078L749.0699908208848,123.21922413330078L750.7959908208848,122.20962413330078L731.7929908208847,89.71442413330078L324.3139908208847,89.71442413330078L324.3139908208847,91.71442413330078L730.6459908208847,91.71442413330078Z" fill-rule="evenodd" fill="url(#master_svg0_5_856)" fill-opacity="1"/></g><g style="mix-blend-mode:passthrough" transform="matrix(1,0,0,-1,0,150.8833999633789)"><rect x="256.9595031738281" y="75.44169998168945" width="15" height="5.454545497894287" rx="0" fill="#00FFF7" fill-opacity="1"/></g><g style="mix-blend-mode:passthrough" transform="matrix(1,0,0,-1,0,150.8833999633789)"><rect x="280.9595031738281" y="75.44169998168945" width="15" height="5.454545497894287" rx="0" fill="#00FFF7" fill-opacity="1"/></g><g style="opacity:0.5;mix-blend-mode:passthrough" transform="matrix(1,0,0,-1,0,151.42884826660156)"><rect x="303.9595031738281" y="75.71442413330078" width="16" height="6" rx="0" fill="#00FFF7" fill-opacity="1"/></g><g style="mix-blend-mode:passthrough" transform="matrix(1,0,0,-1,0,114.42885208129883)"><path d="M516.678536140625,56.714431040649416L519.593259140625,56.70677804064941L519.601139140625,59.70676604064941L516.686413140625,59.71441604064941M527.365869140625,56.686370040649415L533.195369140625,56.67106404064941L533.203169140625,59.67105604064941L527.373769140625,59.686356040649414M540.967969140625,56.650656040649416L546.797369140625,56.63535004064941L546.805269140625,59.63533604064941L540.975769140625,59.65064604064941M554.569969140625,56.61494104064941L560.399469140625,56.59963504064942L560.407269140625,59.59962604064941L554.577869140625,59.61493604064941M568.172069140625,56.579227040649414L574.001469140625,56.56392104064941L574.009369140625,59.563906040649414L568.179969140625,59.57921604064941M581.774069140625,56.543513040649415L587.603569140625,56.52820704064941L587.611469140625,59.52819604064941L581.781969140625,59.54350604064941M595.376169140625,56.50779904064942L601.205669140625,56.49249204064942L601.213469140625,59.49248604064941L595.384069140625,59.507786040649414M608.978269140625,56.47208404064941L614.807669140625,56.45677804064941L614.815569140625,59.45676604064941L608.986069140625,59.47207604064941M622.580369140625,56.436370040649415L628.409369140625,56.42106404064941L628.4173691406249,59.42105604064941L622.588369140625,59.436356040649414M636.182369140625,56.400656040649416L642.011369140625,56.38535004064941L642.019369140625,59.38533604064941L636.190369140625,59.40064604064941M649.784369140625,56.36494104064941L655.6143691406251,56.34963504064942L655.621369140625,59.34962604064941L649.7923691406249,59.36493604064941M663.386369140625,56.329227040649414L669.216369140625,56.31392104064941L669.223369140625,59.313906040649414L663.394369140625,59.32921604064941M676.988369140625,56.293513040649415L682.818369140625,56.27820704064941L682.8253691406251,59.27819604064941L676.996369140625,59.29350604064941M690.590369140625,56.25779904064942L696.420369140625,56.242493040649414L696.428369140625,59.24248604064941L690.598369140625,59.257786040649414M704.192369140625,56.22208404064941L707.107369140625,56.214431040649416L707.115369140625,59.21441604064941L704.2003691406251,59.22207604064941" fill="url(#master_svg1_5_851)" fill-opacity="1"/></g><g style="opacity:0.5;mix-blend-mode:passthrough" transform="matrix(1,0,0,-1,0,169.42884826660156)"><path d="M0.4703903331756592,112.61072413330078L4.505525333175659,93.58100413330078L20.54021533317566,84.21442413330078L622.1175153331757,84.21442413330078L622.1175153331757,85.21442413330078L20.67561533317566,85.21442413330078L20.67561533317566,84.71442413330078L20.92781533317566,85.14616113330078L5.200955333175659,94.33288413330078L4.94875533317566,93.90115413330078L5.437885333175659,94.00486413330079L1.4486403331756592,112.81812413330078L0.4703903331756592,112.61072413330078Z" fill="#00FFF7" fill-opacity="1"/></g><g style="opacity:0.4000000059604645;mix-blend-mode:passthrough" transform="matrix(1,0,0,-1,0,181.42884826660156)"><path d="M618.5267333984375,90.71442413330078L625.5267333984375,90.71442413330078L633.2828333984374,102.71442413330078L626.2828633984375,102.71442413330078L618.5267333984375,90.71442413330078Z" fill-rule="evenodd" fill="#00C5BC" fill-opacity="1"/></g><g style="mix-blend-mode:passthrough" transform="matrix(1,0,0,-1,0,181.42884826660156)"><path d="M634.5267333984375,90.71442413330078L641.5267333984375,90.71442413330078L649.2828333984374,102.71442413330078L642.2828633984375,102.71442413330078L634.5267333984375,90.71442413330078Z" fill-rule="evenodd" fill="#00C5BC" fill-opacity="1"/></g><g style="opacity:0.4000000059604645;mix-blend-mode:passthrough" transform="matrix(1,0,0,-1,0,181.42884826660156)"><path d="M650.5267333984375,90.71442413330078L657.5267333984375,90.71442413330078L665.2828333984374,102.71442413330078L658.2828633984375,102.71442413330078L650.5267333984375,90.71442413330078Z" fill-rule="evenodd" fill="#00C5BC" fill-opacity="1"/></g><g style="mix-blend-mode:passthrough" transform="matrix(1,0,0,-1,0,181.42884826660156)"><path d="M665.5267333984375,90.71442413330078L672.5267333984375,90.71442413330078L680.2828333984374,102.71442413330078L673.2828633984375,102.71442413330078L665.5267333984375,90.71442413330078Z" fill-rule="evenodd" fill="#00C5BC" fill-opacity="1"/></g><g style="mix-blend-mode:passthrough" transform="matrix(1,0,0,-1,0,181.42884826660156)"><path d="M681.5267333984375,90.71442413330078L688.5267333984375,90.71442413330078L696.2828333984374,102.71442413330078L689.2828633984375,102.71442413330078L681.5267333984375,90.71442413330078Z" fill-rule="evenodd" fill="#00C5BC" fill-opacity="1"/></g></g><g style="mix-blend-mode:passthrough" transform="matrix(-1,0,0,1,4123.78515625,0)"><g style="mix-blend-mode:passthrough" transform="matrix(1,0,0,-1,0,163.42884826660156)"><path d="M2174.438629981041,91.71442413330078L2313.053629981041,91.71442413330078L2313.053629981041,89.71442413330078L2175.323629981041,89.71442413330078L2168.051629981041,81.71442413330078L2141.1652299810407,81.71442413330078L2133.631029981041,89.71442413330078L2084.344529981041,89.71442413330078L2069.223959981041,98.62222413330079L2061.892578125041,123.60092413330078L2063.811629981041,124.16422413330079L2070.920349981041,99.94412413330079L2084.8898299810407,91.71442413330078L2134.4948299810408,91.71442413330078L2142.028929981041,83.71442413330078L2167.166629981041,83.71442413330078L2174.438629981041,91.71442413330078ZM2792.5386299810407,91.71442413330078L2810.962629981041,123.21922413330078L2812.6886299810412,122.20962413330078L2793.685629981041,89.71442413330078L2386.206629981041,89.71442413330078L2386.206629981041,91.71442413330078L2792.5386299810407,91.71442413330078Z" fill-rule="evenodd" fill="url(#master_svg2_5_920)" fill-opacity="1"/></g><g style="mix-blend-mode:passthrough" transform="matrix(1,0,0,-1,0,150.8833999633789)"><rect x="2318.8521423339844" y="75.44169998168945" width="15" height="5.454545497894287" rx="0" fill="#00FFF7" fill-opacity="1"/></g><g style="mix-blend-mode:passthrough" transform="matrix(1,0,0,-1,0,150.8833999633789)"><rect x="2342.8521423339844" y="75.44169998168945" width="15" height="5.454545497894287" rx="0" fill="#00FFF7" fill-opacity="1"/></g><g style="opacity:0.5;mix-blend-mode:passthrough" transform="matrix(1,0,0,-1,0,151.42884826660156)"><rect x="2365.8521423339844" y="75.71442413330078" width="16" height="6" rx="0" fill="#00FFF7" fill-opacity="1"/></g><g style="mix-blend-mode:passthrough" transform="matrix(1,0,0,-1,0,114.42885208129883)"><path d="M2578.5711753007813,56.714431040649416L2581.485898300781,56.70677804064941L2581.4937783007813,59.70676604064941L2578.5790523007813,59.71441604064941M2589.258508300781,56.686370040649415L2595.0880083007814,56.67106404064941L2595.0958083007813,59.67105604064941L2589.266408300781,59.686356040649414M2602.860608300781,56.650656040649416L2608.6900083007813,56.63535004064941L2608.6979083007814,59.63533604064941L2602.868408300781,59.65064604064941M2616.462608300781,56.61494104064941L2622.2921083007814,56.59963504064942L2622.299908300781,59.59962604064941L2616.470508300781,59.61493604064941M2630.064708300781,56.579227040649414L2635.894108300781,56.56392104064941L2635.9020083007813,59.563906040649414L2630.072608300781,59.57921604064941M2643.6667083007815,56.543513040649415L2649.4962083007813,56.52820704064941L2649.5041083007814,59.52819604064941L2643.674608300781,59.54350604064941M2657.268808300781,56.50779904064942L2663.0983083007814,56.49249204064942L2663.106108300781,59.49248604064941L2657.276708300781,59.507786040649414M2670.870908300781,56.47208404064941L2676.700308300781,56.45677804064941L2676.7082083007813,59.45676604064941L2670.8787083007815,59.47207604064941M2684.473008300781,56.436370040649415L2690.3020083007814,56.42106404064941L2690.310008300781,59.42105604064941L2684.4810083007815,59.436356040649414M2698.075008300781,56.400656040649416L2703.9040083007812,56.38535004064941L2703.912008300781,59.38533604064941L2698.0830083007813,59.40064604064941M2711.6770083007814,56.36494104064941L2717.5070083007813,56.34963504064942L2717.5140083007814,59.34962604064941L2711.685008300781,59.36493604064941M2725.2790083007812,56.329227040649414L2731.109008300781,56.31392104064941L2731.1160083007812,59.313906040649414L2725.287008300781,59.32921604064941M2738.881008300781,56.293513040649415L2744.711008300781,56.27820704064941L2744.718008300781,59.27819604064941L2738.8890083007814,59.29350604064941M2752.4830083007814,56.25779904064942L2758.3130083007813,56.242493040649414L2758.321008300781,59.24248604064941L2752.4910083007812,59.257786040649414M2766.0850083007813,56.22208404064941L2769.0000083007812,56.214431040649416L2769.008008300781,59.21441604064941L2766.093008300781,59.22207604064941" fill="url(#master_svg3_5_916)" fill-opacity="1"/></g><g style="opacity:0.5;mix-blend-mode:passthrough" transform="matrix(1,0,0,-1,0,169.42884826660156)"><path d="M2062.363029493332,112.61072413330078L2066.398164493332,93.58100413330078L2082.432854493332,84.21442413330078L2684.010154493332,84.21442413330078L2684.010154493332,85.21442413330078L2082.568254493332,85.21442413330078L2082.568254493332,84.71442413330078L2082.820454493332,85.14616113330078L2067.0935944933317,94.33288413330078L2066.841394493332,93.90115413330078L2067.3305244933317,94.00486413330079L2063.341279493332,112.81812413330078L2062.363029493332,112.61072413330078Z" fill="#00FFF7" fill-opacity="1"/></g><g style="opacity:0.4000000059604645;mix-blend-mode:passthrough" transform="matrix(1,0,0,-1,0,181.42884826660156)"><path d="M2680.4193725585938,90.71442413330078L2687.4193725585938,90.71442413330078L2695.175472558594,102.71442413330078L2688.175502558594,102.71442413330078L2680.4193725585938,90.71442413330078Z" fill-rule="evenodd" fill="#00C5BC" fill-opacity="1"/></g><g style="mix-blend-mode:passthrough" transform="matrix(1,0,0,-1,0,181.42884826660156)"><path d="M2696.4193725585938,90.71442413330078L2703.4193725585938,90.71442413330078L2711.175472558594,102.71442413330078L2704.175502558594,102.71442413330078L2696.4193725585938,90.71442413330078Z" fill-rule="evenodd" fill="#00C5BC" fill-opacity="1"/></g><g style="opacity:0.4000000059604645;mix-blend-mode:passthrough" transform="matrix(1,0,0,-1,0,181.42884826660156)"><path d="M2712.4193725585938,90.71442413330078L2719.4193725585938,90.71442413330078L2727.175472558594,102.71442413330078L2720.175502558594,102.71442413330078L2712.4193725585938,90.71442413330078Z" fill-rule="evenodd" fill="#00C5BC" fill-opacity="1"/></g><g style="mix-blend-mode:passthrough" transform="matrix(1,0,0,-1,0,181.42884826660156)"><path d="M2727.4193725585938,90.71442413330078L2734.4193725585938,90.71442413330078L2742.175472558594,102.71442413330078L2735.175502558594,102.71442413330078L2727.4193725585938,90.71442413330078Z" fill-rule="evenodd" fill="#00C5BC" fill-opacity="1"/></g><g style="mix-blend-mode:passthrough" transform="matrix(1,0,0,-1,0,181.42884826660156)"><path d="M2743.4193725585938,90.71442413330078L2750.4193725585938,90.71442413330078L2758.175472558594,102.71442413330078L2751.175502558594,102.71442413330078L2743.4193725585938,90.71442413330078Z" fill-rule="evenodd" fill="#00C5BC" fill-opacity="1"/></g></g><g style="mix-blend-mode:passthrough" filter="url(#master_svg4_236_52016)"><path d="M798.36894609375,9.662197625L786.08734609375,15.919985624999999L746.17724609375,90.827115625L1315.7412460937499,90.827115625L1275.28324609375,14.892095625L1264.78124609375,9.5410466296Q1251.04224609375,10.896505625,1236.99624609375,12.090885625Q1222.95124609375,13.285275625,1208.63824609375,14.315275625Q1194.32624609375,15.345265625,1179.78624609375,16.208015625Q1165.24724609375,17.070755625,1150.52024609375,17.763845625000002Q1135.79424609375,18.456945625,1120.92224609375,18.978455625000002Q1106.05024609375,19.499965625,1091.07424609375,19.848415625Q1076.09724609375,20.196915625000003,1061.0582460937499,20.371415624999997Q1046.01924609375,20.545915625,1030.95924609375,20.545915625Q1015.98324609375,20.545915625,1001.02824609375,20.373315625Q986.07324609375,20.200815625,971.1802460937499,19.856215625Q956.28624609375,19.511635625,941.49624609375,18.995935625Q926.70524609375,18.480225625,912.05724609375,17.794815625Q897.41024609375,17.109415625,882.94624609375,16.256205625Q868.4822460937501,15.402995624999999,854.24224609375,14.384315625Q840.00174609375,13.365635625,826.02384609375,12.184295625Q812.04594609375,11.002955625,798.36894609375,9.662197625Z" fill-rule="evenodd" fill="#FFFFFF" fill-opacity="0.009999999776482582"/><path d="M798.82294609375,10.553205625L786.54134609375,16.810985625L786.08734609375,15.919985624999999L786.96994609375,16.390195625L747.05979609375,91.297315625L746.17724609375,90.827115625L746.17724609375,89.827115625L1315.7412460937499,89.827115625L1315.7412460937499,90.827115625L1314.85824609375,91.297315625L1274.4012460937502,15.362315625L1275.28324609375,14.892095625L1274.82924609375,15.783105625000001L1264.32724609375,10.432052625L1264.78124609375,9.5410466296L1264.87924609375,10.536215625Q1209.70224609375,15.979535625,1150.56824609375,18.762745625Q1091.4332460937499,21.545915625,1030.95924609375,21.545915625Q970.82524609375,21.545915625,912.0112460937501,18.793725625Q853.19324609375,16.041445625,798.27144609375,10.657425625L798.36894609375,9.662197625L798.82294609375,10.553205625ZM797.91494609375,8.771191625L798.17554609375,8.638440625L798.46654609375,8.666967625Q853.33724609375,14.045985625,912.10424609375,16.795915625Q970.8722460937499,19.545915625,1030.95924609375,19.545915625Q1091.38624609375,19.545915625,1150.47324609375,16.764955625Q1209.55624609375,13.984215625000001,1264.6832460937499,8.545877625L1264.97424609375,8.517135625L1276.01824609375,14.144025625000001L1317.40724609375,91.827115625L744.51137609375,91.827115625L785.35284609375,15.171905625L797.91494609375,8.771191625Z" fill="url(#master_svg5_5_879)" fill-opacity="1"/></g><g style="opacity:0.30000001192092896;mix-blend-mode:passthrough"><path d="M792.34977265625,0.698230875L778.99417265625,8.119241875L737.95947265625,92.680671875L1323.95947265625,92.680671875L1282.89747265625,8.062441875000001L1269.3114726562499,0.513488995Q1255.23847265625,2.012311875,1240.85547265625,3.332941875Q1226.47247265625,4.653561875,1211.81847265625,5.792371875Q1197.1654726562501,6.931171875,1182.2814726562501,7.885011875Q1167.39747265625,8.838841875,1152.32347265625,9.605081875Q1137.25047265625,10.371331875,1122.02847265625,10.947871875Q1106.80747265625,11.524371875,1091.48047265625,11.909671875Q1076.15347265625,12.294871875,1060.7624726562499,12.487771875Q1045.37147265625,12.680671875,1029.95947265625,12.680671875Q1014.66647265625,12.680671875,999.39447265625,12.490771875Q984.12247265625,12.300871875,968.91247265625,11.921471875Q953.7024726562499,11.542171875,938.59647265625,10.974471875Q923.48947265625,10.406821875,908.52747265625,9.652301875Q893.56547265625,8.897781875,878.78847265625,7.958481875Q864.01147265625,7.019171875,849.46047265625,5.897631875Q834.90827265625,4.776091875,820.62097265625,3.475361875Q806.33367265625,2.174631875,792.34977265625,0.698230875Z" fill-rule="evenodd" fill="#FFFFFF" fill-opacity="0.009999999776482582"/><path d="M792.59257265625,1.135291875L779.23697265625,8.556301875L778.99417265625,8.119241875L779.44397265625,8.337531875L738.40930565625,92.898971875L737.95947265625,92.680671875L737.95947265625,92.180671875L1323.95947265625,92.180671875L1323.95947265625,92.680671875L1323.50947265625,92.898971875L1282.44747265625,8.280721875000001L1282.89747265625,8.062441875000001L1282.6544726562502,8.499501875L1269.06847265625,0.950550875L1269.3114726562499,0.513488995L1269.36447265625,1.010676875Q1212.86147265625,7.028301875,1152.3484726562501,10.104441875Q1091.83447265625,13.180671875,1029.95947265625,13.180671875Q968.56447265625,13.180671875,908.50247265625,10.151671875Q848.43647265625,7.122561875,792.29727265625,1.1954668750000002L792.34977265625,0.698230875L792.59257265625,1.135291875ZM792.10687265625,0.261169875L792.24507265625,0.18439887500000002L792.40227265625,0.200993875Q848.5144726562501,6.125241875,908.55347265625,9.152941875Q968.58847265625,12.180671875,1029.95947265625,12.180671875Q1091.80747265625,12.180671875,1152.29847265625,9.105731875Q1212.78347265625,6.031001875,1269.25847265625,0.016300874999999992L1269.4154726562501,-0.00046512499999995516L1283.27847265625,7.702081875L1324.75747265625,93.180671875L737.16107865625,93.180671875L778.61327265625,7.758881875L792.10687265625,0.261169875Z" fill="#007B77" fill-opacity="1"/></g><g style="mix-blend-mode:passthrough" filter="url(#master_svg6_236_52026)"><ellipse cx="854.95947265625" cy="62.0458984375" rx="31" ry="8.5" fill="#FFFFFF" fill-opacity="0.012000000104308128"/><ellipse cx="854.95947265625" cy="62.0458984375" rx="31" ry="8.5" stroke="url(#master_svg7_5_911)" fill-opacity="0" fill="none" stroke-width="3"/></g><g style="mix-blend-mode:passthrough" filter="url(#master_svg8_236_52027)"><ellipse cx="965.95947265625" cy="62.0458984375" rx="31" ry="8.5" fill="#FFFFFF" fill-opacity="0.012000000104308128"/><ellipse cx="965.95947265625" cy="62.0458984375" rx="31" ry="8.5" stroke="url(#master_svg9_5_834)" fill-opacity="0" fill="none" stroke-width="3"/></g><g style="mix-blend-mode:passthrough" filter="url(#master_svga_236_52028)"><ellipse cx="1078.95947265625" cy="62.0458984375" rx="31" ry="8.5" fill="#FFFFFF" fill-opacity="0.012000000104308128"/><ellipse cx="1078.95947265625" cy="62.0458984375" rx="31" ry="8.5" stroke="url(#master_svgb_5_828)" fill-opacity="0" fill="none" stroke-width="3"/></g><g style="mix-blend-mode:passthrough" filter="url(#master_svgc_236_52029)"><ellipse cx="1191.95947265625" cy="62.0458984375" rx="31" ry="8.5" fill="#FFFFFF" fill-opacity="0.012000000104308128"/><ellipse cx="1191.95947265625" cy="62.0458984375" rx="31" ry="8.5" stroke="url(#master_svgd_5_846)" fill-opacity="0" fill="none" stroke-width="3"/></g></g></svg>