<svg xmlns="http://www.w3.org/2000/svg" xmlns:xlink="http://www.w3.org/1999/xlink" fill="none" version="1.1" width="1940.951904296875" height="72" viewBox="0 0 1940.951904296875 72"><defs><filter id="master_svg0_236_51740" filterUnits="objectBoundingBox" color-interpolation-filters="sRGB" x="0" y="0" width="651.9600830078125" height="70"><feFlood flood-opacity="0" result="BackgroundImageFix"/><feBlend mode="normal" in="SourceGraphic" in2="BackgroundImageFix" result="shape"/><feColorMatrix in="SourceAlpha" type="matrix" result="hardAlpha" values="0 0 0 0 0 0 0 0 0 0 0 0 0 0 0 0 0 0 127 0"/><feOffset dy="0" dx="0"/><feGaussianBlur stdDeviation="2.5"/><feComposite in2="hardAlpha" operator="arithmetic" k2="-1" k3="1"/><feColorMatrix type="matrix" values="0 0 0 0 0 0 0 0 0 1 0 0 0 0 0.9697248339653015 0 0 0 1 0"/><feBlend mode="normal" in2="shape" result="effect1_innerShadow"/></filter><linearGradient x1="0.5" y1="-0.21764002740383148" x2="0.5" y2="1" id="master_svg1_236_50819"><stop offset="0%" stop-color="#006964" stop-opacity="1"/><stop offset="100%" stop-color="#0079BA" stop-opacity="0"/></linearGradient><linearGradient x1="0.9819040298461914" y1="0" x2="0.5" y2="1" id="master_svg2_5_056"><stop offset="0%" stop-color="#00BFFF" stop-opacity="0"/><stop offset="100%" stop-color="#00FFF7" stop-opacity="1"/></linearGradient><linearGradient x1="0.9819040298461914" y1="0" x2="0.5" y2="1" id="master_svg3_5_073"><stop offset="0%" stop-color="#00BFFF" stop-opacity="0"/><stop offset="100%" stop-color="#00FFF7" stop-opacity="1"/></linearGradient></defs><g style="mix-blend-mode:passthrough"><g style="mix-blend-mode:passthrough" filter="url(#master_svg0_236_51740)"><path d="M644.489013671875,1L1296.449013671875,1L1296.449013671875,9.06216L1251.909013671875,48.4502C1235.479013671875,62.9798,1214.302013671875,71,1192.369013671875,71C1188.433013671875,67.1535,1183.148013671875,65,1177.645013671875,65L754.274013671875,65C748.772013671875,65,743.487613671875,67.1536,739.552713671875,71C717.166613671875,71,695.737413671875,61.9215,680.164213671875,45.8399L644.489013671875,9L644.489013671875,1Z" fill-rule="evenodd" fill="url(#master_svg1_236_50819)" fill-opacity="1"/><path d="M643.489013671875,9L643.489013671875,0L1297.449013671875,0L1297.449013671875,9.51277L1252.5710136718749,49.1993Q1240.112013671875,60.2175,1224.557013671875,66.1089Q1209.002013671875,72,1192.369013671875,72L1191.962013671875,72L1191.670013671875,71.7152Q1188.8580136718751,68.9672,1185.217013671875,67.4836Q1181.576013671875,66,1177.645013671875,66L754.274013671875,66Q750.343013671875,66,746.7030136718749,67.4836Q743.062713671875,68.9673,740.251713671875,71.7151L739.960313671875,72L739.552713671875,72Q722.560013671875,72,706.913513671875,65.3713Q691.267013671875,58.7426,679.445913671875,46.5356L643.489013671875,9.40484L643.489013671875,9ZM645.489013671875,9L644.489013671875,9L645.207384671875,8.30434L680.882613671875,45.1443Q692.421113671875,57.0594,707.693713671875,63.5298Q722.966213671875,70,739.552713671875,70L739.552713671875,71L738.853713671875,70.2849Q741.944913671875,67.2631,745.9480136718751,65.6316Q749.951013671875,64,754.274013671875,64L1177.645013671875,64Q1181.968013671875,64,1185.972013671875,65.6315Q1189.976013671875,67.2629,1193.068013671875,70.2848L1192.369013671875,71L1192.369013671875,70Q1208.635013671875,70.0001,1223.848013671875,64.2385Q1239.0610136718751,58.4769,1251.246013671875,47.7011L1295.787013671875,8.31306L1296.449013671875,9.06216L1295.449013671875,9.06216L1295.449013671875,1L1296.449013671875,1L1296.449013671875,2L644.489013671875,2L644.489013671875,1L645.489013671875,1L645.489013671875,9Z" fill="#035A89" fill-opacity="1"/></g><g style="mix-blend-mode:passthrough"><rect x="190.489013671875" y="22.2724609375" width="15" height="5.454545497894287" rx="0" fill="#00FFF7" fill-opacity="1"/></g><g style="mix-blend-mode:passthrough"><rect x="214.489013671875" y="22.2724609375" width="15" height="5.454545497894287" rx="0" fill="#00FFF7" fill-opacity="1"/></g><g style="opacity:0.5;mix-blend-mode:passthrough"><rect x="237.489013671875" y="22" width="16" height="6" rx="0" fill="#00FFF7" fill-opacity="1"/></g><g style="mix-blend-mode:passthrough"><path d="M450.20807715625,40.000005L453.12280015625,39.992352L453.13068015625,42.99234L450.21595415625,42.99999M460.89541015625,39.971944L466.72491015625,39.956638L466.73271015625,42.95663L460.90331015625,42.97193M474.49751015625,39.93623L480.32691015625,39.920924L480.33481015625,42.92091L474.50531015625,42.93622M488.09951015625,39.900515L493.92901015625,39.885209L493.93681015625,42.8852L488.10741015625,42.90051M501.70161015625,39.864801L507.53101015625,39.849495L507.53891015625,42.84948L501.70951015625,42.86479M515.30361015625,39.829087L521.13311015625,39.813781L521.14101015625,42.81377L515.31151015625,42.82908M528.90571015625,39.793373L534.73521015625,39.778066L534.74301015625,42.778059999999996L528.91361015625,42.79336M542.50781015625,39.757658L548.33721015625,39.742352L548.34511015625,42.74234L542.51561015625,42.75765M556.10991015625,39.721944L561.93891015625,39.706638L561.9469101562499,42.70663L556.11791015625,42.72193M569.71191015625,39.68623L575.54091015625,39.670924L575.54891015625,42.67091L569.71991015625,42.68622M583.31391015625,39.650515L589.1439101562501,39.635209L589.15091015625,42.6352L583.3219101562499,42.65051M596.91591015625,39.614801L602.74591015625,39.599495L602.75291015625,42.59948L596.92391015625,42.61479M610.51791015625,39.579087L616.34791015625,39.563781L616.3549101562501,42.56377L610.52591015625,42.57908M624.11991015625,39.543373L629.94991015625,39.528067L629.95791015625,42.528059999999996L624.12791015625,42.54336M637.72191015625,39.507658L640.63691015625,39.500005L640.64491015625,42.49999L637.7299101562501,42.50765" fill="url(#master_svg2_5_056)" fill-opacity="1"/></g><g style="opacity:0.5;mix-blend-mode:passthrough"><path d="M-0.00011132812499997646,40.8963L4.035023671875,21.86658L20.069713671875,12.5L555.489013671875,12.5L555.489013671875,13.5L20.205113671875,13.5L20.205113671875,13L20.457313671875,13.431737L4.730453671875,22.61846L4.478253671875001,22.18673L4.967383671875,22.29044L0.978138671875,41.1037L-0.00011132812499997646,40.8963Z" fill="#00FFF7" fill-opacity="1"/></g><g style="mix-blend-mode:passthrough"><path d="M661.966913671875,54.948457812499996L650.434553671875,41.4484778125L654.996613671875,37.5513378125L666.529013671875,51.0513578125L661.966913671875,54.948457812499996Z" fill="#00C5BC" fill-opacity="1"/></g><g style="mix-blend-mode:passthrough"><path d="M568.05615234375,7L575.05615234375,7L582.81225234375,19L575.81228234375,19L568.05615234375,7Z" fill-rule="evenodd" fill="#00C5BC" fill-opacity="1"/></g><g style="opacity:0.4000000059604645;mix-blend-mode:passthrough"><path d="M584.056396484375,7L591.056396484375,7L598.812496484375,19L591.812526484375,19L584.056396484375,7Z" fill-rule="evenodd" fill="#00C5BC" fill-opacity="1"/></g><g style="mix-blend-mode:passthrough"><path d="M599.056396484375,7L606.056396484375,7L613.812496484375,19L606.812526484375,19L599.056396484375,7Z" fill-rule="evenodd" fill="#00C5BC" fill-opacity="1"/></g><g style="mix-blend-mode:passthrough"><path d="M615.056396484375,7L622.056396484375,7L629.812496484375,19L622.812526484375,19L615.056396484375,7Z" fill-rule="evenodd" fill="#00C5BC" fill-opacity="1"/></g><g style="mix-blend-mode:passthrough" transform="matrix(-1,0,0,1,3525.52490234375,0)"><rect x="1762.762451171875" y="22.2724609375" width="15" height="5.454545497894287" rx="0" fill="#00FFF7" fill-opacity="1"/></g><g style="mix-blend-mode:passthrough" transform="matrix(-1,0,0,1,3477.52490234375,0)"><rect x="1738.762451171875" y="22.2724609375" width="15" height="5.454545497894287" rx="0" fill="#00FFF7" fill-opacity="1"/></g><g style="opacity:0.5;mix-blend-mode:passthrough" transform="matrix(-1,0,0,1,3431.52490234375,0)"><rect x="1715.762451171875" y="22" width="16" height="6" rx="0" fill="#00FFF7" fill-opacity="1"/></g><g style="mix-blend-mode:passthrough" transform="matrix(-1,0,0,1,3007.53662109375,0)"><path d="M1504.493477546875,40.000005L1507.408200546875,39.992352L1507.416080546875,42.99234L1504.501354546875,42.99999M1515.180810546875,39.971944L1521.010310546875,39.956638L1521.018110546875,42.95663L1515.188710546875,42.97193M1528.782910546875,39.93623L1534.612310546875,39.920924L1534.6202105468751,42.92091L1528.790710546875,42.93622M1542.384910546875,39.900515L1548.2144105468751,39.885209L1548.222210546875,42.8852L1542.392810546875,42.90051M1555.987010546875,39.864801L1561.816410546875,39.849495L1561.824310546875,42.84948L1555.994910546875,42.86479M1569.589010546875,39.829087L1575.418510546875,39.813781L1575.426410546875,42.81377L1569.596910546875,42.82908M1583.191110546875,39.793373L1589.020610546875,39.778066L1589.028410546875,42.778059999999996L1583.199010546875,42.79336M1596.793210546875,39.757658L1602.622610546875,39.742352L1602.630510546875,42.74234L1596.801010546875,42.75765M1610.395310546875,39.721944L1616.224310546875,39.706638L1616.232310546875,42.70663L1610.403310546875,42.72193M1623.997310546875,39.68623L1629.826310546875,39.670924L1629.834310546875,42.67091L1624.005310546875,42.68622M1637.599310546875,39.650515L1643.429310546875,39.635209L1643.4363105468751,42.6352L1637.607310546875,42.65051M1651.201310546875,39.614801L1657.031310546875,39.599495L1657.038310546875,42.59948L1651.209310546875,42.61479M1664.803310546875,39.579087L1670.633310546875,39.563781L1670.640310546875,42.56377L1664.8113105468751,42.57908M1678.405310546875,39.543373L1684.235310546875,39.528067L1684.243310546875,42.528059999999996L1678.413310546875,42.54336M1692.007310546875,39.507658L1694.922310546875,39.500005L1694.930310546875,42.49999L1692.015310546875,42.50765" fill="url(#master_svg3_5_073)" fill-opacity="1"/></g><g style="opacity:0.5;mix-blend-mode:passthrough" transform="matrix(-1,0,0,1,3880.92529296875,0)"><path d="M1939.973521484375,40.8963L1944.008656484375,21.86658L1960.043346484375,12.5L2483.436646484375,12.5L2483.436646484375,13.5L1960.178746484375,13.5L1960.178746484375,13L1960.430946484375,13.431737L1944.704086484375,22.61846L1944.451886484375,22.18673L1944.941016484375,22.29044L1940.951771484375,41.1037L1939.973521484375,40.8963Z" fill="#00FFF7" fill-opacity="1"/></g><g style="mix-blend-mode:passthrough" transform="matrix(-1,0,0,1,2570.97802734375,0)"><path d="M1294.966913671875,54.948457812499996L1283.434553671875,41.4484778125L1287.996613671875,37.5513378125L1299.529013671875,51.0513578125L1294.966913671875,54.948457812499996Z" fill="#00C5BC" fill-opacity="1"/></g><g style="opacity:0.4000000059604645;mix-blend-mode:passthrough" transform="matrix(-1,0,0,1,2802.39013671875,0)"><path d="M1401.195068359375,7L1408.195068359375,7L1415.951168359375,19L1408.951198359375,19L1401.195068359375,7Z" fill-rule="evenodd" fill="#00C5BC" fill-opacity="1"/></g><g style="mix-blend-mode:passthrough" transform="matrix(-1,0,0,1,2770.39013671875,0)"><path d="M1385.195068359375,7L1392.195068359375,7L1399.951168359375,19L1392.951198359375,19L1385.195068359375,7Z" fill-rule="evenodd" fill="#00C5BC" fill-opacity="1"/></g><g style="opacity:0.4000000059604645;mix-blend-mode:passthrough" transform="matrix(-1,0,0,1,2738.39013671875,0)"><path d="M1369.195068359375,7L1376.195068359375,7L1383.951168359375,19L1376.951198359375,19L1369.195068359375,7Z" fill-rule="evenodd" fill="#00C5BC" fill-opacity="1"/></g><g style="mix-blend-mode:passthrough" transform="matrix(-1,0,0,1,2708.39013671875,0)"><path d="M1354.195068359375,7L1361.195068359375,7L1368.951168359375,19L1361.951198359375,19L1354.195068359375,7Z" fill-rule="evenodd" fill="#00C5BC" fill-opacity="1"/></g><g style="mix-blend-mode:passthrough" transform="matrix(-1,0,0,1,2676.39013671875,0)"><path d="M1338.195068359375,7L1345.195068359375,7L1352.951168359375,19L1345.951198359375,19L1338.195068359375,7Z" fill-rule="evenodd" fill="#00C5BC" fill-opacity="1"/></g><g style="opacity:0.4000000059604645;mix-blend-mode:passthrough"><path d="M552.05615234375,7L559.05615234375,7L566.81225234375,19L559.81228234375,19L552.05615234375,7Z" fill-rule="evenodd" fill="#00C5BC" fill-opacity="1"/></g></g></svg>